<svg width="1440" height="502" viewBox="0 0 1440 502" fill="none" xmlns="http://www.w3.org/2000/svg">
<path d="M1337.72 82.4322C1365.93 87.9095 1394.15 94.4824 1422.36 99.9598H1440V502H720H0V82.4322C3.527 84.6231 15.5275 76.9548 35.3718 82.4322C42.8483 84.4958 52.8267 86.715 62.8321 88.7381C79.383 92.0848 96.0076 94.8951 101.503 95.5779C106.794 96.6734 111.202 97.7688 115.611 99.9598C122.665 96.6734 217.894 95.5779 226.712 95.5779C231.12 95.5779 235.529 94.4824 239.056 92.2915C245.228 89.005 251.401 87.9095 258.455 87.9095C269.036 87.9095 280.498 89.005 291.079 83.5276C299.015 79.1457 310.478 79.1457 320.177 78.0503C323.704 78.0503 327.231 78.0503 330.758 76.9548C336.93 75.8593 343.103 75.8593 349.275 78.0503C354.565 79.1457 360.738 79.1457 366.028 79.1457C382.781 80.2412 398.653 81.3367 415.406 82.4322C421.578 82.4322 426.869 83.5276 432.159 84.6231H446.267C455.085 83.5276 464.784 83.5276 473.602 82.4322C476.247 82.4322 478.01 81.3367 480.656 81.3367C487.71 81.3367 494.764 80.2412 500.936 81.3367C512.399 83.5276 523.861 81.3367 535.324 80.2412C542.378 80.2412 548.55 79.1457 554.723 78.0503C558.25 81.3367 560.013 84.6231 561.777 87.9095C561.777 86.8141 562.659 84.6231 562.659 83.5276C609.391 94.4824 656.124 87.9095 705.502 68.191C713.438 72.5729 723.137 79.1457 733.718 84.6231C745.181 91.196 756.644 97.7688 772.515 90.1005C777.806 87.9095 785.741 87.9095 791.914 89.005C800.731 91.196 807.785 89.005 815.721 83.5276C825.42 75.8593 835.119 74.7638 844.819 81.3367C848.346 83.5276 854.518 84.6231 859.808 84.6231C873.916 84.6231 888.906 80.2412 901.251 89.005C902.132 90.1005 904.778 89.005 907.423 89.005C923.293 87.9096 938.282 86.8142 953.271 85.7188L953.274 85.7186C956.801 85.7186 961.21 86.8141 965.618 87.9095C971.791 89.005 1139.32 107.628 1148.14 102.151C1149.9 99.9598 1152.55 98.8643 1154.31 98.8643C1162.25 98.8643 1171.07 99.9598 1179 99.9598C1186.94 99.9598 1194.87 98.8643 1201.93 97.7688L1244.25 87.9095C1251.31 85.7186 1258.36 83.5276 1263.65 79.1457C1270.7 73.6683 1277.76 70.3819 1285.69 69.2864C1289.22 68.191 1292.75 67.0955 1297.16 66C1307.74 78.0503 1323.61 79.1457 1337.72 82.4322Z" fill="#DBEFEE"/>
<g opacity="0.6">
<path d="M1142.86 15.9201C1142.28 9.76202 1139.39 7.19616 1135.33 10.7884C1132.44 12.8411 1131.28 16.4333 1131.28 21.0518C1131.28 23.6177 1131.86 26.6967 1131.86 30.8021C1131.86 33.368 1131.86 37.4733 1131.86 41.0655C1132.44 46.1973 1136.49 49.7895 1141.12 49.2763C1144.02 48.7631 1145.18 45.6841 1144.6 39.526C1144.02 31.8284 1143.44 24.1308 1142.86 16.4333V15.9201Z" fill="#E9C330"/>
<path d="M1073.97 88.7936C1076.28 89.3068 1081.49 84.1751 1083.23 85.2014C1085.55 73.9116 1085.55 63.135 1086.13 52.3584C1086.13 47.2267 1083.81 45.6871 1080.34 47.7398C1078.6 48.7662 1076.86 50.3057 1075.12 51.8452C1069.33 56.9769 1068.75 59.5428 1070.49 68.7799C1071.65 75.4511 1073.39 82.1224 1074.55 89.3068L1073.97 88.7936Z" fill="#E9C330"/>
<path d="M1017.16 88.3561C1014.27 87.8429 1012.53 89.8956 1013.11 94.001C1013.69 99.1327 1013.69 103.751 1014.27 108.883C1014.27 108.883 1014.27 108.883 1013.69 108.883C1013.69 112.988 1013.69 117.094 1014.27 121.199C1015.43 128.384 1019.48 130.949 1023.54 127.357C1026.43 125.304 1028.17 121.712 1028.17 117.094C1028.17 112.475 1028.17 107.343 1028.17 102.725C1027.59 95.0273 1022.96 88.3561 1017.16 87.3297V88.3561Z" fill="#E9C330"/>
<path d="M1029.39 141.201C1029.39 137.609 1026.49 136.07 1022.44 136.07C1018.96 136.07 1017.81 137.609 1017.81 142.228C1017.81 145.82 1017.81 149.412 1017.81 153.004C1017.81 153.004 1017.81 153.004 1018.38 153.004C1018.38 156.597 1018.38 159.676 1018.38 163.268C1018.38 164.807 1018.96 167.373 1020.7 168.4C1023.6 170.452 1027.07 168.4 1029.97 167.373C1032.86 166.347 1033.44 164.294 1032.86 161.728C1031.71 155.057 1029.97 148.899 1029.97 142.228L1029.39 141.201Z" fill="#E9C330"/>
<path d="M1032.26 69.7719C1035.74 69.7719 1039.21 44.6265 1038.06 37.9552C1038.06 35.9025 1036.9 33.8498 1036.32 31.7972C1034.58 28.2049 1031.11 25.6391 1028.79 26.6654C1025.31 28.2049 1024.74 31.7972 1024.74 35.9025C1024.74 44.6265 1024.74 53.8636 1024.74 62.5875C1024.74 67.7192 1027.63 69.2588 1032.26 69.2588V69.7719Z" fill="#E9C330"/>
<path d="M1054.82 101.63C1054.25 95.4721 1053.09 89.314 1053.09 82.6427C1053.09 79.0505 1051.93 76.9978 1049.61 77.511C1046.14 78.5374 1042.66 80.5901 1039.77 82.6427C1039.19 83.1559 1038.03 87.2613 1038.61 88.2876C1041.5 92.393 1040.35 97.0116 1040.35 101.63C1040.35 104.709 1040.35 107.788 1040.92 110.867C1041.5 114.459 1042.66 115.999 1045.56 116.512C1051.35 117.025 1055.98 109.328 1054.82 101.117V101.63Z" fill="#E9C330"/>
<path d="M1152.16 145.733C1149.84 144.706 1148.11 144.706 1146.95 147.272C1143.47 154.97 1140 162.667 1137.1 170.365C1136.52 171.904 1136.52 175.497 1137.68 177.036C1140.58 183.194 1148.69 183.194 1152.74 177.036C1155.63 169.852 1158.53 162.154 1157.95 152.404C1157.37 148.298 1155.63 146.246 1152.74 145.219L1152.16 145.733Z" fill="#E9C330"/>
<path d="M1103.5 35.8994C1101.76 41.0311 1100.6 45.6497 1099.44 50.7814C1098.28 55.9131 1097.7 61.558 1096.55 67.2029C1094.23 75.9269 1097.7 82.5981 1100.6 89.2694C1102.34 92.3484 1104.07 92.8616 1106.39 89.7825C1108.13 86.7035 1109.29 83.1113 1111.6 80.5454C1116.24 74.3874 1117.97 66.1766 1117.97 57.4527C1118.55 46.1629 1116.82 34.8731 1104.07 35.8994H1103.5Z" fill="#E9C330"/>
<path d="M1127.81 80.5461C1126.66 80.5461 1126.08 81.0592 1124.92 81.5724C1124.34 89.27 1124.34 96.9676 1123.76 104.152C1123.18 113.902 1122.02 123.653 1121.44 133.403C1120.86 139.048 1124.34 143.666 1129.55 144.179C1132.45 144.179 1133.61 142.127 1134.18 135.969C1135.34 129.297 1136.5 122.113 1137.08 115.442C1138.24 108.771 1139.4 101.586 1139.98 94.9149C1140.56 82.5988 1136.5 77.9802 1127.81 80.0329V80.5461Z" fill="#E9C330"/>
<path d="M1056.57 131.358C1051.93 130.845 1048.46 134.437 1047.88 141.622C1047.88 145.727 1047.88 149.832 1047.88 154.451C1047.88 154.451 1047.88 154.451 1047.3 154.451C1047.3 158.043 1046.72 161.635 1046.72 165.228C1046.72 173.951 1052.51 179.596 1058.31 177.544C1059.46 177.031 1061.2 174.465 1061.2 172.925C1061.78 162.662 1061.78 152.911 1062.36 142.648C1062.36 135.464 1060.62 132.385 1055.99 131.871L1056.57 131.358Z" fill="#E9C330"/>
<path d="M1102.33 134.512C1101.17 128.867 1101.17 122.709 1100.59 117.064C1100.01 109.88 1098.27 110.393 1092.48 110.393C1080.9 110.393 1085.53 133.486 1085.53 139.13C1086.11 147.341 1086.69 155.552 1087.85 163.763C1088.43 169.408 1089.59 170.434 1093.64 168.381C1096.54 166.842 1099.43 165.302 1102.91 163.763C1107.54 161.71 1107.54 160.171 1106.38 154.012C1104.64 147.341 1103.49 140.67 1102.33 133.999V134.512Z" fill="#E9C330"/>
<path d="M1061.82 43.6756C1065.29 44.1888 1067.61 37.5175 1067.61 37.5175C1067.61 37.5175 1071.09 35.4649 1071.09 32.899C1071.09 26.2278 1071.09 20.0697 1071.09 13.3984C1071.09 11.3458 1070.51 8.77989 1069.93 6.7272C1068.77 2.62182 1065.29 -0.457217 1062.98 0.0559556C1059.5 0.569128 1058.34 4.67451 1057.77 8.26672C1056.61 16.9906 1056.03 25.7146 1054.87 34.9517C1054.29 39.5702 1056.61 42.1361 1061.82 43.1624V43.6756Z" fill="#E9C330"/>
<path d="M1206.58 195.029C1208.32 189.897 1209.48 185.278 1210.64 180.147C1211.8 175.015 1212.38 169.37 1213.53 163.725C1215.85 155.001 1212.38 148.33 1209.48 141.659C1207.74 138.58 1206.01 138.067 1203.69 141.146C1201.95 144.225 1200.79 147.817 1198.48 150.383C1193.84 156.541 1192.11 164.751 1192.11 173.475C1191.53 184.765 1193.26 196.055 1206.01 195.029H1206.58Z" fill="#E9C330"/>
<path d="M1239.01 190.432C1240.17 190.432 1240.75 189.918 1241.91 189.405C1242.48 181.708 1242.48 174.01 1243.06 166.826C1243.64 157.075 1244.8 147.325 1245.38 137.575C1245.96 131.93 1242.48 127.311 1237.27 126.798C1234.38 126.798 1233.22 128.851 1232.64 135.009C1231.48 141.68 1230.32 148.865 1229.74 155.536C1228.59 162.207 1227.43 169.392 1226.85 176.063C1226.27 188.379 1230.32 192.997 1239.01 190.945V190.432Z" fill="#E9C330"/>
<path d="M1295.15 113.391C1299.79 113.904 1303.26 110.312 1303.84 103.128C1303.84 99.0223 1303.84 94.917 1303.84 90.2984C1303.84 90.2984 1303.84 90.2984 1304.42 90.2984C1304.42 86.7062 1305 83.114 1305 79.5218C1305 70.7979 1299.21 65.153 1293.42 67.2056C1292.26 67.7188 1290.52 70.2847 1290.52 71.8242C1289.94 82.0877 1289.94 91.8379 1289.36 102.101C1289.36 109.286 1291.1 112.365 1295.73 112.878L1295.15 113.391Z" fill="#E9C330"/>
<path d="M1256.99 110.828C1256.41 115.959 1255.83 120.578 1255.25 125.196C1254.67 131.354 1256.41 133.92 1261.04 134.433C1265.68 134.947 1270.31 133.407 1274.36 129.302C1272.05 124.17 1272.63 119.551 1273.2 114.933C1274.36 108.262 1275.52 101.077 1276.1 93.8928C1276.68 89.2743 1275.52 87.7347 1271.47 87.2216C1268.57 86.7084 1265.1 86.7084 1262.2 86.1952C1257.57 85.6821 1256.99 86.7084 1256.99 92.3533C1256.99 98.5114 1256.99 104.156 1256.99 110.314V110.828Z" fill="#E9C330"/>
<path d="M1282.45 70.865C1283.61 59.5753 1283.03 48.7986 1282.45 38.022C1281.88 32.8903 1279.56 31.8639 1276.08 34.4298C1274.35 35.9693 1272.61 37.5088 1270.87 39.0484C1265.66 44.6933 1265.08 47.7723 1267.4 56.4962C1269.14 62.6543 1280.14 70.865 1281.88 70.865H1282.45Z" fill="#E9C330"/>
<path d="M1246.53 39.0922C1243.05 39.0922 1239.58 64.2376 1240.74 70.9089C1240.74 72.9615 1241.89 75.0142 1242.47 77.0669C1244.21 80.6591 1247.69 83.225 1250 82.1987C1253.48 80.6591 1254.06 77.0669 1254.06 72.9615C1254.06 64.2376 1254.06 55.0005 1254.06 46.2766C1254.06 41.1449 1251.16 39.6053 1246.53 39.6053V39.0922Z" fill="#E9C330"/>
<path d="M1167.8 149.311C1168.38 151.364 1170.12 153.93 1171.28 153.93C1176.49 154.956 1182.28 153.93 1185.76 147.772C1184.6 141.101 1182.86 135.456 1182.28 129.811C1181.12 125.192 1180.55 120.574 1179.39 115.955C1178.81 112.876 1177.65 110.31 1174.75 109.797C1167.8 107.744 1161.43 116.981 1163.17 126.732C1164.33 134.429 1166.07 141.614 1167.8 149.311Z" fill="#E9C330"/>
<path d="M1171.23 89.2811C1172.97 84.1494 1174.13 79.5308 1175.29 74.3991C1176.45 69.2674 1177.03 63.6225 1178.18 57.9776C1180.5 49.2537 1177.03 42.5824 1174.13 35.9112C1172.39 32.8321 1170.65 32.319 1168.34 35.398C1166.6 38.477 1165.44 42.0692 1163.13 44.6351C1158.49 50.7932 1156.76 59.0039 1156.76 67.7279C1156.18 79.0177 1157.91 90.3075 1170.65 89.2811H1171.23Z" fill="#E9C330"/>
<path d="M1212.38 129.374C1214.12 124.243 1215.28 119.624 1216.44 114.492C1217.59 109.361 1218.17 103.716 1219.33 98.0709C1221.65 89.3469 1218.17 82.6757 1215.28 76.0044C1213.54 72.9254 1211.8 72.4122 1209.49 75.4913C1207.75 78.5703 1206.59 82.1625 1204.27 84.7284C1199.64 90.8864 1197.9 99.0972 1197.9 107.821C1197.32 119.111 1199.06 130.401 1211.8 129.374H1212.38Z" fill="#E9C330"/>
</g>
</svg>
