<svg width="1440" height="600" viewBox="0 0 1440 600" fill="none" xmlns="http://www.w3.org/2000/svg">
<g clip-path="url(#clip0)">
<rect width="1440" height="600" fill="#EFF8F7"/>
<path d="M141.337 -175.105C137.387 -173.795 132.863 -172.455 128.883 -171.692C119.806 -169.557 110.67 -168.517 102.049 -168.601C98.6116 -168.415 -1.38331 -169.061 -4.8497 -169.422C-12.9281 -170.084 -45.5919 -157.903 -46.3544 -150.732C-48.2756 -133.078 -50.7696 -115.393 -52.6908 -97.7389C-53.9378 -88.8964 -53.9803 -79.0218 -59.9277 -72.1199C-59.2076 -69.4164 -58.5169 -67.2598 -57.8262 -65.1032C-56.9882 -60.2122 -55.034 -55.9298 -51.9342 -51.7092C-49.4661 -48.5514 -48.0847 -44.2382 -46.7034 -39.925C-44.5134 -31.2676 -42.3235 -22.6103 -40.1336 -13.9529C-39.3251 -9.60884 -38.487 -4.71783 -38.2219 0.203988C-37.9567 5.1258 -38.2348 10.6254 -37.9696 15.5472C-37.9107 16.6409 -37.2495 18.2507 -36.0449 19.2827C-32.8861 24.5971 -37.0256 129.027 -37.3921 132.886C-37.8176 135.651 -38.2431 138.417 -38.1253 140.604C-37.0515 149.87 -35.9778 159.136 -34.8746 168.949C-34.7862 170.589 -34.1249 172.199 -34.6683 172.777C-38.8383 180.68 -36.0461 189.853 -35.5747 198.603C-35.3979 201.884 -35.7645 205.743 -36.7922 207.993C-39.905 214.193 -39.0081 220.178 -34.6742 225.978C-31.5449 230.745 -30.1636 235.058 -31.0145 240.589C-31.3811 244.448 -31.1159 249.37 -29.7935 252.589C-25.2533 262.217 -28.3072 269.511 -31.3611 276.806C-33.8716 283.522 -36.9844 289.723 -39.0105 294.768C-27.0496 324.838 -22.051 353.637 -26.2175 382.929C-25.6447 382.899 -24.4696 383.384 -23.8968 383.353C-25.5563 384.539 -27.2158 385.725 -28.8164 388.006C-28.0373 391.803 -27.2583 395.6 -27.0225 399.975C-26.0666 407.053 -24.538 414.101 -25.3005 421.272C-25.6671 425.131 -24.8585 429.475 -24.6228 433.85C-24.5344 435.491 -23.9027 436.554 -23.8143 438.194C-22.9468 443.632 -22.6227 449.648 -21.7552 455.085C-21.6079 457.82 -21.4311 461.101 -21.2837 463.835C-21.6798 467.147 -22.0758 470.46 -21.8695 474.288C-21.8825 484.709 -21.9249 494.584 -21.9379 505.005C-21.7611 508.286 -21.5548 512.114 -21.9509 515.426C-22.8902 519.316 -22.684 523.144 -21.9049 526.942C-21.2142 529.098 -21.0964 531.286 -20.9785 533.473C-20.0815 539.458 -19.6985 546.567 -17.142 551.365C-13.9243 557.774 -14.1141 564.914 -13.7605 571.476C-13.5248 575.851 -12.7457 579.648 -10.821 583.384C-9.55746 585.51 -8.83731 588.213 -8.68998 590.948C-8.39532 596.416 -4.64019 655.447 -2.686 659.73C-3.68431 662.526 -4.1098 665.291 -4.50583 668.603C-4.78399 674.103 -6.29619 678.023 -9.55632 681.49C-10.643 682.645 -11.7003 684.348 -12.728 686.597C-3.1504 693.759 4.98695 695.515 13.4909 693.411C27.664 689.905 41.6769 694.086 55.4411 704.314C62.0368 709.443 69.6897 712.87 77.3427 716.297C80.2952 717.783 84.3049 717.567 87.1101 716.319C92.7499 714.37 98.3602 711.873 104.956 717.003C106.131 717.488 107.277 717.426 108.422 717.364C118.733 716.809 129.617 716.222 139.927 715.667C141.073 715.605 142.762 714.966 143.908 714.904C146.742 714.203 149.548 712.955 152.412 712.8C156.965 712.006 161.547 711.76 166.732 712.029C170.169 711.843 174.208 712.174 177.645 711.989C182.257 712.289 186.869 712.589 192.025 712.311C194.316 712.188 196.578 711.517 198.296 711.425C205.17 711.055 210.662 706.371 210.793 698.137C210.718 686.075 211.818 674.498 213.52 663.437C213.886 659.578 214.253 655.719 214.619 651.86C215.045 649.095 215.47 646.33 214.78 644.173C213.706 634.907 209.113 570.985 207.466 561.75C207.378 560.11 206.716 558.5 207.26 557.922C211.43 550.019 208.065 540.877 207.021 532.157C206.844 528.876 206.638 525.048 207.665 522.799C210.205 516.629 209.881 510.613 204.974 504.845C201.875 500.624 199.92 496.342 200.742 490.264C201.109 486.406 200.843 481.484 198.948 478.295C194.408 468.667 196.889 461.404 199.943 454.109C202.453 447.393 204.993 441.223 206.99 435.63C195.176 408.296 189.752 382.262 191.745 355.28C193.405 354.094 195.064 352.907 196.122 351.205C195.343 347.408 195.136 343.58 194.328 339.236C193.945 332.126 192.416 325.079 193.179 317.908C193.545 314.049 192.737 309.705 192.501 305.33C192.413 303.689 191.781 302.626 191.692 300.986C191.398 295.517 190.501 289.532 190.206 284.063C190.059 281.329 189.882 278.048 190.307 275.283C190.703 271.971 191.1 268.658 191.496 265.346C192.111 255.441 192.124 245.02 192.166 235.145C191.989 231.864 191.783 228.036 192.781 225.24C193.721 221.35 193.515 217.522 192.736 213.725C192.045 211.568 191.927 209.38 191.809 207.193C190.912 201.208 191.102 194.068 188.545 189.27C185.298 182.315 185.518 175.721 185.737 169.128C186.074 164.722 185.295 160.925 183.37 157.19C182.107 155.064 181.357 151.813 181.812 149.595C181.517 144.126 180.679 139.235 178.754 135.5C179.782 133.251 180.781 130.455 181.177 127.142C181.455 121.643 182.967 117.722 186.829 114.772C187.916 113.616 188.973 111.914 190.574 109.634C188.767 108.086 186.99 107.085 185.212 106.084C185.183 105.537 185.124 104.443 185.094 103.896C184.168 97.3646 183.814 90.8021 186.354 84.6322C188.38 79.587 189.834 74.5725 192.433 69.4964C193.46 67.2472 193.372 65.6066 192.652 62.903C191.3 59.1367 189.919 54.8234 189.683 50.4485C189.477 46.6204 189.27 42.7923 187.948 39.5728C187.287 37.9631 187.198 36.3224 187.11 34.6818C187.902 28.0577 186.462 22.6506 184.419 16.7277C182.949 10.7738 182.655 5.30519 184.167 1.38447C183.417 -1.86586 182.183 -3.44482 182.638 -5.66318C182.461 -8.94437 183.401 -12.8342 183.224 -16.1154C183.414 -23.2556 184.749 -30.4574 183.25 -36.9582C181.662 -45.0995 181.309 -51.662 184.965 -58.4405C187.564 -63.5167 186.873 -65.6733 182.598 -70.379C176.516 -76.6328 174.238 -86.9308 176.66 -95.2882C178.143 -99.7557 178.48 -104.162 175.923 -108.96C175.262 -110.57 174.601 -112.179 174.483 -114.367C173.616 -119.805 174.467 -125.335 171.91 -130.134C168.12 -136.511 167.164 -143.589 166.237 -150.121C165.34 -156.106 164.443 -162.09 163.605 -166.981C161.167 -169.592 159.933 -171.171 158.126 -172.719C155.085 -175.846 152.191 -176.239 148.329 -173.288C146.699 -171.555 144.467 -170.338 142.205 -169.667L141.337 -175.105Z" fill="#C2D6D5"/>
<path opacity="0.6" d="M1055.34 176.461C1029 163.306 1014.48 173.501 1010.5 209.159C1003.44 209.921 996.281 212.851 989.268 212.529L988.099 212.476C963.654 209.182 940.329 207.027 921.255 188.775C913.371 181.897 903.001 178.164 892.731 172.262C884.748 167.552 875.547 163.872 868.833 157.048C857.543 147.841 846.203 139.719 831.108 136.855C824.145 135.449 818.6 128.679 811.736 125.106C807.16 122.724 801.466 119.205 796.741 120.074C774.385 122.307 754.764 115.977 735.293 106.396C731.836 105.151 728.429 102.823 724.873 103.746C710.699 106.354 698.041 101.429 685.284 98.6722C672.527 95.9151 664.594 90.121 659.197 80.099C652.682 68.9396 643.828 57.673 636.094 47.5437C630.549 40.7731 630.847 34.2704 632.413 25.6537C635.745 4.0852 643.453 -10.7662 668.295 -16.1434C678.391 -31.9715 701.816 -31.9834 713.031 -46.674C715.518 -49.8182 722.53 -49.4966 728.374 -49.2286C731.88 -49.0678 738.843 -47.6625 740.062 -48.6927C749.959 -60.1856 765.252 -61.6564 778.258 -64.3182C800.763 -69.8026 824.486 -76.3172 848.782 -69.7728C853.407 -68.4747 858.132 -69.3441 862.807 -69.1297C869.77 -67.7244 878.001 -68.433 882.527 -64.9673C910.901 -45.2031 939.151 -48.252 968.967 -59.9175C974.959 -62.9009 982.022 -63.6631 987.965 -65.5628C991.521 -66.4858 995.027 -66.325 997.464 -68.3853C1011.99 -78.5801 1026.46 -87.691 1041.03 -98.9695C1048.29 -104.067 1055.55 -109.164 1064.9 -108.735C1068.41 -108.575 1075.42 -108.253 1076.74 -111.451C1087.86 -123.974 1096.96 -118.126 1108.4 -112.171C1126.75 -103.727 1147.79 -102.763 1166.98 -112.743C1174.2 -116.757 1181.26 -117.519 1188.12 -113.946C1198.44 -109.128 1209.98 -105.341 1220.3 -100.524C1227.21 -98.0345 1232.96 -95.599 1239.92 -94.1937C1258.47 -90.0848 1260.76 -88.8938 1258.75 -70.5231C1256.19 -40.2307 1251.29 -10.0456 1248.73 20.2468C1246.76 37.5337 1245.97 54.8743 1243.96 73.245C1243.56 81.9153 1242.04 89.4482 1240.48 98.0649C1222.74 101.596 1206.13 106.265 1188.45 108.712C1167.22 112.083 1148.22 117.728 1130.09 129.929C1127.7 130.906 1125.27 132.966 1122.93 132.859C1095.65 140.297 1071.58 154.398 1054.22 175.323L1055.34 176.461Z" fill="#DBEFEE"/>
<path opacity="0.8" d="M658.872 456.984C663.415 458.786 667.076 459.766 670.737 460.747C682.558 465.278 694.423 469.04 705.274 474.287C713.434 477.838 722.652 479.135 731.163 476.536C736.852 474.547 741.439 475.581 744.837 481.173C749.999 488.409 760.143 489.759 769.449 489.519C777.829 489.227 785.15 491.187 793.442 492.432C810.026 494.921 826.873 492.798 843.808 489.138C849.76 482.537 860.036 481.581 868.679 476.676C872.515 474.581 876.439 470.949 879.393 468.033C883.318 464.401 887.11 463.075 893.55 464.214C906.385 467.261 919.263 469.539 932.142 471.816C935.803 472.797 939.64 470.702 943.388 470.145C952.738 469.136 958.826 476.425 955.653 483.184C952.391 491.482 950.056 499.832 947.721 508.182C946.619 511.204 945.561 513.457 944.46 516.479C941.11 526.313 938.687 536.201 935.338 546.035C934.236 549.057 934.061 552.132 931.151 554.279C923.302 561.543 920.923 570.662 919.514 579.065C918.325 583.624 915.283 588.078 914.975 593.459C914.273 605.758 907.97 618.509 910.972 631.019C910.928 631.788 910.841 633.326 910.797 634.094C908.286 645.519 911.376 656.492 915.393 667.519C920.16 681.673 922.105 696.437 924.975 711.254C918.448 711.652 912.847 712.104 908.172 712.608C845.898 712.908 784.594 712.493 722.32 712.793C674.908 713.171 627.497 713.549 579.16 713.873C566.149 713.902 552.256 713.109 538.32 713.084C534.615 712.872 531.88 711.945 530.203 708.765C519.967 692.756 508.848 675.926 497.685 659.864C479.859 630.311 462.96 600.812 452.675 569.376C452.719 568.607 451.836 567.786 451.924 566.248C450.379 560.761 446.055 555.116 450.993 550C456.902 544.167 465.501 540.031 474.763 540.56C484.951 541.142 492.624 536.952 501.047 535.891C512.337 533.451 524.597 530.295 535.975 526.317C545.412 523.771 554.893 520.456 564.375 517.142C571.034 514.437 574.958 510.805 578.97 505.636C585.01 497.497 595.417 494.235 606.707 491.795C613.278 490.628 618.879 490.177 625.451 489.009C639.519 486.728 647.411 478.695 650.848 467.323C651.994 463.533 654.948 460.616 657.02 456.879L658.872 456.984Z" fill="#DBEFEE"/>
<path d="M317 597.7C312.63 601.186 308.259 600.315 303.888 600.75C298.644 601.186 292.962 601.186 287.718 601.622C266.739 602.493 245.324 603.8 224.345 604.672C205.552 605.543 187.196 605.979 168.403 607.286C139.558 609.464 111.149 612.514 82.741 615.129C80.1187 615.564 77.4964 615.564 74 616C74.8741 611.643 75.3112 609.029 76.1853 605.979C84.4892 572.865 94.1043 541.058 106.342 511.866C108.964 505.766 111.149 499.231 113.772 493.131C122.076 474.831 134.313 466.553 148.299 463.067C166.218 458.71 185.011 462.196 203.367 464.81C220.412 467.424 237.02 475.267 253.191 485.724C257.124 488.338 260.62 491.824 263.68 496.181C271.984 507.945 279.851 520.145 287.718 532.344C290.777 537.137 293.399 542.801 296.022 548.465C302.14 561.537 307.822 575.044 313.941 588.55C315.252 591.165 315.689 593.779 317 596.829V597.7Z" fill="#E9C330" fill-opacity="0.9"/>
<path d="M122.082 216.292C122.082 216.292 120.741 215.455 119.7 215.22C104.244 213.881 100.319 202.285 96.2535 192.263C90.3859 178.622 78.7534 170.11 68.162 161.832C55.6284 151.51 45.757 139.11 34.4043 127.447C28.5778 121.314 22.7513 115.181 16.9248 109.048C16.324 107.841 14.5423 107.976 14.6822 106.4C8.63351 86.8268 -6.30315 71.6785 -7.16731 49.5235C-7.66931 39.2336 -8.17134 28.9437 -8.67337 18.6539C-8.85442 12.7213 -7.2538 6.65441 -13.9609 2.46547C-15.3023 1.62769 -15.1624 0.0523373 -15.0225 -1.52301C-14.6234 -10.003 -13.9239 -17.8797 -12.9446 -28.9072C136.89 -89.9599 289.548 -150.912 442.206 -211.865C454.361 -189.309 464.434 -167.222 474.066 -144.163C483.399 -121.707 492.731 -99.2514 501.323 -76.4269C509.914 -53.6023 521.769 -31.6496 523.995 -4.90283C514.926 -6.41008 509.301 -2.85658 503.236 1.66901C491.106 10.7202 477.634 18.9335 466.105 29.1912C444.967 47.997 420.826 60.77 392.018 62.3151C384.892 62.8522 377.325 64.3614 369.758 65.8705C359.969 68.486 351.821 72.5426 343.534 78.1745C324.738 90.5447 304.901 102.68 286.105 115.05C281.961 117.866 277.517 120.079 274.415 123.13C262.305 135.935 246.311 144.651 232.559 156.015C227.235 160.172 219.528 163.256 212.862 166.575C209.899 168.051 205.295 168.085 203.674 170.397C189.202 185.884 165.159 189.574 151.589 206.871C149.227 209.552 143.742 211.53 139.738 212.771C134.253 214.749 128.908 215.152 122.382 216.896L122.082 216.292Z" fill="#6F8F9A" fill-opacity="0.9"/>
<path opacity="0.9" d="M134.947 149.17C135.104 158.249 132.058 166.809 129.662 175.178C126.301 187.106 121.881 198.579 117.883 210.277C116.237 215.081 112.915 218.569 109.384 221.839C108.06 223.065 106.761 223.449 104.845 222.969C88.0195 218.877 70.967 215.201 55.0811 208.394C48.09 205.441 42.4418 200.629 36.3461 196.437C34.8773 195.338 33.6292 194.034 31.9397 193.139C28.5608 191.35 27.3633 188.36 27.4644 184.986C27.5282 175.703 27.5857 166.631 27.8638 157.355C27.8828 156.722 28.1161 156.096 27.9207 155.457C27.7075 141.101 31.5479 127.5 34.3292 113.445C36.0824 105.057 38.05 96.6747 40.2319 88.2993C41.695 82.4345 45.2698 77.6882 49.0527 73.1592C50.3893 71.5111 52.123 70.93 54.2664 70.9942C61.346 70.9955 68.2239 70.5686 75.3034 70.5699C76.5895 70.6084 78.0899 70.6534 79.1426 71.318C88.2202 76.2327 97.0835 81.1409 105.947 86.0491C114.602 90.7401 119.954 98.2863 125.078 106.248C130.821 115.072 132.238 125.032 133.87 134.999C134.588 139.663 134.664 144.308 135.168 148.966L134.947 149.17Z" fill="#2B3545"/>
<path d="M1330.73 401.953C1334.84 400.031 1339.55 397.925 1343.75 396.319C1353.29 392.422 1363.01 389.157 1372.31 386.707C1375.99 385.601 1483.79 356.994 1487.56 356.203C1496.34 354.253 1530.13 337.563 1530.12 333.091C1530.15 322.069 1530.8 310.863 1530.83 299.841C1531.16 294.238 1530.06 288.372 1535.67 282.557C1534.58 281.163 1533.59 280.085 1532.6 279.007C1531.13 276.35 1528.53 274.378 1524.71 272.775C1521.68 271.619 1519.7 269.462 1517.71 267.306C1514.35 262.809 1510.99 258.312 1507.64 253.815C1506.26 251.474 1504.8 248.818 1503.94 245.978C1503.09 243.137 1502.76 239.796 1501.9 236.956C1501.71 236.324 1500.81 235.562 1499.4 235.299C1495.38 233.065 1487.79 169.961 1487.74 167.567C1487.88 165.805 1488.02 164.042 1487.64 162.78C1485.41 157.598 1483.19 152.417 1480.87 146.92C1480.58 145.973 1479.68 145.211 1480.2 144.711C1483.78 138.817 1479.72 134.189 1478.2 129.139C1477.63 127.245 1477.58 124.851 1478.43 123.22C1481.07 118.642 1479.41 115.354 1474.07 113.173C1470.15 111.254 1468.16 109.098 1468.44 105.573C1468.39 103.179 1467.54 100.338 1465.74 98.813C1459.74 94.4223 1462.19 89.2129 1464.64 84.0035C1466.57 79.2942 1469.2 74.716 1470.81 71.1379C1454.45 56.7812 1445.74 41.159 1446.85 22.587C1446.24 22.7714 1444.92 22.8245 1444.3 23.0088C1445.95 21.8245 1447.6 20.6401 1449.07 18.8245C1447.79 16.7995 1446.51 14.7745 1445.75 12.2494C1443.91 8.3306 1441.45 4.59614 1441.44 0.124228C1441.39 -2.26955 1440.02 -4.61022 1439.26 -7.13525C1438.97 -8.08213 1438.17 -8.52904 1437.89 -9.47592C1436.32 -12.4479 1435.28 -15.9198 1433.72 -18.8917C1433.24 -20.4699 1432.68 -22.3636 1432.2 -23.9418C1432.25 -26.0199 1432.29 -28.0981 1431.63 -30.3075C1430.44 -36.4888 1429.34 -42.3545 1428.16 -48.5358C1427.59 -50.4296 1426.92 -52.639 1426.97 -54.7171C1427.53 -57.2953 1426.87 -59.5047 1425.59 -61.5297C1424.6 -62.6079 1424.22 -63.8704 1423.84 -65.1329C1422.18 -68.4205 1420.95 -72.5237 1417.64 -74.6269C1413.43 -77.4926 1412.81 -81.7802 1411.68 -85.5677C1410.92 -88.0927 1409.64 -90.1178 1407.14 -91.7741C1405.53 -92.6679 1404.44 -94.0617 1403.97 -95.6398C1403.02 -98.7961 1392.16 -132.7 1389.56 -134.672C1390.32 -136.619 1390.45 -138.381 1390.5 -140.459C1390.16 -143.8 1391.34 -146.562 1394.45 -149.562C1395.49 -150.562 1396.43 -151.878 1397.28 -153.509C1386.14 -154.978 1377.17 -153.66 1368.25 -149.947C1353.38 -143.76 1337.81 -142.176 1321.8 -144.248C1314.1 -145.376 1305.46 -145.189 1296.82 -145.002C1293.47 -145.027 1289.17 -143.736 1286.29 -142.183C1280.44 -139.393 1274.69 -136.287 1266.99 -137.415C1265.67 -137.362 1264.44 -136.993 1263.21 -136.624C1252.17 -133.306 1240.51 -129.803 1229.47 -126.484C1228.24 -126.116 1226.5 -125.247 1225.27 -124.878C1222.3 -123.641 1219.42 -122.088 1216.35 -121.166C1211.54 -119.375 1206.63 -117.9 1201.01 -116.557C1197.33 -115.451 1192.94 -114.476 1189.26 -113.369C1184.26 -112.21 1179.25 -111.051 1173.73 -109.392C1171.28 -108.654 1168.92 -107.601 1167.08 -107.048C1159.71 -104.836 1154.34 -100.467 1155.15 -95.5482C1156.62 -88.42 1156.77 -81.2387 1156.21 -74.1886C1156.26 -71.7948 1156.31 -69.4011 1156.37 -67.0073C1156.23 -65.2448 1156.09 -63.4823 1157.08 -62.4041C1159.31 -57.2228 1171.63 -20.6628 1174.47 -15.6659C1174.75 -14.719 1175.65 -13.9565 1175.13 -13.4565C1171.55 -7.56274 1176.23 -3.11885 1178.36 1.74685C1178.93 3.64063 1179.6 5.85003 1178.75 7.48127C1176.72 11.875 1177.77 15.3469 1183.72 17.344C1187.55 18.9472 1190.14 20.9191 1189.96 24.7598C1190.01 27.1536 1190.86 29.9942 1193.27 31.3349C1199.28 35.7257 1197.44 40.7507 1194.99 45.9601C1193.06 50.6694 1191.04 55.0632 1189.53 58.9569C1205.41 71.7355 1214.26 85.5952 1215.23 102.167C1213.58 103.352 1211.93 104.536 1210.98 105.852C1212.26 107.877 1212.92 110.086 1214.3 112.427C1215.53 116.53 1217.99 120.264 1218 124.736C1218.05 127.13 1219.42 129.471 1220.18 131.996C1220.46 132.943 1221.26 133.389 1221.55 134.336C1222.5 137.493 1224.15 140.78 1225.1 143.936C1225.58 145.515 1226.15 147.408 1226.01 149.171C1225.96 151.249 1225.92 153.327 1225.87 155.405C1226.35 161.455 1227.54 167.637 1228.64 173.502C1229.2 175.396 1229.87 177.606 1229.12 179.552C1228.55 182.131 1229.22 184.34 1230.49 186.365C1231.49 187.443 1231.87 188.706 1232.25 189.968C1233.9 193.256 1234.52 197.543 1237.83 199.647C1242.13 202.828 1242.65 206.8 1243.18 210.772C1243.32 213.481 1244.6 215.506 1247.11 217.163C1248.71 218.056 1249.9 219.766 1249.66 221.213C1250.61 224.369 1252.08 227.025 1254.58 228.682C1253.73 230.313 1252.98 232.26 1252.94 234.338C1253.27 237.678 1252.09 240.441 1248.27 243.31C1247.24 244.31 1246.29 245.625 1244.83 247.441C1246.96 247.835 1248.99 247.913 1251.02 247.991C1251.11 248.307 1251.3 248.938 1251.4 249.254C1253.15 252.857 1254.29 256.644 1252.26 261.038C1250.66 264.616 1249.68 268.01 1247.46 271.772C1246.61 273.404 1246.9 274.35 1247.99 275.744C1249.88 277.585 1251.86 279.741 1252.62 282.266C1253.29 284.476 1253.95 286.685 1255.75 288.21C1256.64 288.973 1256.93 289.92 1257.21 290.866C1257.12 295.023 1259.3 297.81 1262.18 300.729C1264.45 303.832 1265.4 306.989 1264.23 309.751C1265.41 311.461 1266.92 312.039 1266.69 313.486C1267.25 315.379 1266.69 317.958 1267.26 319.851C1267.88 324.139 1267.27 328.795 1269.64 332.214C1272.29 336.58 1273.43 340.367 1270.27 345.445C1268.05 349.208 1269.05 350.286 1274.2 351.836C1281.47 353.78 1285.11 359.224 1283.47 364.88C1282.38 367.958 1282.53 370.668 1285.84 372.771C1286.74 373.533 1287.63 374.296 1288.01 375.558C1289.58 378.53 1289.3 382.055 1292.6 384.159C1297.42 386.84 1299.27 390.759 1301.02 394.362C1302.68 397.65 1304.34 400.937 1305.8 403.593C1308.73 404.434 1310.24 405.012 1312.37 405.406C1316 406.378 1319.17 405.772 1322.99 402.903C1324.54 401.403 1326.81 400.034 1329.17 398.981L1330.73 401.953Z" fill="#2B3545"/>
<path d="M1310.82 118.938C1313.75 123.174 1316.67 123.962 1317.77 119.873C1318.77 117.324 1318.02 114.302 1316.1 110.965C1315.04 109.111 1313.39 107.099 1311.68 104.133C1310.62 102.279 1308.91 99.3122 1307.42 96.7166C1304.92 93.2218 1300.83 92.119 1298.07 94.1959C1296.43 95.633 1296.97 98.2843 1299.9 102.521C1303.47 107.869 1307.03 113.218 1310.6 118.567L1310.82 118.938Z" fill="#E9C330"/>
<path d="M1324.67 40.9119C1322.97 41.3941 1321.77 47.0214 1320.23 46.9195C1323.43 55.9302 1327.91 63.7171 1332.02 71.7172C1334.15 75.4252 1336.27 75.6846 1337.64 72.9218C1338.33 71.5405 1338.8 69.7883 1339.28 68.0361C1340.85 62.1956 1340.16 60.1283 1335.21 54.0936C1331.7 49.6997 1327.81 45.519 1324.09 40.7543L1324.67 40.9119Z" fill="#E9C330"/>
<path d="M1361.23 20.3124C1363.3 19.6169 1363.56 17.4939 1361.48 14.7408C1358.98 11.246 1357.06 7.90876 1354.56 4.414C1354.56 4.414 1354.56 4.414 1354.93 4.20074C1353.23 1.23432 1351.52 -1.7321 1349.44 -4.48526C1345.72 -9.24998 1342.05 -9.61121 1340.95 -5.5228C1339.95 -2.97332 1340.33 0.262061 1342.25 3.59928C1344.17 6.9365 1346.3 10.6445 1348.22 13.9817C1351.78 19.3305 1357.52 22.4449 1361.66 21.054L1361.23 20.3124Z" fill="#E9C330"/>
<path d="M1359.28 39.301C1357.06 40.5806 1365.28 60.0294 1368.79 64.4233C1369.64 65.9065 1371.24 66.9632 1372.46 68.2332C1375.07 70.189 1378.36 70.7635 1379.41 69.1689C1381 66.7769 1379.88 63.9681 1378.17 61.0017C1374.55 54.698 1370.71 48.0236 1367.09 41.7199C1364.96 38.0119 1362.46 37.9658 1359.5 39.6718L1359.28 39.301Z" fill="#E9C330"/>
<path d="M1331.6 24.5884C1334.53 28.8248 1337.83 32.8479 1340.6 37.6683C1342.09 40.2639 1343.69 41.3206 1344.96 40.0968C1346.76 38.0756 1348.13 35.3129 1349.13 32.7634C1349.29 32.1793 1348.32 28.7864 1347.53 28.258C1343.97 26.3579 1342.79 22.5942 1340.87 19.257C1339.59 17.0321 1338.31 14.8073 1336.66 12.7958C1334.8 10.4134 1333.42 9.72752 1331.35 10.423C1327.43 12.1848 1327.66 19.4529 1331.81 24.9592L1331.6 24.5884Z" fill="#E9C330"/>
<path d="M1250.93 28.5632C1252.84 28.4518 1253.96 27.812 1253.63 25.5315C1252.66 18.69 1251.69 11.8484 1250.35 5.2201C1250.08 3.89443 1248.58 1.29882 1247.2 0.612917C1242.79 -2.77044 1237.6 0.215109 1237.56 6.15752C1238.69 12.415 1240.03 19.0433 1244.45 25.8753C1246.53 28.6285 1248.5 29.4719 1250.78 29.1473L1250.93 28.5632Z" fill="#E9C330"/>
<path d="M1327.73 90.0053C1326.71 85.6576 1325.53 81.8938 1324.14 77.7593C1322.75 73.6248 1320.78 69.3327 1319.18 64.8273C1317.04 57.6707 1312.04 54.1298 1307.41 50.3756C1305.02 48.7906 1303.7 49.0595 1303.49 52.1374C1303.66 55.0019 1304.41 58.0241 1303.99 60.7311C1303.58 66.8868 1305.88 73.4594 1309.5 79.763C1313.82 88.1339 1319.63 95.6518 1327.36 90.2186L1327.73 90.0053Z" fill="#E9C330"/>
<path d="M1293.61 66.7005C1294.35 66.274 1294.51 65.6899 1295.04 64.8926C1292.21 59.1173 1289.01 53.5553 1286.4 48.1508C1282.72 40.8923 1279.41 33.4205 1275.73 26.162C1273.76 21.87 1269.61 19.8123 1266.06 21.3608C1264.2 22.427 1264.32 24.3367 1266.5 28.9996C1268.53 34.2466 1270.78 39.8643 1273.18 44.898C1275.21 50.1449 1277.45 55.7627 1279.85 60.7964C1284.59 69.9089 1289.11 71.7533 1293.82 67.0713L1293.61 66.7005Z" fill="#E9C330"/>
<path d="M1318.13 3.74989C1321.31 2.41466 1322.05 -1.46048 1319.43 -6.86497C1317.73 -9.83139 1316.02 -12.7978 1314.1 -16.135C1314.1 -16.135 1314.1 -16.135 1314.47 -16.3483C1312.98 -18.9439 1311.86 -21.7528 1310.37 -24.3484C1306.74 -30.652 1300.69 -32.5983 1297.83 -28.9826C1297.3 -28.1852 1297.26 -25.6915 1297.9 -24.5791C1301.79 -16.9498 1305.84 -9.90452 1309.73 -2.27521C1312.72 2.91602 1315.11 4.50107 1318.29 3.16584L1318.13 3.74989Z" fill="#E9C330"/>
<path d="M1287.51 18.3217C1290.6 21.974 1293.16 26.4236 1295.87 30.2892C1299.23 35.2672 1300.13 34.2566 1303.84 32.1241C1311.26 27.859 1298.7 12.8789 1296.35 8.8001C1292.57 3.08052 1288.79 -2.63906 1284.63 -8.14539C1281.92 -12.011 1280.75 -12.3261 1279.01 -9.35007C1277.79 -7.1714 1276.58 -4.99272 1274.99 -2.6008C1272.88 0.588437 1273.52 1.70084 1276.82 5.72396C1280.7 9.90463 1284.21 14.2986 1287.73 18.6925L1287.51 18.3217Z" fill="#E9C330"/>
<path d="M1351.19 69.0401C1348.75 69.9489 1350.04 75.6223 1350.04 75.6223C1350.04 75.6223 1348.67 78.385 1349.74 80.239C1352.51 85.0595 1355.06 89.5091 1357.84 94.3295C1358.69 95.8127 1360.13 97.4535 1361.35 98.7235C1363.8 101.263 1367.3 102.209 1368.57 100.985C1370.58 99.3345 1369.62 95.9416 1368.5 93.1327C1365.62 86.4026 1362.36 79.8857 1359.27 72.7847C1357.72 69.2343 1355.17 68.2333 1351.41 69.4109L1351.19 69.0401Z" fill="#E9C330"/>
<path d="M1195.6 12.9846C1196.62 17.3323 1197.79 21.0961 1199.18 25.2306C1200.57 29.3651 1202.55 33.6572 1204.15 38.1625C1206.29 45.3192 1211.29 48.8601 1215.91 52.6143C1218.31 54.1993 1219.63 53.9304 1219.84 50.8525C1219.67 47.988 1218.92 44.9659 1219.34 42.2588C1219.75 36.1032 1217.45 29.5306 1213.82 23.227C1209.5 14.8561 1203.7 7.33817 1195.97 12.7713L1195.6 12.9846Z" fill="#E9C330"/>
<path d="M1176.74 28.2462C1176 28.6727 1175.84 29.2567 1175.31 30.054C1178.14 35.8293 1181.33 41.3914 1183.95 46.7959C1187.63 54.0543 1190.94 61.5261 1194.62 68.7846C1196.59 73.0767 1200.73 75.1344 1204.29 73.5859C1206.14 72.5196 1206.03 70.6099 1203.84 65.947C1201.81 60.7001 1199.57 55.0823 1197.17 50.0486C1195.14 44.8017 1192.9 39.184 1190.5 34.1503C1185.75 25.0378 1181.24 23.1933 1176.53 27.8754L1176.74 28.2462Z" fill="#E9C330"/>
<path d="M1172.78 104.587C1169.6 105.922 1168.87 109.798 1171.48 115.202C1173.19 118.169 1174.89 121.135 1176.81 124.472C1176.81 124.472 1176.81 124.472 1176.44 124.685C1177.93 127.281 1179.05 130.09 1180.55 132.686C1184.17 138.989 1190.22 140.935 1193.08 137.32C1193.61 136.522 1193.66 134.029 1193.02 132.916C1189.12 125.287 1185.07 118.242 1181.18 110.612C1178.2 105.421 1175.8 103.836 1172.62 105.171L1172.78 104.587Z" fill="#E9C330"/>
<path d="M1198.29 92.3862C1196.53 88.4649 1194.98 84.9144 1193.44 81.364C1191.25 76.7011 1189.07 75.4868 1185.89 76.8221C1182.71 78.1573 1180.38 80.9758 1179.49 85.435C1183.11 88.29 1184.65 91.8405 1186.2 95.3909C1188.23 100.638 1190.47 106.256 1193.09 111.66C1194.63 115.211 1196.02 115.896 1198.83 114.775C1200.89 114.079 1203.12 112.799 1205.19 112.104C1208.37 110.769 1208.31 109.814 1205.97 105.735C1203.41 101.285 1201.06 97.2066 1198.51 92.757L1198.29 92.3862Z" fill="#E9C330"/>
<path d="M1198.58 130.639C1202.53 139.223 1207.38 146.797 1212.23 154.371C1214.73 157.865 1216.64 157.754 1217.8 154.62C1218.27 152.868 1218.74 151.116 1219.22 149.364C1220.21 143.366 1219.3 140.928 1214.2 135.477C1210.52 131.667 1200.07 129.786 1198.95 130.426L1198.58 130.639Z" fill="#E9C330"/>
<path d="M1234.79 140.367C1237.02 139.088 1228.8 119.639 1225.28 115.245C1224.43 113.762 1222.84 112.705 1221.61 111.435C1219.01 109.479 1215.72 108.905 1214.66 110.499C1213.07 112.891 1214.2 115.7 1215.9 118.667C1219.52 124.97 1223.36 131.645 1226.99 137.948C1229.12 141.656 1231.61 141.703 1234.58 139.997L1234.79 140.367Z" fill="#E9C330"/>
<path d="M1239.43 31.7381C1238.2 30.4682 1236.02 29.2539 1235.28 29.6804C1231.52 30.8581 1228.24 33.7322 1228.57 39.4613C1232.08 43.8553 1235.54 47.2943 1238.26 51.1599C1240.92 54.0706 1243.21 57.1946 1245.87 60.1053C1247.52 62.1169 1249.32 63.5444 1251.39 62.8489C1256.69 61.7731 1256.94 52.7529 1251.77 46.3474C1247.84 41.2119 1243.74 36.6604 1239.43 31.7381Z" fill="#E9C330"/>
<path d="M1262.17 76.3768C1263.19 80.7246 1264.36 84.4883 1265.75 88.6228C1267.14 92.7573 1269.12 97.0494 1270.72 101.555C1272.86 108.711 1277.86 112.252 1282.48 116.006C1284.88 117.592 1286.2 117.323 1286.41 114.245C1286.24 111.38 1285.49 108.358 1285.91 105.651C1286.32 99.4954 1284.02 92.9228 1280.4 86.6192C1276.08 78.2483 1270.27 70.7304 1262.54 76.1635L1262.17 76.3768Z" fill="#E9C330"/>
<path d="M1219.16 62.5588C1220.18 66.9066 1221.35 70.6703 1222.74 74.8048C1224.13 78.9394 1226.11 83.2315 1227.71 87.7368C1229.85 94.8934 1234.85 98.4344 1239.47 102.189C1241.87 103.774 1243.19 103.505 1243.4 100.427C1243.23 97.5622 1242.48 94.5401 1242.9 91.833C1243.31 85.6774 1241.01 79.1048 1237.39 72.8011C1233.07 64.4302 1227.26 56.9123 1219.53 62.3455L1219.16 62.5588Z" fill="#E9C330"/>
<path opacity="0.95" d="M1208.65 709.746C1199.23 706.599 1194.41 699.163 1192.63 689.687C1189.41 675.089 1186.18 660.49 1182.95 645.891C1181.5 640.768 1179.67 636.207 1174.78 633.686C1173.66 632.915 1171.79 630.811 1172 629.302C1170.37 623.231 1167.2 619.409 1162.14 615.94C1153.14 609.773 1143.96 602.659 1134.19 597.617C1121.21 591.209 1111.68 582.2 1105.02 570.203C1100.4 561.258 1093.86 555.123 1084.65 550.466C1082.96 549.31 1080.71 547.768 1079.4 546.05C1074.02 538.229 1068.06 530.022 1063.06 521.639C1060.84 517.64 1057.67 513.818 1054.5 509.996C1050.98 504.278 1048.4 498.384 1049.62 491.783C1050.04 488.764 1050.45 485.745 1048.41 482.693C1047.1 480.975 1047.52 477.955 1046.6 475.675C1045.15 470.552 1047.46 467.179 1051.64 465.91C1062.66 461.894 1073.88 456.369 1086.5 460.881C1091.2 462.455 1096.89 461.394 1101.42 462.02C1105.95 462.647 1111.05 463.658 1115.58 464.284C1123.51 464.766 1131.63 466.194 1139.21 464.781C1146.41 463.929 1153.6 463.078 1160.77 464.683C1167.37 465.903 1173.44 464.281 1179.16 460.763C1183.54 457.985 1188.08 458.611 1192.81 457.727C1205.13 455.43 1216.59 461.629 1228.71 460.841C1241 461.001 1253.67 460.599 1265.96 460.758C1267.47 460.967 1268.81 460.228 1270.7 459.875C1289.27 456.903 1307.1 452.597 1326.35 455.873C1332.39 456.707 1337.9 454.7 1343.97 453.077C1351.37 450.716 1352.5 451.487 1357.15 457.975C1358.45 459.693 1360.32 461.797 1362.39 462.391C1369.17 464.559 1375.77 465.779 1383.36 464.365C1388.09 463.482 1393.75 464.879 1399.23 465.328C1403.2 465.569 1407.17 465.809 1411.14 466.05C1415.67 466.676 1419.63 466.917 1424.55 466.981C1428.52 467.222 1432.1 468.024 1435.51 467.88C1441.93 468.152 1448.18 467.477 1454.43 466.803C1458.79 466.481 1462.58 465.774 1466.93 465.453C1466.96 462.996 1466.99 460.538 1467.41 457.519C1470.6 458.884 1474.19 459.687 1474.93 461.02C1476.38 466.143 1478.57 472.599 1476.82 476.357C1471.4 486.684 1472.79 496.722 1472.28 507.113C1472.37 515.432 1473.02 524.137 1473.11 532.456C1472.9 533.966 1473.26 535.861 1472.49 536.985C1469.2 542.992 1470.26 548.678 1471.89 554.748C1472.6 558.538 1472.57 560.996 1470.26 564.369C1467.95 567.741 1466.2 571.5 1465.02 575.643C1461.67 586.565 1453.64 593.455 1443.19 597.856C1439.96 598.948 1436.91 600.988 1434.98 603.799C1431.9 608.296 1427.52 611.075 1422.01 613.082C1413.66 615.62 1405.87 618.544 1399.35 625.643C1394.56 631.441 1386.2 633.979 1379.15 638.235C1376.49 639.713 1374.21 640.629 1372.11 642.492C1367.72 645.271 1363.72 647.487 1357.86 647.6C1353.51 647.921 1349.51 650.138 1345.33 651.407C1332.8 655.214 1320.84 659.406 1308.31 663.213C1304.14 664.482 1299.78 664.804 1295.61 666.073C1292.38 667.165 1288.77 668.82 1285.15 670.474C1278.87 673.606 1272.21 677.3 1265.37 680.047C1264.03 680.786 1262.32 682.087 1260.6 683.388C1255.65 685.781 1250.88 689.122 1246.15 690.006C1236.67 691.773 1229.23 696.591 1221.24 701.024C1216.68 702.856 1212.29 705.634 1207.91 708.413L1208.65 709.746Z" fill="#6F8F9A"/>
<g opacity="0.6">
<path d="M1347.35 454.718C1337.43 460.309 1326.96 461.779 1315.98 458.164C1312.17 456.791 1308.87 454.718 1305.33 452.635C1304.16 451.86 1303.25 450.374 1302.35 448.888C1300.79 445.927 1299.22 442.966 1297.66 440.004C1296.34 437.054 1296.46 434.166 1296.6 431.039C1296.73 428.152 1297.1 425.034 1297.71 422.169C1298.28 420.265 1299.32 418.623 1300.36 416.981C1304.23 411.607 1309.23 407.969 1314.93 404.844C1318.41 402.827 1321.9 400.569 1325.36 398.793C1326.36 398.113 1327.81 398.177 1328.79 397.979C1332.7 396.945 1335.56 398.035 1337.09 401.718C1338.86 405.652 1340.61 409.827 1340.17 414.388C1339.84 416.302 1339.05 417.713 1337.09 418.351C1334.14 419.426 1331.19 420.502 1328.45 422.07C1326.23 423.178 1324.45 425.028 1322.46 426.387C1319.46 428.425 1319.95 433.991 1323.75 435.604C1327.78 437.468 1332.05 439.343 1336.65 439.303C1338.59 439.388 1340.76 439.483 1342.69 439.568C1343.66 439.611 1344.38 439.642 1344.82 440.626C1346.32 445.271 1347.81 449.917 1347.34 454.959L1347.35 454.718Z" fill="#C2D6D5"/>
<path d="M1308.55 520.74C1298.63 526.331 1288.15 527.8 1277.18 524.186C1273.37 522.813 1270.07 520.74 1266.53 518.657C1265.36 517.882 1264.45 516.396 1263.55 514.91C1261.99 511.949 1260.42 508.987 1258.86 506.026C1257.53 503.076 1257.66 500.188 1257.8 497.061C1257.92 494.174 1258.3 491.056 1258.91 488.19C1259.48 486.287 1260.52 484.645 1261.56 483.003C1265.43 477.628 1270.43 473.991 1276.13 470.866C1279.61 468.849 1283.09 466.591 1286.56 464.815C1287.56 464.135 1289.01 464.199 1289.98 464.001C1293.9 462.967 1296.76 464.057 1298.29 467.74C1300.05 471.674 1301.81 475.849 1301.36 480.409C1301.04 482.324 1300.25 483.735 1298.29 484.372C1295.34 485.448 1292.38 486.524 1289.65 488.092C1287.43 489.2 1285.65 491.05 1283.66 492.409C1280.66 494.447 1281.14 500.013 1284.95 501.626C1288.98 503.49 1293.25 505.365 1297.85 505.325C1299.78 505.41 1301.96 505.505 1303.89 505.59C1304.86 505.632 1305.58 505.664 1306.02 506.648C1307.51 511.293 1309 515.939 1308.54 520.98L1308.55 520.74Z" fill="#C2D6D5"/>
<path d="M1368.86 555.2C1358.93 560.791 1348.46 562.261 1337.48 558.646C1333.67 557.273 1330.37 555.2 1326.84 553.117C1325.66 552.342 1324.76 550.856 1323.85 549.37C1322.29 546.409 1320.72 543.448 1319.16 540.486C1317.84 537.536 1317.96 534.649 1318.1 531.521C1318.23 528.634 1318.61 525.517 1319.22 522.651C1319.78 520.747 1320.82 519.105 1321.86 517.463C1325.73 512.089 1330.73 508.451 1336.43 505.326C1339.91 503.309 1343.4 501.051 1346.86 499.275C1347.86 498.596 1349.31 498.659 1350.29 498.461C1354.2 497.427 1357.06 498.517 1358.59 502.2C1360.36 506.134 1362.11 510.309 1361.67 514.87C1361.34 516.784 1360.55 518.196 1358.59 518.833C1355.64 519.908 1352.69 520.984 1349.96 522.552C1347.73 523.66 1345.95 525.51 1343.96 526.869C1340.97 528.907 1341.45 534.473 1345.25 536.086C1349.28 537.95 1353.56 539.825 1358.16 539.785C1360.09 539.87 1362.26 539.966 1364.19 540.05C1365.16 540.093 1365.89 540.124 1366.33 541.108C1367.82 545.753 1369.31 550.399 1368.84 555.441L1368.86 555.2Z" fill="#C2D6D5"/>
<path d="M1417.13 459.595C1407.21 465.187 1396.74 466.656 1385.76 463.041C1381.95 461.669 1378.65 459.596 1375.12 457.512C1373.94 456.737 1373.04 455.251 1372.13 453.766C1370.57 450.804 1369 447.843 1367.44 444.882C1366.12 441.931 1366.24 439.044 1366.38 435.916C1366.51 433.029 1366.89 429.912 1367.5 427.046C1368.06 425.142 1369.1 423.501 1370.14 421.859C1374.01 416.484 1379.01 412.846 1384.71 409.722C1388.19 407.705 1391.68 405.447 1395.14 403.67C1396.14 402.991 1397.59 403.055 1398.57 402.856C1402.48 401.823 1405.34 402.912 1406.87 406.595C1408.64 410.53 1410.39 414.704 1409.95 419.265C1409.62 421.179 1408.83 422.591 1406.87 423.228C1403.92 424.304 1400.97 425.38 1398.24 426.947C1396.01 428.055 1394.23 429.906 1392.24 431.265C1389.25 433.303 1389.73 438.868 1393.53 440.481C1397.56 442.345 1401.84 444.22 1406.44 444.181C1408.37 444.266 1410.54 444.361 1412.47 444.446C1413.44 444.488 1414.17 444.52 1414.61 445.503C1416.1 450.149 1417.59 454.794 1417.12 459.836L1417.13 459.595Z" fill="#C2D6D5"/>
<path d="M1269.97 581.772C1260.04 587.363 1249.57 588.832 1238.6 585.217C1234.79 583.845 1231.49 581.772 1227.95 579.688C1226.77 578.914 1225.87 577.428 1224.97 575.942C1223.4 572.981 1221.84 570.019 1220.27 567.058C1218.95 564.107 1219.08 561.22 1219.22 558.092C1219.34 555.205 1219.72 552.088 1220.33 549.222C1220.9 547.319 1221.94 545.677 1222.98 544.035C1226.84 538.66 1231.84 535.023 1237.55 531.898C1241.02 529.881 1244.51 527.623 1247.98 525.847C1248.97 525.167 1250.42 525.231 1251.4 525.033C1255.32 523.999 1258.17 525.088 1259.71 528.772C1261.47 532.706 1263.22 536.881 1262.78 541.441C1262.46 543.355 1261.67 544.767 1259.7 545.404C1256.75 546.48 1253.8 547.556 1251.07 549.124C1248.84 550.231 1247.07 552.082 1245.07 553.441C1242.08 555.479 1242.56 561.045 1246.36 562.658C1250.4 564.522 1254.67 566.397 1259.27 566.357C1261.2 566.442 1263.38 566.537 1265.31 566.622C1266.27 566.664 1267 566.696 1267.44 567.68C1268.93 572.325 1270.42 576.97 1269.96 582.012L1269.97 581.772Z" fill="#C2D6D5"/>
</g>
</g>
<defs>
<clipPath id="clip0">
<rect width="1440" height="600" fill="white"/>
</clipPath>
</defs>
</svg>
