<svg width="1440" height="501" viewBox="0 0 1440 501" fill="none" xmlns="http://www.w3.org/2000/svg">
<rect width="1440" height="501" fill="#EDF1F0"/>
<mask id="mask0" mask-type="alpha" maskUnits="userSpaceOnUse" x="0" y="1" width="1440" height="500">
<rect y="1" width="1440" height="500" fill="#EDF1F0"/>
</mask>
<g mask="url(#mask0)">
<path d="M696.165 -7.77493C734.131 -21.6716 771.365 -36.0079 807.553 -49.3769C814.242 -42.1665 821.978 -35.9235 826.054 -31.8786C823.014 -14.5548 818.406 -1.36388 819.133 10.2438C821.632 32.4917 816.706 58.2577 834.372 72.0626C838.031 74.2608 835.099 83.6703 832.795 90.2657C827.245 107.678 820.962 124.65 827.858 138.368C835.902 154.372 845.308 168.001 865.592 173.804C869.565 174.595 874.27 175.826 880.336 174.682C893.199 172.835 903.656 174.329 909.613 181.1C914.421 185.584 927.285 183.737 938.37 182.417C947.677 181.625 956.984 180.833 960.746 186.284C962.627 189.01 967.332 190.241 972.038 191.472C986.885 195.604 1001 199.296 1016.89 202.461C1020.14 202.813 1023.06 204.571 1025.89 203.076C1043.56 194.545 1048.47 202.283 1055.79 206.679C1063.11 211.076 1073.57 212.57 1080.88 216.966C1098.35 224.264 1114.03 232.089 1130.44 240.354C1126.36 247.477 1122.59 253.194 1118.51 260.317C1104.28 286.875 1070.8 306.663 1048.32 299.542C1035.26 294.882 1019.47 294.971 1002.94 294.62C998.97 293.829 993.636 295.412 988.302 296.996C977.634 300.162 966.652 304.736 957.974 302.714C954.732 302.362 950.444 302.978 945.842 305.001C932.768 311.509 925.867 308.959 916.142 307.905C889.793 303.246 869.921 310.458 844.184 336.489C833.408 347.57 822.843 353.99 809.037 360.059C797.009 365.6 783.409 378.176 772.947 387.849C762.485 397.523 755.265 407.549 743.443 419.597C722.947 418.455 702.452 417.313 683.003 415.204C639.084 411.162 596.944 406.592 554.072 401.583C531.381 399.122 510.051 394.287 488.72 389.452C484.015 388.221 480.671 384.616 479.104 380.483C469.08 347.331 459.789 314.619 448.719 282.435C446.003 276.016 443.287 269.596 440.571 263.177C437.855 256.758 439.845 251.57 448.528 242.423C463.489 227.473 474.476 211.732 487.659 197.309C493.204 191.065 499.064 183.414 507.119 177.082C530.552 157.646 556.597 141.376 577.418 118.775C588.508 106.287 604.721 96.8766 619.785 85.18C636.941 71.5485 652.319 58.4448 668.011 43.9341C671.15 41.032 673.871 36.2832 674.5 33.4691C680.885 19.7505 685.492 6.55957 691.46 -9.00573L696.165 -7.77493Z" fill="#DBEFEE"/>
<path d="M254.64 111.02C252.448 116.394 250.632 120.577 248.505 124.181C241.374 137.375 235.239 150.536 228.107 163.729C223.102 173.319 219.781 182.265 221.758 191.63C222.87 197.487 221.054 201.67 214.561 206.593C205.32 213.961 202.931 224.645 201.605 233.527C200.279 242.409 196.648 250.776 194.324 259.69C188.99 278.129 188.71 294.638 190.115 310.504C196.59 315.01 196.196 325.63 199.924 332.582C201.788 336.058 204.649 339.502 207.887 341.755C211.746 345.167 212.612 348.675 210.044 355.24C204.531 369.56 199.704 383.268 195.189 397.556C194.06 401.128 195.237 405.215 195.106 408.755C194.777 417.605 185.847 425.553 178.243 424.618C169.641 423.716 160.352 423.425 151.063 423.133C148.071 423.23 145.454 422.135 142.462 422.231C131.865 421.393 121.578 421.133 110.981 420.295C107.988 420.391 104.685 419.908 102.755 418.202C95.6588 412.537 86.3699 412.246 76.3942 412.566C71.4063 412.726 66.4841 411.116 61.4962 411.276C47.4645 413.494 34.6273 410.371 19.7774 416.74C18.7798 416.772 17.0953 417.416 16.0977 417.448C3.1292 417.864 -9.72559 424.17 -22.5804 430.475C-39.4911 438.679 -55.6493 444.501 -73.8683 452.157C-73.295 445.657 -73.0981 440.347 -72.9011 435.037C-63.5547 371.093 -53.2107 307.118 -43.8643 243.174C-36.7275 194.034 -29.5908 144.894 -22.4541 95.7534C-20.6207 82.1408 -17.1028 67.8849 -14.5824 53.661C-13.7642 49.5097 -12.3247 46.517 -8.57935 44.0396C11.5867 28.66 31.7528 13.2804 51.2319 -1.48783C86.7556 -27.9677 122.524 -52.0982 160.091 -70.9828C161.089 -71.0148 162.462 -72.2375 163.149 -72.8488C169.577 -76.0016 176.757 -81.5357 181.613 -78.1558C187.091 -73.6173 190.443 -65.4748 188.43 -55.9816C186.041 -45.2976 189.458 -38.9251 190.127 -30.1072C191.041 -18.94 192.953 -7.80484 194.865 3.33034C196.532 12.1162 198.51 21.4814 201.174 30.2352C202.596 36.6718 206.455 40.0837 211.999 42.8522C219.472 47.3267 222.447 56.6598 223.361 67.827C223.475 73.7163 223.212 80.7962 223.326 86.6855C223.798 100.813 231.206 107.058 243.487 107.253C247.477 107.125 250.715 109.378 254.64 111.02Z" fill="#6F8F9A"/>
<path opacity="0.9" d="M399.11 320.609C389.458 311.102 385.315 297.916 386.475 281.505C386.737 273.472 385.929 265.678 384.69 257.775C384.194 254.614 381.991 252.037 379.584 249.915C375.427 246.341 370.428 243.569 370.69 235.536C370.669 234.519 369.783 233.284 369.125 232.613C363.587 224.644 357.618 216.567 351.443 208.944C350.558 207.71 349.899 207.039 348.809 206.259C346.833 204.245 344.447 203.14 342.677 200.672C339.816 197.423 337.161 193.72 334.937 190.126C332.735 187.549 331.375 184.171 329.605 181.702C327.381 178.108 324.931 173.95 322.708 170.356C321.596 168.558 319.642 167.562 318.53 165.765C314.557 160.719 308.716 158.747 301.933 163.119C292.828 169.439 283.496 175.196 273.711 179.827C270.525 181.558 267.338 183.29 264.152 185.021C262.035 186.514 259.692 187.445 258.007 189.046C251.472 194.999 244.731 201.406 238.628 207.467C237.786 208.267 236.738 209.523 235.669 209.761C227.526 210.755 221.876 217.942 215.341 223.894C213.019 225.842 210.265 227.682 207.489 228.504C201.074 229.931 197.067 233.481 194.851 240.517C193.025 245.626 190.518 249.046 185.853 251.925C182.666 253.656 179.296 256.86 177.427 259.933C172.457 268.809 165.405 270.583 158.353 272.356C151.938 273.784 145.523 275.211 140.609 276.509C123.972 302.703 104.841 322.703 80.1946 335.753C83.3459 342.617 85.6333 349.264 88.558 355.565C90.5762 359.615 92.3891 364.118 94.6126 367.713C95.2712 368.384 95.7244 369.51 96.3829 370.182C95.5404 370.983 94.266 371.675 93.4234 372.476C90.6692 374.316 89.4373 377.043 91.0023 379.967C91.8875 381.201 91.9301 383.236 93.0206 384.016C94.7696 385.467 95.0175 387.047 94.8548 389.537C94.7347 394.062 97.1635 397.202 100.23 399.996C102.205 402.01 104.818 403.678 106.999 405.237C111.587 408.919 116.176 412.6 120.764 416.282C121.855 417.062 123.151 417.387 124.446 417.712C125.31 417.929 126.606 418.254 127.47 418.471C130.805 423.862 134.14 429.254 142.099 429.733C142.304 429.278 142.51 428.823 143.147 428.477C148.394 432.83 155.099 435.018 162.421 435.843C169.742 436.667 176.447 438.856 182.926 440.481C186.813 441.456 189.426 443.124 190.786 446.502C191.239 447.628 192.33 448.408 193.194 448.624C196.649 449.491 198.625 451.505 200.189 454.428C204.226 462.527 207.625 470.972 211.662 479.07C214.133 484.245 217.858 487.71 224.52 487.863C227.048 485.461 229.781 482.603 232.741 480.309C237.59 475.958 242.419 470.59 248.586 467.582C251.772 465.851 254.71 462.539 257.67 460.245C258.512 459.444 259.56 458.188 260.403 457.388C264.41 453.838 268.418 450.288 272.425 446.738C274.747 444.79 276.864 443.297 278.981 441.803C281.736 439.964 284.716 438.687 287.471 436.847C295.301 431.22 303.564 425.701 311.189 420.528C313.944 418.689 316.471 416.286 319.247 415.464C322.865 413.841 325.619 412.001 327.92 409.036C329.173 407.326 331.085 406.287 332.338 404.577C336.551 400.572 341.627 396.785 344.318 391.892C347.624 385.636 353.132 381.957 358.209 378.169C361.6 375.983 364.333 373.126 365.976 369.489C367.002 367.216 368.893 365.159 371.01 363.666C375.244 360.679 378.182 357.367 380.461 353.384C383.032 353.017 385.581 351.632 388.129 350.247C392.59 347.823 396.64 346.308 400.527 347.283C401.823 347.609 403.961 347.133 406.326 347.22C407.161 335.788 404.215 328.47 398.083 322.882L399.11 320.609Z" fill="#C2D6D5"/>
<path d="M1347.71 637.31C1335.03 641.96 1324.16 636.148 1315.09 624.524C1300.6 607.087 1286.1 589.65 1271.6 572.214C1266.17 566.401 1260.73 561.752 1253.48 562.914C1251.67 562.914 1248.04 561.752 1247.14 559.427C1240.8 552.452 1234.45 550.127 1226.3 550.127C1211.8 550.127 1196.4 548.965 1181.9 551.29C1162.87 554.777 1145.66 551.29 1129.35 540.828C1117.57 532.69 1105.79 530.366 1092.2 532.69C1089.48 532.69 1085.85 532.69 1083.14 531.528C1071.36 525.716 1058.67 519.904 1046.89 512.929C1041.45 509.442 1035.11 507.117 1028.77 504.792C1020.61 500.142 1013.37 494.33 1009.74 483.868C1007.93 479.218 1006.12 474.568 1001.59 472.243C998.869 471.081 997.056 466.431 994.338 464.106C988.902 458.294 988.902 451.319 992.526 445.507C1001.59 429.233 1009.74 410.634 1026.96 404.822C1033.3 402.497 1038.74 395.522 1044.17 392.035C1049.61 388.547 1055.95 385.06 1061.39 381.573C1070.45 374.598 1080.42 368.786 1087.67 359.486C1094.91 351.349 1102.16 343.212 1111.22 338.562C1119.38 333.913 1124.82 325.775 1128.44 315.313C1131.16 307.176 1136.59 303.689 1141.13 297.877C1152.9 282.765 1170.12 280.44 1182.81 267.653C1196.4 256.029 1209.99 243.242 1223.58 231.618C1225.39 230.455 1226.3 228.13 1228.11 225.805C1246.23 203.719 1262.54 180.47 1286.1 166.521C1293.35 161.871 1297.88 153.734 1303.32 145.597C1309.66 135.135 1311.47 135.135 1321.44 139.784C1324.16 140.947 1327.78 142.109 1330.5 140.947C1339.56 137.46 1347.71 132.81 1354.96 123.51C1359.49 117.698 1366.74 114.211 1373.08 109.561C1377.62 106.074 1382.15 102.586 1386.68 99.0989C1392.11 95.6116 1396.64 92.1243 1402.08 87.4745C1406.61 83.9872 1411.14 81.6623 1414.76 78.1749C1422.01 72.3627 1428.36 65.3881 1434.7 58.4134C1439.23 53.7636 1442.85 49.1139 1447.38 44.4641C1445.57 40.9767 1443.76 37.4894 1441.95 32.8396C1446.48 31.6772 1451.01 29.3523 1452.82 30.5148C1458.26 36.327 1465.51 43.3016 1466.41 50.2763C1468.22 70.0378 1477.29 82.8247 1484.53 97.9365C1490.88 109.561 1498.13 121.185 1504.47 132.81C1505.37 135.135 1507.19 137.46 1507.19 139.784C1508.09 151.409 1513.53 158.384 1519.87 165.358C1523.5 170.008 1525.31 173.495 1525.31 180.47C1525.31 187.445 1526.21 194.419 1528.03 201.394C1532.56 219.993 1528.93 237.43 1520.78 253.704C1518.06 258.354 1516.25 264.166 1516.25 269.978C1516.25 279.278 1513.53 287.415 1509 295.552C1501.75 307.176 1495.41 318.801 1493.59 335.075C1492.69 347.862 1485.44 359.486 1480.91 372.273C1479.1 376.923 1477.29 380.41 1476.38 385.06C1473.66 393.197 1470.94 400.172 1464.6 405.984C1460.07 410.634 1457.35 417.609 1453.73 423.421C1442.85 440.857 1432.89 458.294 1422.01 475.731C1418.39 481.543 1413.86 486.193 1410.23 492.005C1407.52 496.655 1404.8 502.467 1402.08 508.279C1397.55 518.741 1393.02 530.366 1387.58 540.828C1386.68 543.152 1385.77 546.64 1384.86 550.127C1381.24 558.264 1378.52 567.564 1373.99 573.376C1364.93 585 1360.4 598.95 1354.96 612.899C1351.34 619.874 1348.62 628.011 1345.9 636.148L1347.71 637.31Z" fill="#DBEFEE"/>
<path d="M123.863 31.0157C116.06 49.5059 114.435 70.4615 117.361 92.2389C119.311 106.209 122.562 119.358 130.69 127.165C139.792 135.794 149.22 142.368 160.273 141.546C186.931 141.135 198.634 123.878 203.511 117.714C207.087 113.605 209.037 107.853 209.362 101.279C210.337 86.4864 211.963 65.9417 207.737 52.7931C204.486 42.5207 202.86 41.288 198.309 31.4266C184.33 3.48577 130.69 13.7581 123.538 31.0157H123.863Z" fill="#A4C4C1"/>
<path fill-rule="evenodd" clip-rule="evenodd" d="M1078.45 320.209C1084.75 320.209 1090.27 320.209 1095 319.009C1091.84 316.609 1073.72 311.809 1056.38 308.209C1054.81 307.909 1053.04 307.609 1051.26 307.309C1049.49 307.009 1047.72 306.709 1046.14 306.409C1045.35 306.409 1044.56 306.259 1043.78 306.109C1042.99 305.959 1042.2 305.809 1041.41 305.809C1036.68 304.609 1031.96 304.009 1028.81 304.009C1030.72 305.307 1032.47 306.56 1034.1 307.735L1034.1 307.735C1038.51 310.904 1042.12 313.496 1046.14 314.809C1052.44 316.609 1059.54 318.409 1065.84 319.009C1069.78 319.609 1074.51 320.209 1078.45 320.209ZM1370.41 474.392C1370.02 474.242 1369.63 474.092 1369.23 473.792H1368.44C1353.47 467.193 1316.44 467.793 1303.83 475.592H1320.38C1336.92 474.992 1353.47 474.992 1371.6 474.992C1371.2 474.692 1370.81 474.542 1370.41 474.392ZM1070.57 455.219C1075.3 452.819 1083.97 451.619 1092.64 451.619C1107.61 451.019 1125.73 453.419 1137.55 458.219H1090.27C1084.76 458.219 1080.03 458.219 1074.51 457.619H1073.72C1073.33 457.319 1072.94 457.169 1072.54 457.019C1072.15 456.869 1071.75 456.719 1071.36 456.419C1070.97 456.419 1070.77 456.269 1070.57 456.119C1070.38 455.969 1070.18 455.819 1069.78 455.819L1070.57 455.219ZM1179.35 472.65C1178.76 472.8 1178.16 472.95 1177.77 473.25C1176.98 473.25 1176.19 473.85 1175.41 474.45H1213.23H1250.26C1249.31 474.207 1248.35 473.865 1247.34 473.505C1245.86 472.976 1244.26 472.407 1242.38 472.05C1240.81 471.65 1238.53 471.25 1236.26 470.85L1236.26 470.85C1235.12 470.65 1233.98 470.45 1232.93 470.25C1220.32 468.45 1206.14 468.45 1194.32 469.65C1191.17 469.65 1188.01 470.25 1184.86 470.85C1184.07 471.15 1183.48 471.3 1182.89 471.45C1182.3 471.6 1181.71 471.75 1180.92 472.05C1180.53 472.35 1179.94 472.5 1179.35 472.65ZM1106.82 373.647C1116.28 368.247 1147.01 372.447 1168.28 381.447C1150.95 382.047 1113.12 377.247 1106.82 373.647ZM1046.96 395.369C1051.28 395.497 1054.96 395.605 1057.99 395.22H1057.2C1051.69 391.02 1040.65 388.021 1029.62 387.421C1018.59 386.821 1008.35 387.421 1002.83 391.02C1003.14 391.099 1003.48 391.188 1003.84 391.284C1006.26 391.924 1009.96 392.899 1015.44 393.42C1017.41 393.72 1019.38 393.87 1021.35 394.02C1023.32 394.17 1025.29 394.32 1027.26 394.62C1029.23 394.62 1031.2 394.77 1033.17 394.92C1035.14 395.07 1037.11 395.22 1039.08 395.22C1041.91 395.22 1044.53 395.298 1046.96 395.369ZM1080.77 346.078C1080.46 346.196 1080.05 346.303 1079.56 346.398C1072.3 341.762 1057.49 338.879 1035.86 338.879H1035.07C1034.47 338.879 1033.86 338.839 1033.27 338.801C1031.55 338.689 1029.94 338.585 1028.77 339.479C1027.98 340.079 1027.19 341.279 1026.4 343.078C1027.36 343.26 1028.45 343.497 1029.65 343.755L1029.65 343.755C1032.42 344.35 1035.71 345.06 1039.01 345.478C1040.98 345.778 1043.15 345.928 1045.31 346.078C1047.48 346.228 1049.65 346.378 1051.62 346.678C1062.99 347.219 1075 347.273 1079.56 346.398C1079.7 346.491 1079.85 346.584 1079.98 346.678L1080.77 346.078ZM993.364 421.627L993.364 421.627C992.576 421.777 991.788 421.927 991 422.227H991.788C991.788 422.827 992.576 422.827 992.576 422.827C993.018 423.164 993.709 423.311 994.509 423.482C995.134 423.616 995.825 423.764 996.516 424.027C996.91 424.027 997.501 424.177 998.092 424.327C998.683 424.477 999.274 424.627 999.668 424.627C1005.18 425.827 1013.06 427.027 1020.16 427.627C1021.73 428.227 1023.31 428.227 1024.88 428.227C1030.4 428.827 1035.91 428.827 1040.64 428.827C1043.79 428.827 1046.95 428.827 1048.52 428.227C1048.13 427.927 1047.73 427.777 1047.34 427.627C1046.95 427.477 1046.55 427.327 1046.16 427.027C1044.58 425.827 1042.22 425.227 1039.85 424.627C1039.43 424.466 1039.07 424.305 1038.73 424.156C1037.8 423.748 1037.07 423.427 1035.91 423.427C1034.73 423.127 1033.35 422.827 1031.98 422.527L1031.97 422.527L1031.97 422.527C1030.6 422.227 1029.22 421.927 1028.04 421.627C1024.88 421.027 1020.94 420.427 1017.79 420.427C1009.91 419.827 1002.03 419.827 995.728 421.027C994.94 421.327 994.152 421.477 993.364 421.627L993.364 421.627ZM1247.86 401.802H1248.64C1257.31 403.602 1265.19 406.602 1270.71 410.202C1247.86 407.802 1227.37 405.402 1206.09 402.402C1215.55 398.202 1232.88 398.202 1247.86 401.202V401.802ZM1347.91 379.022C1350.28 379.022 1351.85 379.022 1354.22 379.622C1356.58 380.222 1358.95 380.822 1362.1 381.422C1370.77 382.622 1379.43 383.822 1388.89 385.622L1386.53 383.822C1385.57 383.095 1384.33 382.588 1382.97 382.035C1382.09 381.675 1381.15 381.295 1380.22 380.822C1371.55 377.822 1359.73 374.822 1347.13 373.622C1344.76 373.022 1343.19 373.022 1341.61 373.022C1338.46 372.422 1334.52 372.422 1331.37 372.422C1326.64 372.422 1321.91 373.022 1317.97 373.622C1318.36 373.922 1318.76 374.072 1319.15 374.222C1319.55 374.372 1319.94 374.522 1320.33 374.822C1325.06 377.222 1329.79 377.822 1334.52 378.422H1336.88C1340.82 379.022 1343.97 379.022 1347.91 379.022ZM1214.72 454.599H1211.57C1209.21 454.599 1206.84 454.749 1204.48 454.899C1202.12 455.049 1199.75 455.199 1197.39 455.199C1195.02 455.199 1192.66 454.599 1190.3 453.999C1189.9 453.699 1189.31 453.399 1188.72 453.099C1188.13 452.799 1187.54 452.499 1187.14 452.199C1187.54 451.899 1187.93 451.749 1188.33 451.599C1188.72 451.449 1189.11 451.299 1189.51 450.999C1193.45 449.799 1198.18 449.199 1203.69 448.599H1212.36C1219.45 448.599 1227.33 449.799 1233.63 451.599C1236 452.199 1238.36 452.799 1240.73 453.999C1243.09 454.599 1244.67 455.799 1246.24 456.999C1243.22 456.711 1240.56 456.561 1238.01 456.417H1238.01C1235.23 456.261 1232.57 456.111 1229.7 455.799C1224.97 455.799 1220.24 455.199 1215.51 454.599L1215.51 454.599H1214.72ZM1216.61 428.975C1218.12 428.912 1219.61 428.85 1221.08 428.85L1221.86 428.25C1224.23 428.25 1225.8 428.25 1228.17 428.85C1232.89 430.05 1237.62 430.65 1243.14 430.65C1247.87 431.25 1253.38 431.25 1258.9 430.65C1257.32 429.45 1254.96 427.65 1252.59 427.05H1251.81C1233.68 423.45 1215.56 422.25 1197.44 424.65C1203.21 429.534 1210.03 429.25 1216.61 428.975ZM1318.01 349.582C1317.81 349.437 1317.67 349.293 1317.55 349.122C1318.02 349.34 1318.43 349.607 1318.81 349.862L1318.81 349.862C1319.54 350.342 1320.2 350.782 1321.16 350.782C1332.58 351.982 1344.21 353.032 1355.83 354.082L1355.83 354.082L1355.83 354.082C1367.45 355.132 1379.07 356.182 1390.5 357.382C1384.98 351.982 1381.83 350.782 1355.04 348.382C1351.46 348.042 1347.95 347.508 1344.43 346.973C1335.53 345.622 1326.59 344.263 1316.43 345.982C1316.61 346.532 1316.75 346.988 1316.87 347.37L1316.87 347.374L1316.87 347.382L1316.87 347.385L1316.87 347.386C1317.14 348.26 1317.29 348.751 1317.55 349.122C1317.44 349.073 1317.33 349.026 1317.22 348.982L1318.01 349.582ZM1098.57 399.133C1101.52 399.433 1104.48 399.733 1107.63 400.033L1106.84 400.633C1119.45 402.433 1130.48 403.633 1142.3 404.833C1145.06 405.133 1148.01 405.433 1150.97 405.733L1150.97 405.733C1153.92 406.033 1156.88 406.333 1159.64 406.633C1150.18 395.833 1106.84 390.433 1089.51 398.233C1092.66 398.533 1095.61 398.833 1098.57 399.133ZM1090.31 425.162C1089.92 425.162 1089.72 425.012 1089.52 424.862C1089.33 424.712 1089.13 424.562 1088.73 424.562C1091.89 423.362 1096.61 422.162 1101.34 422.162C1108.43 421.562 1117.1 422.162 1124.19 423.962C1131.29 425.762 1138.38 428.162 1142.32 431.162H1136.01C1133.65 431.162 1131.29 431.162 1128.13 430.562C1113.16 429.362 1096.61 426.962 1090.31 425.162ZM1316.02 448.899C1314.83 449.049 1313.65 449.199 1312.47 449.199H1311.68C1306.17 449.799 1300.65 450.999 1296.71 452.799C1302.13 453.074 1307.05 453.223 1311.63 453.361L1311.63 453.361L1311.63 453.361C1317.04 453.525 1321.96 453.674 1326.65 453.999H1329.02C1333.35 454.299 1337.49 454.749 1341.63 455.199L1341.63 455.199C1345.76 455.649 1349.9 456.099 1354.23 456.399C1354.23 456.028 1353.93 455.886 1353.52 455.69C1353.26 455.569 1352.96 455.428 1352.66 455.199C1352.26 455.199 1352.07 455.049 1351.87 454.899C1351.67 454.749 1351.48 454.599 1351.08 454.599C1345.57 450.999 1336.9 449.199 1327.44 448.599H1319.56C1318.38 448.599 1317.2 448.749 1316.02 448.899ZM1330.62 395.179C1328.96 394.758 1327.69 394.042 1326.27 393.237C1325.66 392.895 1325.02 392.537 1324.32 392.179C1336.23 389.792 1346.65 391.583 1356.75 393.321C1359.35 393.768 1361.93 394.211 1364.51 394.579C1365.21 394.579 1365.92 394.7 1366.7 394.833C1367.66 394.997 1368.72 395.179 1370.02 395.179C1371 395.365 1371.9 395.493 1372.77 395.617L1372.77 395.617C1374.71 395.894 1376.51 396.15 1378.69 396.979C1381.05 397.579 1382.63 399.379 1384.21 401.179C1384.6 401.479 1384.8 401.779 1384.99 402.079C1385.19 402.379 1385.39 402.679 1385.78 402.979C1377.11 401.779 1370.02 400.579 1362.93 398.779C1361.75 398.479 1360.57 398.329 1359.38 398.179C1358.2 398.029 1357.02 397.879 1355.84 397.579C1353.29 397.148 1350.54 397.104 1347.66 397.058C1342.52 396.975 1336.97 396.886 1331.41 394.579L1330.62 395.179ZM1323.46 428.816H1327.4V429.416H1329.76C1331.4 429.416 1332.95 429.344 1334.43 429.274C1337.22 429.144 1339.8 429.024 1342.37 429.416H1343.95C1345.13 429.716 1346.51 429.866 1347.89 430.016C1349.27 430.166 1350.65 430.316 1351.83 430.616C1359.71 431.816 1367.59 432.416 1375.47 433.016C1376.26 428.816 1373.89 427.616 1371.53 427.016C1370.6 427.016 1369.95 426.81 1369.41 426.639C1369.03 426.519 1368.7 426.416 1368.38 426.416C1365.22 425.816 1362.07 425.216 1358.13 424.616C1357.34 424.616 1356.75 424.466 1356.16 424.316C1355.57 424.166 1354.98 424.016 1354.19 424.016C1347.89 423.416 1340.01 422.816 1333.7 422.816H1329.76C1321.88 422.816 1314.79 424.016 1310.85 425.216C1313.78 427.447 1317.39 428.122 1320.42 428.688L1320.43 428.689L1320.73 428.747C1320.85 428.77 1320.98 428.793 1321.1 428.816H1323.46ZM1277.78 353.755C1277.37 353.711 1276.96 353.663 1276.55 353.612C1276.47 353.468 1276.4 353.335 1276.34 353.21C1276.08 352.697 1275.9 352.326 1275.41 351.955C1273.84 349.556 1272.26 348.356 1269.9 347.756C1269.45 347.419 1268.76 347.271 1267.96 347.1C1267.34 346.966 1266.65 346.819 1265.96 346.556C1265.17 346.556 1263.59 346.556 1262.02 345.956L1260.01 345.506C1247.82 342.775 1240.46 341.125 1235.22 340.556C1228.52 339.421 1226.04 339.896 1220.46 340.966C1220.14 341.027 1219.81 341.09 1219.46 341.156C1220.56 341.574 1221.28 342.284 1221.88 342.879L1221.88 342.879L1221.88 342.879L1221.88 342.879C1222.14 343.137 1222.38 343.374 1222.62 343.556C1226.41 346.445 1231.67 347.108 1236.27 347.689L1236.8 347.756H1238.38C1239.95 348.356 1240.74 348.356 1242.32 348.356C1243.89 348.356 1246.26 348.356 1247.83 348.956C1250.2 349.256 1252.56 349.706 1254.92 350.155C1257.29 350.605 1259.65 351.055 1262.02 351.355C1264.08 351.618 1266.3 351.995 1268.6 352.386C1271.18 352.824 1273.85 353.279 1276.55 353.612C1276.67 353.833 1276.81 354.078 1276.99 354.355L1277.78 353.755ZM1174.16 360.139C1174.84 360.065 1175.48 359.946 1176.12 359.784L1174.54 360.384C1174.42 360.302 1174.29 360.221 1174.16 360.139ZM1141.44 350.184C1153.81 351.949 1167.69 356.021 1174.16 360.139C1172.36 360.34 1170.32 360.221 1167.45 359.784H1163.51C1161.44 359.469 1159.37 359.319 1157.19 359.161C1155.21 359.018 1153.15 358.869 1150.9 358.584C1150.11 358.584 1149.32 358.434 1148.54 358.284C1147.75 358.134 1146.96 357.984 1146.17 357.984C1143.51 357.646 1141.1 357.118 1138.8 356.614C1137.01 356.223 1135.29 355.846 1133.56 355.584C1132.78 355.284 1132.19 355.134 1131.59 354.984C1131 354.834 1130.41 354.684 1129.62 354.384C1124.9 353.184 1120.17 351.384 1117.02 350.184L1117.02 350.184L1117.02 350.184C1120.17 348.984 1124.9 348.984 1129.62 348.984C1130.81 348.984 1132.19 349.134 1133.56 349.284C1134.94 349.434 1136.32 349.584 1137.5 349.584C1138.43 349.584 1139.35 349.79 1140.12 349.96C1140.66 350.081 1141.12 350.184 1141.44 350.184ZM1057.2 371.182C1046.95 371.782 1036.71 370.582 1026.47 368.782C1025.28 368.482 1024.3 368.332 1023.31 368.182C1022.33 368.032 1021.34 367.882 1020.16 367.582C1019.68 367.582 1019.19 366.895 1018.52 365.944L1018.52 365.944C1018.1 365.357 1017.61 364.67 1017.01 363.982C1016.52 363.611 1016.34 363.241 1016.08 362.728C1015.92 362.411 1015.74 362.041 1015.43 361.582C1020.16 361.582 1025.68 362.182 1029.62 362.782C1030.8 362.782 1031.98 362.932 1033.16 363.082C1034.35 363.232 1035.53 363.382 1036.71 363.382C1047.74 365.182 1058.77 366.982 1069.02 369.982C1065.08 370.582 1060.35 371.182 1056.41 371.182H1057.2ZM1176.92 339.957H1180.07C1175.34 335.757 1165.88 332.157 1156.43 330.357C1146.97 327.958 1135.94 327.958 1128.85 329.757C1129.15 330.216 1129.34 330.587 1129.49 330.903C1129.75 331.416 1129.94 331.787 1130.42 332.157C1130.73 332.387 1130.91 332.616 1131.07 332.812C1131.33 333.128 1131.51 333.357 1132 333.357C1132.49 333.728 1132.97 333.87 1133.65 334.066C1134.06 334.187 1134.55 334.328 1135.15 334.557C1137.52 335.157 1140.67 335.757 1144.61 336.357C1145.4 336.357 1145.99 336.507 1146.58 336.657C1147.17 336.807 1147.76 336.957 1148.55 336.957C1157.22 338.157 1168.25 339.357 1174.55 339.957H1176.92ZM1251 377.18C1251.79 377.18 1252.58 377.33 1253.37 377.48C1254.15 377.63 1254.94 377.78 1255.73 377.78C1256.56 377.992 1257.49 378.129 1258.45 378.27C1260.22 378.529 1262.08 378.803 1263.61 379.58C1266.76 380.78 1269.91 382.58 1273.07 385.58C1273.85 386.18 1274.64 387.38 1274.64 387.98C1272.28 387.68 1269.72 387.23 1267.16 386.78C1264.6 386.33 1262.03 385.88 1259.67 385.58C1245.49 383.18 1232.09 380.78 1218.7 378.38C1218.7 377.78 1218.7 376.58 1219.48 375.98C1221.06 375.38 1222.64 374.78 1224.21 374.78C1227.36 374.18 1230.52 374.18 1233.67 374.18C1238.91 374.679 1243.6 375.592 1248.65 376.575L1248.66 376.575C1249.68 376.775 1250.73 376.978 1251.79 377.18H1251ZM1278.55 366.725C1278.56 366.641 1278.56 366.555 1278.56 366.465L1279.35 367.065C1279.08 366.95 1278.82 366.837 1278.55 366.725ZM1278.17 367.965C1278.34 367.582 1278.5 367.2 1278.55 366.725C1260.65 359.23 1241.2 358.065 1219.46 358.065C1219.86 358.365 1220.06 358.665 1220.25 358.965C1220.45 359.265 1220.65 359.565 1221.04 359.865L1222.62 361.065C1223.4 361.665 1224.98 362.265 1226.56 362.865L1226.56 362.865C1226.88 362.865 1227.21 362.968 1227.59 363.088C1228.13 363.259 1228.78 363.465 1229.71 363.465C1232.86 364.065 1238.38 364.665 1247.04 365.265C1250.2 365.265 1252.56 365.265 1254.92 365.865C1257.29 366.165 1259.85 366.615 1262.41 367.065C1264.97 367.515 1267.53 367.965 1269.9 368.265C1271.34 368.54 1272.62 368.689 1273.81 368.827C1275.22 368.991 1276.5 369.14 1277.77 369.465C1277.77 368.865 1277.97 368.415 1278.17 367.965Z" fill="#E9C330"/>
<path opacity="0.9" fill-rule="evenodd" clip-rule="evenodd" d="M190.247 479.853C186.152 482.717 183.463 482.885 180.997 482.127L180.517 482.548C180.02 482.253 179.708 481.979 179.395 481.705C179.083 481.431 178.77 481.157 178.274 480.862C176.03 479.177 174.489 476.143 172.948 473.11C171.407 470.076 170.346 466.621 170.021 463.25C170.004 462.534 169.931 462.05 169.859 461.565L169.859 461.565C169.786 461.08 169.713 460.596 169.696 459.88L169.696 459.88C169.629 457.015 169.561 454.15 170.709 450.948C171.155 449.095 171.343 446.735 171.532 444.376C171.755 443.449 172.201 441.596 172.167 440.163C172.613 438.309 173.315 436.961 174.275 436.119C174.754 435.698 175.234 435.276 175.971 435.361C176.227 435.866 176.964 435.951 177.7 436.035C178.197 436.33 178.878 436.646 179.559 436.962C180.239 437.278 180.92 437.594 181.417 437.889C182.41 438.479 183.404 439.069 184.654 440.165C184.915 440.394 185.164 440.6 185.403 440.798C186.309 441.547 187.058 442.167 187.668 443.367C188.918 444.463 189.209 446.401 189.5 448.339L189.756 448.845C190.081 452.215 190.885 455.164 191.69 458.113L191.69 458.114C191.707 458.83 191.908 459.567 192.109 460.305C192.31 461.042 192.511 461.779 192.528 462.495C193.119 464.659 193.331 467.549 193.53 470.265L193.53 470.266L193.53 470.266C193.602 471.252 193.673 472.215 193.759 473.113C194.016 473.618 194.05 475.05 194.084 476.483L194.084 476.483L192.165 478.168L190.247 479.853ZM260.899 433.22C261.893 433.81 262.629 433.895 263.366 433.979C264.839 434.148 266.535 433.39 268.453 431.705L269.413 430.862C271.331 429.177 271.554 428.25 271.486 425.386C271.358 425.133 271.349 424.775 271.341 424.417C271.332 424.058 271.324 423.7 271.196 423.448C271.089 423.238 271.065 422.956 271.037 422.626C270.997 422.16 270.949 421.596 270.648 421.004C274.04 419.488 272.978 416.033 271.694 413.505L267.071 404.404L262.449 395.303L261.678 393.786C261.421 393.28 261.165 392.775 260.428 392.69C259.914 391.679 258.921 391.089 257.928 390.499C257.799 390.246 257.551 390.099 257.303 389.951C257.054 389.804 256.806 389.656 256.678 389.404C256.549 389.151 256.301 389.003 256.052 388.856C255.804 388.708 255.556 388.561 255.427 388.308C254.434 387.718 253.697 387.634 252.481 387.97C250.529 388.223 248.576 388.475 247.873 389.824C244.772 393.278 245.611 397.66 247.186 402.126C247.512 403.028 247.835 403.927 248.157 404.821C251.202 413.273 254.114 421.358 257.628 429.512C258.399 431.029 259.169 432.546 260.163 433.136L260.899 433.22ZM228.278 442.731C227.559 442.225 226.84 441.719 226.092 441.158L225.869 442.084C224.747 441.242 223.69 440.525 222.632 439.809C221.575 439.092 220.517 438.376 219.395 437.533C216.895 435.342 215.388 433.741 214.84 431.297C214.327 430.286 214.55 429.359 214.773 428.432L215.664 424.725C216.367 423.377 216.589 422.45 216.812 421.523C217.481 418.743 218.406 416.468 219.811 413.771C220.737 411.497 221.696 410.654 222.656 409.812C223.135 409.39 223.615 408.969 224.352 409.053C225.088 409.138 226.081 409.728 226.852 411.245C227.527 412.362 228.221 413.481 228.92 414.609C232.706 420.719 236.669 427.113 238.923 435.008C238.13 435.704 237.406 436.119 236.754 436.492C236.222 436.796 235.739 437.073 235.308 437.451C236.369 440.906 235.701 443.687 233.782 445.372L232.823 446.214C231.156 444.753 229.717 443.742 228.278 442.731ZM168.572 395.638C167.269 394.216 165.77 392.58 163.958 391.219L163.702 390.714C163.573 390.461 163.325 390.314 163.077 390.166C162.828 390.019 162.58 389.871 162.451 389.618C161.458 389.028 160.944 388.017 160.688 387.511C160.431 387.006 160.174 386.5 160.397 385.573C160.62 384.647 161.802 382.877 162.984 381.108L170.078 370.492C170.639 369.999 171.113 369.332 171.506 368.779L171.506 368.779L171.506 368.779C171.784 368.388 172.021 368.055 172.219 367.88L173.179 367.038C174.138 366.195 175.131 366.785 176.382 367.881C177.118 367.965 177.375 368.471 177.632 368.976C181.673 374.201 185.714 379.426 189.276 385.072C191.81 388.696 194.344 392.319 199.243 392.404C199.156 399.061 197.819 404.622 194.752 409.509C194.512 409.719 194.337 410.057 194.161 410.394C193.985 410.731 193.81 411.068 193.57 411.278C193.505 411.363 193.441 411.448 193.378 411.531L193.202 411.766L192.949 412.104C191.602 413.902 190.569 415.282 189.509 415.575C187.334 416.754 185.347 415.574 183.327 412.962C183.07 412.456 182.693 412.056 182.316 411.656C181.939 411.255 181.563 410.855 181.306 410.349C179.028 407.231 177.008 404.619 174.987 402.007C174.377 401.358 173.646 400.696 172.875 399.998L172.875 399.998L172.875 399.998L172.875 399.998L172.874 399.997L172.874 399.997L172.874 399.997L172.874 399.997L172.874 399.997L172.874 399.997L172.874 399.997L172.874 399.996C171.741 398.97 170.522 397.866 169.473 396.613C169.183 396.305 168.883 395.977 168.572 395.638ZM349.778 262.702C349.042 262.618 347.569 262.449 347.312 261.943L346.096 262.28C342.992 259.948 340.224 256.971 337.401 253.934C336.143 252.581 334.874 251.216 333.56 249.892C332.567 249.302 332.31 248.796 331.796 247.785C330.512 245.257 330.667 241.465 331.336 238.685C331.781 236.831 332.484 235.483 333.187 234.135C333.666 233.713 333.962 233.271 334.257 232.829C334.553 232.387 334.849 231.944 335.328 231.523C336.51 229.754 337.47 228.911 339.166 228.153C341.821 226.552 344.287 227.311 345.794 228.912C347.045 230.008 348.175 231.209 349.305 232.41C350.435 233.611 351.566 234.812 352.816 235.907C353.201 235.951 353.385 235.972 353.509 236.055C353.623 236.13 353.687 236.256 353.809 236.497C354.306 236.792 354.683 237.192 355.059 237.593C355.436 237.993 355.813 238.393 356.309 238.688C356.806 238.983 357.183 239.384 357.56 239.784C357.936 240.184 358.313 240.585 358.81 240.879C359.692 241.933 360.629 242.755 361.567 243.576C362.505 244.398 363.442 245.22 364.324 246.273C363.656 249.054 362.987 251.834 361.325 254.025C360.622 255.373 359.92 256.721 358.481 257.985L356.562 259.669C355.842 260.301 355.179 260.701 354.515 261.102C353.851 261.502 353.187 261.902 352.468 262.534C352.099 262.492 351.611 262.555 351.123 262.618C350.635 262.681 350.147 262.744 349.778 262.702ZM332.29 320.402C333.797 322.003 334.79 322.593 336.743 322.341C336.982 322.13 337.167 322.151 337.351 322.172C337.535 322.194 337.719 322.215 337.959 322.004C338.695 322.088 339.655 321.246 340.614 320.403L342.053 319.14L343.013 318.297C343.252 318.087 343.428 317.75 343.604 317.413L343.604 317.413C343.779 317.076 343.955 316.738 344.195 316.528C344.435 316.317 344.49 316.086 344.546 315.854C344.602 315.622 344.658 315.39 344.897 315.18C345.343 313.326 345.532 310.967 344.505 308.944L340.139 300.349L336.8 293.776L335.259 290.742C334.745 289.731 334.232 288.72 333.238 288.13C330.704 284.506 328.272 285.18 324.434 288.55C323.954 288.971 323.475 289.393 323.252 290.319C319.928 294.701 319.293 298.914 320.834 301.947C324.2 307.37 327.739 312.073 331.475 317.036C331.977 317.703 332.483 318.375 332.992 319.054L332.29 320.402ZM285.688 290.871C286.201 291.883 287.195 292.473 288.188 293.063C290.911 294.327 293.309 292.221 295.417 288.176C297.525 284.132 297.68 280.34 295.402 277.222C294.65 275.742 293.641 274.487 292.362 272.896C291.893 272.314 291.389 271.686 290.847 270.986L289.05 267.447L288.022 265.425L286.995 263.402C285.231 261.295 282.765 260.537 279.853 261.632C278.157 262.39 276.461 263.148 275.279 264.917C275.039 265.128 274.743 265.57 274.448 266.012L274.448 266.012L274.448 266.013C274.152 266.455 273.857 266.897 273.617 267.108C273.394 268.035 273.171 268.961 273.428 269.467C273.205 270.394 273.719 271.405 273.975 271.911L275.516 274.944L275.517 274.946C278.822 280.086 282.126 285.226 285.688 290.871ZM218.771 320.281C217.778 319.691 216.784 319.101 216.271 318.09L216.528 318.596C212.966 312.95 209.661 307.809 206.356 302.669L204.815 299.635C204.559 299.129 204.045 298.118 204.268 297.191C204.011 296.686 204.234 295.759 204.457 294.832L204.457 294.832C204.697 294.622 204.992 294.179 205.288 293.737L205.288 293.737L205.288 293.737C205.583 293.294 205.879 292.852 206.119 292.642C207.301 290.872 208.997 290.114 210.693 289.356C213.348 287.755 215.814 288.514 217.578 290.621L218.605 292.643L219.633 294.666L221.431 298.205C221.972 298.905 222.476 299.532 222.944 300.114L222.945 300.115L222.945 300.115C224.224 301.706 225.233 302.961 225.986 304.441C228.263 307.559 228.108 311.351 226 315.395C223.893 319.439 221.494 321.546 218.771 320.281ZM243.772 360.536C243.591 360.445 243.413 360.348 243.24 360.245L244.233 360.835C244.084 360.747 243.93 360.647 243.772 360.536ZM254.254 360.078C250.607 361.903 246.703 362.009 243.772 360.536C242.876 359.907 241.874 358.922 241.219 357.633L238.651 352.577L236.083 347.52C235.782 346.928 235.645 346.191 235.533 345.581C235.453 345.149 235.385 344.781 235.278 344.571C234.987 342.633 235.433 340.779 235.879 338.926C235.99 338.462 236.222 337.894 236.453 337.325C236.684 336.756 236.916 336.187 237.027 335.724C236.77 335.218 237.25 334.797 237.25 334.797C238.655 332.101 240.574 330.416 242.27 329.658C242.429 329.97 242.672 329.929 243.009 329.871C243.218 329.836 243.461 329.794 243.743 329.827C245.216 329.995 246.209 330.585 247.716 332.187C248.453 332.271 248.966 333.282 249.223 333.788L251.535 338.338L252.819 340.866L252.339 341.288C253.478 342.847 254.497 344.511 255.515 346.175C256.534 347.84 257.553 349.504 258.692 351.063L259.205 352.074C259.462 352.58 259.719 353.085 259.496 354.012L259.273 354.939C259.05 355.866 258.348 357.214 257.389 358.056L256.429 358.899C256.189 359.109 255.765 359.299 255.341 359.489C254.917 359.678 254.493 359.868 254.254 360.078ZM217.181 378.694C217.249 381.558 217.796 384.002 219.303 385.603C220.81 387.205 222.574 389.311 223.858 391.839C225.622 393.946 226.649 395.969 227.933 398.497L227.933 398.497C228.447 399.508 228.704 400.013 229.44 400.098C229.569 400.351 229.753 400.372 229.937 400.393C230.121 400.414 230.305 400.435 230.434 400.688C231.17 400.772 232.387 400.435 233.089 399.087C235.231 396.475 237.115 393.358 239 390.241C239.352 389.567 239.647 389.124 239.943 388.682C240.238 388.24 240.534 387.797 240.885 387.123L241.108 386.196C241.331 385.27 241.04 383.332 240.526 382.32L240.27 381.815L240.013 381.309L238.54 381.14C238.043 380.845 237.731 380.572 237.418 380.298L237.418 380.298C237.105 380.024 236.793 379.75 236.296 379.455L235.783 378.444L235.269 377.432L234.755 376.421L234.242 375.41L233.471 373.893L231.673 370.354C231.16 369.343 230.646 368.331 229.396 367.236C227.889 365.635 226.895 365.045 224.72 366.224C224.48 366.435 224.176 366.519 223.872 366.603C223.568 366.687 223.264 366.771 223.024 366.982C219.666 369.931 217.336 374.902 217.438 379.199L217.181 378.694ZM371.031 291.499C368.342 291.667 365.876 290.909 363.889 289.729L364.848 288.886C362.862 287.706 360.618 286.021 359.111 284.42C358.486 283.872 357.981 283.219 357.476 282.566C356.971 281.912 356.465 281.259 355.84 280.712C354.813 278.689 354.009 275.74 354.677 272.959C354.386 271.021 355.312 268.746 356.014 267.398C356.261 267.029 356.487 266.678 356.703 266.343L356.703 266.342C357.522 265.07 358.2 264.017 359.338 263.017L361.257 261.332C362.953 260.574 365.163 260.827 366.413 261.923C371.191 267.232 375.232 272.457 379.53 278.187C380.044 279.198 380.557 280.21 380.334 281.136C380.368 282.569 379.666 283.917 378.484 285.686L378.483 285.686C377.781 287.034 377.078 288.383 376.119 289.225C374.68 290.489 373.241 291.752 371.031 291.499ZM234.966 281.203C236.73 283.31 238.237 284.911 240.96 286.176C242.69 286.85 244.643 286.597 246.082 285.334L248.96 282.806C250.399 281.543 251.102 280.195 251.547 278.341C251.77 277.414 251.993 276.487 251.479 275.476C250.05 271.979 248.804 268.503 247.559 265.027C246.314 261.551 245.068 258.075 243.639 254.578C242.868 253.061 240.882 251.881 238.929 252.134C238.192 252.049 237.713 252.47 236.753 253.313C235.057 254.071 234.098 254.913 232.916 256.683C231.733 258.452 231.031 259.8 230.106 262.075C228.957 265.277 228.768 267.636 228.836 270.501C229.607 272.018 230.377 273.535 230.668 275.473C231.952 278.001 232.979 280.023 234.743 282.13L234.966 281.203ZM268.903 328.89L267.619 326.362L267.396 327.289C265.085 322.738 261.964 318.898 258.843 315.059C257.803 313.779 256.762 312.499 255.752 311.193C254.981 309.676 254.468 308.665 254.434 307.232C254.177 306.727 254.4 305.8 254.623 304.873C254.623 304.873 254.366 304.367 254.846 303.946C255.085 303.735 255.141 303.504 255.197 303.272C255.253 303.04 255.308 302.809 255.548 302.598C256.73 300.829 257.433 299.481 258.136 298.132C258.615 297.711 258.911 297.269 259.206 296.827C259.502 296.384 259.797 295.942 260.277 295.521L261.237 294.678L262.196 293.836C262.196 293.836 262.676 293.415 263.412 293.499C264.628 293.162 266.872 294.848 267.899 296.87L269.183 299.398L272.008 304.96L273.293 307.488L273.772 307.067L276.597 312.628L279.422 318.19C280.963 321.224 281.254 323.162 280.808 325.015C280.569 325.226 280.513 325.458 280.457 325.689C280.401 325.921 280.346 326.153 280.106 326.364C279.883 327.29 279.403 327.712 278.444 328.554C277.262 330.323 275.566 331.082 274.35 331.418C271.917 332.092 270.187 331.418 268.903 328.89ZM198.011 353.235C199.228 352.898 199.707 352.477 201.146 351.213C203.065 349.528 204.504 348.264 204.95 346.411C206.355 343.714 206.51 339.923 204.969 336.889L200.346 327.788L200.826 327.367C200.213 326.16 199.709 324.858 199.183 323.496C198.606 322.005 198.002 320.442 197.196 318.856C196.426 317.339 195.176 316.243 194.182 315.653C191.459 314.389 188.77 314.557 185.378 316.073C183.682 316.831 182.5 318.601 181.318 320.37C180.838 320.791 180.615 321.718 180.169 323.572C180.029 324.156 179.977 324.372 180.022 324.578C180.048 324.7 180.108 324.817 180.203 325.004C180.332 325.257 180.276 325.489 180.22 325.721C180.165 325.952 180.109 326.184 180.237 326.437C181.555 330.397 183.353 333.936 185.408 337.981L185.408 337.981C186.277 339.692 187.034 341.501 187.816 343.37L187.816 343.371C188.652 345.369 189.517 347.436 190.578 349.526C191.349 351.043 191.862 352.054 192.856 352.644C194.363 354.245 195.836 354.414 197.788 354.162L198.011 353.235ZM305.055 268.152L315.536 276.496C316.033 276.791 316.29 277.296 316.515 277.739C316.739 278.181 316.932 278.56 317.3 278.603C318.037 278.687 320.469 278.013 321.908 276.749C323.347 275.486 325.232 272.368 324.975 271.863C324.444 269.915 323.383 268.115 322.279 266.243C321.712 265.28 321.133 264.298 320.609 263.267L321.089 262.846L317.493 255.768C316.466 253.745 314 252.986 308.5 258.547C303.48 263.686 302.812 266.467 304.798 267.647L305.055 268.152ZM295.964 383.431C293.343 386.464 290.464 388.991 287.586 391.519L287.107 391.94C280.391 397.837 276.999 399.353 276.418 395.477C275.593 390.86 275.143 385.524 274.707 380.355C274.546 378.448 274.387 376.565 274.212 374.749C282.59 366.661 285.536 366.998 287.3 369.105C289.32 371.717 291.118 375.257 292.659 378.29C293.909 379.386 294.937 381.408 295.964 383.431L295.964 383.431Z" fill="#E9C330"/>
<path opacity="0.9" d="M370.42 -19.1551C373.896 -11.2195 376.738 -3.5571 376.003 6.02506C375.147 15.0598 372.757 24.9173 370.879 34.5006C369.269 42.7148 365.25 50.3838 360.988 56.9581C347.814 77.5024 334.008 97.7737 321.345 118.044C315.013 128.179 307.442 135.304 299.482 143.25C284.072 158.869 267.665 172.573 250.626 186.003C247.681 188.196 245.247 190.115 241.279 192.856C243.132 185.737 245.228 179.712 246.691 173.414C256.345 136.996 271.571 102.488 290.591 69.6186C300.941 51.8146 313.31 35.3773 325.047 18.6669C333.812 6.6132 344.839 -2.97887 356.985 -10.1082C361.463 -13.1238 365.942 -16.1395 371.053 -18.8819L370.42 -19.1551Z" fill="#DBEFEE"/>
<path opacity="0.9" d="M71.9171 185.617C72.7915 184.218 73.1757 182.887 73.6659 182.818C81.6282 177.239 89.5374 171.028 98.9569 170.993C116.325 171.129 132.978 174.557 150.068 177.286C163.674 179.861 177.28 182.437 190.448 185.712C199.046 187.708 206.823 191.734 214.705 197.022C219.435 200.196 220.945 206.372 222.893 211.849C223.754 216.199 220.813 216.609 218.905 217.513C212.638 219.663 206.372 221.814 200.596 223.896C199.615 224.032 198.198 224.868 197.217 225.005C189.692 229.885 181.743 229.715 173.689 228.282C162.64 226.628 151.101 225.042 139.999 222.756C133.958 221.682 127.757 218.713 122.153 216.939C110.349 212.197 98.4925 206.823 87.4569 199.419C83.7607 196.74 80.0116 193.43 76.2624 190.121C74.6859 189.063 73.9838 186.606 72.3543 184.917L71.9171 185.617Z" fill="#DBEFEE"/>
<path d="M124.615 547.755C123.231 543.73 122.538 539.705 121.846 536.484C121.154 532.459 119.769 528.434 119.077 525.214C118.385 520.383 117.692 515.553 117 509.918C117 508.308 116.308 506.698 116.308 505.087C115.615 500.257 114.231 497.037 111.462 496.232C110.077 495.427 108 496.232 105.231 497.037C104.538 497.037 103.846 497.842 103.154 497.842C97.6154 500.257 93.4615 505.087 90 512.333C94.8462 517.163 95.5385 523.604 96.2308 530.044C96.9231 539.705 98.3077 549.365 99.6923 559.026C99.6923 559.831 99.6923 560.636 100.385 561.441C101.077 563.856 101.769 565.466 103.154 565.466C103.846 565.466 103.846 565.466 104.538 565.466C105.231 565.466 106.615 564.661 108 564.661C112.154 563.051 116.308 561.441 120.462 559.831C122.538 559.026 124.615 558.221 125.308 557.416C126 556.611 126 555.806 126 555.001C126 554.196 126 552.585 125.308 550.975C125.308 550.17 124.615 549.365 124.615 548.56V547.755Z" fill="#2B3545"/>
<path d="M88.2803 431.754C86.9558 428.014 85.6314 425.022 84.3069 420.534C83.6447 420.534 83.6447 420.534 82.9825 420.534C80.3336 420.534 78.347 422.778 77.6848 427.266C76.3603 427.266 75.0359 426.518 73.0493 426.518C71.0626 438.486 72.387 450.455 73.0493 461.676C73.0493 463.92 73.7115 465.416 74.3737 466.164C75.0359 466.912 75.6981 466.912 76.3603 466.912C77.6848 466.912 79.0092 466.912 80.9959 465.416C83.6447 463.92 85.6314 462.424 87.618 460.18C88.2803 459.432 88.9425 458.684 90.2669 457.935C91.5913 456.439 92.2536 455.691 92.9158 454.943C93.578 454.195 94.2402 453.447 94.2402 451.951C94.9024 448.959 94.2402 445.967 92.9158 441.479C91.5913 437.738 90.2669 434.746 88.9425 431.006L88.2803 431.754Z" fill="#2B3545"/>
<path d="M52.3125 408.568C51.4688 407.017 50.625 406.242 49.7812 405.467C48.0938 403.917 45.5625 403.141 42.1875 403.141C41.3438 403.141 40.5 403.141 40.5 403.141C37.125 403.141 36.2812 403.917 34.5938 407.017C34.5938 407.792 33.75 408.568 33.75 409.343C33.75 410.118 32.9062 410.893 32.9062 412.443C27.8438 410.893 27 415.544 27 419.42C27 424.071 27 428.722 27 433.373C27 438.024 27 442.675 27 447.326C27 448.101 27 448.877 27 449.652C27 450.427 27 451.202 27.8438 451.977C27.8438 453.528 28.6875 455.078 29.5312 456.628C29.5312 457.404 30.375 458.179 30.375 458.954C30.375 459.729 31.2188 460.504 31.2188 461.279C32.0625 462.83 32.9062 463.605 34.5938 464.38C37.125 465.93 39.6562 467.481 41.3438 466.706C47.25 465.93 48.9375 460.504 49.7812 454.303C51.4688 441.125 53.1562 428.722 54 415.544C54 413.219 54 410.893 53.1562 409.343L52.3125 408.568Z" fill="#2B3545"/>
<path d="M30.75 502.77C28.5 497.34 24 492.816 18.75 491.006C18 491.006 16.5 490.101 15.75 490.101C15 490.101 15 490.101 14.25 490.101C12.75 490.101 11.25 491.006 10.5 491.911L9.75 492.816C9 493.721 9 494.626 9 495.531C9 496.435 9 496.435 9 497.34C9.75 503.675 9.75 510.01 10.5 516.344H9.75C9.75 518.154 9.75 519.059 9.75 520.869C9.75 523.584 9.75 526.298 9.75 529.013C9.75 530.823 9.75 531.728 10.5 532.633C11.25 536.253 12 538.063 13.5 539.872C14.25 540.777 15 540.777 15 541.682C17.25 542.587 20.25 542.587 23.25 540.777C23.25 540.777 24 540.777 24 539.872C24.75 538.967 26.25 538.063 27 537.158C28.5 535.348 30 533.538 30.75 530.823C30.75 529.918 31.5 528.108 31.5 526.298C31.5 523.584 31.5 519.964 31.5 517.249C31.5 514.534 31.5 510.914 31.5 508.2C31.5 505.485 30.75 502.77 30 500.96L30.75 502.77Z" fill="#2B3545"/>
<path d="M70.0657 510C71.6828 506.365 72.4914 502.73 71.6828 499.095C70.8742 495.46 70.0657 490.916 70.0657 486.373C69.2571 481.829 69.2571 478.194 69.2571 473.65C69.2571 471.832 68.4485 470.924 68.4485 470.015C68.4485 469.106 67.6399 469.106 67.6399 468.197C66.8314 467.289 65.2142 466.38 63.5971 467.289C59.5543 468.197 55.5114 470.015 51.4686 471.832C49.8514 472.741 49.0428 473.65 47.4257 473.65C47.4257 473.65 47.4257 473.65 46.6171 474.559C45.8086 475.467 45 478.194 45 480.011V480.92V481.829C45.8086 482.737 45.8086 483.646 46.6171 483.646C47.4257 485.464 47.4257 486.373 48.2343 488.19C48.2343 489.099 48.2343 490.008 48.2343 490.008C48.2343 490.916 48.2343 491.825 48.2343 491.825C48.2343 492.734 48.2343 493.643 48.2343 493.643C48.2343 494.551 48.2343 495.46 48.2343 496.369C48.2343 497.278 48.2343 498.186 48.2343 499.095C48.2343 500.913 48.2343 502.73 48.2343 505.456C48.2343 507.274 48.2343 509.092 49.0428 511.818C49.8514 515.453 50.66 517.27 53.8943 518.179C54.7028 518.179 55.5114 519.088 57.1285 519.088C62.7885 519.088 68.4485 515.453 70.8742 510H70.0657Z" fill="#2B3545"/>
<path d="M139.959 429.072C137.02 426.635 134.082 425.823 130.408 426.635C129.673 426.635 128.939 427.448 128.204 427.448C127.469 427.448 126.735 428.26 126 428.26C126 429.884 126.735 431.509 126.735 432.321C127.469 436.382 127.469 441.255 128.939 445.317C128.939 446.941 129.673 449.378 130.408 451.002C131.143 455.063 132.612 458.312 133.347 462.374V463.186C134.082 465.622 134.816 468.059 135.551 469.684C136.286 471.308 137.755 473.745 138.49 474.557C139.959 476.182 140.694 477.806 142.163 478.618C143.633 480.243 145.102 481.055 146.571 482.679C147.306 483.492 148.041 483.492 148.776 484.304C149.51 484.304 150.245 484.304 150.245 484.304C150.98 483.492 151.714 482.679 151.714 481.055C151.714 479.43 151.714 477.806 151.714 476.182C151.714 473.745 151.714 471.308 152.449 468.871C153.184 465.622 153.184 462.374 152.449 459.125C152.449 457.5 151.714 456.688 151.714 455.063C150.98 451.002 149.51 446.941 148.041 442.88C146.571 438.819 144.367 433.945 142.163 430.696C141.429 429.884 140.694 429.072 139.224 428.26L139.959 429.072Z" fill="#2B3545"/>
<path opacity="0.7" d="M1449.47 553.579C1439.72 540.468 1430.84 540.046 1417.79 552.457C1404.75 564.868 1392.12 572.316 1375.1 565.375C1367.47 562.33 1361.73 566.656 1355.07 572.472C1346.28 580.486 1337.39 592.328 1324.72 589.426C1322.37 588.931 1320.24 591.129 1318.16 591.414C1314.27 592.762 1309.78 594.465 1305.34 594.254C1299.42 593.973 1293.5 593.691 1288.65 598.443C1287.44 599.152 1285.64 600.216 1284.48 599.012C1277.78 594.477 1272.04 598.804 1265.75 601.571C1252.89 606.325 1239.48 609.521 1226.67 600.097C1222 597.192 1216.41 595.776 1210.49 595.495C1200.73 594.648 1198.1 593.373 1196.62 581.038C1194.64 565.23 1193.87 548.712 1192.49 532.55C1192.53 530.636 1192.58 528.721 1193.23 526.453C1197.3 517.448 1201.38 508.443 1205.45 499.438C1206.7 496.815 1208.88 492.702 1210.36 492.773C1218.92 494.329 1220.91 485.609 1224.61 479.652C1232.94 466.251 1242.15 453.274 1250.49 439.872C1252.34 436.894 1253.91 433.136 1255.49 429.379C1259.38 415.766 1262.12 400.948 1266.89 387.761C1270.45 375.283 1275.78 363.654 1279.62 351.956C1280.92 347.418 1281.94 342.101 1283.24 337.563C1290.42 310.693 1297.33 283.042 1298.92 254.756C1299.85 241.003 1308.09 231.429 1314.84 221.785C1326.18 206.61 1333.13 189.31 1338.37 169.246C1339.34 165.842 1339.16 161.235 1341.29 159.036C1352.85 146.555 1358.92 128.83 1370.21 115.569C1375.4 109.683 1378.55 102.167 1379.99 91.8871C1381.8 78.5588 1385.97 65.7258 1391.01 53.3179C1394.49 44.6678 1401.75 38.4975 1407.26 31.4772C1410.31 27.7896 1412.77 24.4568 1415.54 19.9896C1418 16.6568 1420.5 11.4098 1422.67 7.2973C1420 -4.32795 1411.81 -8.93286 1406.13 -18.7847C1407.43 -23.3223 1409 -27.0801 1413.49 -28.7832C1417.38 -30.1316 1420.71 -33.0394 1425.52 -35.8769C1431.3 -29.8532 1437.07 -23.8296 1443.4 -16.2465C1459.26 1.75407 1459.26 1.75408 1459.47 28.9764C1459 132.053 1458.53 235.13 1458.06 338.207C1457.74 398.749 1458.04 458.936 1458 520.257C1458.14 526.779 1457.67 533.656 1457.2 540.532C1457.06 546.275 1454.61 549.608 1448.97 550.106L1449.47 553.579Z" fill="#6F8F9A"/>
<path opacity="0.8" d="M1329.94 -61.0254C1314.91 -48.825 1305.9 -56.86 1302.07 -86.8676C1297.86 -87.2253 1293.5 -89.4129 1289.37 -88.8557L1288.68 -88.7628C1274.35 -84.9827 1260.65 -82.2104 1250.12 -65.9924C1245.74 -59.8527 1239.76 -56.272 1233.93 -50.8614C1229.4 -46.5516 1224.11 -43.0638 1220.43 -37.0169C1214.13 -28.7686 1207.76 -21.4353 1198.95 -18.3981C1194.89 -16.9259 1191.89 -10.9719 1187.98 -7.66984C1185.37 -5.46847 1182.14 -2.25928 1179.31 -2.80275C1166 -3.78308 1154.65 2.37043 1143.53 11.2688C1141.54 12.4623 1139.62 14.5708 1137.48 13.9345C1128.99 12.3041 1121.7 16.9854 1114.27 19.8369C1106.84 22.6883 1102.39 27.9132 1099.61 36.612C1096.22 46.3187 1091.45 56.2111 1087.29 65.0958C1084.29 71.0498 1084.74 76.5395 1086.02 83.7662C1088.89 101.879 1094.06 114.131 1108.98 117.671C1115.61 130.652 1129.46 129.71 1136.71 141.683C1138.31 144.242 1142.44 143.685 1145.89 143.221C1147.96 142.942 1152.02 141.47 1152.78 142.292C1159.11 151.613 1168.22 152.236 1176.02 153.959C1189.56 157.685 1203.86 162.232 1217.96 155.707C1220.64 154.42 1223.47 154.964 1226.23 154.592C1230.29 153.12 1235.19 153.385 1237.72 150.269C1253.69 132.393 1270.52 133.824 1288.64 142.481C1292.31 144.762 1296.52 145.12 1300.12 146.485C1302.26 147.122 1304.32 146.843 1305.85 148.487C1314.86 156.522 1323.8 163.642 1332.89 172.592C1337.39 176.61 1341.9 180.627 1347.41 179.884C1349.48 179.606 1353.62 179.049 1354.53 181.701C1361.62 191.844 1366.76 186.526 1373.28 181.023C1383.79 173.132 1396.19 171.461 1407.96 179.124C1412.39 182.227 1416.6 182.585 1420.51 179.283C1426.42 174.787 1433.09 171.113 1438.99 166.618C1442.98 164.231 1446.28 161.937 1450.34 160.464C1461.14 156.234 1462.44 155.133 1460.49 139.672C1457.72 114.146 1453.57 88.8061 1450.8 63.2804C1448.93 48.7342 1447.74 34.095 1445.79 18.6338C1445.19 11.3142 1443.98 5.00242 1442.7 -2.22429C1432.07 -4.49105 1422.05 -7.76562 1411.49 -9.11743C1398.79 -11.1056 1387.31 -15.1094 1376.09 -24.6957C1374.63 -25.4249 1373.11 -27.0691 1371.73 -26.8833C1355.28 -32.0669 1340.46 -43.0188 1329.33 -60.0176L1329.94 -61.0254Z" fill="#A4C4C1"/>
<path d="M-0.496656 426.331C-4.8311 426.331 -9.16555 426.331 -13.5 427.219C-13.5 430.773 -13.5 434.326 -12.7776 436.991C-12.7776 442.322 -12.7776 448.54 -12.0552 453.87C-11.3328 458.312 -8.44314 461.866 4.5602 460.978C7.44983 452.094 11.0619 442.322 13.2291 433.438C14.6739 428.107 10.3395 426.331 0.225752 426.331H-0.496656Z" fill="#2B3545"/>
<path opacity="0.9" d="M1302.23 105.956C1302.28 105.156 1301.99 104.722 1302.04 103.923C1301.52 97.024 1298.63 91.8866 1294.74 87.447C1291.14 83.4411 1288.56 83.5694 1285.99 88.5294C1282.29 96.1864 1278.59 103.843 1274.91 111.101C1271.2 118.758 1266.88 125.947 1261.69 131.835C1260.65 132.932 1259.32 133.596 1258.02 133.86C1253.82 134.219 1252.06 131.616 1252.42 126.018C1252.83 119.621 1253.58 112.858 1254.31 106.495C1257.16 87.0732 1254.81 68.7076 1247.24 51.3982C1245.55 47.596 1242.86 44.4917 1240.51 41.0215C1239.92 40.154 1238.67 39.6183 1237.42 39.0827C1235.21 38.4452 1232.66 38.1736 1230.4 38.3358C1227.21 37.9963 1225.53 39.026 1224.96 42.9903C1222.59 54.8153 1220.87 66.7082 1221.37 78.8387C1221.73 83.3047 1221.42 88.1026 1221.14 92.5007C1219.91 101.629 1219.3 111.225 1218.07 120.353C1217.42 125.516 1217.07 125.882 1212.9 125.841C1209.36 125.867 1206.25 124.328 1203.9 120.858C1197.98 112.982 1193.7 104.476 1190.17 94.4391C1185 79.8002 1180.15 65.1953 1174.64 50.9222C1172.73 45.4868 1169.5 40.7153 1166.94 35.6119C1164.64 31.342 1160.52 30.5009 1157.03 29.7276C1153.23 28.9203 1149.37 28.9128 1145.83 28.9391C1144.56 28.8033 1143.2 29.867 1142.51 30.5988C1139.41 33.8916 1136.87 38.4519 1135.6 43.1479C1134.29 48.6436 1133.61 54.2072 1132.29 59.7029C1131.24 66.0322 1133.44 71.9013 1135 77.7026C1137.01 86.3705 1141.73 92.911 1146.8 99.0857C1152.78 106.162 1158.09 113.57 1163.72 121.012C1166.09 124.083 1166.47 128.149 1166.54 132.181C1166.28 136.179 1165.59 136.911 1162.35 137.371C1157.46 138.461 1153.41 136.42 1149.46 132.78C1146.74 130.076 1144.05 126.972 1141.33 124.267C1137.12 119.794 1132.56 115.686 1128.35 111.212C1122.3 105.336 1116.77 106.358 1110.96 111.778C1109.6 112.842 1108.52 114.739 1107.48 115.837C1104.36 119.529 1103.78 123.493 1104.4 128.793C1105.53 141.391 1109.99 151.93 1114.11 162.835C1115.75 167.437 1119.03 171.408 1121.67 175.312C1126.05 182.219 1130.43 189.125 1135.87 194.534C1138.9 197.273 1141.97 199.611 1145.38 201.584C1156.88 207.638 1168.75 212.927 1181.2 214.251C1185.03 214.658 1188.59 214.232 1192.45 214.239C1199.18 214.553 1205.93 214.466 1212.64 215.179C1226.66 217.072 1240.8 216.967 1255.03 215.662C1259.87 215.372 1263.9 212.58 1267.91 210.189C1275.24 206.138 1282.28 201.653 1287.9 194.2C1290.68 190.873 1292.88 186.679 1294.76 182.451C1299.97 171.331 1303.32 159.208 1305.07 146.915C1305.75 141.352 1305.79 135.72 1305.51 130.055C1305.06 121.956 1304.3 113.824 1303.51 106.092L1303.19 106.058L1302.23 105.956Z" fill="#6F8F9A"/>
<path fill-rule="evenodd" clip-rule="evenodd" d="M1307.93 66.1904C1304.58 71.5968 1302.58 77.2517 1302.07 82.0818C1301.78 84.7652 1302.01 86.9947 1302.69 89.3071C1303.37 91.6196 1304.11 93.3953 1305.3 95.2539L1305.81 94.8C1306.1 94.3048 1306.48 93.9644 1306.87 93.624C1307.25 93.2837 1307.63 92.9433 1307.92 92.448C1311.16 88.115 1312.98 84.0701 1313.38 80.3134C1313.9 75.4833 1313.56 65.5745 1307.93 66.1904ZM1352.03 130.574L1353.06 129.666C1354.08 128.758 1354.71 127.231 1354.82 126.158C1355.1 125.662 1355.27 125.146 1355.45 124.63C1355.62 124.115 1355.79 123.599 1356.07 123.103C1356.7 121.576 1356.87 119.966 1356.98 118.893C1357.05 118.264 1357.27 117.664 1357.46 117.166C1357.59 116.815 1357.7 116.514 1357.72 116.292L1357.89 114.682C1358.47 109.315 1355.85 107.745 1347.73 105.717C1347.38 108.937 1347.1 111.62 1346.3 114.758C1345.5 117.895 1345.22 120.578 1344.93 123.262C1344.87 123.798 1344.76 124.872 1345.16 125.491C1345.13 125.759 1345.2 126.183 1345.27 126.606L1345.27 126.606C1345.34 127.029 1345.41 127.452 1345.38 127.721C1345.36 127.989 1345.44 128.278 1345.53 128.567C1345.61 128.856 1345.7 129.145 1345.67 129.414C1345.84 129.992 1346.02 130.436 1346.21 130.879L1346.21 130.88C1346.39 131.324 1346.58 131.767 1346.75 132.346C1347.14 132.965 1347.54 133.585 1347.48 134.121C1348.9 133.833 1349.93 132.926 1350.95 132.018L1351.98 131.11L1352.03 130.574ZM1348.68 253.548L1348.91 251.401L1349.03 250.328C1348.98 248.854 1348.83 247.363 1348.69 245.824C1348.51 243.913 1348.32 241.926 1348.29 239.799C1348.24 238.325 1348.1 236.835 1347.96 235.295C1347.78 233.384 1347.59 231.397 1347.56 229.271C1347.33 229.229 1347 229.033 1346.68 228.837C1346.35 228.641 1346.02 228.444 1345.8 228.403C1345.62 228.37 1345.51 228.35 1345.42 228.301C1345.28 228.224 1345.19 228.076 1344.95 227.7C1344.47 228.707 1343.84 229.687 1343.22 230.667L1343.22 230.667L1343.22 230.668L1343.22 230.668L1343.22 230.668L1343.22 230.668L1343.22 230.668L1343.22 230.668L1343.22 230.668L1343.22 230.668L1343.22 230.669L1343.22 230.669C1342.29 232.14 1341.35 233.61 1340.91 235.171L1340.79 236.244C1340.42 237.544 1340.15 239 1339.88 240.455C1339.61 241.91 1339.34 243.365 1338.97 244.665L1338.45 249.495L1337.94 254.326L1337.94 254.326C1337.77 255.936 1337.6 257.546 1337.88 259.239L1337.82 259.775C1337.8 260.003 1337.79 260.134 1337.81 260.257C1337.84 260.423 1337.94 260.575 1338.16 260.931L1338.16 260.932C1338.14 261.159 1338.13 261.29 1338.15 261.413C1338.18 261.58 1338.28 261.731 1338.5 262.088L1339.7 263.946C1340.09 264.566 1340.55 264.649 1341 264.732L1341.91 264.897C1344.64 265.394 1346.18 264.033 1347.31 262.052C1347.88 261.061 1348.45 260.071 1348.57 258.997C1348.62 258.461 1348.78 258.079 1348.94 257.697C1349.09 257.315 1349.25 256.934 1349.31 256.397L1349.48 254.787L1349.65 253.177L1348.68 253.548ZM1282.35 245.395L1281.32 246.303L1281.27 246.839L1280.24 247.747C1279.22 248.655 1278.2 249.562 1276.78 249.85C1276.83 249.314 1276.44 248.694 1276.04 248.075C1275.87 247.496 1275.68 247.053 1275.5 246.609C1275.31 246.165 1275.13 245.721 1274.96 245.143C1274.99 244.874 1274.9 244.585 1274.82 244.296C1274.73 244.007 1274.65 243.718 1274.68 243.45C1274.7 243.181 1274.63 242.758 1274.56 242.335C1274.49 241.912 1274.42 241.489 1274.45 241.22C1274.05 240.601 1274.17 239.527 1274.22 238.991L1274.22 238.991L1274.22 238.99L1274.22 238.99L1274.22 238.99L1274.22 238.99L1274.22 238.99L1274.22 238.99L1274.22 238.99L1274.22 238.989L1274.22 238.989L1274.22 238.989C1274.51 236.306 1274.8 233.623 1275.59 230.487C1276.39 227.349 1277.02 221.446 1277.02 221.446C1285.32 213.111 1287.76 225.044 1287.19 230.411L1287.02 232.021C1286.99 232.243 1286.88 232.544 1286.75 232.895C1286.57 233.393 1286.34 233.993 1286.28 234.622C1286.16 235.695 1285.99 237.305 1285.36 238.832C1285.08 239.328 1284.91 239.844 1284.74 240.359C1284.57 240.875 1284.4 241.391 1284.11 241.887C1284 242.96 1283.37 244.487 1282.35 245.395ZM1291.36 156.222C1290.33 157.129 1289.25 158.574 1288.12 160.555C1287.83 161.05 1287.53 161.679 1287.23 162.309C1286.93 162.938 1286.64 163.568 1286.35 164.063C1285.67 166.127 1284.99 168.191 1284.76 170.337C1284.41 173.558 1284.07 176.778 1284.18 180.081C1284.13 180.617 1284.18 181.175 1284.24 181.732C1284.3 182.289 1284.35 182.847 1284.29 183.383C1284.47 183.962 1284.52 184.519 1284.58 185.076C1284.63 185.634 1284.69 186.191 1284.86 186.769C1285.03 187.347 1285.09 187.905 1285.14 188.462C1285.2 189.02 1285.26 189.577 1285.43 190.155C1286.96 188.794 1288.5 187.432 1289.64 185.451C1291.85 182.026 1293.28 177.361 1293.79 172.531C1293.96 170.921 1294.08 169.848 1293.79 168.155C1293.74 164.315 1292.78 160.31 1291.3 156.758L1291.36 156.222ZM1313.16 269.588L1315.04 265.007L1315.1 264.47C1318.11 271.036 1319.3 277.271 1319.12 283.257L1318.61 288.087C1318.32 288.583 1318.14 289.233 1317.95 289.883L1317.95 289.883C1317.77 290.533 1317.58 291.183 1317.3 291.678C1317.27 291.947 1317.13 292.194 1316.99 292.442C1316.84 292.69 1316.7 292.937 1316.67 293.206C1315.42 296.26 1313.32 298.612 1310.82 300.344C1310.19 297.495 1309.63 294.11 1309.46 291.343C1309.29 288.577 1309.63 285.357 1309.92 282.674L1309.92 282.674C1310.32 278.917 1311.17 275.243 1312.48 271.652C1312.51 271.384 1312.66 271.002 1312.82 270.62C1312.98 270.238 1313.13 269.856 1313.16 269.588ZM1320.48 122.042C1322.12 123.984 1322.92 125.223 1323.2 126.916L1322.69 127.369C1323.09 127.989 1322.97 129.062 1322.92 129.599C1322.75 131.209 1322.12 132.736 1321.04 134.181C1320.47 135.171 1319.96 135.625 1318.93 136.533C1318.37 137.523 1317.34 138.431 1316.32 139.338C1314.79 136.324 1313.65 133.928 1313.48 131.162L1313.54 130.625C1313.77 128.479 1314 126.332 1315.13 124.351C1315.54 123.365 1316.13 122.413 1316.81 121.329L1316.81 121.329L1316.81 121.329L1316.81 121.328C1317.18 120.734 1317.57 120.1 1317.98 119.398C1318.4 119.75 1318.82 120.235 1319.23 120.72C1319.64 121.206 1320.05 121.691 1320.48 122.042ZM1249.44 171.543L1249.61 171.4C1249.68 171.654 1249.76 171.908 1249.84 172.163L1249.44 171.543ZM1249.61 171.4L1252 169.274C1253.12 168.287 1254.02 166.974 1254.85 165.776C1255.16 165.322 1255.46 164.884 1255.76 164.487C1256.9 162.506 1257.58 160.442 1257.81 158.296C1257.92 157.222 1258.04 156.149 1257.69 154.993C1257.57 154.578 1257.52 154.104 1257.46 153.611C1257.35 152.729 1257.24 151.782 1256.73 150.987L1256.33 150.368C1256.16 149.79 1255.98 149.346 1255.79 148.902C1255.61 148.458 1255.43 148.014 1255.25 147.436C1254.46 146.197 1253.66 144.958 1252.81 144.256C1251.62 146.773 1250.93 148.837 1250.19 151.438C1248.21 157.42 1247.45 164.136 1249.61 171.4ZM1248.65 239.746C1248.72 240.169 1248.79 240.592 1248.99 240.902L1249.44 240.985C1251.37 248.995 1248.3 256.094 1240 260.053C1237.05 248.574 1236.04 223.224 1247.29 226.368C1248.86 226.975 1248.54 230.261 1248.25 233.353C1248.04 235.525 1247.84 237.601 1248.31 238.589C1248.5 238.899 1248.58 239.322 1248.65 239.746ZM1268.06 70.375C1263.29 67.317 1260.5 71.7328 1257.82 79.4516L1258.89 95.5122C1258.78 96.5856 1259.52 98.3613 1260.31 99.6003L1261.11 100.839L1261.56 100.922C1262.47 101.088 1264.35 100.883 1265.37 99.975L1265.88 99.5212C1271 94.9829 1273 80.5755 1268.11 69.8384L1268.06 70.375ZM1357.78 155.103C1360.45 160.513 1362.26 165.221 1362.77 169.143L1362.2 170.134C1362.6 170.753 1362.54 171.29 1362.49 171.826L1362.37 172.9L1362.26 173.973C1361.74 178.803 1359.07 182.146 1354.18 184.537C1353.78 183.918 1353.44 182.762 1353.5 182.225C1353.56 181.688 1353.49 181.265 1353.42 180.842C1353.34 180.419 1353.27 179.995 1353.33 179.459L1353.45 178.385C1353.5 177.849 1353.45 177.291 1353.39 176.734C1353.33 176.177 1353.28 175.619 1353.33 175.083L1353.73 171.326C1354.3 165.959 1355.78 160.758 1357.78 155.103ZM1219.22 137.604C1219.51 137.109 1219.66 136.727 1219.82 136.345C1219.97 135.963 1220.13 135.582 1220.42 135.086C1221.46 132.528 1222.19 129.911 1222.84 127.6C1222.96 127.152 1223.09 126.716 1223.21 126.294C1222.92 124.601 1222.64 122.908 1222.75 121.835C1222.67 120.452 1222.46 119.182 1222.24 117.913C1222.03 116.643 1221.82 115.373 1221.73 113.99C1221.76 113.763 1221.77 113.632 1221.75 113.509C1221.72 113.342 1221.62 113.191 1221.39 112.834C1221.24 112.327 1221.18 111.836 1221.13 111.392C1221.05 110.824 1220.99 110.333 1220.77 109.985C1220.2 106.599 1218.27 102.965 1215.54 102.468C1215.09 102.385 1214.18 102.219 1213.67 102.673C1213.44 102.631 1213.31 102.745 1213.19 102.858C1213.06 102.972 1212.93 103.085 1212.7 103.044C1212.55 103.181 1212.35 103.311 1212.14 103.453C1211.64 103.779 1211.05 104.169 1210.66 104.859C1209.06 106.757 1207.47 108.656 1207.24 110.802C1207.24 112.99 1207.23 115.313 1207.21 117.635L1207.21 117.635C1207.19 119.957 1207.18 122.28 1207.18 124.468C1207.33 125.954 1207.43 127.431 1207.53 128.908L1207.53 128.909C1207.73 131.863 1207.93 134.817 1208.54 137.845C1208.76 140.075 1209.56 141.314 1210.41 142.016L1210.81 142.636C1211.03 142.677 1211.25 142.853 1211.46 143.028C1211.67 143.204 1211.89 143.38 1212.11 143.421L1213.48 143.669C1214.39 143.835 1214.9 143.381 1215.41 142.928L1216.43 142.02C1216.69 141.793 1216.83 141.545 1216.97 141.298C1217.12 141.05 1217.26 140.802 1217.51 140.576C1218.08 139.585 1218.65 138.594 1219.16 138.141L1219.22 137.604ZM1223.52 166.728L1223.97 166.811L1223.92 167.347C1224.71 168.586 1224.99 170.279 1225.28 171.972C1225.45 174.738 1225.56 178.041 1225.27 180.725C1225.04 182.871 1224.3 185.472 1223.62 187.536C1222.25 191.664 1220.04 195.089 1216.85 198.885C1216.63 196.738 1216.36 194.637 1216.1 192.594C1215.54 188.274 1215.02 184.212 1215.1 180.512L1215.33 178.365L1215.56 176.219C1216.01 171.925 1216.87 168.251 1219.09 164.826L1221.81 165.323C1222.14 165.591 1222.41 165.769 1222.64 165.921C1223 166.167 1223.27 166.345 1223.52 166.728Z" fill="#2B3545"/>
</g>
</svg>
