<svg width="1440" height="380" viewBox="0 0 1440 380" fill="none" xmlns="http://www.w3.org/2000/svg">
<path d="M821.381 226.858C794.422 222.743 772.353 223.007 752.586 227.597L749.995 227.544C737.139 225.856 728.314 222.11 719.199 222.638C702.312 223.007 687.918 224.854 672.278 225.962C641.095 226.754 609.718 230.395 580.071 227.651C543.997 224.064 514.254 222.746 483.64 234.247C460.991 243.058 450.822 239.999 432.119 228.919C403.441 211.931 359.788 205.336 321.596 213.831C301.828 218.421 282.254 220.163 262.013 212.618C257.026 209.664 248.007 208.767 238.988 207.87C214.523 205.232 189.671 208.293 169.43 200.748C142.859 190.935 111.869 188.878 80.9755 185.396C53.9198 182.706 26.7673 181.44 6.13963 179.593L0 175.956V0.00012207H1440L1439.66 154.331C1437.57 164.87 1427.3 166.642 1410.92 159.689C1399.9 154.604 1390.97 154.97 1379.71 155.431L1378.78 155.468C1354.03 157.104 1336.56 166.021 1317.94 172.774C1291.26 183.643 1258.35 190.818 1245.38 209.812C1239.62 218.254 1223.79 222.211 1205.75 220.417C1176.1 217.674 1147.61 217.094 1119.78 225.799C1098.57 232.5 1074.87 237.724 1053.66 244.424C1043.1 247.062 1036.58 247.643 1025.07 245.269C1007.13 242.051 987.939 238.094 971.052 238.463C954.165 238.833 937.375 237.778 922.025 234.612C915.597 233.768 907.922 232.185 901.398 232.766C872.611 236.459 846.996 231.659 821.381 226.858Z" fill="#EDF1F0"/>
<path opacity="0.6" d="M1333.27 205.531C1367.9 200.291 1403.78 194.373 1439.66 188.454V0.5H0V242.292C0 242.292 67.4514 242.341 97.4848 245.058C175.782 251.463 252.833 258.547 329.98 266.941C369.129 270.143 410.771 271.987 441.773 287.803C452.038 286.299 462.207 283.485 471.225 282.661C493.1 280.284 512.191 275.335 529.841 268.446C544.997 262.916 564.087 257.968 582.028 255.008C620.499 249.042 659.067 244.384 697.635 239.727C718.166 236.72 738.89 236.332 759.615 235.944C782.93 235.507 805.095 237.06 828.41 236.624C833.591 236.527 838.578 233.81 843.663 232.403C866.397 224.107 866.397 224.107 894.227 232.113C925.399 215.133 977.307 215.473 1011.07 198.445C1012.32 197.765 1013.56 197.086 1016.15 197.038C1044.75 197.814 1069.02 192.769 1095.98 188.985C1102.41 188.209 1108.93 188.743 1115.46 189.276C1131.1 190.295 1146.74 191.314 1162.28 191.023C1190.68 189.18 1214.38 193.983 1236.93 200.775C1268.79 210.673 1299.98 211.401 1333.27 205.531Z" fill="#DBEFEE"/>
</svg>
