<svg width="1440" height="726" viewBox="0 0 1440 726" fill="none" xmlns="http://www.w3.org/2000/svg">
<path d="M1337.72 47.4414C1365.93 53.6237 1394.15 61.0423 1422.36 67.2246H1440V725.5H720H0V47.4414C3.527 49.9143 15.5275 41.2592 35.3718 47.4414C42.8483 49.7706 52.8267 52.2754 62.8321 54.5589C79.383 58.3362 96.0076 61.5082 101.503 62.2788C106.794 63.5152 111.202 64.7517 115.611 67.2246C122.665 63.5152 217.894 62.2788 226.712 62.2788C231.12 62.2788 235.529 61.0423 239.056 58.5694C245.228 54.8601 251.401 53.6237 258.455 53.6237C269.036 53.6237 280.498 54.8601 291.079 48.6779C299.015 43.7321 310.478 43.7321 320.177 42.4956C323.704 42.4956 327.231 42.4956 330.758 41.2592C336.93 40.0228 343.103 40.0228 349.275 42.4956C354.565 43.7321 360.738 43.7321 366.028 43.7321C382.781 44.9685 398.653 46.205 415.406 47.4414C421.578 47.4414 426.869 48.6779 432.159 49.9143H446.267C455.085 48.6779 464.784 48.6779 473.602 47.4414C476.247 47.4414 478.01 46.205 480.656 46.205C487.71 46.205 494.764 44.9685 500.936 46.205C512.399 48.6779 523.861 46.205 535.324 44.9685C542.378 44.9685 548.55 43.7321 554.723 42.4956C558.25 46.205 560.013 49.9143 561.777 53.6237C561.777 52.3872 562.659 49.9143 562.659 48.6779C609.391 61.0423 656.124 53.6237 705.502 31.3676C713.438 36.3134 723.137 43.7321 733.718 49.9143C745.181 57.333 756.644 64.7517 772.515 56.0965C777.806 53.6237 785.741 53.6237 791.914 54.8601C800.731 57.333 807.785 54.8601 815.721 48.6779C825.42 40.0228 835.119 38.7863 844.819 46.205C848.346 48.6779 854.518 49.9143 859.808 49.9143C873.916 49.9143 888.906 44.9685 901.251 54.8601C902.132 56.0965 904.778 54.8601 907.423 54.8601C923.293 53.6237 938.282 52.3874 953.271 51.151L953.274 51.1508C956.801 51.1508 961.21 52.3872 965.618 53.6237C971.791 54.8601 1139.32 75.8797 1148.14 69.6974C1149.9 67.2246 1152.55 65.9881 1154.31 65.9881C1162.25 65.9881 1171.07 67.2246 1179 67.2246C1186.94 67.2246 1194.87 65.9881 1201.93 64.7517L1244.25 53.6237C1251.31 51.1508 1258.36 48.6779 1263.65 43.7321C1270.7 37.5499 1277.76 33.8405 1285.69 32.6041C1289.22 31.3676 1292.75 30.1312 1297.16 28.8947C1307.74 42.4956 1323.61 43.7321 1337.72 47.4414Z" fill="#DBEFEE"/>
<path d="M1031.51 10.7009C1031.06 6.56163 1028.85 4.83695 1025.74 7.2515C1023.52 8.63124 1022.63 11.0458 1022.63 14.1502C1022.63 15.8749 1023.08 17.9445 1023.08 20.704C1023.08 22.4287 1023.08 25.1882 1023.08 27.6027C1023.52 31.0521 1026.63 33.4666 1030.18 33.1217C1032.4 32.7767 1033.28 30.7071 1032.84 26.5679C1032.4 21.3939 1031.95 16.2198 1031.51 11.0458V10.7009Z" fill="#E9C330"/>
<path d="M978.717 59.6838C980.492 60.0288 984.485 56.5794 985.817 57.2693C987.592 49.6807 987.592 42.437 988.036 35.1934C988.036 31.744 986.261 30.7092 983.598 32.089C982.267 32.7788 980.935 33.8136 979.604 34.8485C975.166 38.2978 974.723 40.0225 976.054 46.2313C976.941 50.7155 978.273 55.1997 979.16 60.0288L978.717 59.6838Z" fill="#E9C330"/>
<path d="M935.191 59.3897C932.973 59.0447 931.641 60.4245 932.085 63.184C932.529 66.6333 932.529 69.7377 932.973 73.1871C932.973 73.1871 932.973 73.1871 932.529 73.1871C932.529 75.9466 932.529 78.7061 932.973 81.4656C933.86 86.2947 936.967 88.0193 940.073 85.6048C942.292 84.225 943.623 81.8105 943.623 78.7061C943.623 75.6017 943.623 72.1523 943.623 69.0479C943.179 63.8738 939.629 59.3897 935.191 58.6998V59.3897Z" fill="#E9C330"/>
<path d="M944.558 94.9104C944.558 92.4959 942.339 91.4611 939.233 91.4611C936.57 91.4611 935.683 92.4959 935.683 95.6003C935.683 98.0148 935.683 100.429 935.683 102.844C935.683 102.844 935.683 102.844 936.126 102.844C936.126 105.258 936.126 107.328 936.126 109.743C936.126 110.777 936.57 112.502 937.901 113.192C940.12 114.572 942.783 113.192 945.002 112.502C947.221 111.812 947.665 110.433 947.221 108.708C946.333 104.224 945.002 100.084 945.002 95.6003L944.558 94.9104Z" fill="#E9C330"/>
<path d="M946.761 46.8981C949.424 46.8981 952.086 29.9963 951.199 25.5121C951.199 24.1324 950.311 22.7526 949.868 21.3729C948.536 18.9583 945.874 17.2336 944.099 17.9235C941.436 18.9583 940.992 21.3729 940.992 24.1324C940.992 29.9963 940.992 36.2051 940.992 42.069C940.992 45.5184 943.211 46.5532 946.761 46.5532V46.8981Z" fill="#E9C330"/>
<path d="M964.049 68.3121C963.605 64.1728 962.717 60.0336 962.717 55.5494C962.717 53.1349 961.83 51.7552 960.055 52.1001C957.392 52.79 954.729 54.1697 952.51 55.5494C952.067 55.8944 951.179 58.6539 951.623 59.3437C953.842 62.1032 952.954 65.2076 952.954 68.3121C952.954 70.3817 952.954 72.4513 953.398 74.5209C953.842 76.9355 954.729 77.9703 956.948 78.3152C961.386 78.6601 964.936 73.4861 964.049 67.9671V68.3121Z" fill="#E9C330"/>
<path d="M1038.63 97.9561C1036.86 97.2662 1035.53 97.2662 1034.64 98.9909C1031.98 104.165 1029.31 109.339 1027.1 114.513C1026.65 115.548 1026.65 117.962 1027.54 118.997C1029.76 123.136 1035.97 123.136 1039.08 118.997C1041.3 114.168 1043.52 108.994 1043.07 102.44C1042.63 99.6807 1041.3 98.301 1039.08 97.6111L1038.63 97.9561Z" fill="#E9C330"/>
<path d="M1001.34 24.1302C1000.01 27.5796 999.125 30.684 998.237 34.1334C997.35 37.5827 996.906 41.377 996.018 45.1713C994.243 51.0352 996.906 55.5194 999.125 60.0035C1000.46 62.0731 1001.79 62.4181 1003.56 60.3485C1004.89 58.2789 1005.78 55.8643 1007.56 54.1396C1011.11 50.0004 1012.44 44.4814 1012.44 38.6175C1012.88 31.0289 1011.55 23.4404 1001.79 24.1302H1001.34Z" fill="#E9C330"/>
<path d="M1019.98 54.1401C1019.09 54.1401 1018.65 54.4851 1017.76 54.83C1017.32 60.004 1017.32 65.1781 1016.87 70.0072C1016.43 76.5609 1015.54 83.1147 1015.1 89.6685C1014.65 93.4628 1017.32 96.5672 1021.31 96.9121C1023.53 96.9121 1024.42 95.5324 1024.86 91.3932C1025.75 86.909 1026.64 82.0799 1027.08 77.5957C1027.97 73.1116 1028.85 68.2825 1029.3 63.7983C1029.74 55.5199 1026.64 52.4154 1019.98 53.7952V54.1401Z" fill="#E9C330"/>
<path d="M965.384 88.2942C961.834 87.9492 959.172 90.3638 958.728 95.1929C958.728 97.9524 958.728 100.712 958.728 103.816C958.728 103.816 958.728 103.816 958.284 103.816C958.284 106.231 957.84 108.645 957.84 111.06C957.84 116.924 962.278 120.718 966.716 119.338C967.603 118.993 968.935 117.269 968.935 116.234C969.378 109.335 969.378 102.781 969.822 95.8828C969.822 91.0537 968.491 88.984 964.941 88.6391L965.384 88.2942Z" fill="#E9C330"/>
<path d="M1000.45 90.414C999.561 86.6197 999.561 82.4804 999.118 78.6861C998.674 73.857 997.343 74.202 992.905 74.202C984.03 74.202 987.58 89.7241 987.58 93.5184C988.023 99.0374 988.467 104.556 989.355 110.075C989.799 113.87 990.686 114.559 993.792 113.18C996.011 112.145 998.23 111.11 1000.89 110.075C1004.44 108.696 1004.44 107.661 1003.56 103.522C1002.22 99.0374 1001.34 94.5532 1000.45 90.069V90.414Z" fill="#E9C330"/>
<path d="M969.408 29.3571C972.071 29.7021 973.846 25.2179 973.846 25.2179C973.846 25.2179 976.509 23.8382 976.509 22.1135C976.509 17.6293 976.509 13.4901 976.509 9.00594C976.509 7.6262 976.065 5.90152 975.621 4.52178C974.734 1.76229 972.071 -0.307324 970.296 0.0376113C967.633 0.382547 966.746 3.14203 966.302 5.55658C965.414 11.4205 964.971 17.2844 964.083 23.4932C963.639 26.5977 965.414 28.3223 969.408 29.0122V29.3571Z" fill="#E9C330"/>
<path d="M1080.34 131.091C1081.67 127.642 1082.56 124.537 1083.44 121.088C1084.33 117.639 1084.78 113.844 1085.66 110.05C1087.44 104.186 1084.78 99.702 1082.56 95.2178C1081.22 93.1482 1079.89 92.8033 1078.12 94.8729C1076.79 96.9425 1075.9 99.3571 1074.12 101.082C1070.57 105.221 1069.24 110.74 1069.24 116.604C1068.8 124.192 1070.13 131.781 1079.89 131.091H1080.34Z" fill="#E9C330"/>
<path d="M1105.18 128.001C1106.07 128.001 1106.52 127.656 1107.4 127.311C1107.85 122.137 1107.85 116.963 1108.29 112.134C1108.73 105.58 1109.62 99.0266 1110.07 92.4728C1110.51 88.6785 1107.85 85.5741 1103.85 85.2292C1101.63 85.2292 1100.75 86.6089 1100.3 90.7481C1099.42 95.2323 1098.53 100.061 1098.08 104.546C1097.2 109.03 1096.31 113.859 1095.86 118.343C1095.42 126.621 1098.53 129.726 1105.18 128.346V128.001Z" fill="#E9C330"/>
<path d="M1148.21 76.2174C1151.76 76.5624 1154.42 74.1478 1154.86 69.3187C1154.86 66.5592 1154.86 63.7998 1154.86 60.6953C1154.86 60.6953 1154.86 60.6953 1155.31 60.6953C1155.31 58.2808 1155.75 55.8662 1155.75 53.4517C1155.75 47.5878 1151.31 43.7935 1146.87 45.1732C1145.99 45.5182 1144.66 47.2428 1144.66 48.2776C1144.21 55.1764 1144.21 61.7301 1143.77 68.6289C1143.77 73.458 1145.1 75.5276 1148.65 75.8725L1148.21 76.2174Z" fill="#E9C330"/>
<path d="M1118.96 74.4942C1118.52 77.9435 1118.07 81.048 1117.63 84.1524C1117.18 88.2916 1118.52 90.0163 1122.07 90.3612C1125.62 90.7062 1129.17 89.6714 1132.27 86.9119C1130.5 83.4625 1130.94 80.3581 1131.39 77.2537C1132.27 72.7695 1133.16 67.9404 1133.6 63.1113C1134.05 60.0069 1133.16 58.9721 1130.05 58.6271C1127.84 58.2822 1125.17 58.2822 1122.95 57.9373C1119.4 57.5923 1118.96 58.2822 1118.96 62.0765C1118.96 66.2157 1118.96 70.01 1118.96 74.1492V74.4942Z" fill="#E9C330"/>
<path d="M1138.47 47.6329C1139.36 40.0443 1138.92 32.8007 1138.47 25.557C1138.03 22.1077 1136.26 21.4178 1133.59 23.1425C1132.26 24.1773 1130.93 25.2121 1129.6 26.2469C1125.61 30.0412 1125.16 32.1108 1126.94 37.9747C1128.27 42.114 1136.7 47.6329 1138.03 47.6329H1138.47Z" fill="#E9C330"/>
<path d="M1110.94 26.2763C1108.28 26.2763 1105.62 43.1782 1106.51 47.6624C1106.51 49.0421 1107.39 50.4218 1107.84 51.8016C1109.17 54.2161 1111.83 55.9408 1113.61 55.2509C1116.27 54.2161 1116.71 51.8016 1116.71 49.0421C1116.71 43.1782 1116.71 36.9693 1116.71 31.1054C1116.71 27.6561 1114.49 26.6213 1110.94 26.6213V26.2763Z" fill="#E9C330"/>
<path d="M1050.62 100.362C1051.07 101.741 1052.4 103.466 1053.28 103.466C1057.28 104.156 1061.72 103.466 1064.38 99.3268C1063.49 94.8426 1062.16 91.0483 1061.72 87.254C1060.83 84.1496 1060.38 81.0452 1059.5 77.9408C1059.05 75.8712 1058.17 74.1465 1055.95 73.8016C1050.62 72.4218 1045.74 78.6307 1047.07 85.1844C1047.96 90.3585 1049.29 95.1876 1050.62 100.362Z" fill="#E9C330"/>
<path d="M1053.25 60.0115C1054.58 56.5622 1055.47 53.4578 1056.36 50.0084C1057.24 46.559 1057.69 42.7647 1058.57 38.9704C1060.35 33.1065 1057.69 28.6224 1055.47 24.1382C1054.14 22.0686 1052.81 21.7237 1051.03 23.7933C1049.7 25.8629 1048.81 28.2774 1047.04 30.0021C1043.49 34.1413 1042.15 39.6603 1042.15 45.5242C1041.71 53.1128 1043.04 60.7014 1052.81 60.0115H1053.25Z" fill="#E9C330"/>
<path d="M1084.78 86.9607C1086.11 83.5113 1087 80.4069 1087.89 76.9576C1088.77 73.5082 1089.22 69.7139 1090.1 65.9196C1091.88 60.0557 1089.22 55.5715 1087 51.0874C1085.67 49.0178 1084.34 48.6728 1082.56 50.7424C1081.23 52.812 1080.34 55.2266 1078.57 56.9513C1075.02 61.0905 1073.69 66.6095 1073.69 72.4734C1073.24 80.062 1074.57 87.6506 1084.34 86.9607H1084.78Z" fill="#E9C330"/>
</svg>
