<svg width="630" height="19" viewBox="0 0 630 19" fill="none" xmlns="http://www.w3.org/2000/svg">
<g clip-path="url(#clip0)">
<path d="M2.49109 3.46085C2.34499 3.02858 2.19395 2.58173 2 2.09148L2.10956 1.9807C2.28571 1.95102 2.44612 1.92134 2.59501 1.89379C3.00181 1.81852 3.32264 1.75915 3.64347 1.75915C4.24607 1.75915 4.84868 1.73146 5.45128 1.70376L5.45134 1.70376C6.05393 1.67607 6.65651 1.64837 7.2591 1.64837C8.61039 1.64837 9.96169 1.63606 11.313 1.62376C14.0155 1.59914 16.7182 1.57452 19.4208 1.64837C21.4367 1.69268 23.4526 1.77244 25.4685 1.8522L25.4687 1.8522C28.4927 1.97184 31.5167 2.09148 34.5407 2.09148C38.3885 2.13893 42.2565 2.12541 46.1359 2.11185C51.3145 2.09376 56.5136 2.07559 61.7126 2.20226C70.3732 2.49414 79.1182 2.18787 87.7993 1.88383L87.8006 1.88379C89.0033 1.84167 90.2048 1.79959 91.4046 1.75915C94.0866 1.64847 96.7413 1.53779 99.3959 1.42711L99.4224 1.426C100.966 1.36164 102.51 1.29725 104.06 1.23289C104.04 1.1824 104.02 1.13148 104 1.08007L104.11 0.969294C104.286 0.939615 104.446 0.909937 104.595 0.882389C105.002 0.807117 105.323 0.74774 105.643 0.74774C106.246 0.74774 106.849 0.720047 107.451 0.692354L107.451 0.692351C108.054 0.664657 108.656 0.636963 109.259 0.636963C110.61 0.636963 111.962 0.624654 113.313 0.612345C116.016 0.587729 118.718 0.563112 121.421 0.636963C123.437 0.681273 125.453 0.761032 127.469 0.840792C130.493 0.960431 133.517 1.08007 136.541 1.08007C140.389 1.12752 144.256 1.114 148.136 1.10044C153.315 1.08235 158.514 1.06418 163.713 1.19085C172.373 1.48273 181.118 1.17645 189.799 0.872422C191.002 0.830286 192.204 0.788193 193.405 0.74774C196.086 0.637088 198.74 0.526436 201.394 0.415785L201.412 0.415032C204.066 0.304381 206.319 0.722997 209 0.612345C212 0.345962 212.656 0.636963 213.259 0.636963C214.61 0.636963 215.962 0.624654 217.313 0.612345C220.016 0.587729 222.718 0.563111 225.421 0.636963C227.437 0.681273 229.453 0.761032 231.469 0.840792C234.493 0.960431 237.517 1.08007 240.541 1.08007C244.389 1.12752 248.256 1.114 252.136 1.10044C257.315 1.08235 262.514 1.06418 267.713 1.19085C276.373 1.48273 285.118 1.17646 293.799 0.872423L293.802 0.872314C295.005 0.830214 296.205 0.788157 297.405 0.74774C300.087 0.637025 302.743 0.526309 305.398 0.415595L305.403 0.415409C307.942 0.309524 308.581 0.28469 311.145 0.178804C314 -0.159743 319.966 0.0659552 322.702 0.178804C325.438 0.291677 328.174 0.404551 330.938 0.517424C332.174 0.558638 333.412 0.601523 334.651 0.644454C343.59 0.954205 352.595 1.26624 361.513 0.968868C366.866 0.83982 372.22 0.858328 377.552 0.876763C381.547 0.890574 385.53 0.904345 389.492 0.856008C392.606 0.856008 395.72 0.734117 398.834 0.612227C400.91 0.530967 402.986 0.449707 405.062 0.404562C407.844 0.329322 410.627 0.354402 413.41 0.379482C414.802 0.392022 416.193 0.404562 417.585 0.404562C418.205 0.404562 418.826 0.432777 419.446 0.460993C420.067 0.489208 420.687 0.517424 421.308 0.517424C421.636 0.517424 421.965 0.577278 422.381 0.653399C422.674 0.6435 422.966 0.636963 423.259 0.636963C424.61 0.636963 425.962 0.624654 427.313 0.612345C430.016 0.587729 432.718 0.563111 435.421 0.636963C437.437 0.681273 439.453 0.761033 441.469 0.840794C444.493 0.960432 447.517 1.08007 450.541 1.08007C454.389 1.12752 458.257 1.114 462.136 1.10044C467.315 1.08235 472.514 1.06418 477.713 1.19085C486.373 1.48273 495.118 1.17646 503.799 0.872423L503.802 0.872314C505.005 0.830214 506.205 0.788157 507.405 0.74774C510.087 0.637025 512.743 0.526309 515.398 0.415595L515.403 0.415409L515.427 0.414391C519.224 0.612345 525.189 0.704428 525.451 0.692351C526.054 0.664657 526.656 0.636963 527.259 0.636963C528.61 0.636963 529.962 0.624654 531.313 0.612345C534.016 0.587729 536.718 0.563111 539.421 0.636963C541.437 0.681273 543.453 0.761031 545.469 0.840791C548.493 0.96043 551.517 1.08007 554.541 1.08007C558.389 1.12752 562.257 1.114 566.136 1.10044C571.315 1.08235 576.514 1.06418 581.713 1.19085C590.373 1.48273 599.118 1.17645 607.799 0.872421C609.002 0.830285 610.204 0.788192 611.405 0.74774C614.081 0.637302 616.73 0.526864 619.378 0.416428L619.427 0.414391C622.076 0.303953 624.725 0.193516 627.401 0.0830775C627.608 0.0830775 627.815 0.10777 628.033 0.133839C628.278 0.162987 628.536 0.193855 628.825 0.193855C628.058 2.63095 627.62 5.06804 627.401 7.50513C627.401 8.28057 626.963 8.83446 626.305 9.16679C626.205 9.2074 626.101 9.25174 625.994 9.29707C625.52 9.49902 625 9.72067 624.552 9.72067C622.361 9.83145 620.279 9.83145 618.088 9.83145C616.773 9.83145 615.568 9.38834 614.582 8.39135C614.41 8.1311 614.104 7.93878 613.822 7.7612L613.821 7.76041C613.743 7.7115 613.667 7.66371 613.596 7.61591C613.174 8.09609 612.752 8.55058 612.342 8.99175L612.337 8.99669L612.334 8.99977C611.896 9.47174 611.471 9.92853 611.076 10.3853C609.761 11.9362 608.227 12.6009 606.146 12.3793C605.64 12.3225 605.106 12.2949 604.558 12.2665C604.036 12.2394 603.502 12.2118 602.968 12.1578C601.872 12.047 600.886 11.7147 600.01 10.9392C598.805 9.94222 597.599 8.83446 596.504 7.72669C596.188 7.40725 595.872 7.06222 595.544 6.7039C595.189 6.31666 594.82 5.91391 594.422 5.51115C593.546 6.50814 592.779 7.50513 592.121 8.50212C591.135 9.83145 590.04 10.9392 588.725 11.8254C587.848 12.3793 586.862 12.7116 585.767 12.4901C584.89 12.3239 583.986 12.1855 583.082 12.047C582.178 11.9085 581.274 11.77 580.398 11.6039C579.74 11.4931 579.193 11.1608 578.754 10.8284C578.162 10.3624 577.609 9.81643 577.048 9.26253C576.675 8.89472 576.299 8.52344 575.906 8.16979C575.248 7.50513 575.139 7.50513 574.262 7.94824C572.728 8.83446 571.085 9.72067 569.551 10.4961C569.332 10.6069 568.894 10.7177 568.565 10.6069C568.364 10.5258 568.164 10.4464 567.964 10.3672L567.964 10.367L567.962 10.3665C566.524 9.79676 565.117 9.23927 563.963 8.16979C563.113 7.31026 562.131 6.58411 561.119 5.8361C560.827 5.62008 560.533 5.40223 560.238 5.17882C558.923 6.17581 557.608 7.06202 556.294 7.94824C555.769 8.33147 555.244 8.72255 554.717 9.11521L554.714 9.11759L554.708 9.12174C553.258 10.2025 551.792 11.2949 550.268 12.2685C548.843 13.2655 547.419 13.1548 545.885 12.3793C544.351 11.4931 543.146 10.2746 541.941 9.05601C541.283 8.50212 540.626 7.94824 540.078 7.39436C539.734 7.61189 539.407 7.81234 539.096 8.00241L539.092 8.00482C538.614 8.29758 538.175 8.56625 537.777 8.83446C537.446 9.07355 537.136 9.31265 536.837 9.54283L536.835 9.54377C536.442 9.84648 536.069 10.1338 535.696 10.3853C534.665 11.0985 534.144 11.4585 533.576 11.5729C532.996 11.6896 532.366 11.5512 531.094 11.2715C527.429 10.4915 525.123 8.42429 523.652 5.37192C523.548 6.08299 523.465 6.79406 523.401 7.50513C523.401 8.28057 522.963 8.83446 522.305 9.16679C522.205 9.2074 522.101 9.25174 521.994 9.29707C521.52 9.49902 521 9.72067 520.552 9.72067C518.361 9.83145 516.279 9.83145 514.088 9.83145C512.773 9.83145 511.568 9.38834 510.582 8.39135C510.41 8.13112 510.104 7.93881 509.822 7.76124C509.744 7.71204 509.667 7.66398 509.596 7.61591C509.171 8.09885 508.747 8.5558 508.335 8.99935C507.896 9.47147 507.471 9.9284 507.076 10.3853C505.761 11.9362 504.227 12.6009 502.146 12.3793C501.64 12.3225 501.106 12.2949 500.558 12.2665C500.036 12.2394 499.502 12.2118 498.968 12.1578C497.873 12.047 496.886 11.7147 496.01 10.9392C494.805 9.94222 493.599 8.83446 492.504 7.72669C492.188 7.40767 491.873 7.06313 491.545 6.70532L491.544 6.70372L491.54 6.6997C491.187 6.31375 490.819 5.91245 490.422 5.51115C489.546 6.50814 488.779 7.50513 488.121 8.50212C487.135 9.83145 486.04 10.9392 484.725 11.8254C483.848 12.3793 482.862 12.7116 481.767 12.4901C480.89 12.324 479.986 12.1855 479.083 12.047C478.179 11.9086 477.274 11.77 476.398 11.6039C475.74 11.4931 475.193 11.1608 474.754 10.8284C474.162 10.3624 473.609 9.81645 473.048 9.26256C472.675 8.89474 472.299 8.52345 471.906 8.16979C471.248 7.50513 471.139 7.50513 470.262 7.94824C468.728 8.83446 467.085 9.72067 465.551 10.4961C465.332 10.6069 464.894 10.7177 464.565 10.6069C464.364 10.5258 464.164 10.4464 463.964 10.3672L463.964 10.3671L463.962 10.3665C462.524 9.79678 461.117 9.23929 459.963 8.16979C459.113 7.31022 458.131 6.58405 457.119 5.836L457.118 5.83522L457.118 5.83492C456.826 5.61928 456.532 5.40182 456.238 5.17882C454.923 6.17581 453.608 7.06202 452.294 7.94824C451.767 8.33304 451.24 8.72575 450.711 9.12002L450.71 9.12051L450.709 9.12156C449.258 10.2024 447.792 11.2949 446.268 12.2685C444.843 13.2655 443.419 13.1548 441.885 12.3793C440.351 11.4931 439.146 10.2746 437.941 9.05601C437.283 8.50212 436.626 7.94824 436.078 7.39436C435.732 7.61282 435.404 7.81405 435.092 8.00485C434.614 8.29779 434.175 8.56612 433.777 8.83446C433.447 9.07304 433.137 9.31163 432.838 9.54137L432.836 9.54289L432.835 9.54368C432.442 9.84643 432.069 10.1337 431.696 10.3853C430.665 11.0985 430.144 11.4585 429.576 11.5729C428.996 11.6896 428.366 11.5512 427.094 11.2715C424.017 10.6165 421.897 9.05383 420.425 6.7623C418.913 9.03308 416.751 10.5831 413.636 11.2392C412.324 11.5245 411.676 11.6655 411.078 11.5458C410.493 11.4287 409.958 11.062 408.897 10.3364C408.513 10.0801 408.129 9.78746 407.724 9.47911L407.724 9.4789C407.415 9.24411 407.095 9.0002 406.754 8.75629C406.344 8.48293 405.893 8.20957 405.4 7.91115L405.398 7.90994C405.078 7.71589 404.74 7.51124 404.385 7.2891C403.821 7.85325 403.144 8.41741 402.467 8.98156C401.226 10.223 399.985 11.465 398.405 12.3679C396.826 13.1579 395.359 13.2707 393.892 12.255C392.323 11.2633 390.814 10.1506 389.321 9.04972L389.32 9.04914L389.319 9.04839C388.773 8.64631 388.23 8.24582 387.687 7.8534C386.334 6.95068 384.979 6.04744 383.626 5.03187C383.322 5.25948 383.019 5.48142 382.718 5.70151C381.676 6.4636 380.665 7.20341 379.79 8.07913C378.601 9.16876 377.152 9.73674 375.672 10.3172C375.465 10.3981 375.258 10.4793 375.051 10.5621C374.713 10.6749 374.262 10.5621 374.036 10.4492C372.456 9.65918 370.764 8.75629 369.185 7.8534C368.282 7.40196 368.169 7.40196 367.492 8.07913C367.087 8.43941 366.7 8.81766 366.316 9.19237C365.739 9.75671 365.169 10.313 364.559 10.7878C364.108 11.1264 363.544 11.465 362.867 11.5778C361.964 11.7471 361.034 11.8881 360.103 12.0292L360.103 12.0293C359.172 12.1703 358.241 12.3114 357.338 12.4807C356.21 12.7064 355.195 12.3679 354.292 11.8035C352.938 10.9007 351.81 9.77204 350.795 8.41771C350.118 7.40196 349.328 6.38621 348.426 5.37046C348.016 5.78063 347.636 6.19081 347.271 6.5852L347.271 6.58545C346.933 6.95058 346.607 7.30217 346.282 7.62768C345.154 8.75629 343.913 9.88491 342.672 10.9007C341.769 11.6907 340.754 12.0293 339.626 12.1421C339.076 12.1972 338.526 12.2253 337.989 12.2529C337.424 12.2818 336.874 12.31 336.354 12.3679C334.21 12.5936 332.631 11.9164 331.277 10.3364C330.87 9.87088 330.433 9.40541 329.981 8.92447L329.981 8.92405C329.556 8.47223 329.119 8.00676 328.682 7.51482C328.609 7.56381 328.53 7.6128 328.449 7.66295C328.158 7.84384 327.843 8.03975 327.667 8.30485C326.651 9.3206 325.41 9.77204 324.056 9.77204C321.8 9.77204 319.656 9.77204 317.4 9.65918C316.939 9.65918 316.403 9.43333 315.915 9.22758C315.805 9.18141 315.698 9.13625 315.595 9.09488C314.918 8.75629 314.467 8.19199 314.467 7.40196C314.354 6.15726 314.184 4.91256 313.943 3.66786C313.691 4.94695 313.516 6.22604 313.401 7.50513C313.401 8.28057 312.963 8.83446 312.305 9.16679C312.206 9.20714 312.102 9.25118 311.996 9.29621L311.994 9.29706C311.52 9.49901 311 9.72067 310.552 9.72067C308.361 9.83145 306.279 9.83145 304.088 9.83145C302.773 9.83145 301.568 9.38834 300.582 8.39135C300.41 8.13112 300.104 7.93881 299.822 7.76124C299.744 7.71204 299.667 7.66398 299.596 7.61591C299.171 8.09885 298.747 8.5558 298.335 8.99935C297.896 9.47147 297.471 9.9284 297.076 10.3853C295.761 11.9362 294.227 12.6009 292.146 12.3793C291.64 12.3225 291.106 12.2949 290.558 12.2665C290.036 12.2394 289.502 12.2118 288.968 12.1578C287.873 12.047 286.886 11.7147 286.01 10.9392C284.805 9.94222 283.599 8.83446 282.504 7.72669C282.188 7.40767 281.873 7.06313 281.545 6.70532L281.544 6.70372L281.54 6.6997C281.187 6.31375 280.819 5.91245 280.422 5.51115C279.546 6.50814 278.779 7.50513 278.121 8.50212C277.135 9.83145 276.04 10.9392 274.725 11.8254C273.848 12.3793 272.862 12.7116 271.767 12.4901C270.89 12.324 269.986 12.1855 269.083 12.047C268.179 11.9086 267.274 11.77 266.398 11.6039C265.74 11.4931 265.193 11.1608 264.754 10.8284C264.162 10.3624 263.609 9.81645 263.048 9.26256C262.675 8.89474 262.299 8.52345 261.906 8.16979C261.248 7.50513 261.139 7.50513 260.262 7.94824C258.728 8.83446 257.085 9.72067 255.551 10.4961C255.332 10.6069 254.894 10.7177 254.565 10.6069C254.365 10.5258 254.164 10.4465 253.964 10.3673L253.962 10.3665C252.524 9.79678 251.117 9.23929 249.963 8.16979C249.113 7.31026 248.131 6.5841 247.119 5.83609L247.118 5.83519L247.117 5.83417C246.826 5.61885 246.532 5.40148 246.238 5.17882C244.923 6.17581 243.608 7.06202 242.294 7.94824C241.767 8.33291 241.24 8.72548 240.711 9.11962L240.71 9.12018L240.709 9.12109L240.708 9.1218C239.258 10.2025 237.792 11.2949 236.268 12.2685C234.843 13.2655 233.419 13.1548 231.885 12.3793C230.351 11.4931 229.146 10.2746 227.941 9.05609C227.284 8.50228 226.626 7.94817 226.078 7.39436C225.732 7.61285 225.404 7.81411 225.092 8.00494C224.614 8.29784 224.175 8.56615 223.777 8.83446C223.446 9.07386 223.135 9.31327 222.835 9.54373C222.442 9.84646 222.069 10.1337 221.696 10.3853C220.665 11.0985 220.144 11.4585 219.576 11.5729C218.996 11.6896 218.366 11.5512 217.094 11.2715C213.429 10.4915 211.123 8.42428 209.652 5.3719C209.548 6.08297 209.465 6.79405 209.401 7.50513C209.401 8.28057 208.963 8.83446 208.305 9.16679C208.205 9.20737 208.101 9.25168 207.995 9.29698C207.52 9.49893 207 9.72067 206.552 9.72067C204.361 9.83145 202.279 9.83145 200.088 9.83145C198.773 9.83145 197.568 9.38834 196.582 8.39135C196.41 8.13113 196.104 7.93884 195.822 7.76128C195.744 7.71207 195.667 7.66399 195.596 7.61591C195.171 8.09882 194.747 8.55574 194.335 8.99926C193.896 9.47141 193.471 9.92837 193.076 10.3853C191.761 11.9362 190.227 12.6009 188.146 12.3793C187.64 12.3225 187.106 12.2949 186.558 12.2665C186.036 12.2394 185.502 12.2118 184.968 12.1578C183.873 12.047 182.886 11.7147 182.01 10.9392C180.805 9.94222 179.6 8.83446 178.504 7.72669C178.188 7.40738 177.872 7.06251 177.544 6.70435L177.544 6.70356C177.189 6.31655 176.82 5.91365 176.422 5.51115C175.546 6.50814 174.779 7.50513 174.121 8.50212C173.135 9.83145 172.04 10.9392 170.725 11.8254C169.848 12.3793 168.862 12.7116 167.767 12.4901C166.89 12.3239 165.986 12.1855 165.082 12.047C164.178 11.9085 163.274 11.77 162.398 11.6039C161.74 11.4931 161.193 11.1608 160.754 10.8284C160.162 10.3625 159.609 9.8165 159.048 9.26264C158.675 8.89483 158.299 8.52344 157.906 8.16979C157.248 7.50513 157.139 7.50513 156.262 7.94824C154.728 8.83446 153.085 9.72067 151.551 10.4961C151.332 10.6069 150.894 10.7177 150.565 10.6069C150.365 10.5259 150.164 10.4465 149.964 10.3673L149.962 10.3665C148.524 9.79678 147.117 9.23929 145.963 8.16979C145.113 7.31026 144.131 6.5841 143.119 5.83609L143.118 5.83519L143.117 5.83451L143.116 5.83382L143.115 5.83307C142.825 5.61804 142.531 5.40118 142.238 5.17882C140.923 6.17581 139.608 7.06202 138.294 7.94824C137.767 8.33293 137.24 8.72553 136.711 9.1197L136.711 9.11998L136.71 9.12067L136.708 9.1218C135.258 10.2025 133.792 11.2949 132.268 12.2685C130.843 13.2655 129.419 13.1548 127.885 12.3793C126.351 11.4931 125.146 10.2746 123.941 9.05605C123.283 8.50216 122.626 7.94824 122.078 7.39436C121.733 7.61261 121.404 7.81366 121.093 8.00429L121.091 8.00569C120.613 8.2983 120.175 8.56638 119.777 8.83446C119.446 9.07383 119.135 9.31321 118.835 9.54365C118.442 9.84622 118.069 10.1339 117.696 10.3853L117.695 10.3854C116.665 11.0985 116.144 11.4585 115.576 11.5729C114.996 11.6896 114.366 11.5512 113.094 11.2715C110.662 10.7539 108.828 9.66953 107.44 8.10657C107.426 8.24323 107.413 8.37988 107.401 8.51654C107.401 9.29198 106.963 9.84587 106.305 10.1782C106.205 10.2188 106.101 10.263 105.995 10.3083C105.521 10.5103 105 10.7321 104.552 10.7321C102.361 10.8429 100.279 10.8429 98.0881 10.8429C96.7733 10.8429 95.5681 10.3998 94.582 9.40276C94.4104 9.14254 94.1045 8.95024 93.822 8.77268L93.8219 8.77263C93.7437 8.72344 93.6672 8.67538 93.5959 8.62732C93.1713 9.11025 92.7468 9.56719 92.3346 10.0107C91.896 10.4829 91.4714 10.9398 91.0759 11.3967C89.7612 12.9476 88.2273 13.6123 86.1455 13.3907C85.6402 13.334 85.106 13.3063 84.5579 13.2779C84.0364 13.2509 83.5023 13.2232 82.9682 13.1692C81.8725 13.0584 80.8864 12.7261 80.0099 11.9506C78.8047 10.9536 77.5995 9.84587 76.5039 8.7381C76.1878 8.41857 75.8718 8.07344 75.5436 7.71502C75.1891 7.32791 74.8203 6.92516 74.4221 6.52256C73.5456 7.51955 72.7787 8.51654 72.1213 9.51354C71.1352 10.8429 70.0396 11.9506 68.7248 12.8368C67.8483 13.3907 66.8622 13.7231 65.7665 13.5015C64.89 13.3353 63.9861 13.1969 63.0822 13.0584C62.1784 12.9199 61.2744 12.7815 60.3979 12.6153C59.7405 12.5045 59.1927 12.1722 58.7544 11.8398C58.1618 11.3739 57.6088 10.8278 57.0478 10.2739L57.0477 10.2738C56.6752 9.9061 56.2992 9.53479 55.9057 9.1812C55.2483 8.51654 55.1388 8.51654 54.2623 8.95965C52.7284 9.84587 51.0849 10.7321 49.551 11.5075C49.3319 11.6183 48.8936 11.7291 48.5649 11.6183C48.3639 11.537 48.1629 11.4574 47.9626 11.378C46.5244 10.8082 45.1172 10.2507 43.9632 9.1812C43.1131 8.32167 42.131 7.59552 41.1194 6.84751C40.8272 6.63148 40.5326 6.41364 40.238 6.19023C38.9232 7.18722 37.6085 8.07343 36.2937 8.95965C35.766 9.345 35.2382 9.73829 34.7084 10.1331C33.2582 11.2139 31.7923 12.3063 30.2676 13.2799C28.8433 14.2769 27.419 14.1662 25.8851 13.3907C24.3512 12.5045 23.1459 11.286 21.9407 10.0674C21.2833 9.51354 20.626 8.95965 20.0781 8.40577C19.7325 8.62419 19.4039 8.82539 19.0923 9.01615C18.6139 9.30905 18.1753 9.57756 17.7773 9.84587C17.4458 10.0853 17.1348 10.3247 16.8354 10.5551C16.4421 10.8579 16.0688 11.1452 15.6956 11.3967C14.6647 12.1099 14.1443 12.4699 13.5756 12.5843C12.9959 12.701 12.366 12.5626 11.0939 12.283C6.9304 11.3967 4.51998 8.84887 3.09564 5.08246C2.85134 4.5267 2.67513 4.00535 2.4911 3.46087L2.49109 3.46085Z" fill="#DBEFEE"/>
</g>
<defs>
<clipPath id="clip0">
<rect width="630" height="19" fill="white"/>
</clipPath>
</defs>
</svg>
