
<svg width="35" height="34" viewBox="0 0 35 34" fill="none" xmlns="http://www.w3.org/2000/svg">
<g clip-path="url(#clip0)">
<path d="M34.5 17C34.5 7.61113 26.8889 0 17.5 0C8.11113 0 0.5 7.61113 0.5 17C0.5 26.3889 8.11113 34 17.5 34C26.8889 34 34.5 26.3889 34.5 17Z" fill="#434B57"/>
<path d="M31.5776 14.4009C31.2195 12.5097 30.2015 11.3316 29.1581 10.6031C28.0791 9.84976 26.7867 9.46267 25.4707 9.46267H6.79418C6.14446 9.46267 5.8956 10.097 5.89314 10.4147C5.89281 10.4562 5.89431 10.622 5.89431 10.622C5.89431 10.622 5.86367 18.8847 5.9217 23.2979C6.09796 25.9033 8.70838 25.9025 8.70838 25.9025C8.70838 25.9025 17.2313 25.8775 21.3187 25.8521C21.5104 25.8508 21.7018 25.8302 21.8879 25.7837C24.215 25.2014 24.4558 23.0394 24.4309 21.8343C29.1087 22.0941 32.4092 18.7933 31.5776 14.4009ZM26.3228 18.6891C25.3252 18.8138 24.5147 18.7202 24.5147 18.7202V12.6118H25.7422C26.5535 12.6118 27.3361 12.9496 27.8655 13.5644C28.2381 13.9972 28.5362 14.6064 28.5362 15.4478C28.5362 17.5048 27.4763 18.3151 26.3228 18.6891Z" fill="white"/>
<path d="M15.0416 22.4758C15.2447 22.5781 15.3745 22.451 15.3745 22.451C15.3745 22.451 18.3471 19.7379 19.6862 18.1754C20.8773 16.7777 20.955 14.4222 18.9095 13.542C16.864 12.6619 15.1811 14.5774 15.1811 14.5774C13.7216 12.9723 11.5128 13.0536 10.4912 14.1399C9.4696 15.2262 9.82637 17.0907 10.5885 18.1283C11.3039 19.1024 14.4485 21.9051 14.9251 22.3791C14.9251 22.3791 14.9599 22.4154 15.0416 22.4758Z" fill="#F14255"/>
</g>
<defs>
<clipPath id="clip0">
<rect x="0.5" width="34" height="34" fill="white"/>
</clipPath>
</defs>
</svg>
