<svg width="512" height="103" viewBox="0 0 512 103" fill="none" xmlns="http://www.w3.org/2000/svg">
<path d="M14 38.5482V34.995C23.164 34.995 28.0361 28.2326 37.8961 24.6794C37.8961 24.6794 37.8961 28.3472 37.8961 34.995H43.9281V38.5482H37.8961C37.7801 46.686 37.7801 57.9186 37.7801 71.4435C37.7801 80.4983 47.1762 78.0914 47.1762 78.0914C46.8282 81.3007 41.2601 86 36.0401 86C26.8761 86 19.568 82.103 19.568 70.0681V46.9153C19.684 41.5282 18.64 38.5482 14 38.5482Z" fill="#2B3545"/>
<path d="M85.0639 49.8953C85.0639 27.6595 67.0838 40.4967 71.4919 46.9153L56.9918 42.6744C61.7478 36.8289 65.5758 33.6196 76.3639 33.0465C78.7999 32.9319 103.508 31.5565 103.276 51.7292C103.044 64.7957 103.276 73.7359 103.276 73.7359C103.276 81.8738 108.844 82.6761 108.844 82.6761V84.2807H92.952C88.8919 84.2807 87.3839 82.7907 87.0359 81.6445C85.0639 83.593 80.6559 84.2807 76.2479 84.2807C54.2078 84.2807 49.6838 76.4867 49.6838 67.088C49.6838 50.2392 69.8679 49.8953 85.0639 49.8953ZM85.0639 52.7608C77.8719 52.99 68.0118 53.3339 68.0118 66.8588C68.0118 76.6013 71.1439 81.0714 78.7999 81.0714C80.1919 81.0714 85.0639 80.0399 85.0639 73.392C85.0639 67.5465 85.0639 67.5465 85.0639 52.7608Z" fill="#2B3545"/>
<path d="M141.45 84.2807H112.102V82.6761C112.102 82.6761 117.67 82.2176 117.67 74.1944V30.1811C117.67 22.0432 112.102 21.2409 112.102 21.2409V19.6362L135.998 17C135.998 17 135.882 23.9917 135.882 31.3272V68.5781L152.006 42.6744C156.066 36.0266 151.31 34.6512 151.31 34.6512L152.354 33.0465H169.174L168.246 34.6512C166.854 34.7658 160.822 37.0581 157.458 43.0183L151.658 52.3023L163.838 73.7359C168.478 81.8738 174.51 82.6761 174.51 82.6761L175.438 84.2807H146.09L145.162 82.6761C145.162 82.6761 150.382 81.8738 145.974 74.309L142.494 67.3173L136.23 77.289C137.39 82.103 141.45 82.6761 141.45 82.6761V84.2807Z" fill="#2B3545"/>
<path d="M207.112 58.9502C199.804 58.9502 188.32 58.6063 188.32 58.6063C188.32 74.4236 193.192 81.186 200.616 81.0714C210.708 81.0714 213.26 74.4236 214.536 71.5581L217.668 76.9452C216.276 79.0083 213.26 84.2807 200.5 84.2807C182.52 84.2807 169.876 76.7159 169.876 58.9502C169.876 44.0498 180.664 32.588 197.832 32.588C216.16 32.588 222.54 47.603 220.452 55.6262C217.9 58.2625 212.332 58.9502 207.112 58.9502ZM197.716 36.0266C190.756 36.0266 188.436 43.8206 188.436 54.5947H201.544C208.62 54.5947 207.46 36.0266 197.716 36.0266Z" fill="#2B3545"/>
<path d="M269.952 77.6329C268.56 79.5814 264.036 84.2807 254.988 84.2807C236.892 84.2807 224.364 76.7159 224.364 58.9502C224.364 44.0498 236.892 32.588 254.06 32.588C262.064 32.588 269.024 36.0266 272.852 40.1528C271.692 44.9668 265.892 47.0299 259.744 45.9983C262.528 43.5914 262.18 34.995 254.06 34.995C245.824 34.995 242.808 46.2276 242.808 58.6063C242.808 71.0997 247.1 81.0714 254.988 81.0714C262.876 81.0714 265.544 74.9967 266.82 72.2458L269.952 77.6329Z" fill="#2B3545"/>
<path d="M309.135 49.8953C309.135 27.6595 291.155 40.4967 295.563 46.9153L281.063 42.6744C285.819 36.8289 289.647 33.6196 300.435 33.0465C302.871 32.9319 327.579 31.5565 327.347 51.7292C327.115 64.7957 327.347 73.7359 327.347 73.7359C327.347 81.8738 332.915 82.6761 332.915 82.6761V84.2807H317.023C312.963 84.2807 311.455 82.7907 311.107 81.6445C309.135 83.593 304.727 84.2807 300.319 84.2807C278.279 84.2807 273.755 76.4867 273.755 67.088C273.755 50.2392 293.939 49.8953 309.135 49.8953ZM309.135 52.7608C301.943 52.99 292.083 53.3339 292.083 66.8588C292.083 76.6013 295.215 81.0714 302.871 81.0714C304.263 81.0714 309.135 80.0399 309.135 73.392C309.135 67.5465 309.135 67.5465 309.135 52.7608Z" fill="#2B3545"/>
<path d="M360.069 36.8289C370.742 29.2641 385.126 31.4419 387.794 41.4136L375.034 45.3106C372.83 38.7774 368.422 35.5681 360.069 39.9236C360.069 41.8721 360.069 74.309 360.069 74.309C360.069 81.8738 365.638 82.6761 365.638 82.6761V84.2807H336.173V82.6761C336.173 82.6761 341.857 82.2176 341.857 74.0797V45.5399C341.857 37.402 336.289 36.5997 336.289 36.5997V34.8804L360.069 32.2442C360.069 32.2442 360.069 34.0781 360.069 36.8289Z" fill="#2B3545"/>
<path d="M423.48 58.9502C416.172 58.9502 404.688 58.6063 404.688 58.6063C404.688 74.4236 409.56 81.186 416.984 81.0714C427.076 81.0714 429.628 74.4236 430.904 71.5581L434.036 76.9452C432.644 79.0083 429.628 84.2807 416.868 84.2807C398.888 84.2807 386.244 76.7159 386.244 58.9502C386.244 44.0498 397.032 32.588 414.2 32.588C432.528 32.588 438.908 47.603 436.82 55.6262C434.268 58.2625 428.7 58.9502 423.48 58.9502ZM414.084 36.0266C407.124 36.0266 404.804 43.8206 404.804 54.5947H417.912C424.988 54.5947 423.828 36.0266 414.084 36.0266Z" fill="#2B3545"/>
<path d="M464.301 62.2376H442.971V59.5055C443.999 59.0396 445.026 58.6372 446.054 58.2983C447.122 57.9171 448.191 57.5994 449.259 57.3453V28.1823L449.506 24.4337C448.355 24.8149 447.163 25.0691 445.93 25.1961C444.697 25.3232 443.423 25.3656 442.108 25.3232L441.8 22.9724C443.978 22.3794 446.341 21.5746 448.889 20.558C451.479 19.5414 453.862 18.3554 456.04 17H458.136V57.3453C459.164 57.5994 460.191 57.9171 461.219 58.2983C462.246 58.6372 463.274 59.0396 464.301 59.5055V62.2376Z" fill="#6F8F9A"/>
<path d="M466.608 31.6133C466.608 29.453 466.978 27.4834 467.718 25.7044C468.458 23.9254 469.485 22.4005 470.8 21.1298C472.157 19.8168 473.759 18.8002 475.609 18.0801C477.458 17.36 479.513 17 481.773 17C484.157 17 486.294 17.4236 488.185 18.2707C490.075 19.0755 491.678 20.2192 492.993 21.7017C494.308 23.1842 495.294 25.0055 495.952 27.1657C496.651 29.2836 497 31.6344 497 34.2182C497 38.1575 496.425 41.8002 495.274 45.1464C494.123 48.4503 492.5 51.3729 490.404 53.9144C488.308 56.4134 485.78 58.4678 482.821 60.0773C479.903 61.6446 476.677 62.6188 473.143 63L471.725 60.268C476.451 58.9972 480.088 56.7099 482.636 53.4061C485.184 50.1022 486.787 46.0359 487.445 41.2072C486.664 42.2661 485.637 43.1344 484.363 43.8121C483.088 44.4899 481.445 44.8287 479.431 44.8287C477.664 44.8287 475.999 44.5534 474.437 44.0028C472.917 43.4521 471.561 42.6261 470.369 41.5249C469.218 40.3812 468.293 38.9834 467.595 37.3315C466.937 35.6796 466.608 33.7735 466.608 31.6133ZM475.855 31.232C475.855 32.4604 475.979 33.6252 476.225 34.7265C476.513 35.8278 476.924 36.802 477.458 37.6492C477.992 38.4963 478.65 39.174 479.431 39.6823C480.212 40.1482 481.136 40.3812 482.205 40.3812C483.438 40.3812 484.527 40.1482 485.472 39.6823C486.417 39.174 487.137 38.4963 487.63 37.6492C487.712 37.0985 487.774 36.4208 487.815 35.616C487.856 34.8112 487.876 34.0276 487.876 33.2652C487.876 31.6133 487.753 30.046 487.506 28.5635C487.301 27.0387 486.952 25.7256 486.458 24.6243C485.965 23.4807 485.328 22.57 484.547 21.8923C483.767 21.2145 482.801 20.8757 481.65 20.8757C479.595 20.8757 478.116 21.744 477.212 23.4807C476.307 25.175 475.855 27.7587 475.855 31.232Z" fill="#6F8F9A"/>
</svg>
