<svg width="320" height="492" viewBox="0 0 320 492" fill="none" xmlns="http://www.w3.org/2000/svg">
<path d="M297.27 42.3995C303.541 46.5327 309.811 51.4925 316.081 55.6256H320V491.5H160H0V42.3995C0.783778 44.0528 3.45055 38.2663 7.8604 42.3995C9.52185 43.9567 11.7393 45.6313 13.9627 47.1579C17.6407 49.6833 21.335 51.8039 22.5562 52.3191C23.7319 53.1457 24.7116 53.9724 25.6913 55.6256C27.2589 53.1457 48.4209 52.3191 50.3804 52.3191C51.3601 52.3191 52.3398 51.4925 53.1236 49.8392C54.4952 47.3593 55.8668 46.5327 57.4344 46.5327C59.7857 46.5327 62.333 47.3593 64.6843 43.2261C66.4478 39.9196 68.9951 39.9196 71.1505 39.093C71.9342 39.093 72.718 39.093 73.5018 38.2663C74.8734 37.4397 76.245 37.4397 77.6166 39.093C78.7923 39.9196 80.1639 39.9196 81.3396 39.9196C85.0625 40.7462 88.5895 41.5729 92.3125 42.3995C93.6841 42.3995 94.8598 43.2261 96.0354 44.0528H99.1705C101.13 43.2261 103.285 43.2261 105.245 42.3995C105.833 42.3995 106.225 41.5729 106.812 41.5729C108.38 41.5729 109.947 40.7462 111.319 41.5729C113.866 43.2261 116.414 41.5729 118.961 40.7462C120.528 40.7462 121.9 39.9196 123.272 39.093C124.055 41.5728 124.447 44.0527 124.839 46.5325L124.839 46.5327C124.839 45.706 125.035 44.0528 125.035 43.2261C135.42 51.4925 145.805 46.5327 156.778 31.6533C158.542 34.9598 160.697 39.9196 163.048 44.0528C165.596 49.0126 168.143 53.9724 171.67 48.1859C172.846 46.5327 174.609 46.5327 175.981 47.3593C177.94 49.0126 179.508 47.3593 181.271 43.2261C183.427 37.4397 185.582 36.6131 187.737 41.5729C188.521 43.2261 189.893 44.0528 191.069 44.0528C194.204 44.0528 197.535 40.7462 200.278 47.3593C200.474 48.1859 201.062 47.3593 201.65 47.3593C205.176 46.5327 208.507 45.7062 211.838 44.8796L211.839 44.8794C212.622 44.8794 213.602 45.706 214.582 46.5327C215.953 47.3593 253.183 61.4121 255.142 57.2789C255.534 55.6256 256.122 54.799 256.514 54.799C258.277 54.799 260.237 55.6256 262 55.6256C263.764 55.6256 265.527 54.799 267.095 53.9724L276.5 46.5327C278.068 44.8794 279.635 43.2261 280.811 39.9196C282.379 35.7864 283.946 33.3065 285.71 32.4799L285.71 32.4791C286.494 31.6528 287.278 30.8264 288.257 30C290.608 39.093 294.135 39.9196 297.27 42.3995Z" fill="#DBEFEE"/>
<g opacity="0.8">
<path d="M221.407 6.94814C221.118 4.26053 219.673 3.14069 217.651 4.70846C216.207 5.60433 215.629 7.1721 215.629 9.18781C215.629 10.3076 215.918 11.6515 215.918 13.4432C215.918 14.563 215.918 16.3548 215.918 17.9225C216.207 20.1622 218.229 21.73 220.54 21.506C221.985 21.2821 222.562 19.9383 222.273 17.2506C221.985 13.8911 221.696 10.5316 221.407 7.1721V6.94814Z" fill="#E9C330"/>
<path d="M187.04 38.753C188.195 38.9769 190.795 36.7372 191.662 37.1852C192.817 32.2579 192.817 27.5546 193.106 22.8513C193.106 20.6116 191.951 19.9397 190.217 20.8355C189.351 21.2835 188.484 21.9554 187.617 22.6273C184.729 24.867 184.44 25.9868 185.306 30.0182C185.884 32.9298 186.751 35.8414 187.329 38.9769L187.04 38.753Z" fill="#E9C330"/>
<path d="M158.706 38.5619C157.261 38.338 156.395 39.2339 156.684 41.0256C156.972 43.2653 156.972 45.281 157.261 47.5207C157.261 47.5207 157.261 47.5207 156.972 47.5207C156.972 49.3124 156.972 51.1041 157.261 52.8959C157.839 56.0314 159.861 57.1513 161.884 55.5835C163.328 54.6876 164.195 53.1198 164.195 51.1041C164.195 49.0884 164.195 46.8487 164.195 44.833C163.906 41.4735 161.595 38.5619 158.706 38.114V38.5619Z" fill="#E9C330"/>
<path d="M164.803 61.6255C164.803 60.0578 163.359 59.3859 161.337 59.3859C159.603 59.3859 159.025 60.0578 159.025 62.0735C159.025 63.6412 159.025 65.209 159.025 66.7768C159.025 66.7768 159.025 66.7768 159.314 66.7768C159.314 68.3446 159.314 69.6884 159.314 71.2562C159.314 71.9281 159.603 73.0479 160.47 73.4958C161.914 74.3917 163.648 73.4958 165.092 73.0479C166.537 72.6 166.825 71.7041 166.537 70.5842C165.959 67.6727 165.092 64.9851 165.092 62.0735L164.803 61.6255Z" fill="#E9C330"/>
<path d="M166.238 30.4511C167.971 30.4511 169.704 19.4767 169.127 16.5651C169.127 15.6692 168.549 14.7733 168.26 13.8775C167.393 12.3097 165.66 11.1899 164.504 11.6378C162.771 12.3097 162.482 13.8775 162.482 15.6692C162.482 19.4767 162.482 23.5081 162.482 27.3155C162.482 29.5552 163.927 30.2271 166.238 30.2271V30.4511Z" fill="#E9C330"/>
<path d="M177.491 44.3551C177.202 41.6675 176.625 38.9799 176.625 36.0683C176.625 34.5006 176.047 33.6047 174.891 33.8287C173.158 34.2766 171.425 35.1725 169.98 36.0683C169.691 36.2923 169.113 38.0841 169.402 38.532C170.847 40.3237 170.269 42.3394 170.269 44.3551C170.269 45.699 170.269 47.0428 170.558 48.3866C170.847 49.9543 171.425 50.6262 172.869 50.8502C175.758 51.0742 178.069 47.7147 177.491 44.1312V44.3551Z" fill="#E9C330"/>
<path d="M226.045 63.6032C224.889 63.1552 224.023 63.1552 223.445 64.2751C221.712 67.6346 219.978 70.9941 218.534 74.3536C218.245 75.0255 218.245 76.5933 218.823 77.2652C220.267 79.9528 224.312 79.9528 226.334 77.2652C227.778 74.1296 229.223 70.7701 228.934 66.5147C228.645 64.723 227.778 63.8271 226.334 63.3792L226.045 63.6032Z" fill="#E9C330"/>
<path d="M201.77 15.6679C200.903 17.9075 200.325 19.9232 199.747 22.1629C199.17 24.4026 198.881 26.8662 198.303 29.3299C197.147 33.1373 198.881 36.0489 200.325 38.9605C201.192 40.3043 202.058 40.5283 203.214 39.1845C204.081 37.8407 204.658 36.2729 205.814 35.153C208.125 32.4654 208.992 28.8819 208.992 25.0745C209.281 20.1472 208.414 15.2199 202.058 15.6679H201.77Z" fill="#E9C330"/>
<path d="M213.901 35.1533C213.323 35.1533 213.034 35.3773 212.456 35.6012C212.167 38.9607 212.167 42.3202 211.879 45.4558C211.59 49.7112 211.012 53.9666 210.723 58.2219C210.434 60.6856 212.167 62.7013 214.767 62.9253C216.212 62.9253 216.79 62.0294 217.078 59.3418C217.656 56.4302 218.234 53.2947 218.523 50.3831C219.101 47.4715 219.678 44.336 219.967 41.4244C220.256 36.0492 218.234 34.0334 213.901 34.9293V35.1533Z" fill="#E9C330"/>
<path d="M178.361 57.3295C176.05 57.1056 174.317 58.6733 174.028 61.8089C174.028 63.6006 174.028 65.3924 174.028 67.4081C174.028 67.4081 174.028 67.4081 173.739 67.4081C173.739 68.9758 173.45 70.5436 173.45 72.1114C173.45 75.9188 176.339 78.3825 179.228 77.4866C179.805 77.2626 180.672 76.1428 180.672 75.4709C180.961 70.9915 180.961 66.7362 181.25 62.2568C181.25 59.1213 180.383 57.7775 178.072 57.5535L178.361 57.3295Z" fill="#E9C330"/>
<path d="M201.187 58.706C200.61 56.2424 200.61 53.5547 200.321 51.0911C200.032 47.9556 199.165 48.1795 196.276 48.1795C190.499 48.1795 192.81 58.2581 192.81 60.7217C193.099 64.3052 193.388 67.8887 193.965 71.4721C194.254 73.9358 194.832 74.3837 196.854 73.4879C198.299 72.816 199.743 72.144 201.476 71.4721C203.787 70.5763 203.787 69.9044 203.21 67.2168C202.343 64.3052 201.765 61.3936 201.187 58.482V58.706Z" fill="#E9C330"/>
<path d="M180.98 19.0617C182.714 19.2856 183.869 16.3741 183.869 16.3741C183.869 16.3741 185.603 15.4782 185.603 14.3583C185.603 11.4468 185.603 8.75916 185.603 5.84758C185.603 4.95171 185.314 3.83187 185.025 2.936C184.447 1.14426 182.714 -0.199546 181.558 0.0244211C179.825 0.248389 179.247 2.04013 178.958 3.6079C178.381 7.41535 178.092 11.2228 177.514 15.2542C177.225 17.2699 178.381 18.3898 180.98 18.8377V19.0617Z" fill="#E9C330"/>
<path d="M253.193 85.1178C254.06 82.8781 254.638 80.8624 255.216 78.6227C255.793 76.3831 256.082 73.9194 256.66 71.4558C257.816 67.6483 256.082 64.7367 254.638 61.8252C253.771 60.4814 252.905 60.2574 251.749 61.6012C250.882 62.945 250.305 64.5128 249.149 65.6326C246.838 68.3202 245.971 71.9037 245.971 75.7112C245.682 80.6384 246.549 85.5657 252.905 85.1178H253.193Z" fill="#E9C330"/>
<path d="M269.368 83.1115C269.946 83.1115 270.235 82.8875 270.812 82.6636C271.101 79.3041 271.101 75.9446 271.39 72.809C271.679 68.5536 272.257 64.2982 272.546 60.0429C272.835 57.5792 271.101 55.5635 268.501 55.3395C267.057 55.3395 266.479 56.2354 266.19 58.923C265.613 61.8346 265.035 64.9701 264.746 67.8817C264.168 70.7933 263.59 73.9288 263.301 76.8404C263.013 82.2156 265.035 84.2313 269.368 83.3355V83.1115Z" fill="#E9C330"/>
<path d="M297.375 49.4881C299.686 49.7121 301.419 48.1443 301.708 45.0088C301.708 43.217 301.708 41.4253 301.708 39.4096C301.708 39.4096 301.708 39.4096 301.997 39.4096C301.997 37.8418 302.286 36.274 302.286 34.7063C302.286 30.8988 299.397 28.4352 296.508 29.3311C295.93 29.555 295.063 30.6749 295.063 31.3468C294.775 35.8261 294.775 40.0815 294.486 44.5608C294.486 47.6964 295.352 49.0402 297.663 49.2642L297.375 49.4881Z" fill="#E9C330"/>
<path d="M278.336 48.3693C278.048 50.6089 277.759 52.6246 277.47 54.6404C277.181 57.328 278.048 58.4478 280.359 58.6718C282.67 58.8957 284.981 58.2238 287.003 56.4321C285.848 54.1924 286.136 52.1767 286.425 50.161C287.003 47.2494 287.581 44.1139 287.87 40.9783C288.159 38.9626 287.581 38.2907 285.559 38.0668C284.114 37.8428 282.381 37.8428 280.936 37.6188C278.625 37.3949 278.336 37.8428 278.336 40.3064C278.336 42.994 278.336 45.4577 278.336 48.1453V48.3693Z" fill="#E9C330"/>
<path d="M291.04 30.9281C291.617 26.0008 291.329 21.2975 291.04 16.5942C290.751 14.3545 289.595 13.9066 287.862 15.0264C286.995 15.6983 286.129 16.3702 285.262 17.0421C282.662 19.5058 282.373 20.8496 283.529 24.657C284.395 27.3446 289.884 30.9281 290.751 30.9281H291.04Z" fill="#E9C330"/>
<path d="M273.118 17.0613C271.385 17.0613 269.651 28.0357 270.229 30.9473C270.229 31.8431 270.807 32.739 271.096 33.6349C271.962 35.2027 273.696 36.3225 274.851 35.8746C276.585 35.2027 276.874 33.6349 276.874 31.8431C276.874 28.0357 276.874 24.0043 276.874 20.1968C276.874 17.9571 275.429 17.2852 273.118 17.2852V17.0613Z" fill="#E9C330"/>
<path d="M233.849 65.1651C234.138 66.061 235.004 67.1808 235.582 67.1808C238.182 67.6287 241.071 67.1808 242.804 64.4932C242.227 61.5816 241.36 59.118 241.071 56.6543C240.493 54.6386 240.204 52.6229 239.627 50.6072C239.338 49.2634 238.76 48.1436 237.316 47.9196C233.849 47.0237 230.671 51.0551 231.538 55.3105C232.116 58.67 232.982 61.8056 233.849 65.1651Z" fill="#E9C330"/>
<path d="M235.559 38.9656C236.426 36.726 237.004 34.7103 237.582 32.4706C238.159 30.2309 238.448 27.7673 239.026 25.3036C240.182 21.4962 238.448 18.5846 237.004 15.673C236.137 14.3292 235.271 14.1052 234.115 15.449C233.248 16.7928 232.671 18.3606 231.515 19.4805C229.204 22.1681 228.337 25.7516 228.337 29.559C228.048 34.4863 228.915 39.4136 235.271 38.9656H235.559Z" fill="#E9C330"/>
<path d="M256.085 56.4637C256.952 54.2241 257.53 52.2084 258.107 49.9687C258.685 47.729 258.974 45.2654 259.552 42.8017C260.707 38.9943 258.974 36.0827 257.53 33.1711C256.663 31.8273 255.796 31.6033 254.641 32.9471C253.774 34.291 253.196 35.8587 252.041 36.9786C249.73 39.6662 248.863 43.2497 248.863 47.0571C248.574 51.9844 249.441 56.9117 255.796 56.4637H256.085Z" fill="#E9C330"/>
</g>
</svg>
