<svg width="320" height="616" viewBox="0 0 320 616" fill="none" xmlns="http://www.w3.org/2000/svg">
<path d="M297.27 36.9864C303.541 42.3151 309.811 48.7097 316.081 54.0385H320V616H160H0V36.9864C0.783778 39.1179 3.45055 31.6576 7.8604 36.9864C9.52185 38.994 11.7393 41.153 13.9627 43.1212C17.6407 46.3771 21.335 49.1112 22.5562 49.7754C23.7319 50.8412 24.7116 51.9069 25.6913 54.0385C27.2589 50.8412 48.4209 49.7754 50.3804 49.7754C51.3601 49.7754 52.3398 48.7097 53.1236 46.5782C54.4952 43.3809 55.8668 42.3151 57.4344 42.3151C59.7857 42.3151 62.333 43.3809 64.6843 38.0521C66.4478 33.7891 68.9951 33.7891 71.1505 32.7233C71.9342 32.7233 72.718 32.7233 73.5018 31.6576C74.8734 30.5918 76.245 30.5918 77.6166 32.7233C78.7923 33.7891 80.1639 33.7891 81.3396 33.7891C85.0625 34.8548 88.5895 35.9206 92.3125 36.9864C93.6841 36.9864 94.8598 38.0521 96.0354 39.1179H99.1705C101.13 38.0521 103.285 38.0521 105.245 36.9864C105.833 36.9864 106.225 35.9206 106.812 35.9206C108.38 35.9206 109.947 34.8548 111.319 35.9206C113.866 38.0521 116.414 35.9206 118.961 34.8548C120.528 34.8548 121.9 33.7891 123.272 32.7233C124.055 35.9205 124.447 39.1177 124.839 42.3149L124.839 42.3151C124.839 41.2494 125.035 39.1179 125.035 38.0521C135.42 48.7097 145.805 42.3151 156.778 23.1315C158.542 27.3945 160.697 33.7891 163.048 39.1179C165.596 45.5124 168.143 51.9069 171.67 44.4466C172.846 42.3151 174.609 42.3151 175.981 43.3809C177.94 45.5124 179.508 43.3809 181.271 38.0521C183.427 30.5918 185.582 29.5261 187.737 35.9206C188.521 38.0521 189.893 39.1179 191.069 39.1179C194.204 39.1179 197.535 34.8548 200.278 43.3809C200.474 44.4466 201.062 43.3809 201.65 43.3809C205.176 42.3152 208.507 41.2496 211.838 40.184L211.839 40.1836C212.622 40.1836 213.602 41.2494 214.582 42.3151C215.953 43.3809 253.183 61.4988 255.142 56.17C255.534 54.0385 256.122 52.9727 256.514 52.9727C258.277 52.9727 260.237 54.0385 262 54.0385C263.764 54.0385 265.527 52.9727 267.095 51.9069L276.5 42.3151C278.068 40.1836 279.635 38.0521 280.811 33.7891C282.379 28.4603 283.946 25.263 285.71 24.1973L285.71 24.1963C286.494 23.1308 287.278 22.0654 288.257 21C290.608 32.7233 294.135 33.7891 297.27 36.9864Z" fill="#DBEFEE"/>
<path d="M218.329 6.19302C218.077 3.79755 216.821 2.79943 215.063 4.19679C213.807 4.99529 213.304 6.39265 213.304 8.18926C213.304 9.18737 213.556 10.3851 213.556 11.9821C213.556 12.9802 213.556 14.5772 213.556 15.9746C213.807 17.9708 215.565 19.3681 217.575 19.1685C218.831 18.9689 219.333 17.7712 219.082 15.3757C218.831 12.3813 218.58 9.38699 218.329 6.39265V6.19302Z" fill="#E9C330"/>
<path d="M188.444 34.5407C189.449 34.7403 191.71 32.7441 192.464 33.1433C193.469 28.7516 193.469 24.5595 193.72 20.3675C193.72 18.3712 192.715 17.7724 191.208 18.5708C190.454 18.9701 189.701 19.569 188.947 20.1678C186.435 22.1641 186.184 23.1622 186.937 26.7554C187.44 29.3505 188.193 31.9456 188.696 34.7403L188.444 34.5407Z" fill="#E9C330"/>
<path d="M163.807 34.3704C162.551 34.1708 161.797 34.9693 162.048 36.5663C162.299 38.5625 162.299 40.3591 162.551 42.3554C162.551 42.3554 162.551 42.3554 162.299 42.3554C162.299 43.9523 162.299 45.5493 162.551 47.1463C163.053 49.941 164.811 50.9392 166.57 49.5418C167.826 48.7433 168.579 47.3459 168.579 45.5493C168.579 43.7527 168.579 41.7565 168.579 39.9599C168.328 36.9655 166.319 34.3704 163.807 33.9712V34.3704Z" fill="#E9C330"/>
<path d="M169.109 54.9271C169.109 53.5298 167.853 52.9309 166.094 52.9309C164.587 52.9309 164.084 53.5298 164.084 55.3264C164.084 56.7237 164.084 58.1211 164.084 59.5185C164.084 59.5185 164.084 59.5185 164.336 59.5185C164.336 60.9158 164.336 62.1136 164.336 63.5109C164.336 64.1098 164.587 65.1079 165.341 65.5072C166.597 66.3057 168.104 65.5072 169.36 65.1079C170.616 64.7087 170.867 63.9102 170.616 62.9121C170.113 60.317 169.36 57.9215 169.36 55.3264L169.109 54.9271Z" fill="#E9C330"/>
<path d="M170.356 27.1412C171.863 27.1412 173.37 17.3597 172.868 14.7646C172.868 13.9661 172.366 13.1676 172.114 12.3691C171.361 10.9718 169.854 9.97364 168.849 10.3729C167.342 10.9718 167.09 12.3691 167.09 13.9661C167.09 17.3597 167.09 20.9529 167.09 24.3465C167.09 26.3427 168.346 26.9416 170.356 26.9416V27.1412Z" fill="#E9C330"/>
<path d="M180.142 39.534C179.89 37.1385 179.388 34.743 179.388 32.1479C179.388 30.7506 178.886 29.9521 177.881 30.1517C176.373 30.5509 174.866 31.3494 173.61 32.1479C173.359 32.3475 172.857 33.9445 173.108 34.3438C174.364 35.9408 173.861 37.7374 173.861 39.534C173.861 40.7317 173.861 41.9295 174.113 43.1272C174.364 44.5246 174.866 45.1234 176.122 45.3231C178.634 45.5227 180.644 42.5283 180.142 39.3344V39.534Z" fill="#E9C330"/>
<path d="M222.362 56.6897C221.357 56.2905 220.603 56.2905 220.101 57.2886C218.594 60.283 217.087 63.2773 215.831 66.2717C215.579 66.8705 215.579 68.2679 216.082 68.8668C217.338 71.2622 220.855 71.2622 222.613 68.8668C223.869 66.072 225.125 63.0777 224.874 59.2848C224.623 57.6879 223.869 56.8894 222.613 56.4901L222.362 56.6897Z" fill="#E9C330"/>
<path d="M201.253 13.9649C200.499 15.9611 199.997 17.7577 199.494 19.754C198.992 21.7502 198.741 23.946 198.238 26.1419C197.234 29.5355 198.741 32.1306 199.997 34.7257C200.75 35.9234 201.504 36.1231 202.509 34.9253C203.263 33.7276 203.765 32.3302 204.77 31.3321C206.779 28.9366 207.533 25.7427 207.533 22.3491C207.784 17.9573 207.031 13.5656 201.504 13.9649H201.253Z" fill="#E9C330"/>
<path d="M211.802 31.3323C211.299 31.3323 211.048 31.5319 210.546 31.7315C210.295 34.7259 210.295 37.7202 210.043 40.515C209.792 44.3078 209.29 48.1006 209.039 51.8935C208.787 54.0893 210.295 55.8859 212.555 56.0856C213.811 56.0856 214.314 55.2871 214.565 52.8916C215.067 50.2965 215.57 47.5018 215.821 44.9067C216.323 42.3116 216.826 39.5168 217.077 36.9217C217.328 32.1308 215.57 30.3342 211.802 31.1327V31.3323Z" fill="#E9C330"/>
<path d="M180.898 51.0981C178.888 50.8985 177.381 52.2958 177.13 55.0906C177.13 56.6876 177.13 58.2845 177.13 60.0811C177.13 60.0811 177.13 60.0811 176.879 60.0811C176.879 61.4785 176.627 62.8759 176.627 64.2732C176.627 67.6668 179.139 69.8627 181.652 69.0642C182.154 68.8646 182.908 67.8664 182.908 67.2676C183.159 63.2751 183.159 59.4823 183.41 55.4898C183.41 52.6951 182.656 51.4974 180.647 51.2977L180.898 51.0981Z" fill="#E9C330"/>
<path d="M200.747 52.3249C200.244 50.129 200.244 47.7335 199.993 45.5377C199.742 42.7429 198.988 42.9426 196.476 42.9426C191.452 42.9426 193.462 51.9256 193.462 54.1215C193.713 57.3154 193.964 60.5094 194.467 63.7034C194.718 65.8992 195.22 66.2985 196.979 65.5C198.235 64.9011 199.491 64.3022 200.998 63.7034C203.008 62.9049 203.008 62.306 202.505 59.9105C201.752 57.3154 201.249 54.7203 200.747 52.1252V52.3249Z" fill="#E9C330"/>
<path d="M183.176 16.9897C184.683 17.1894 185.688 14.5943 185.688 14.5943C185.688 14.5943 187.195 13.7958 187.195 12.7976C187.195 10.2025 187.195 7.80707 187.195 5.21197C187.195 4.41348 186.944 3.41536 186.692 2.61687C186.19 1.01988 184.683 -0.177857 183.678 0.0217666C182.171 0.22139 181.668 1.81837 181.417 3.21574C180.915 6.60933 180.664 10.0029 180.161 13.5961C179.91 15.3927 180.915 16.3909 183.176 16.7901V16.9897Z" fill="#E9C330"/>
<path d="M245.969 75.8658C246.723 73.8696 247.225 72.073 247.727 70.0768C248.23 68.0805 248.481 65.8847 248.983 63.6888C249.988 60.2952 248.481 57.7001 247.225 55.105C246.471 53.9073 245.718 53.7077 244.713 54.9054C243.959 56.1031 243.457 57.5005 242.452 58.4986C240.443 60.8941 239.689 64.0881 239.689 67.4817C239.438 71.8734 240.191 76.2651 245.718 75.8658H245.969Z" fill="#E9C330"/>
<path d="M260.034 74.0777C260.536 74.0777 260.787 73.8781 261.29 73.6785C261.541 70.6841 261.541 67.6898 261.792 64.8951C262.043 61.1022 262.546 57.3094 262.797 53.5165C263.048 51.3207 261.541 49.5241 259.28 49.3245C258.024 49.3245 257.522 50.123 257.27 52.5184C256.768 55.1135 256.266 57.9083 256.014 60.5034C255.512 63.0985 255.01 65.8932 254.758 68.4883C254.507 73.2792 256.266 75.0758 260.034 74.2773V74.0777Z" fill="#E9C330"/>
<path d="M284.387 44.109C286.397 44.3086 287.904 42.9112 288.155 40.1165C288.155 38.5195 288.155 36.9225 288.155 35.1259C288.155 35.1259 288.155 35.1259 288.406 35.1259C288.406 33.7286 288.658 32.3312 288.658 30.9338C288.658 27.5402 286.145 25.3444 283.633 26.1429C283.131 26.3425 282.377 27.3406 282.377 27.9395C282.126 31.9319 282.126 35.7248 281.875 39.7172C281.875 42.512 282.629 43.7097 284.638 43.9093L284.387 44.109Z" fill="#E9C330"/>
<path d="M267.832 43.1117C267.581 45.1079 267.33 46.9045 267.079 48.7011C266.827 51.0966 267.581 52.0947 269.591 52.2944C271.6 52.494 273.61 51.8951 275.368 50.2981C274.364 48.3019 274.615 46.5053 274.866 44.7087C275.368 42.1136 275.871 39.3189 276.122 36.5241C276.373 34.7275 275.871 34.1287 274.112 33.929C272.856 33.7294 271.349 33.7294 270.093 33.5298C268.083 33.3302 267.832 33.7294 267.832 35.9253C267.832 38.3207 267.832 40.5166 267.832 42.9121V43.1117Z" fill="#E9C330"/>
<path d="M278.878 27.5664C279.381 23.1747 279.129 18.9826 278.878 14.7905C278.627 12.7943 277.622 12.395 276.115 13.3931C275.361 13.992 274.608 14.5909 273.854 15.1897C271.593 17.3856 271.342 18.5833 272.347 21.9769C273.101 24.3724 277.873 27.5664 278.627 27.5664H278.878Z" fill="#E9C330"/>
<path d="M263.294 15.2069C261.787 15.2069 260.28 24.9884 260.782 27.5835C260.782 28.382 261.285 29.1805 261.536 29.979C262.29 31.3764 263.797 32.3745 264.802 31.9753C266.309 31.3764 266.56 29.979 266.56 28.382C266.56 24.9884 266.56 21.3952 266.56 18.0016C266.56 16.0054 265.304 15.4065 263.294 15.4065V15.2069Z" fill="#E9C330"/>
<path d="M229.148 58.0819C229.399 58.8804 230.153 59.8785 230.655 59.8785C232.916 60.2777 235.428 59.8785 236.935 57.483C236.433 54.8879 235.679 52.6921 235.428 50.4962C234.925 48.6996 234.674 46.903 234.172 45.1064C233.921 43.9086 233.418 42.9105 232.162 42.7109C229.148 41.9124 226.385 45.5056 227.138 49.2985C227.641 52.2928 228.394 55.0875 229.148 58.0819Z" fill="#E9C330"/>
<path d="M230.635 34.7302C231.389 32.734 231.891 30.9374 232.393 28.9411C232.896 26.9449 233.147 24.7491 233.649 22.5532C234.654 19.1596 233.147 16.5645 231.891 13.9694C231.137 12.7717 230.384 12.5721 229.379 13.7698C228.625 14.9675 228.123 16.3649 227.118 17.363C225.109 19.7585 224.355 22.9525 224.355 26.346C224.104 30.7378 224.857 35.1295 230.384 34.7302H230.635Z" fill="#E9C330"/>
<path d="M248.484 50.3263C249.237 48.3301 249.74 46.5335 250.242 44.5372C250.744 42.541 250.996 40.3451 251.498 38.1493C252.503 34.7557 250.996 32.1606 249.74 29.5655C248.986 28.3677 248.232 28.1681 247.227 29.3659C246.474 30.5636 245.971 31.961 244.967 32.9591C242.957 35.3546 242.203 38.5485 242.203 41.9421C241.952 46.3338 242.706 50.7255 248.232 50.3263H248.484Z" fill="#E9C330"/>
</svg>
