<svg width="320" height="527" viewBox="0 0 320 527" fill="none" xmlns="http://www.w3.org/2000/svg">
<g clip-path="url(#clip0)">
<rect width="320" height="527" fill="#EFF8F7"/>
<path opacity="0.9" d="M151.435 457.86C152.81 458.503 153.92 458.849 155.029 459.195C158.607 460.811 162.201 462.146 165.482 464.028C167.95 465.299 170.748 465.741 173.345 464.759C175.082 464.011 176.473 464.373 177.486 466.408C179.03 469.038 182.109 469.496 184.94 469.375C187.488 469.238 189.708 469.93 192.224 470.356C197.258 471.208 202.387 470.372 207.549 468.972C209.382 466.535 212.51 466.148 215.155 464.322C216.329 463.542 217.535 462.199 218.444 461.121C219.65 459.778 220.807 459.279 222.761 459.673C226.653 460.743 230.56 461.53 234.468 462.318C235.578 462.664 236.751 461.884 237.893 461.667C240.739 461.264 242.565 463.91 241.576 466.396C240.555 469.444 239.815 472.509 239.075 475.573C238.73 476.683 238.4 477.512 238.054 478.622C237.001 482.233 236.229 485.86 235.176 489.472C234.83 490.582 234.766 491.708 233.874 492.504C231.462 495.191 230.706 498.537 230.248 501.617C229.87 503.29 228.929 504.931 228.817 506.901C228.56 511.406 226.598 516.095 227.466 520.663C227.45 520.945 227.418 521.508 227.402 521.789C226.598 525.98 227.499 529.985 228.681 534.007C230.08 539.17 230.619 544.567 231.439 549.98C229.453 550.149 227.748 550.334 226.325 550.535C207.39 550.866 188.753 550.932 169.818 551.263C155.402 551.569 140.985 551.876 126.288 552.166C122.332 552.223 118.111 551.982 113.873 552.022C112.748 551.958 111.919 551.628 111.421 550.47C108.365 544.647 105.045 538.527 101.708 532.688C96.3928 521.934 91.3593 511.197 88.3439 499.728C88.36 499.447 88.0946 499.149 88.1268 498.586C87.6765 496.583 86.3819 494.532 87.9015 492.642C89.7186 490.486 92.3477 488.942 95.1618 489.103C98.2574 489.279 100.605 487.719 103.17 487.301C106.611 486.367 110.35 485.169 113.823 483.672C116.702 482.707 119.596 481.46 122.491 480.213C124.525 479.2 125.731 477.857 126.969 475.95C128.834 472.95 132.01 471.719 135.451 470.786C137.453 470.336 139.158 470.15 141.16 469.7C145.446 468.815 147.874 465.847 148.959 461.672C149.321 460.281 150.229 459.203 150.872 457.828L151.435 457.86Z" fill="#DBEFEE"/>
<path d="M185.545 56.1575C185.545 56.1575 185.85 55.5682 186.168 55.2666C191.299 51.591 190.419 46.4422 189.894 41.8546C189.295 35.5415 191.701 29.9649 193.79 24.6899C196.16 18.2504 197.199 11.5795 198.897 4.88056C199.739 1.38728 200.582 -2.106 201.425 -5.59928C201.401 -6.17448 202.048 -6.49014 201.694 -7.05131C200.007 -15.6232 202.28 -24.3634 198.284 -32.8371C196.463 -36.7933 194.643 -40.7496 192.822 -44.7059C191.735 -46.9646 190 -48.9076 191.527 -51.8538C191.832 -52.443 191.478 -53.0042 191.123 -53.5653C189.34 -56.6588 187.568 -59.4646 185.087 -63.3928C120.981 -55.4805 55.9101 -46.9509 -9.16122 -38.4212C-9.02633 -27.4784 -8.25616 -17.1388 -7.14387 -6.52571C-6.04382 3.79982 -4.94376 14.1254 -3.51383 24.4369C-2.08389 34.7484 -1.96124 45.4036 2.44983 55.8764C5.32089 53.4494 7.97214 53.6248 10.9655 54.0737C16.9522 54.9716 23.2444 55.2802 29.2556 56.7533C40.2761 59.454 51.1743 59.2786 61.5225 53.9405C64.1126 52.6779 67.0448 51.6889 69.977 50.6998C73.8989 49.6687 77.5275 49.5144 81.5105 49.9212C90.4662 50.6928 99.7394 51.1628 108.695 51.9345C110.687 52.1379 112.666 52.0537 114.34 52.5588C121.047 54.8666 128.317 54.8456 135.318 56.2766C137.981 56.7396 141.268 56.3117 144.237 56.1854C145.556 56.1293 147.169 55.1964 148.183 55.7295C156.235 58.5564 165.337 55 173.425 58.6897C174.769 59.2088 177.066 58.823 178.703 58.4653C181 58.0795 182.943 57.1325 185.557 56.4451L185.545 56.1575Z" fill="#6F8F9A" fill-opacity="0.9"/>
<path d="M312.875 256.813C314.303 256.144 315.945 255.43 317.41 254.94C320.732 253.691 324.127 252.801 327.383 252.313C328.67 252.046 366.41 246.28 367.735 246.193C370.813 245.928 382.552 239.948 382.498 237.531C382.384 231.578 382.484 225.581 382.369 219.629C382.419 216.63 381.966 213.363 383.88 210.725C383.48 209.874 383.117 209.202 382.754 208.53C382.206 206.963 381.265 205.664 379.896 204.454C378.815 203.557 378.089 202.213 377.363 200.87C376.126 198.138 374.888 195.406 373.651 192.675C373.14 191.287 372.591 189.719 372.257 188.108C371.923 186.496 371.767 184.661 371.433 183.049C371.359 182.691 371.033 182.198 370.529 181.929C369.086 180.361 365.683 145.582 365.638 144.284C365.667 143.344 365.696 142.404 365.547 141.688C364.702 138.688 363.857 135.689 362.974 132.51C362.863 131.973 362.537 131.48 362.715 131.256C363.912 128.394 362.423 125.527 361.829 122.662C361.606 121.588 361.561 120.29 361.842 119.485C362.721 117.248 362.098 115.323 360.188 113.664C358.781 112.275 358.056 110.931 358.114 109.052C358.068 107.754 357.734 106.142 357.083 105.157C354.913 102.245 355.718 99.65 356.523 97.0553C357.15 94.6842 358.029 92.4477 358.554 90.6583C352.614 81.4306 349.36 72.2067 349.539 62.2715C349.324 62.3159 348.858 62.2258 348.644 62.2702C349.213 61.7787 349.783 61.2872 350.278 60.4375C349.803 59.2285 349.329 58.0195 349.032 56.5869C348.335 54.3035 347.424 52.0645 347.371 49.6477C347.326 48.3498 346.814 46.9617 346.517 45.5291C346.406 44.9919 346.117 44.6782 346.006 44.141C345.42 42.3948 345.012 40.425 344.427 38.6788C344.241 37.7834 344.018 36.709 343.833 35.8137C343.825 34.6948 343.817 33.5759 343.557 32.3224C343.066 28.8757 342.613 25.608 342.123 22.1612C341.9 21.0868 341.64 19.8333 341.632 18.7144C341.802 17.372 341.542 16.1185 341.068 14.9095C340.705 14.2377 340.556 13.5214 340.408 12.8051C339.785 10.8798 339.303 8.55193 338.111 7.11814C336.593 5.1916 336.325 2.81923 335.879 0.670401C335.583 -0.762154 335.108 -1.97118 334.205 -3.09129C333.627 -3.71865 333.227 -4.56954 333.042 -5.46489C332.671 -7.25558 328.449 -26.5506 327.508 -27.8498C327.752 -28.834 327.781 -29.7738 327.773 -30.8927C327.616 -32.7279 328 -34.1147 329.065 -35.4559C329.42 -35.9029 329.738 -36.5291 330.018 -37.3343C326.066 -39.1299 322.914 -39.2238 319.807 -38.0197C314.629 -36.0129 309.145 -36.5575 303.469 -39.1164C300.737 -40.4181 297.689 -41.0936 294.64 -41.7691C293.456 -42.084 291.954 -41.7728 290.955 -41.1924C288.921 -40.2106 286.924 -39.0498 284.193 -40.3514C283.726 -40.4416 283.297 -40.3527 282.868 -40.2638C279.006 -39.4635 274.93 -38.6188 271.068 -37.8186C270.639 -37.7297 270.032 -37.4172 269.603 -37.3283C268.568 -36.9269 267.569 -36.3465 266.496 -36.1242C264.817 -35.5895 263.1 -35.2338 261.132 -35.0128C259.845 -34.746 258.306 -34.6139 257.019 -34.3472C255.265 -34.1706 253.512 -33.994 251.581 -33.5939C250.723 -33.416 249.901 -33.0591 249.258 -32.9257C246.683 -32.3923 244.835 -30.5151 245.177 -27.7846C245.778 -23.8006 245.914 -19.9068 245.798 -16.1476C245.843 -14.8497 245.888 -13.5517 245.933 -12.2538C245.904 -11.314 245.875 -10.3742 246.238 -9.70235C247.084 -6.70263 251.854 14.1596 252.914 17.1148C253.025 17.652 253.351 18.1448 253.174 18.3683C251.977 21.2309 253.68 24.0528 254.488 26.8735C254.711 27.9479 254.971 29.2014 254.69 30.0066C254.026 32.1986 254.434 34.1684 256.558 35.7825C257.928 36.9927 258.868 38.2919 258.847 40.3506C258.893 41.6485 259.227 43.2602 260.093 44.2012C262.263 47.1133 261.672 49.6634 260.867 52.2581C260.24 54.6292 259.575 56.8213 259.088 58.7898C264.842 67.1221 268.125 75.4062 268.656 84.4473C268.087 84.9388 267.517 85.4303 267.199 86.0565C267.674 87.2655 267.933 88.519 268.445 89.9071C268.927 92.235 269.839 94.474 269.892 96.8908C269.937 98.1887 270.449 99.5768 270.745 101.009C270.857 101.547 271.145 101.86 271.257 102.397C271.628 104.188 272.251 106.113 272.622 107.904C272.807 108.8 273.03 109.874 273.001 110.814C273.009 111.933 273.017 113.051 273.025 114.17C273.264 117.483 273.754 120.929 274.208 124.197C274.43 125.271 274.69 126.525 274.446 127.509C274.277 128.852 274.537 130.105 275.011 131.314C275.374 131.986 275.522 132.702 275.671 133.418C276.293 135.344 276.561 137.716 277.753 139.15C279.309 141.255 279.539 143.449 279.77 145.642C279.852 147.119 280.327 148.328 281.23 149.448C281.807 150.076 282.245 151.106 282.179 151.866C282.55 153.657 283.098 155.224 284.002 156.344C283.721 157.149 283.477 158.134 283.485 159.253C283.642 161.088 283.258 162.475 281.942 163.681C281.587 164.128 281.269 164.754 280.774 165.604C281.529 166.008 282.246 166.233 282.964 166.457C283.001 166.636 283.076 166.995 283.113 167.174C283.773 169.278 284.218 171.427 283.553 173.619C283.029 175.408 282.719 177.153 281.98 178.987C281.7 179.792 281.811 180.33 282.211 181.18C282.9 182.345 283.626 183.689 283.923 185.121C284.183 186.375 284.442 187.628 285.094 188.614C285.42 189.106 285.531 189.644 285.643 190.181C285.659 192.419 286.459 194.12 287.511 195.957C288.348 197.838 288.719 199.628 288.335 201.015C288.772 202.045 289.313 202.493 289.247 203.254C289.469 204.329 289.3 205.671 289.522 206.745C289.79 209.118 289.629 211.579 290.503 213.639C291.489 216.236 291.934 218.385 290.878 220.845C290.139 222.679 290.502 223.351 292.338 224.651C294.928 226.355 296.277 229.624 295.761 232.533C295.414 234.099 295.496 235.576 296.689 237.009C297.014 237.502 297.34 237.995 297.489 238.711C298.074 240.457 298.016 242.337 299.208 243.771C300.941 245.653 301.638 247.936 302.298 250.041C302.92 251.966 303.543 253.891 304.092 255.458C305.135 256.176 305.676 256.624 306.431 257.028C307.726 257.88 308.836 257.837 310.152 256.63C310.685 255.96 311.469 255.424 312.29 255.067L312.875 256.813Z" fill="#2B3545"/>
<path opacity="0.7" d="M353.448 536.427C347.904 537.483 343.446 535.133 339.935 530.923C334.282 524.573 328.63 518.223 322.977 511.873C320.836 509.733 318.659 507.98 315.536 508.086C314.764 508.016 313.255 507.491 312.939 506.684C310.446 504.123 307.814 503.106 304.339 502.792C298.163 502.233 291.635 501.253 285.389 501.467C277.178 501.892 269.948 500.07 263.314 495.967C258.54 492.81 253.591 491.584 247.731 491.832C246.573 491.728 245.029 491.588 243.905 491.097C239.062 488.713 233.832 486.293 229.023 483.523C226.812 482.155 224.179 481.138 221.547 480.122C218.212 478.263 215.299 476.053 214.069 472.439C213.437 470.825 212.804 469.211 210.944 468.264C209.821 467.773 209.188 466.159 208.1 465.282C205.959 463.142 206.168 460.826 207.887 459.035C212.236 453.979 216.269 448.116 223.778 446.849C226.551 446.321 229.076 444.214 231.497 443.265C233.918 442.317 236.725 441.403 239.146 440.454C243.216 438.487 247.637 436.94 251.005 434.131C254.337 431.708 257.67 429.285 261.67 428.09C265.284 426.859 267.845 424.366 269.703 421.031C271.106 418.433 273.527 417.485 275.631 415.729C281.104 411.164 288.508 411.055 294.297 407.297C300.436 403.96 306.611 400.237 312.751 396.9C313.558 396.584 314.014 395.846 314.856 395.144C323.24 388.507 330.887 381.414 341.343 377.689C344.571 376.424 346.745 373.896 349.306 371.403C352.322 368.172 353.094 368.242 357.201 370.171C358.324 370.661 359.833 371.187 361.026 370.906C364.992 370.097 368.606 368.867 371.973 366.057C374.078 364.302 377.271 363.423 380.113 362.123C382.148 361.139 384.183 360.156 386.218 359.172C388.639 358.223 390.673 357.239 393.129 355.905C395.164 354.921 397.164 354.323 398.813 353.305C402.076 351.654 404.988 349.582 407.9 347.51C409.969 346.14 411.653 344.735 413.723 343.366C413.056 342.137 412.389 340.909 411.756 339.295C413.721 339.084 415.721 338.486 416.458 338.942C418.6 341.082 421.479 343.678 421.655 346.029C421.833 352.663 425.31 357.259 427.944 362.557C430.297 366.662 433.036 370.803 435.389 374.908C435.705 375.715 436.407 376.557 436.337 377.329C436.374 381.225 438.481 383.751 440.973 386.312C442.378 387.996 443.045 389.224 442.835 391.541C442.626 393.857 442.802 396.209 443.365 398.595C444.736 404.947 442.668 410.598 438.705 415.689C437.407 417.129 436.461 418.989 436.286 420.92C436.006 424.009 434.604 426.606 432.429 429.134C428.992 432.716 425.94 436.332 424.679 441.668C423.909 445.88 420.472 449.461 418.157 453.533C417.246 455.008 416.369 456.096 415.843 457.606C414.44 460.204 413.073 462.415 410.196 464.101C408.126 465.471 406.758 467.683 405.04 469.474C399.883 474.846 395.113 480.253 389.957 485.625C388.238 487.416 386.168 488.786 384.45 490.576C383.152 492.016 381.819 493.842 380.486 495.667C378.242 498.967 375.963 502.654 373.332 505.919C372.876 506.656 372.385 507.779 371.895 508.903C370.106 511.466 368.669 514.45 366.564 516.205C362.354 519.717 360.005 524.176 357.27 528.599C355.516 530.776 354.113 533.374 352.711 535.971L353.448 536.427Z" fill="#6F8F9A"/>
<path d="M241.318 55.035C240.44 53.0934 239.31 52.5562 238.557 54.1383C237.96 55.1017 238.041 56.3874 238.575 57.8881C238.871 58.7217 239.394 59.6629 239.868 60.9968C240.164 61.8304 240.638 63.1643 241.053 64.3315C241.812 65.9396 243.395 66.6917 244.67 66.0507C245.445 65.5875 245.423 64.4685 244.545 62.527C243.489 60.0852 242.433 57.6435 241.377 55.2017L241.318 55.035Z" fill="#E9C330"/>
<path d="M229.892 85.7652C230.618 85.6948 231.527 83.4939 232.146 83.6495C231.509 79.7442 230.264 76.2427 229.187 72.682C228.594 71.0146 227.749 70.7515 226.985 71.7742C226.603 72.2855 226.281 72.9636 225.958 73.6416C224.883 75.9018 225.013 76.7948 226.58 79.6182C227.684 81.6672 228.954 83.6569 230.118 85.8727L229.892 85.7652Z" fill="#E9C330"/>
<path d="M213.482 91.4376C212.589 91.5673 212.325 92.4121 212.966 93.6867C213.726 95.2948 214.259 96.7954 215.018 98.4035C215.018 98.4035 215.018 98.4035 214.852 98.4628C215.326 99.7967 215.8 101.131 216.441 102.405C217.604 104.621 219.068 105.04 219.821 103.457C220.418 102.494 220.503 101.149 219.97 99.6484C219.436 98.1478 218.844 96.4804 218.31 94.9798C217.255 92.5381 215.15 90.8448 213.363 91.1041L213.482 91.4376Z" fill="#E9C330"/>
<path d="M223.105 107.356C222.69 106.189 221.679 105.985 220.511 106.4C219.51 106.756 219.355 107.375 219.888 108.876C220.303 110.043 220.718 111.21 221.132 112.377C221.132 112.377 221.132 112.377 221.299 112.318C221.714 113.485 222.07 114.485 222.485 115.652C222.662 116.153 223.125 116.927 223.744 117.083C224.815 117.453 225.579 116.431 226.295 115.801C227.01 115.171 226.94 114.444 226.477 113.67C225.373 111.621 224.161 109.798 223.391 107.631L223.105 107.356Z" fill="#E9C330"/>
<path d="M215.685 83.8537C216.685 83.4979 214.782 74.9722 213.678 72.9232C213.441 72.2562 212.87 71.7078 212.467 71.1002C211.551 70.1109 210.254 69.6329 209.706 70.2035C208.883 71.0594 209.131 72.2859 209.605 73.6198C210.612 76.4543 211.679 79.4555 212.687 82.29C213.279 83.9574 214.291 84.1612 215.625 83.6869L215.685 83.8537Z" fill="#E9C330"/>
<path d="M225.861 91.8954C224.983 89.9538 223.938 88.0716 223.168 85.904C222.753 84.7368 222.182 84.1885 221.574 84.5923C220.692 85.2815 219.928 86.3042 219.332 87.2675C219.224 87.4936 219.365 88.946 219.65 89.2202C220.958 90.2577 221.158 91.8769 221.691 93.3775C222.047 94.3779 222.402 95.3783 222.925 96.3195C223.506 97.4273 224.018 97.809 224.911 97.6793C226.638 97.2532 227.084 94.2778 225.802 91.7286L225.861 91.8954Z" fill="#E9C330"/>
<path d="M258.988 96.2608C258.202 96.1645 257.701 96.3423 257.664 97.2946C257.552 100.151 257.441 103.008 257.496 105.806C257.507 106.365 257.921 107.532 258.433 107.914C259.978 109.618 262.313 108.788 262.769 106.372C262.774 103.742 262.719 100.944 261.426 97.8355C260.785 96.5609 260.048 96.0718 259.095 96.0348L258.988 96.2608Z" fill="#E9C330"/>
<path d="M232.288 65.5564C232.38 67.4016 232.58 69.0208 232.839 70.8067C233.098 72.5927 233.583 74.4861 233.901 76.4387C234.242 79.5104 236.013 81.3222 237.617 83.1934C238.473 84.016 239.033 84.0048 239.344 82.7673C239.489 81.589 239.408 80.3033 239.779 79.2325C240.402 76.7574 239.954 73.9117 238.947 71.0772C237.81 67.3497 236.006 63.8594 232.455 65.4971L232.288 65.5564Z" fill="#E9C330"/>
<path d="M244.448 77.5731C244.114 77.6917 244.007 77.9177 243.732 78.203C244.455 80.7633 245.344 83.2644 246.006 85.658C246.966 88.8853 247.758 92.1718 248.717 95.3991C249.202 97.2925 250.737 98.4374 252.297 98.0706C253.131 97.7741 253.227 96.9886 252.683 94.9285C252.246 92.6424 251.75 90.1895 251.146 87.9626C250.71 85.6765 250.214 83.2236 249.61 80.9968C248.354 76.9358 246.653 75.8502 244.389 77.4064L244.448 77.5731Z" fill="#E9C330"/>
<path d="M229.796 101.376C228.403 101.684 227.817 103.206 228.48 105.6C228.954 106.934 229.428 108.268 229.961 109.768C229.961 109.768 229.961 109.768 229.795 109.828C230.209 110.995 230.457 112.221 230.872 113.388C231.88 116.223 234.2 117.464 235.631 116.204C235.905 115.919 236.109 114.908 235.931 114.407C234.913 111.013 233.787 107.845 232.768 104.451C231.938 102.117 231.082 101.294 229.689 101.602L229.796 101.376Z" fill="#E9C330"/>
<path d="M243.34 97.7162C242.354 96.0006 241.643 93.9998 240.824 92.225C239.828 89.95 239.387 90.2946 237.719 90.8874C234.383 92.0731 238.384 99.1019 239.036 100.936C240.151 103.545 241.266 106.153 242.548 108.702C243.367 110.477 243.819 110.692 244.749 109.61C245.405 108.813 246.062 108.017 246.885 107.161C247.982 106.02 247.804 105.519 246.759 103.637C245.489 101.647 244.385 99.5984 243.281 97.5494L243.34 97.7162Z" fill="#E9C330"/>
<path d="M221.183 72.3492C222.243 72.1602 222.139 69.7555 222.139 69.7555C222.139 69.7555 222.903 68.7329 222.607 67.8992C221.836 65.7316 221.125 63.7308 220.355 61.5632C220.118 60.8963 219.655 60.1219 219.251 59.5142C218.443 58.2989 217.087 57.6542 216.479 58.0581C215.537 58.5805 215.678 60.033 215.926 61.2594C216.6 64.2125 217.441 67.1063 218.174 70.2261C218.54 71.786 219.504 72.3826 221.123 72.1825L221.183 72.3492Z" fill="#E9C330"/>
<path d="M280.355 106.706C280.263 104.861 280.063 103.242 279.804 101.456C279.545 99.6701 279.06 97.7768 278.742 95.8241C278.401 92.7524 276.63 90.9406 275.026 89.0694C274.17 88.2469 273.61 88.258 273.299 89.4955C273.154 90.6738 273.235 91.9595 272.864 93.0303C272.241 95.5054 272.689 98.3511 273.696 101.186C274.833 104.913 276.638 108.403 280.188 106.766L280.355 106.706Z" fill="#E9C330"/>
<path d="M289.163 101.894C289.497 101.775 289.604 101.549 289.878 101.264C289.156 98.7034 288.267 96.2023 287.604 93.8087C286.645 90.5814 285.853 87.2949 284.893 84.0676C284.408 82.1742 282.874 81.0293 281.314 81.3961C280.48 81.6926 280.383 82.4781 280.928 84.5382C281.365 86.8243 281.861 89.2772 282.464 91.5041C282.901 93.7902 283.397 96.2431 284.001 98.4699C285.256 102.531 286.957 103.617 289.222 102.06L289.163 101.894Z" fill="#E9C330"/>
<path d="M296.436 71.1146C297.83 70.807 298.416 69.2842 297.753 66.8906C297.279 65.5567 296.805 64.2228 296.271 62.7222C296.271 62.7222 296.271 62.7222 296.438 62.6629C296.023 61.4958 295.775 60.2693 295.36 59.1022C294.353 56.2676 292.033 55.0264 290.602 56.2862C290.328 56.5715 290.124 57.583 290.301 58.0832C291.32 61.4772 292.446 64.6452 293.464 68.0392C294.294 70.3735 295.15 71.1961 296.544 70.8886L296.436 71.1146Z" fill="#E9C330"/>
<path d="M285.148 74.1886C285.574 75.9153 285.94 77.4752 286.307 79.0351C286.851 81.0952 287.648 81.751 289.042 81.4435C290.435 81.1359 291.592 80.1615 292.285 78.4126C291.026 76.9824 290.659 75.4224 290.292 73.8625C289.856 71.5764 289.359 69.1235 288.697 66.7299C288.33 65.17 287.819 64.7884 286.592 65.0366C285.699 65.1663 284.698 65.522 283.805 65.6517C282.411 65.9592 282.363 66.352 283.015 68.1861C283.726 70.1869 284.378 72.021 285.089 74.0219L285.148 74.1886Z" fill="#E9C330"/>
<path d="M287.867 58.5974C286.897 54.8107 285.486 51.3685 284.074 47.9263C283.315 46.3182 282.529 46.2219 281.825 47.4113C281.502 48.0893 281.18 48.7674 280.857 49.4454C280.008 51.8131 280.197 52.8728 281.871 55.4702C283.083 57.2932 287.2 58.8346 287.701 58.6567L287.867 58.5974Z" fill="#E9C330"/>
<path d="M273.851 51.9518C272.85 52.3075 274.753 60.8333 275.857 62.8823C276.094 63.5492 276.665 64.0976 277.069 64.7053C277.984 65.6946 279.281 66.1725 279.83 65.6019C280.653 64.746 280.405 63.5196 279.931 62.1857C278.923 59.3512 277.856 56.3499 276.849 53.5154C276.256 51.848 275.244 51.6442 273.91 52.1185L273.851 51.9518Z" fill="#E9C330"/>
<path d="M263.907 95.8222C264.31 96.4298 265.107 97.0857 265.441 96.9671C267.06 96.767 268.61 95.8407 268.899 93.4842C267.795 91.4352 266.643 89.7789 265.824 88.0041C264.957 86.622 264.257 85.1807 263.39 83.7986C262.868 82.8575 262.238 82.1424 261.345 82.2721C259.106 82.3165 258.338 85.9699 259.965 88.96C261.187 91.3425 262.517 93.499 263.907 95.8222Z" fill="#E9C330"/>
<path d="M257.962 75.9666C257.869 74.1214 257.67 72.5022 257.411 70.7163C257.152 68.9303 256.666 67.0369 256.348 65.0843C256.008 62.0126 254.237 60.2008 252.632 58.3296C251.776 57.507 251.217 57.5182 250.905 58.7557C250.76 59.934 250.842 61.2197 250.471 62.2905C249.848 64.7656 250.295 67.6112 251.303 70.4458C252.44 74.1732 254.244 77.6636 257.795 76.0259L257.962 75.9666Z" fill="#E9C330"/>
<path d="M274.442 84.781C274.35 82.9358 274.15 81.3166 273.891 79.5307C273.632 77.7447 273.147 75.8514 272.829 73.8987C272.489 70.827 270.717 69.0152 269.113 67.144C268.257 66.3215 267.697 66.3326 267.386 67.5701C267.241 68.7484 267.322 70.0341 266.951 71.1049C266.328 73.5801 266.776 76.4257 267.784 79.2602C268.921 82.9877 270.725 86.478 274.276 84.8403L274.442 84.781Z" fill="#E9C330"/>
<path d="M274.473 -6.14834C273.595 -8.08989 272.464 -8.62715 271.712 -7.045C271.115 -6.08162 271.196 -4.7959 271.729 -3.29527C272.026 -2.46159 272.548 -1.52046 273.022 -0.186568C273.319 0.647113 273.793 1.981 274.207 3.14816C274.967 4.75624 276.549 5.50839 277.824 4.86737C278.599 4.40421 278.577 3.28522 277.699 1.34367C276.643 -1.09809 275.588 -3.53985 274.532 -5.98161L274.473 -6.14834Z" fill="#E9C330"/>
<path d="M263.046 24.5818C263.773 24.5114 264.681 22.3105 265.3 22.4661C264.663 18.5608 263.419 15.0593 262.341 11.4986C261.749 9.83119 260.904 9.56812 260.14 10.5908C259.758 11.1021 259.435 11.7802 259.113 12.4582C258.038 14.7184 258.167 15.6114 259.734 18.4348C260.838 20.4838 262.109 22.4735 263.272 24.6893L263.046 24.5818Z" fill="#E9C330"/>
<path d="M246.636 30.2542C245.743 30.3839 245.48 31.2287 246.121 32.5033C246.88 34.1114 247.414 35.612 248.173 37.2201C248.173 37.2201 248.173 37.2201 248.006 37.2793C248.48 38.6132 248.954 39.9471 249.595 41.2217C250.759 43.4375 252.222 43.8562 252.975 42.274C253.572 41.3106 253.658 39.9656 253.124 38.465C252.591 36.9644 251.998 35.297 251.465 33.7964C250.409 31.3546 248.304 29.6613 246.518 29.9207L246.636 30.2542Z" fill="#E9C330"/>
<path d="M256.26 46.173C255.845 45.0059 254.833 44.8021 253.666 45.2171C252.665 45.5728 252.509 46.1916 253.042 47.6922C253.457 48.8594 253.872 50.0265 254.287 51.1937C254.287 51.1937 254.287 51.1937 254.454 51.1344C254.869 52.3015 255.224 53.302 255.639 54.4691C255.817 54.9693 256.28 55.7437 256.899 55.8993C257.97 56.2699 258.734 55.2472 259.449 54.6173C260.165 53.9874 260.094 53.2612 259.631 52.4868C258.527 50.4378 257.316 48.6148 256.545 46.4472L256.26 46.173Z" fill="#E9C330"/>
<path d="M248.839 22.6703C249.84 22.3146 247.937 13.7888 246.833 11.7398C246.596 11.0729 246.025 10.5245 245.621 9.91685C244.706 8.92755 243.409 8.44958 242.86 9.02019C242.037 9.8761 242.285 11.1025 242.759 12.4364C243.767 15.271 244.834 18.2722 245.841 21.1067C246.434 22.7741 247.445 22.9779 248.78 22.5036L248.839 22.6703Z" fill="#E9C330"/>
<path d="M259.016 30.7121C258.138 28.7705 257.093 26.8882 256.322 24.7207C255.908 23.5535 255.337 23.0051 254.729 23.409C253.847 24.0982 253.083 25.1209 252.486 26.0842C252.379 26.3103 252.519 27.7627 252.804 28.0369C254.112 29.0744 254.312 30.6936 254.846 32.1942C255.201 33.1946 255.557 34.195 256.079 35.1362C256.661 36.244 257.172 36.6257 258.065 36.496C259.793 36.0699 260.238 33.0945 258.956 30.5453L259.016 30.7121Z" fill="#E9C330"/>
<path d="M292.142 35.0775C291.356 34.9811 290.856 35.159 290.819 36.1113C290.707 38.968 290.595 41.8248 290.65 44.6222C290.661 45.1817 291.076 46.3489 291.587 46.7305C293.132 48.4349 295.468 47.6049 295.924 45.1891C295.928 42.5584 295.873 39.7609 294.58 36.6522C293.94 35.3776 293.202 34.8885 292.25 34.8515L292.142 35.0775Z" fill="#E9C330"/>
<path d="M265.442 4.37303C265.534 6.21824 265.734 7.83744 265.993 9.62337C266.252 11.4093 266.737 13.3027 267.056 15.2554C267.396 18.327 269.167 20.1389 270.772 22.01C271.628 22.8326 272.187 22.8215 272.499 21.5839C272.644 20.4056 272.562 19.1199 272.933 18.0491C273.556 15.574 273.109 12.7284 272.101 9.89384C270.964 6.16636 269.16 2.67601 265.609 4.31374L265.442 4.37303Z" fill="#E9C330"/>
<path d="M277.602 16.3897C277.269 16.5083 277.161 16.7343 276.887 17.0196C277.609 19.5799 278.498 22.081 279.161 24.4746C280.12 27.7018 280.913 30.9884 281.872 34.2157C282.357 36.1091 283.891 37.254 285.451 36.8871C286.285 36.5907 286.382 35.8052 285.838 33.7451C285.401 31.459 284.905 29.0061 284.301 26.7792C283.864 24.4931 283.368 22.0402 282.764 19.8133C281.509 15.7524 279.808 14.6668 277.543 16.223L277.602 16.3897Z" fill="#E9C330"/>
<path d="M262.951 40.1926C261.557 40.5001 260.971 42.023 261.634 44.4166C262.108 45.7505 262.582 47.0844 263.116 48.585C263.116 48.585 263.116 48.585 262.949 48.6443C263.364 49.8114 263.612 51.0379 264.027 52.205C265.034 55.0396 267.354 56.2808 268.785 55.021C269.059 54.7357 269.263 53.7242 269.085 53.224C268.067 49.83 266.941 46.662 265.922 43.268C265.093 40.9337 264.237 40.1111 262.843 40.4186L262.951 40.1926Z" fill="#E9C330"/>
<path d="M276.494 36.533C275.509 34.8174 274.798 32.8166 273.979 31.0418C272.982 28.7668 272.541 29.1113 270.873 29.7042C267.538 30.8899 271.539 37.9187 272.191 39.7528C273.306 42.3613 274.421 44.9698 275.703 47.519C276.521 49.2938 276.973 49.5087 277.904 48.4268C278.56 47.6302 279.216 46.8335 280.039 45.9776C281.136 44.8364 280.959 44.3362 279.914 42.4539C278.643 40.4642 277.539 38.4152 276.435 36.3662L276.494 36.533Z" fill="#E9C330"/>
<path d="M254.337 11.1658C255.397 10.9769 255.294 8.57216 255.294 8.57216C255.294 8.57216 256.058 7.54952 255.761 6.71583C254.991 4.54826 254.28 2.54743 253.509 0.379855C253.272 -0.28709 252.809 -1.06149 252.405 -1.66915C251.598 -2.88447 250.241 -3.52919 249.633 -3.12531C248.692 -2.60287 248.832 -1.15042 249.081 0.0760226C249.754 3.02911 250.595 5.92291 251.328 9.04273C251.695 10.6026 252.658 11.1992 254.278 10.9991L254.337 11.1658Z" fill="#E9C330"/>
<path d="M313.51 45.5231C313.417 43.6779 313.218 42.0587 312.958 40.2728C312.699 38.4868 312.214 36.5934 311.896 34.6408C311.556 31.5691 309.784 29.7573 308.18 27.8861C307.324 27.0635 306.764 27.0746 306.453 28.3122C306.308 29.4905 306.389 30.7762 306.019 31.847C305.395 34.3221 305.843 37.1677 306.851 40.0023C307.988 43.7297 309.792 47.2201 313.343 45.5824L313.51 45.5231Z" fill="#E9C330"/>
<path d="M322.317 40.7102C322.651 40.5916 322.759 40.3656 323.033 40.0803C322.311 37.5199 321.422 35.0189 320.759 32.6253C319.8 29.398 319.007 26.1115 318.048 22.8842C317.563 20.9908 316.029 19.8459 314.468 20.2127C313.634 20.5091 313.538 21.2947 314.082 23.3548C314.519 25.6409 315.015 28.0938 315.619 30.3206C316.056 32.6068 316.552 35.0597 317.155 37.2865C318.411 41.3475 320.112 42.4331 322.377 40.8769L322.317 40.7102Z" fill="#E9C330"/>
<path d="M318.303 13.0053C318.728 14.7319 319.095 16.2919 319.462 17.8518C320.006 19.9119 320.803 20.5677 322.196 20.2602C323.59 19.9526 324.746 18.9781 325.44 17.2293C324.18 15.799 323.814 14.2391 323.447 12.6792C323.01 10.3931 322.514 7.94019 321.851 5.5466C321.485 3.98669 320.973 3.60505 319.746 3.8533C318.853 3.98299 317.852 4.3387 316.959 4.46839C315.565 4.77593 315.517 5.16869 316.169 7.00279C316.88 9.00362 317.532 10.8377 318.243 12.8386L318.303 13.0053Z" fill="#E9C330"/>
<path d="M307.005 -9.23154C306.004 -8.87583 307.908 -0.350042 309.012 1.69896C309.249 2.3659 309.819 2.91428 310.223 3.52194C311.138 4.51124 312.435 4.98921 312.984 4.4186C313.807 3.56269 313.559 2.33625 313.085 1.00236C312.077 -1.83216 311.011 -4.83341 310.003 -7.66793C309.41 -9.33529 308.399 -9.53908 307.064 -9.0648L307.005 -9.23154Z" fill="#E9C330"/>
<path d="M297.061 34.6387C297.465 35.2464 298.262 35.9022 298.595 35.7836C300.215 35.5836 301.764 34.6572 302.054 32.3007C300.95 30.2517 299.798 28.5955 298.979 26.8206C298.112 25.4386 297.412 23.9972 296.545 22.6152C296.022 21.674 295.393 20.9589 294.499 21.0886C292.261 21.1331 291.493 24.7864 293.119 27.7766C294.342 30.1591 295.672 32.3155 297.061 34.6387Z" fill="#E9C330"/>
<path d="M291.116 14.7831C291.024 12.9379 290.824 11.3187 290.565 9.53279C290.306 7.74686 289.821 5.85348 289.502 3.90081C289.162 0.829163 287.391 -0.982707 285.787 -2.85386C284.931 -3.67643 284.371 -3.66531 284.059 -2.42776C283.915 -1.24949 283.996 0.0362289 283.625 1.10704C283.002 3.58215 283.45 6.42778 284.457 9.2623C285.594 12.9898 287.398 16.4801 290.949 14.8424L291.116 14.7831Z" fill="#E9C330"/>
<path d="M307.597 23.5977C307.505 21.7525 307.305 20.1333 307.046 18.3474C306.787 16.5614 306.302 14.668 305.983 12.7154C305.643 9.64372 303.872 7.83185 302.268 5.9607C301.412 5.13814 300.852 5.14926 300.54 6.38681C300.396 7.56508 300.477 8.85081 300.106 9.92163C299.483 12.3967 299.931 15.2424 300.938 18.0769C302.075 21.8044 303.879 25.2947 307.43 23.657L307.597 23.5977Z" fill="#E9C330"/>
<path opacity="0.9" d="M23.391 86.5251C17.9618 85.6675 13.1696 82.9837 8.42509 80.7013C1.65768 77.48 -4.73063 73.6845 -11.2956 70.1135C-13.9915 68.6446 -15.7306 66.329 -17.319 63.9139C-17.9146 63.0082 -18.01 62.2056 -17.5277 61.1305C-13.3642 51.6796 -9.42501 42.0519 -3.73886 33.4367C-1.26196 29.6408 2.18573 26.8279 5.30983 23.6873C6.11567 22.9399 7.02078 22.3435 7.72735 21.4451C9.1405 19.6484 11.0461 19.2581 13.0471 19.6704C18.5755 20.6789 23.979 21.6618 29.4816 22.7955C29.8568 22.8728 30.2062 23.0753 30.6072 23.0274C39.1887 24.404 46.905 28.0817 55.0004 31.1851C59.8223 33.092 64.6184 35.1241 69.3887 37.2814C72.7357 38.7539 75.1994 41.3494 77.5123 44.0443C78.3581 45.0014 78.5269 46.0802 78.269 47.3319C77.543 51.4885 77.0928 55.5715 76.3668 59.7281C76.2121 60.4792 76.0315 61.3554 75.5274 61.904C71.667 66.7197 67.8325 71.4103 63.9979 76.1009C60.3142 80.692 55.2665 83.0448 49.9945 85.2208C44.1448 87.6693 38.0606 87.4597 31.9507 87.3752C29.0962 87.3091 26.319 86.8674 23.4903 86.676L23.391 86.5251Z" fill="#2B3545"/>
<g opacity="0.6">
<path d="M273.75 473.533C269.54 476.154 265.015 476.992 260.174 475.63C258.49 475.105 257.017 474.267 255.438 473.428C254.912 473.114 254.491 472.485 254.07 471.856C253.333 470.598 252.596 469.34 251.86 468.082C251.228 466.824 251.228 465.567 251.228 464.204C251.228 462.946 251.334 461.583 251.544 460.325C251.754 459.487 252.175 458.753 252.596 458.019C254.175 455.608 256.28 453.931 258.7 452.464C260.174 451.52 261.647 450.472 263.121 449.633C263.542 449.319 264.173 449.319 264.594 449.214C266.278 448.69 267.541 449.109 268.277 450.682C269.119 452.359 269.961 454.141 269.856 456.132C269.751 456.971 269.435 457.6 268.593 457.914C267.33 458.439 266.067 458.963 264.91 459.696C263.962 460.221 263.226 461.059 262.384 461.688C261.121 462.631 261.437 465.042 263.121 465.671C264.91 466.405 266.804 467.139 268.804 467.034C269.646 467.034 270.593 467.034 271.435 467.034C271.856 467.034 272.171 467.034 272.382 467.453C273.119 469.445 273.855 471.437 273.75 473.638V473.533Z" fill="#C2D6D5"/>
<path d="M258.136 502.983C253.926 505.603 249.401 506.442 244.56 505.079C242.876 504.555 241.402 503.716 239.824 502.878C239.297 502.563 238.877 501.934 238.456 501.305C237.719 500.047 236.982 498.79 236.245 497.532C235.614 496.274 235.614 495.016 235.614 493.653C235.614 492.395 235.719 491.033 235.93 489.775C236.14 488.936 236.561 488.202 236.982 487.469C238.561 485.058 240.666 483.381 243.086 481.913C244.56 480.97 246.033 479.921 247.506 479.083C247.927 478.768 248.559 478.768 248.98 478.663C250.664 478.139 251.926 478.559 252.663 480.131C253.505 481.808 254.347 483.59 254.242 485.582C254.137 486.42 253.821 487.049 252.979 487.364C251.716 487.888 250.453 488.412 249.295 489.146C248.348 489.67 247.612 490.509 246.77 491.137C245.507 492.081 245.822 494.492 247.506 495.121C249.295 495.855 251.19 496.588 253.189 496.483C254.031 496.483 254.978 496.483 255.82 496.483C256.241 496.483 256.557 496.483 256.768 496.903C257.504 498.894 258.241 500.886 258.136 503.087V502.983Z" fill="#C2D6D5"/>
<path d="M285.016 516.818C280.806 519.438 276.281 520.277 271.44 518.914C269.756 518.39 268.282 517.552 266.704 516.713C266.178 516.399 265.757 515.77 265.336 515.141C264.599 513.883 263.862 512.625 263.126 511.367C262.494 510.109 262.494 508.851 262.494 507.489C262.494 506.231 262.599 504.868 262.81 503.61C263.02 502.772 263.441 502.038 263.862 501.304C265.441 498.893 267.546 497.216 269.966 495.748C271.44 494.805 272.913 493.757 274.386 492.918C274.807 492.604 275.439 492.604 275.86 492.499C277.544 491.975 278.807 492.394 279.543 493.966C280.385 495.644 281.227 497.426 281.122 499.417C281.017 500.256 280.701 500.885 279.859 501.199C278.596 501.723 277.333 502.247 276.176 502.981C275.228 503.505 274.492 504.344 273.65 504.973C272.387 505.916 272.703 508.327 274.386 508.956C276.176 509.69 278.07 510.424 280.069 510.319C280.911 510.319 281.859 510.319 282.701 510.319C283.121 510.319 283.437 510.319 283.648 510.738C284.384 512.73 285.121 514.721 285.016 516.923V516.818Z" fill="#C2D6D5"/>
<path d="M304.188 474.324C299.978 476.944 295.453 477.783 290.612 476.42C288.928 475.896 287.454 475.057 285.876 474.219C285.349 473.904 284.929 473.275 284.508 472.647C283.771 471.389 283.034 470.131 282.297 468.873C281.666 467.615 281.666 466.357 281.666 464.994C281.666 463.737 281.771 462.374 281.982 461.116C282.192 460.277 282.613 459.544 283.034 458.81C284.613 456.399 286.718 454.722 289.138 453.254C290.612 452.311 292.085 451.263 293.558 450.424C293.979 450.109 294.611 450.109 295.032 450.005C296.716 449.481 297.978 449.9 298.715 451.472C299.557 453.149 300.399 454.931 300.294 456.923C300.189 457.762 299.873 458.391 299.031 458.705C297.768 459.229 296.505 459.753 295.347 460.487C294.4 461.011 293.664 461.85 292.822 462.479C291.559 463.422 291.874 465.833 293.558 466.462C295.347 467.196 297.242 467.929 299.241 467.825C300.083 467.825 301.03 467.825 301.872 467.825C302.293 467.825 302.609 467.825 302.82 468.244C303.556 470.236 304.293 472.227 304.188 474.429V474.324Z" fill="#C2D6D5"/>
<path d="M242.522 530.258C238.312 532.878 233.787 533.717 228.946 532.354C227.262 531.83 225.788 530.992 224.21 530.153C223.683 529.839 223.262 529.21 222.842 528.581C222.105 527.323 221.368 526.065 220.631 524.807C220 523.549 220 522.291 220 520.929C220 519.671 220.105 518.308 220.316 517.05C220.526 516.211 220.947 515.478 221.368 514.744C222.947 512.333 225.052 510.656 227.472 509.188C228.946 508.245 230.419 507.197 231.892 506.358C232.313 506.044 232.945 506.044 233.366 505.939C235.05 505.415 236.312 505.834 237.049 507.406C237.891 509.083 238.733 510.865 238.628 512.857C238.523 513.696 238.207 514.325 237.365 514.639C236.102 515.163 234.839 515.687 233.681 516.421C232.734 516.945 231.998 517.784 231.156 518.413C229.893 519.356 230.208 521.767 231.892 522.396C233.681 523.13 235.576 523.864 237.575 523.759C238.417 523.759 239.364 523.759 240.206 523.759C240.627 523.759 240.943 523.759 241.154 524.178C241.89 526.17 242.627 528.161 242.522 530.363V530.258Z" fill="#C2D6D5"/>
<g opacity="0.6">
<path d="M331.75 372.533C327.54 375.154 323.015 375.992 318.174 374.63C316.49 374.105 315.017 373.267 313.438 372.428C312.912 372.114 312.491 371.485 312.07 370.856C311.333 369.598 310.596 368.34 309.86 367.082C309.228 365.824 309.228 364.567 309.228 363.204C309.228 361.946 309.334 360.583 309.544 359.325C309.754 358.487 310.175 357.753 310.596 357.019C312.175 354.608 314.28 352.931 316.7 351.464C318.174 350.52 319.647 349.472 321.121 348.633C321.542 348.319 322.173 348.319 322.594 348.214C324.278 347.69 325.541 348.109 326.277 349.682C327.119 351.359 327.961 353.141 327.856 355.132C327.751 355.971 327.435 356.6 326.593 356.914C325.33 357.439 324.067 357.963 322.91 358.696C321.962 359.221 321.226 360.059 320.384 360.688C319.121 361.631 319.437 364.042 321.121 364.671C322.91 365.405 324.804 366.139 326.804 366.034C327.646 366.034 328.593 366.034 329.435 366.034C329.856 366.034 330.171 366.034 330.382 366.453C331.119 368.445 331.855 370.437 331.75 372.638V372.533Z" fill="#C2D6D5"/>
<path d="M316.136 401.983C311.926 404.603 307.401 405.442 302.56 404.079C300.876 403.555 299.402 402.716 297.824 401.878C297.297 401.563 296.877 400.934 296.456 400.305C295.719 399.047 294.982 397.79 294.245 396.532C293.614 395.274 293.614 394.016 293.614 392.653C293.614 391.395 293.719 390.033 293.93 388.775C294.14 387.936 294.561 387.202 294.982 386.469C296.561 384.058 298.666 382.381 301.086 380.913C302.56 379.97 304.033 378.921 305.506 378.083C305.927 377.768 306.559 377.768 306.98 377.663C308.664 377.139 309.926 377.559 310.663 379.131C311.505 380.808 312.347 382.59 312.242 384.582C312.137 385.42 311.821 386.049 310.979 386.364C309.716 386.888 308.453 387.412 307.295 388.146C306.348 388.67 305.612 389.509 304.77 390.137C303.507 391.081 303.822 393.492 305.506 394.121C307.295 394.855 309.19 395.588 311.189 395.483C312.031 395.483 312.978 395.483 313.82 395.483C314.241 395.483 314.557 395.483 314.768 395.903C315.504 397.894 316.241 399.886 316.136 402.087V401.983Z" fill="#C2D6D5"/>
<path d="M300.522 429.258C296.312 431.878 291.787 432.717 286.946 431.354C285.262 430.83 283.788 429.992 282.21 429.153C281.683 428.839 281.262 428.21 280.842 427.581C280.105 426.323 279.368 425.065 278.631 423.807C278 422.549 278 421.291 278 419.929C278 418.671 278.105 417.308 278.316 416.05C278.526 415.211 278.947 414.478 279.368 413.744C280.947 411.333 283.052 409.656 285.472 408.188C286.946 407.245 288.419 406.197 289.892 405.358C290.313 405.044 290.945 405.044 291.366 404.939C293.05 404.415 294.312 404.834 295.049 406.406C295.891 408.083 296.733 409.865 296.628 411.857C296.523 412.696 296.207 413.325 295.365 413.639C294.102 414.163 292.839 414.687 291.681 415.421C290.734 415.945 289.998 416.784 289.156 417.413C287.893 418.356 288.208 420.767 289.892 421.396C291.681 422.13 293.576 422.864 295.575 422.759C296.417 422.759 297.364 422.759 298.206 422.759C298.627 422.759 298.943 422.759 299.154 423.178C299.89 425.17 300.627 427.161 300.522 429.363V429.258Z" fill="#C2D6D5"/>
</g>
<g opacity="0.6">
<path d="M330.522 453.533C326.312 456.154 321.787 456.992 316.946 455.63C315.262 455.105 313.788 454.267 312.21 453.428C311.683 453.114 311.262 452.485 310.842 451.856C310.105 450.598 309.368 449.34 308.631 448.082C308 446.824 308 445.567 308 444.204C308 442.946 308.105 441.583 308.316 440.325C308.526 439.487 308.947 438.753 309.368 438.019C310.947 435.608 313.052 433.931 315.472 432.464C316.946 431.52 318.419 430.472 319.892 429.633C320.313 429.319 320.945 429.319 321.366 429.214C323.05 428.69 324.312 429.109 325.049 430.682C325.891 432.359 326.733 434.141 326.628 436.132C326.523 436.971 326.207 437.6 325.365 437.914C324.102 438.439 322.839 438.963 321.681 439.696C320.734 440.221 319.998 441.059 319.156 441.688C317.893 442.631 318.208 445.042 319.892 445.671C321.681 446.405 323.576 447.139 325.575 447.034C326.417 447.034 327.364 447.034 328.206 447.034C328.627 447.034 328.943 447.034 329.154 447.453C329.89 449.445 330.627 451.437 330.522 453.638V453.533Z" fill="#C2D6D5"/>
<path d="M319.522 513.258C315.312 515.878 310.787 516.717 305.946 515.354C304.262 514.83 302.788 513.992 301.21 513.153C300.683 512.839 300.262 512.21 299.842 511.581C299.105 510.323 298.368 509.065 297.631 507.807C297 506.549 297 505.291 297 503.929C297 502.671 297.105 501.308 297.316 500.05C297.526 499.211 297.947 498.478 298.368 497.744C299.947 495.333 302.052 493.656 304.472 492.188C305.946 491.245 307.419 490.197 308.892 489.358C309.313 489.044 309.945 489.044 310.366 488.939C312.05 488.415 313.312 488.834 314.049 490.406C314.891 492.083 315.733 493.865 315.628 495.857C315.523 496.696 315.207 497.325 314.365 497.639C313.102 498.163 311.839 498.687 310.681 499.421C309.734 499.945 308.998 500.784 308.156 501.413C306.893 502.356 307.208 504.767 308.892 505.396C310.681 506.13 312.576 506.864 314.575 506.759C315.417 506.759 316.364 506.759 317.206 506.759C317.627 506.759 317.943 506.759 318.154 507.178C318.89 509.17 319.627 511.161 319.522 513.363V513.258Z" fill="#C2D6D5"/>
</g>
</g>
<path opacity="0.4" d="M-101.443 387.901C-99.2624 388.792 -96.8016 389.86 -94.7298 390.923C-89.9167 393.231 -85.3206 395.884 -81.222 398.705C-79.5391 399.764 -31.9296 432.382 -30.3552 433.613C-26.6455 436.43 -8.3166 443.396 -6.34533 441.509C-1.47138 436.877 3.68304 432.422 8.55699 427.79C11.1342 425.562 13.3674 422.636 17.7545 422.511C18.0165 421.472 18.1699 420.606 18.3234 419.741C19.0193 418.013 19.0458 416.105 18.5113 413.843C18.0403 412.103 18.3472 410.371 18.6542 408.639C19.5485 405.352 20.4429 402.065 21.3372 398.778C21.9246 397.223 22.6205 395.495 23.5969 393.944C24.5733 392.393 25.9386 390.847 26.915 389.295C27.132 388.951 27.177 388.257 26.833 387.559C26.5155 384.953 51.896 355.211 52.9359 354.181C53.7588 353.496 54.5817 352.811 55.0156 352.122C56.5794 349.016 58.1432 345.909 59.8155 342.631C60.1409 342.114 60.1859 341.42 60.5749 341.424C64.3375 340.424 65.0599 336.788 66.7956 334.031C67.4466 332.997 68.4865 331.967 69.4814 331.631C72.3576 330.795 73.2704 328.722 72.5005 325.591C72.0744 323.157 72.3814 321.425 74.0272 320.055C75.0671 319.025 76.0435 317.474 76.1334 316.087C76.1228 311.749 79.216 310.568 82.3092 309.387C85.0134 308.202 87.8896 307.365 89.9879 306.521C91.0146 293.692 95.0815 283.499 103.636 276.13C103.356 275.954 102.903 275.428 102.623 275.252C103.681 275.437 104.739 275.622 106.015 275.462C106.494 274.079 106.973 272.696 107.841 271.318C108.97 268.901 109.82 266.307 111.791 264.42C112.831 263.39 113.418 261.835 114.286 260.456C114.612 259.939 114.548 259.418 114.874 258.901C115.678 257.001 116.871 255.106 117.676 253.206C118.218 252.344 118.869 251.31 119.412 250.448C120.343 249.591 121.274 248.733 122.034 247.527C124.375 244.429 126.609 241.504 128.95 238.406C129.601 237.372 130.361 236.166 131.292 235.308C132.612 234.455 133.372 233.249 133.851 231.866C134.004 231 134.438 230.31 134.872 229.621C135.785 227.549 137.195 225.309 137.05 223.051C136.949 220.1 138.64 218.037 139.942 215.969C140.81 214.59 141.289 213.207 141.207 211.471C141.08 210.429 141.342 209.39 141.884 208.529C142.969 206.805 154.405 188.017 154.432 186.108C155.535 185.6 156.358 184.915 157.289 184.057C158.655 182.51 160.255 181.834 162.589 181.859C163.367 181.867 164.253 181.704 165.248 181.367C162.28 176.13 158.787 172.968 154.254 170.837C146.7 167.285 140.945 161.496 136.664 153.988C134.663 150.323 131.776 146.821 128.89 143.32C127.813 141.92 125.849 140.684 124.23 140.146C121.1 138.897 117.861 137.821 115.861 134.155C115.408 133.63 114.847 133.277 114.286 132.924C109.238 129.745 103.909 126.391 98.8601 123.213C98.2992 122.86 97.3493 122.502 96.7883 122.149C95.2774 121.439 93.6581 120.9 92.2557 120.018C89.9034 118.777 87.6596 117.365 85.2438 115.604C83.5609 114.544 81.7061 113.136 80.0232 112.077C77.8879 110.492 75.7526 108.907 73.2283 107.318C72.1064 106.612 70.876 106.078 70.0346 105.548C66.6688 103.429 62.9962 103.042 61.0884 105.451C58.4213 109.066 55.3016 112.155 52.01 114.895C50.9701 115.925 49.9302 116.955 48.8903 117.985C48.0674 118.67 47.2445 119.355 47.091 120.221C45.5273 123.327 33.3953 143.843 32.112 147.126C31.7865 147.643 31.7415 148.337 31.3526 148.333C27.59 149.333 27.1481 153.145 25.6928 156.079C25.0418 157.113 24.2824 158.32 23.2875 158.656C20.6918 159.669 19.4985 161.564 20.5489 164.873C21.0834 167.134 21.057 169.042 19.3026 170.585C18.2628 171.615 17.2864 173.166 17.4769 174.729C17.4875 179.067 14.6748 180.425 11.5816 181.606C8.87738 182.791 6.28163 183.804 4.07487 184.821C3.59064 196.788 0.346627 206.296 -6.65206 213.681C-7.71048 213.496 -8.76887 213.311 -9.65528 213.475C-10.1342 214.858 -10.8936 216.065 -11.481 217.62C-12.8913 219.86 -13.7407 222.454 -15.712 224.341C-16.7519 225.371 -17.3393 226.926 -18.2072 228.305C-18.5326 228.822 -18.4691 229.343 -18.7946 229.86C-19.8795 231.583 -20.7923 233.655 -21.8772 235.379C-22.4196 236.24 -23.0706 237.274 -23.8935 237.96C-24.8249 238.817 -25.7562 239.674 -26.6876 240.532C-29.2013 243.281 -31.5431 246.379 -33.7763 249.304C-34.4272 250.338 -35.1866 251.544 -36.29 252.053C-37.6104 252.906 -38.3698 254.113 -38.8487 255.495C-39.0022 256.361 -39.4361 257.051 -39.8701 257.74C-40.7829 259.812 -42.4737 261.876 -42.3282 264.133C-42.3362 267.256 -43.9185 269.148 -45.5008 271.039C-46.6491 272.242 -47.1281 273.624 -47.0461 275.36C-46.9191 276.403 -47.2895 277.613 -48.0039 278.126C-49.0888 279.85 -49.7847 281.577 -49.7026 283.313C-50.6975 283.649 -51.8009 284.158 -52.7323 285.015C-54.0977 286.562 -55.6985 287.239 -58.2043 286.865C-58.9822 286.856 -59.8686 287.02 -61.144 287.18C-60.628 288.226 -60.0036 289.101 -59.3791 289.975C-59.4876 290.147 -59.7046 290.492 -59.813 290.664C-60.8344 292.909 -62.1362 294.977 -64.732 295.99C-66.8303 296.835 -68.6481 297.856 -71.0268 298.524C-72.0217 298.86 -72.3472 299.377 -72.6091 300.416C-72.8076 301.975 -73.1145 303.707 -73.9824 305.086C-74.7418 306.292 -75.5012 307.498 -75.5912 308.885C-75.6362 309.579 -75.9616 310.096 -76.2871 310.613C-78.1499 312.328 -78.6738 314.404 -79.0257 316.83C-79.6581 319.079 -80.743 320.802 -82.3438 321.479C-82.7143 322.689 -82.4788 323.559 -83.1932 324.072C-83.8441 325.106 -85.1645 325.959 -85.8154 326.993C-87.5062 329.057 -89.7579 330.768 -90.4988 333.189C-91.5651 336.127 -92.867 338.195 -96.1322 339.027C-98.5109 339.695 -98.6644 340.561 -97.6774 343.348C-96.1745 347.182 -97.3943 350.986 -100.424 352.688C-102.133 353.537 -103.282 354.739 -103.136 356.997C-103.181 357.69 -103.226 358.384 -103.66 359.073C-104.464 360.973 -106.11 362.343 -105.965 364.6C-105.584 367.728 -106.714 370.145 -107.735 372.389C-108.648 374.462 -109.561 376.534 -110.257 378.261C-109.677 379.829 -109.442 380.699 -108.926 381.746C-108.174 383.663 -106.88 384.718 -104.374 385.092C-103.208 385.105 -101.869 385.467 -100.638 386.001L-101.443 387.901Z" fill="#C2D6D5"/>
<path d="M97.7634 530.4C95.5891 531.809 93.6166 531.204 91.5835 531.204C89.1479 531.164 86.5311 530.901 84.0955 530.861C74.3934 530.295 64.4697 529.911 54.7676 529.346C46.0719 528.881 37.5976 528.235 28.8817 527.972C15.4958 527.648 2.27088 527.746 -10.9339 527.644C-12.1618 527.724 -13.3695 527.603 -15 527.643C-14.3956 525.67 -14.0732 524.481 -13.5294 523.112C-8.1712 508.19 -2.26968 493.932 4.71848 481.004C6.20874 478.305 7.51788 475.385 9.00814 472.687C13.6802 464.612 19.6997 461.35 26.3023 460.384C34.7569 459.197 43.2508 461.676 51.5838 463.731C59.3129 465.726 66.5986 470.118 73.5619 475.698C75.2524 477.087 76.7013 478.86 77.9085 481.015C81.188 486.836 84.2462 492.838 87.3043 498.84C88.4913 501.196 89.4367 503.935 90.382 506.674C92.5946 512.998 94.5858 519.504 96.7782 526.029C97.261 527.298 97.3412 528.527 97.8038 529.997L97.7634 530.4Z" fill="#E9C330" fill-opacity="0.9"/>
</g>
<defs>
<clipPath id="clip0">
<rect width="320" height="527" fill="white"/>
</clipPath>
</defs>
</svg>
