<svg width="320" height="85" viewBox="0 0 320 85" fill="none" xmlns="http://www.w3.org/2000/svg">
<path d="M182.529 70.7461C176.538 69.8317 171.634 69.8904 167.241 70.9104L166.666 70.8987C163.809 70.5235 161.848 69.6911 159.822 69.8084C156.069 69.8905 152.871 70.3009 149.395 70.5471C142.465 70.7231 135.493 71.5321 128.905 70.9225C120.888 70.1254 114.279 69.8323 107.476 72.3883C102.442 74.3463 100.183 73.6663 96.0265 71.2042C89.6535 67.4291 79.9529 65.9636 71.4658 67.8513C67.0729 68.8714 62.723 69.2583 58.2251 67.5818C57.1168 66.9253 55.1127 66.726 53.1086 66.5267C47.6718 65.9405 42.1491 66.6206 37.6512 64.944C31.7464 62.7634 24.8597 62.3062 17.9946 61.5324C11.9822 60.9346 5.94829 60.6532 1.36436 60.2429L0 59.4347V4.57764e-05H319.925V54.629C319.461 56.971 317.179 57.3647 313.538 55.8197C311.09 54.6897 309.105 54.771 306.602 54.8734L306.396 54.8818C300.895 55.2453 297.013 57.2268 292.876 58.7275C286.947 61.1428 279.633 62.7374 276.752 66.9582C275.472 68.8341 271.953 69.7135 267.945 69.3149C261.357 68.7053 255.024 68.5764 248.84 70.511C244.127 72 238.86 73.1608 234.147 74.6498C231.801 75.236 230.351 75.365 227.793 74.8375C223.806 74.1223 219.542 73.243 215.789 73.3251C212.037 73.4072 208.306 73.1728 204.895 72.4694C203.466 72.2818 201.761 71.9301 200.311 72.0591C193.914 72.8798 188.221 71.813 182.529 70.7461Z" fill="#EDF1F0"/>
<path opacity="0.6" d="M296.282 66.0068C303.978 64.8425 311.952 63.5273 319.925 62.2121V1.07471H0L4.97339e-06 74.176C4.97339e-06 74.176 14.9892 74.187 21.6633 74.7908C39.0627 76.214 56.1851 77.7882 73.329 79.6535C82.0287 80.3651 91.2826 80.7749 98.1717 84.2896C100.453 83.9554 102.713 83.3301 104.717 83.1468C109.578 82.6186 113.82 81.519 117.742 79.9881C121.11 78.7591 125.353 77.6595 129.339 77.0019C137.889 75.6759 146.459 74.641 155.03 73.6061C159.592 72.9377 164.198 72.8515 168.803 72.7653C173.984 72.6683 178.91 73.0134 184.091 72.9164C185.242 72.8948 186.351 72.2911 187.481 71.9785C192.533 70.135 192.533 70.135 198.717 71.9139C205.644 68.1406 217.179 68.2162 224.682 64.4321C224.959 64.2812 225.236 64.1303 225.812 64.1195C232.166 64.292 237.56 63.1709 243.551 62.33C244.979 62.1575 246.429 62.2761 247.879 62.3947L247.879 62.3947C251.355 62.6212 254.83 62.8476 258.284 62.7829C264.595 62.3733 269.862 63.4407 274.874 64.9501C281.954 67.1495 288.884 67.3112 296.282 66.0068Z" fill="#DBEFEE"/>
</svg>
