<svg width="200" height="400" viewBox="0 0 200 400" fill="none" xmlns="http://www.w3.org/2000/svg">
<g clip-path="url(#clip0)">
<path d="M105.719 377.054C117.535 376.826 136.986 377.933 145.893 379.233C157.215 380.913 159.676 384.609 153.334 387.853C149.049 390.044 132.948 392.462 123.279 393.84C115.576 394.914 102.968 394.624 94.7642 394.59C74.7072 394.481 35.7227 394.555 45.2572 387.655C54.4701 381.102 81.0405 377.884 105.532 377.015L105.719 377.054Z" fill="#E0E0E0"/>
<path d="M146.166 373.205C146.166 370.876 145.908 368.548 145.908 366.219C145.908 365.185 145.649 364.408 145.649 363.374C145.649 363.115 145.649 362.856 145.649 362.598C145.39 360.787 145.131 358.717 144.872 356.906C144.614 355.871 144.614 354.836 144.614 353.801C144.355 351.473 144.355 349.145 144.096 346.816C143.837 344.488 143.837 342.16 143.579 339.831C143.579 338.279 143.32 336.727 143.32 335.175C143.32 333.881 143.061 332.329 143.061 331.035C142.802 328.189 142.543 325.344 142.026 322.498C141.249 315.513 139.955 308.269 138.92 301.284C137.109 290.418 134.003 280.07 129.862 269.98C128.568 267.134 127.274 264.289 125.722 261.702C124.686 260.149 123.91 258.597 122.875 257.045C122.616 256.527 122.098 256.01 121.84 255.493C120.287 253.423 118.734 251.612 116.923 249.801C116.405 249.284 115.887 249.025 115.629 248.508C114.593 247.731 113.558 246.955 112.523 246.179C112.523 246.179 112.523 246.179 112.264 245.92C112.264 245.92 112.264 245.662 112.005 245.662C112.005 245.403 111.747 245.403 111.747 245.144C111.747 245.144 111.747 245.144 111.747 244.886C112.005 244.886 112.005 244.627 112.264 244.627C112.523 244.627 112.523 244.368 112.782 244.368C116.664 243.592 120.546 242.816 124.428 242.04C124.945 242.04 125.463 241.781 125.98 241.781C127.274 241.264 127.533 240.746 127.792 238.935C128.051 236.607 128.051 234.02 128.051 231.692C128.051 231.174 128.051 230.398 127.792 230.139C127.533 229.622 127.533 229.363 127.274 228.846C126.757 228.328 125.98 227.811 124.686 227.552C123.392 227.294 122.357 227.035 121.063 227.035C117.44 226.517 113.817 226 110.194 226C106.571 226 103.206 226.517 99.5832 227.035C98.5481 227.294 97.5129 227.294 96.4777 227.552C95.9601 227.552 95.4425 227.811 94.9249 227.811C93.3721 228.07 91.8194 228.07 90.2666 228.07C88.7138 228.07 87.161 228.07 85.6083 227.811C84.5731 227.811 83.7967 227.552 82.7615 227.552C81.7263 227.552 80.9499 227.552 79.9148 227.552C78.8796 227.552 78.1032 227.552 77.068 227.811C76.0328 227.811 75.2564 227.811 74.2213 227.811C73.9625 227.811 73.7037 227.811 73.4449 227.811C72.6685 227.811 72.1509 228.07 71.1157 228.07C71.3745 228.587 72.9273 238.159 72.9273 238.935C72.9273 239.711 73.1861 240.229 73.4449 240.488C73.9625 241.522 74.7388 241.781 76.2916 241.781C78.1032 241.781 79.656 241.522 81.4675 241.264C81.9851 241.264 82.5027 241.264 83.2791 241.005C82.2439 241.781 81.4675 242.816 80.6911 243.851C79.9148 244.886 79.1384 245.662 78.362 246.697C77.068 248.249 76.0328 249.801 74.9976 251.612C74.7388 252.129 74.48 252.388 74.2213 252.906C73.1861 254.458 72.4097 256.01 71.3745 257.562C70.3393 259.115 69.5629 260.667 68.7865 262.219C67.4926 264.806 66.1986 267.652 64.9046 270.239C63.6106 272.826 62.3166 275.672 61.2815 278.259C60.5051 279.811 59.9875 281.363 59.4699 282.916C57.9171 287.572 57.3995 292.488 56.8819 297.145C56.3643 300.249 56.1055 303.612 55.8468 306.717C55.0704 313.184 54.5528 319.393 54.0352 325.861C53.7764 328.966 53.5176 332.329 53.2588 335.433C53.2588 335.951 53.2588 336.468 53.2588 336.985C53.2588 337.244 53.2588 337.244 53.2588 337.503C53.2588 340.349 53 343.194 53 345.782C53 346.816 53 347.592 53 348.627C53.2588 357.165 53.2588 365.702 53.7764 374.239C53.7764 375.015 53.7764 375.533 54.0352 376.05C54.8116 380.19 57.3995 382.001 62.0579 382.518C65.4222 383.035 68.5277 383.035 71.8921 382.777C77.068 382.518 82.2439 382.518 87.6786 382.518C92.8545 382.518 98.0305 382.777 103.465 383.035C105.277 383.035 106.83 383.294 108.641 383.294C110.453 383.294 112.005 383.553 113.817 383.553C117.181 383.812 120.546 383.812 123.91 383.812C127.274 383.812 130.639 383.812 134.003 383.553C137.109 383.553 140.473 382.777 143.579 382.259C143.837 382.259 143.837 382.259 144.096 382.259C144.355 382.259 144.614 382.259 144.614 382.001C144.872 382.001 145.39 381.742 145.649 381.483C145.908 381.224 146.166 380.966 146.166 380.707C146.166 380.448 146.425 380.448 146.425 380.19C146.425 379.931 146.684 379.413 146.425 379.155C146.425 376.826 146.425 374.498 146.166 372.17V373.205Z" fill="#2B3545"/>
<path d="M121.051 334.655L118.981 329.999C116.652 325.083 113.805 318.357 111.476 313.7L106.817 303.093L109.664 297.66C113.029 291.451 117.946 283.431 120.016 280.585C120.275 283.173 120.792 288.864 121.051 301.023C122.086 325.859 122.345 332.327 123.38 336.984C123.639 337.76 123.639 338.795 123.639 339.312C122.863 338.019 122.086 336.466 121.31 334.655H121.051ZM100.089 300.765C99.83 300.765 97.5008 298.178 95.6892 295.849L94.1365 294.038C92.0661 291.71 89.2194 288.347 87.149 285.76C84.3022 282.396 83.0083 280.585 82.2319 279.292C82.7495 279.292 83.2671 279.292 84.0435 279.292C85.855 279.292 88.1842 279.292 90.5133 279.292C99.0536 279.292 108.629 278.516 113.805 277.481C114.064 277.481 114.064 277.481 114.322 277.481C114.322 277.481 114.064 277.74 114.064 277.998C112.77 279.551 100.865 301.023 100.865 301.023L100.089 300.765ZM84.561 329.999C82.7495 333.621 80.9379 337.76 79.9027 340.088L79.1263 341.64C77.5736 345.521 75.5032 348.884 74.2092 350.695C73.9504 350.178 73.9504 349.66 73.6916 348.884C73.1741 346.297 72.9153 340.606 73.4328 320.426C73.9504 295.332 74.7268 286.277 75.2444 283.173C80.4203 287.829 93.6189 304.387 93.8777 305.939C93.8777 307.232 88.443 320.685 84.3022 329.74L84.561 329.999ZM138.132 369.063C138.649 369.84 139.426 370.874 140.202 372.168C140.72 372.685 145.896 379.929 145.896 379.929L145.637 371.65C145.637 370.098 145.637 368.546 145.378 366.994V366.218L144.86 365.7C144.343 364.924 143.566 364.148 142.79 363.113C139.943 359.75 136.838 356.387 135.802 355.352L135.285 355.093C133.473 353.8 133.473 353.8 137.614 340.864L138.649 337.242C139.426 335.173 140.461 332.068 141.496 328.964L141.755 328.446V327.929C141.496 326.377 141.496 324.566 141.237 323.014L140.202 314.217L136.838 322.237C135.285 325.601 133.215 331.81 131.921 335.949C131.403 337.501 130.885 339.053 130.627 340.088C130.627 339.829 130.627 339.829 130.627 339.571C129.333 334.914 128.297 324.566 128.039 311.372C127.78 308.526 127.78 305.939 127.78 303.869V303.352C127.521 299.471 127.521 297.919 127.521 297.401C127.262 295.849 127.003 288.864 127.003 284.466C128.297 286.277 136.838 293.003 136.838 293.003L136.579 291.71C135.802 288.605 135.026 285.242 133.991 281.879L133.473 281.103C132.179 279.033 131.144 277.222 129.85 275.411C129.85 275.411 129.333 274.635 128.815 273.859L130.885 273.083L129.85 270.755C129.591 270.237 129.333 269.72 129.333 269.202C129.074 268.685 128.815 268.168 128.815 267.909L127.521 266.615L126.227 267.133C123.898 267.909 121.569 268.426 120.792 268.685C113.029 270.237 100.865 271.272 84.561 271.789C78.6088 272.048 74.7268 272.048 71.8801 272.048H70.5861C67.9981 272.048 66.1866 271.789 64.1162 271.531C63.081 273.859 62.0459 276.187 61.0107 278.516H61.2695C62.5634 278.775 63.3398 279.033 64.1162 279.033C63.8574 279.551 63.081 280.327 62.3047 281.362C61.2695 282.396 59.7167 284.466 58.1639 286.794C57.3875 290.416 56.87 293.78 56.6112 297.401C56.6112 298.178 56.3524 298.954 56.3524 299.73C56.3524 299.73 59.9755 296.108 61.0107 294.556C64.375 289.382 66.7042 286.794 67.9981 285.242C67.9981 289.64 67.7394 299.471 67.2218 313.7C66.7042 326.894 66.1866 335.173 65.9278 339.829C64.6338 336.984 63.081 333.103 62.0459 330.516C61.2695 328.964 60.4931 326.635 59.7167 324.566L58.6815 321.979C58.1639 321.203 57.6463 319.133 56.3524 314.994L56.0936 314.476H54.7996C54.5408 318.357 54.0232 321.979 53.7644 325.859C53.7644 326.894 53.5056 327.929 53.5056 328.964C57.6463 340.088 62.5634 350.178 65.669 353.8L67.7394 356.387L66.7042 357.939C65.9278 359.233 62.3047 364.148 61.0107 365.959C58.6815 369.063 55.576 373.461 54.5408 375.79C54.282 376.307 54.0232 376.566 54.0232 376.825C54.7996 379.67 56.6112 381.223 59.9755 381.999L60.2343 381.223C61.0107 378.636 62.8222 375.272 64.375 372.944C65.9278 370.874 68.7745 366.994 70.8449 364.148C71.3625 363.631 71.6213 363.113 71.8801 362.596C71.8801 364.924 71.8801 368.029 71.8801 371.909C71.8801 376.307 71.6213 378.894 71.6213 380.964V382.775H71.8801C74.2092 382.775 76.2796 382.775 78.6088 382.516V378.377C78.6088 373.461 78.6088 368.805 79.1263 365.959C80.4203 368.287 82.7495 372.168 84.561 375.014C86.1138 377.083 88.1842 380.188 89.2194 382.257L89.4782 382.516C92.3249 382.516 95.1716 382.775 98.2772 382.775L96.4656 379.67C95.4304 378.118 90.5133 370.616 90.5133 370.357C88.7018 368.029 86.8902 364.407 86.3726 363.372C85.3374 361.302 83.7847 358.715 82.4907 356.904C81.7143 355.869 80.9379 355.093 80.6791 354.835C80.9379 354.317 81.4555 353.024 82.2319 351.989C83.0083 350.436 85.3374 346.038 86.6314 342.675C87.9254 339.571 89.9957 334.914 91.0309 332.844C92.5837 329.74 93.8777 326.894 98.0184 317.063C98.0184 317.322 98.0184 317.581 98.0184 317.581C98.0184 320.426 98.0184 325.342 98.2772 328.446C99.0536 336.208 100.606 367.77 100.865 381.999V383.292C101.9 383.292 102.936 383.292 103.971 383.292C105.523 383.292 106.817 383.551 108.37 383.551L108.111 378.636C107.853 375.79 107.853 372.168 107.594 369.063C107.335 366.994 107.335 364.407 107.076 361.561V361.043C106.817 357.68 106.817 353.8 106.559 351.471C106.559 350.178 106.3 344.745 106.3 344.745C106.041 341.382 105.782 337.76 105.782 335.173C105.265 327.929 105.265 320.426 105.265 315.77C106.559 318.615 108.888 323.014 112.252 330.257C118.981 344.228 122.863 351.989 123.898 353.8L125.968 357.68L124.674 361.302C123.898 363.889 121.828 370.616 120.275 375.79L120.016 376.825C119.498 378.894 118.981 380.447 118.463 381.74L117.687 383.81C120.016 383.81 122.086 383.81 124.416 383.81C124.674 383.81 124.933 383.81 125.192 383.81L125.451 382.775C125.709 381.999 125.709 381.223 126.227 380.447C126.745 378.894 127.521 376.049 128.556 372.944L129.074 371.133C129.333 369.581 129.85 368.029 130.368 366.476C130.368 368.029 130.368 369.84 130.627 372.427C130.627 376.307 130.627 380.447 130.368 381.223L130.627 383.81C132.438 383.81 133.215 383.81 135.026 383.81C136.579 383.81 136.838 383.81 138.39 383.551L138.132 379.412V379.153C137.873 378.118 137.614 373.979 137.355 369.84C137.355 368.805 137.355 367.252 137.355 365.7C138.132 366.476 138.649 367.77 139.167 368.287L138.132 369.063Z" fill="#F3F2F3"/>
<path d="M55.379 59.4674C55.2543 59.1269 55.4343 58.9373 55.7113 58.74C56.6253 57.9664 57.6502 57.359 59.0423 57.686C59.5341 57.7344 59.818 57.6242 60.185 57.3321C60.4481 56.9607 60.8221 56.7557 61.286 56.4559C61.75 56.1561 62.3318 56.1097 62.9274 56.2374C63.7239 56.4367 63.9733 57.1176 63.731 57.7502C63.648 57.932 63.4749 58.2086 63.2879 58.3111C62.9209 58.6032 62.6508 58.8875 62.2769 59.0925C61.9999 59.2898 61.9238 59.5587 62.0485 59.8992C62.2771 60.3189 62.4157 60.8335 62.5474 61.261C63.2888 63.2167 64.529 66.5343 65.2704 68.49C65.3952 68.8305 66.8641 72.5678 66.5871 72.7651C66.317 73.0495 65.95 73.3415 65.6938 73.8C65.3891 73.6491 63.3313 68.6447 63.2135 68.3912C63.1927 68.1301 63.1649 67.7819 63.0471 67.5285C62.7977 66.8476 62.5413 66.0796 62.2918 65.3987C61.6682 63.6964 60.9477 62.0018 59.9501 60.5045C59.5067 59.839 59.4098 59.8468 58.8419 60.0672C57.9901 60.398 56.9997 60.2141 56.1132 60.1096C55.8154 60.0458 55.5037 59.8078 55.4759 59.4596L55.379 59.4674Z" fill="#DBEFEE"/>
<path d="M51.1719 70.3129C51.0333 69.7983 50.7977 69.2915 51.2478 68.8176C51.6426 68.8737 52.0373 68.9298 52.439 69.073C55.8883 70.7252 58.9084 73.1124 61.8731 76.0297C61.7345 75.5152 61.7136 75.254 61.5959 75.0006C61.1039 73.7258 60.515 72.4587 60.0161 71.0969C59.3786 69.2205 58.7481 67.4311 58.2075 65.547C58.062 64.9454 57.7086 64.1851 58.4565 63.7751C59.1075 63.3728 59.6478 64.0305 60.1673 64.4271C61.7397 65.7909 62.855 67.5416 63.8803 69.3871C64.5662 70.6465 65.2451 71.8188 65.8271 72.9988C65.8894 72.5558 65.8477 72.0335 65.813 71.5983C65.3208 69.0971 64.8287 66.5959 64.3365 64.0947C64.0454 62.8914 64.1422 61.6573 64.3497 60.5895C64.4189 60.2336 64.6751 59.7752 64.959 59.6649C65.146 59.5624 65.6655 59.959 65.8803 60.2047C66.5384 61.1158 67.2934 62.0192 67.7576 62.9458C68.7829 64.7913 68.9495 66.8805 69.497 68.8517C69.9336 70.6565 70.8759 72.6838 71.6242 74.7266C71.5479 73.769 71.5685 72.8038 71.4921 71.8462C71.4153 68.4359 72.2528 65.4783 73.9976 62.8863C74.3438 62.3331 74.8978 61.9385 75.3479 61.4646C75.6527 61.6155 75.7496 61.6078 75.7566 61.6948C77.0519 63.256 77.8695 64.9428 77.8283 66.8733C77.766 67.3163 77.8007 67.7515 77.8423 68.2738C78.092 70.1812 77.843 71.9531 77.594 73.7249C77.3936 76.1062 76.5906 78.2726 75.9884 80.5107C75.6978 81.7603 75.2201 83.1124 75.3312 84.5052C75.4355 87.0373 75.6437 89.6488 76.0459 92.2447C76.6213 95.7905 77.3838 99.2338 77.9592 102.78C77.9939 103.215 78.0217 103.563 78.0564 103.998C76.8999 104.178 75.9372 104.342 74.926 103.897C74.2195 103.603 74.1987 103.342 74.2401 102.638C74.3024 102.195 74.2607 101.673 74.1291 101.245C73.8033 99.6069 73.3875 98.0632 72.9647 96.4325C72.2717 93.8597 71.4817 91.2947 70.1238 88.9501C69.6735 88.1976 69.2163 87.358 68.4821 86.7157C66.7919 85.0985 64.8386 83.8526 62.74 83.2315C60.4406 82.5389 58.5635 81.0241 56.6863 79.5093C55.8551 78.8748 55.107 78.0584 54.5528 77.2266C53.1119 75.0639 51.9549 72.7909 51.1719 70.3129Z" fill="#E86137"/>
<path d="M161.53 191.157C161.693 191.219 161.787 191.14 161.885 191.018C162.267 190.616 162.57 190.161 162.424 189.526C162.405 189.303 162.461 189.176 162.605 189.014C162.788 188.901 162.89 188.735 163.039 188.529C163.188 188.324 163.216 188.061 163.159 187.79C163.07 187.426 162.743 187.304 162.434 187.404C162.346 187.439 162.21 187.513 162.159 187.596C162.014 187.758 161.874 187.876 161.772 188.042C161.674 188.165 161.543 188.195 161.379 188.134C161.178 188.024 160.931 187.954 160.725 187.888C159.785 187.524 158.19 186.914 157.25 186.55C157.086 186.488 155.291 185.769 155.193 185.891C155.053 186.009 154.908 186.171 154.684 186.28C154.754 186.42 157.158 187.425 157.28 187.482C157.406 187.495 157.574 187.513 157.696 187.57C158.023 187.693 158.393 187.82 158.72 187.943C159.538 188.25 160.352 188.601 161.068 189.074C161.386 189.284 161.382 189.328 161.27 189.582C161.102 189.962 161.183 190.413 161.225 190.816C161.254 190.952 161.366 191.096 161.534 191.114L161.53 191.157Z" fill="#DBEFEE"/>
<path d="M156.243 192.902C156.491 192.972 156.734 193.086 156.968 192.889C156.944 192.71 156.92 192.53 156.855 192.347C156.085 190.762 154.957 189.36 153.571 187.976C153.819 188.046 153.945 188.06 154.066 188.117C154.679 188.358 155.287 188.643 155.942 188.889C156.844 189.205 157.705 189.516 158.612 189.788C158.902 189.863 159.267 190.034 159.472 189.702C159.672 189.413 159.358 189.159 159.171 188.918C158.525 188.187 157.687 187.656 156.803 187.165C156.2 186.837 155.638 186.512 155.072 186.232C155.287 186.21 155.54 186.236 155.75 186.259C156.956 186.518 158.163 186.777 159.369 187.037C159.949 187.186 160.547 187.161 161.065 187.082C161.238 187.056 161.462 186.947 161.518 186.82C161.569 186.737 161.382 186.496 161.265 186.395C160.83 186.084 160.399 185.729 159.955 185.506C159.071 185.015 158.061 184.909 157.112 184.632C156.242 184.408 155.269 183.952 154.287 183.583C154.75 183.632 155.217 183.637 155.68 183.685C157.33 183.77 158.769 183.435 160.039 182.683C160.309 182.535 160.505 182.29 160.739 182.093C160.668 181.953 160.673 181.91 160.631 181.905C159.887 181.296 159.077 180.902 158.143 180.892C157.928 180.913 157.718 180.891 157.465 180.865C156.544 180.724 155.684 180.811 154.825 180.897C153.67 180.953 152.615 181.284 151.526 181.524C150.919 181.637 150.26 181.833 149.587 181.763C148.363 181.678 147.101 181.546 145.848 181.326C144.137 181.013 142.477 180.618 140.766 180.305C140.556 180.283 140.388 180.265 140.177 180.243C140.08 180.764 139.992 181.197 140.198 181.661C140.334 181.985 140.461 181.998 140.802 181.99C141.017 181.968 141.269 181.995 141.475 182.061C142.265 182.232 143.008 182.443 143.794 182.658C145.033 183.009 146.268 183.405 147.39 184.053C147.751 184.268 148.153 184.487 148.457 184.829C149.225 185.617 149.811 186.519 150.093 187.478C150.408 188.529 151.124 189.4 151.841 190.272C152.141 190.657 152.529 191.007 152.927 191.27C153.961 191.954 155.051 192.511 156.243 192.902Z" fill="#E86137"/>
<path d="M137.399 68.012C133.78 69.4163 130.526 71.611 128.113 74.669C126.943 75.9587 125.974 77.5241 124.767 79.0531C124.603 78.5383 124.639 78.299 124.438 78.0234C124.421 76.5518 124.366 75.3193 124.586 73.884C124.441 71.6583 124.058 69.3962 122.067 68.1118C120.952 67.4515 120.715 67.4151 119.618 68.2264C119.307 68.6685 118.759 69.0741 118.685 69.5526C117.716 71.1179 117.423 73.0316 117.167 74.7062C116.964 77.6131 117.274 80.3537 118.333 82.9641C118.826 84.5086 118.642 85.7047 117.911 87.3064C116.21 90.4735 114.747 93.677 113.046 96.8441C112.388 97.9674 111.931 99.3663 111.236 100.729C110.762 97.4735 110.215 94.6966 109.905 91.956C109.723 89.9695 108.993 88.3887 107.751 86.9743C106.91 86.1111 105.485 85.8928 104.589 86.9797C104.004 87.6246 103.382 88.5087 102.998 89.4292C101.736 92.9083 101.936 96.3664 103.634 99.5645C104.73 101.936 105.588 104.271 106.683 106.642C107.048 107.432 107.139 108.426 106.755 109.346C106.261 110.984 105.767 112.622 105.511 114.297C104.98 116.174 104.65 118.327 104.12 120.204C103.442 123.039 102.527 125.836 101.613 128.634C101.539 129.113 101.229 129.555 101.155 130.033C100.717 129.721 100.516 129.446 100.589 128.967C100.371 127.22 99.9511 125.197 99.7325 123.45C99.4229 120.709 98.8757 117.932 98.6027 114.953C98.2022 111.219 97.8382 107.246 97.4376 103.512C97.3833 102.279 97.3289 101.047 97.037 99.7782C96.6908 97.2769 96.5821 94.8119 96.1992 92.5498C96.0905 90.0849 96.6212 88.2076 98.7781 86.8241C100.149 85.81 101.593 84.3174 102.964 83.3032C105.231 81.2022 107.461 79.3403 109.089 76.6516C109.747 75.5283 110.442 74.1658 110.625 72.9697C111.266 70.3747 108.708 68.0244 106.424 68.6538C105.163 68.9503 104.066 69.7616 103.006 70.3337C100.575 71.92 99.0205 74.1302 97.6673 76.616C96.8991 78.457 95.8933 80.2616 95.0884 82.3417C94.7232 81.5513 93.7553 79.9341 93.7755 75.0406C93.8488 74.5622 93.447 74.011 93.5202 73.5325C94.3617 71.2132 94.454 69.0238 94.3453 66.5589C94.3288 61.9046 94.5132 57.526 94.4967 52.8717C94.4247 50.1676 93.6034 47.5935 91.4843 45.5551C90.4432 44.4163 89.2188 44.4736 88.122 45.2849C86.7877 46.0599 85.6176 47.3496 84.8861 48.9514C84.1178 50.7923 83.7881 52.9453 83.97 54.9318C84.0787 57.3967 84.6992 59.6952 85.0821 61.9573C85.6658 64.495 85.9754 67.2355 87.3085 69.6432C87.3085 69.6432 87.2719 69.8824 87.4362 70.3972C86.5592 69.7732 85.6457 69.3885 85.0063 68.8009C84.1294 68.1769 83.49 67.5893 82.6131 66.9653C81.6996 66.5806 80.8226 65.9566 79.6349 65.7747C78.2096 65.5564 77.0218 65.3744 75.5599 65.3953C75.0848 65.3226 74.3355 65.4526 73.8238 65.6191C72.8003 65.952 72.4162 66.8724 72.9823 67.9385C73.3474 68.7289 73.9502 69.5557 74.5895 70.1433C77.147 72.4936 79.8144 74.1263 83.0668 75.1142C84.9306 75.6445 86.9952 76.4504 88.859 76.9807C89.3341 77.0534 89.7359 77.6046 89.9002 78.1195C90.2287 79.1491 90.3197 80.1423 90.6849 80.9328C91.7249 85.2541 92.7282 89.8147 93.0188 94.2661C92.9999 95.977 92.981 97.6879 93.1996 99.4352C91.1172 97.1576 89.2357 95.1557 87.3543 93.1537C85.8746 91.7029 84.3583 90.4913 82.8054 89.519C81.49 88.583 79.7173 89.046 78.8214 90.1329C78.1998 91.017 78.2175 92.4887 79.222 93.8667C79.8247 94.6935 80.4641 95.2811 81.1035 95.8687C83.46 97.9434 86.0908 99.8153 88.6849 101.926C91.5166 104.074 93.7999 106.627 94.2004 110.361C94.5833 112.623 95.2404 114.682 95.6233 116.944C96.0972 120.2 96.5344 123.694 96.7707 126.913C97.117 129.415 96.9515 132.082 97.0235 134.787C97.0046 136.497 96.9856 138.208 96.9301 140.158C96.8934 140.398 96.8201 140.876 96.546 141.079C96.1075 140.767 95.6324 140.694 95.1939 140.382C92.5632 138.51 89.9324 136.638 87.3017 134.766C85.5478 133.518 83.794 132.271 82.2777 131.059C81.6383 130.471 80.7614 129.847 80.1221 129.26C79.6836 128.948 79.2818 128.397 79.6292 127.715C80.2698 125.12 80.1978 122.416 80.3633 119.748C80.4012 116.327 80.4757 112.666 79.2891 109.301C78.5588 107.72 78.1026 105.937 77.0981 104.559C75.6917 102.629 73.9922 102.614 72.5114 104.346C71.6521 105.193 71.1947 106.592 70.774 107.752C69.9325 110.071 69.3285 112.427 69.7114 114.689C70.1486 118.184 71.1709 121.034 73.6551 123.862C73.856 124.138 74.0569 124.414 74.2212 124.928C73.9836 124.892 73.7094 125.095 73.4719 125.058C69.3059 123.686 65.0477 124.503 60.7895 125.319C59.5285 125.616 59.2177 126.058 59.5096 127.327C59.8381 128.356 60.2033 129.147 61.0802 129.771C62.8707 130.779 64.9353 131.585 66.7625 132.355C67 132.391 67 132.391 67.2376 132.428C69.9605 132.11 72.8478 132.308 75.4431 131.236C76.229 130.867 76.6675 131.179 77.106 131.491C78.8598 132.739 80.3394 134.19 82.0933 135.438C83.8471 136.686 85.6009 137.934 87.3548 139.181C87.7932 139.493 88.2317 139.805 88.4326 140.081L88.396 140.32C87.6833 140.211 86.934 140.341 86.258 139.993C83.6816 139.353 81.1962 139.707 78.5099 139.785C75.586 139.827 74.1051 141.559 73.227 144.118C72.8429 145.038 72.9705 145.792 73.6098 146.38C74.2492 146.967 74.9252 147.316 75.6745 147.186C76.698 146.853 77.6482 146.998 78.6717 146.665C79.8961 146.608 81.1205 146.551 82.3815 146.254C84.9402 145.422 87.6265 145.344 90.1119 144.99C91.8481 144.766 93.2001 145.463 94.5521 146.16C94.9906 146.472 95.3924 147.023 95.52 147.777C95.8485 148.807 96.1771 149.836 96.2314 151.069C96.8873 156.311 97.5065 161.792 97.9248 166.997C97.9791 168.23 98.2344 169.738 97.5394 171.1C97.0643 171.027 96.8634 170.752 96.6259 170.715C95.5481 169.816 94.5069 168.677 93.429 167.777C91.1091 165.463 88.8625 162.671 86.2317 160.799C83.4001 158.652 80.1843 157.425 76.6943 156.4C74.3555 155.797 72.3085 156.463 71.5403 158.304C70.5345 160.109 70.8807 162.61 72.5979 164.097C73.2373 164.685 73.8767 165.272 74.7902 165.657C75.6671 166.281 76.8183 166.702 77.7318 167.087C77.9694 167.123 78.4078 167.435 78.8463 167.747C76.0134 168.782 74.7701 170.551 73.691 172.834C73.2703 173.993 73.087 175.189 73.8907 176.292C74.6943 177.394 75.8454 177.815 77.344 177.555C78.605 177.259 79.8661 176.962 80.9262 176.39C82.5347 175.412 84.1432 174.434 85.7517 173.457C87.6344 172.276 89.4072 171.813 91.5085 172.38C92.4587 172.525 93.3356 173.149 94.2491 173.534C96.5514 174.376 97.1718 176.675 97.3538 178.661C97.5535 182.12 97.278 185.505 97.2402 188.927C97.3666 192.863 97.43 217.846 97.5564 221.782C98.47 222.167 100.407 222.219 101.357 222.364C103.733 222.728 103.006 211.6 103.318 207.975C103.703 203.872 104.681 180.029 105.304 175.962C105.597 174.048 106.128 172.171 106.695 170.054C107.83 165.821 109.165 161.864 111.25 157.776C111.982 156.174 112.713 154.573 113.445 152.971C114.561 150.449 115.676 147.926 116.792 145.404C117.487 144.042 118.346 143.194 119.644 142.658C121.965 141.79 124.323 140.682 126.845 140.089C131.451 138.591 135.691 136.302 139.53 133.463C140.626 132.651 141.248 131.767 141.669 130.608C142.126 129.209 141.798 128.179 140.372 127.961C139.459 127.576 138.271 127.394 137.01 127.691C133.739 128.414 130.632 129.651 127.89 131.68C125.97 133.1 124.088 134.28 122.205 135.461L122.004 135.185C122.041 134.946 122.077 134.707 122.114 134.468C122.571 133.069 122.791 131.633 123.486 130.271C125.096 126.11 124.531 121.862 122.431 118.113C121.463 116.495 120.111 115.799 118.412 115.783C117.187 115.84 116.054 116.891 115.395 118.014C114.17 121.254 113.657 124.603 114.094 128.098C114.404 130.838 114.988 133.376 115.571 135.914C116.027 137.697 115.844 138.893 114.674 140.183C114.4 140.386 114.089 140.828 114.053 141.067C112.242 144.952 109.719 148.728 108.383 152.685C107.505 155.244 106.864 157.839 105.749 160.361C104.633 162.883 103.956 165.717 102.84 168.24C102.602 168.203 102.602 168.203 102.602 168.203C102.53 165.499 102.458 162.795 102.35 160.33C102.078 154.168 102.756 148.151 103.672 142.17C104.643 137.423 105.851 132.711 107.059 127.999C107.773 124.926 108.724 121.889 109.639 119.091C109.785 118.134 110.169 117.214 110.042 116.46C109.787 114.952 110.481 113.589 111.14 112.466C112.42 110.458 113.7 108.451 114.505 106.371C114.962 104.972 115.748 104.603 116.972 104.545C119.969 104.025 122.967 103.505 125.964 102.985C128.961 102.464 130.679 100.769 131.832 98.0076C132.252 96.8479 132.399 95.8911 132.07 94.8614C131.943 94.1074 131.578 93.317 130.627 93.1715C129.001 92.6775 127.576 92.4592 126.004 93.1978C124.158 94.1392 122.312 95.0805 120.74 95.8191C120.466 96.0219 119.954 96.1884 119.205 96.3184C120.247 94.2746 121.016 92.4337 122.259 90.6655C122.917 89.5422 124.014 88.7309 125.111 87.9195C125.97 87.0718 127.03 86.4997 127.889 85.652C129.918 83.5146 132.149 81.6527 134.58 80.0664C136.462 78.8858 138.108 77.6689 139.588 75.9371C140.484 74.8501 141.417 73.524 141.436 71.8131C141.565 69.3846 139.847 67.8974 137.526 68.766L137.399 68.012Z" fill="#617627"/>
<path d="M155.752 30.221C155.963 29.8218 155.803 29.5567 155.536 29.2653C154.682 28.1524 153.669 27.2259 152.049 27.3906C151.49 27.3658 151.197 27.1808 150.851 26.7569C150.636 26.2529 150.263 25.9353 149.81 25.4852C149.357 25.0351 148.718 24.8778 148.028 24.9331C147.098 25.0424 146.676 25.8408 146.811 26.6638C146.865 26.9027 146.999 27.2742 147.186 27.433C147.533 27.8569 147.773 28.2546 148.146 28.5721C148.413 28.8635 148.441 29.2087 148.23 29.6079C147.886 30.0872 147.622 30.699 147.385 31.2046C146.144 33.4932 144.058 37.3785 142.817 39.6671C142.605 40.0662 140.176 44.4308 140.442 44.7221C140.683 45.1198 141.03 45.5437 141.218 46.1541C141.589 46.0201 144.944 40.1914 145.129 39.8986C145.208 39.5796 145.313 39.1542 145.498 38.8614C145.92 38.0631 146.369 37.1584 146.791 36.3601C147.847 34.3643 149.01 32.3947 150.439 30.7164C151.074 29.9705 151.181 29.9968 151.766 30.3668C152.645 30.9218 153.788 30.8649 154.797 30.8882C155.143 30.8605 155.541 30.6201 155.645 30.1947L155.752 30.221Z" fill="#DBEFEE"/>
<path d="M158.137 44.3425C158.4 43.7306 158.77 43.145 158.369 42.4822C157.918 42.4837 157.466 42.4851 156.988 42.593C152.794 44.0411 148.923 46.4711 145.001 49.5655C145.265 48.9536 145.343 48.6346 145.528 48.3417C146.347 46.8514 147.272 45.3874 148.117 43.7907C149.225 41.5822 150.308 39.4801 151.31 37.2454C151.6 36.5272 152.155 35.6487 151.408 35.0136C150.769 34.4047 150.027 35.1243 149.364 35.525C147.323 36.9396 145.709 38.9106 144.175 41.0143C143.143 42.4521 142.138 43.7836 141.239 45.1414C141.264 44.5834 141.421 43.9454 141.552 43.4136C142.631 40.4083 143.71 37.4029 144.79 34.3976C145.369 32.9612 145.524 31.4199 145.519 30.0651C145.517 29.6135 145.329 29.0032 145.036 28.8182C144.85 28.6594 144.187 29.06 143.895 29.3266C142.969 30.3391 141.936 31.3254 141.222 32.3903C139.688 34.4939 139.059 37.0462 138.031 39.3872C137.161 41.5418 135.681 43.8844 134.414 46.2793C134.702 45.1095 134.884 43.9135 135.172 42.7437C135.982 38.5438 135.676 34.7461 134.283 31.244C134.014 30.5011 133.481 29.9184 133.08 29.2556C132.708 29.3896 132.602 29.3634 132.576 29.4698C130.801 31.1757 129.532 33.1191 129.169 35.5111C129.144 36.069 129.013 36.6007 128.856 37.2388C128.173 39.5522 128.074 41.784 127.975 44.0157C127.693 46.9919 128.128 49.8064 128.324 52.6748C128.382 54.2685 128.628 56.0209 128.208 57.7225C127.554 60.8327 126.768 64.023 125.769 67.1609C124.375 71.4424 122.795 75.5651 121.401 79.8466C121.27 80.3783 121.166 80.8037 121.035 81.3355C122.285 81.7564 123.322 82.1249 124.544 81.7491C125.393 81.5072 125.472 81.1882 125.575 80.3112C125.6 79.7532 125.757 79.1152 125.994 78.6097C126.705 76.6416 127.496 74.806 128.313 72.8641C129.631 69.8048 131.056 66.7718 133.066 64.1088C133.728 63.2565 134.415 62.298 135.37 61.6307C137.596 59.9233 140.037 58.7199 142.506 58.3134C145.215 57.853 147.628 56.3044 150.041 54.7557C151.102 54.1147 152.108 53.2348 152.902 52.3025C154.967 49.8783 156.738 47.2692 158.137 44.3425Z" fill="#E86137"/>
<path d="M91.962 66.8557C88.9924 69.3556 86.624 72.4851 85.3301 76.1595C84.6404 77.7585 84.23 79.5533 83.583 81.3904C83.261 80.9565 83.2182 80.7183 82.939 80.5225C82.446 79.1358 81.9957 77.9872 81.7392 76.558C80.8815 74.4991 79.7871 72.4826 77.4873 71.9118C76.2191 71.6476 75.9826 71.6901 75.2074 72.8127C75.0563 73.3315 74.6687 73.8928 74.7542 74.3692C74.3438 76.164 74.6857 78.0696 74.9849 79.737C75.7344 82.5529 76.9142 85.0458 78.7609 87.1732C79.7269 88.475 79.9407 89.666 79.7668 91.4183C79.1825 94.9654 78.8347 98.47 78.2504 102.017C77.991 103.293 78.0109 104.765 77.7943 106.279C76.2925 103.352 74.8761 100.901 73.6963 98.4085C72.8813 96.5878 71.6787 95.3284 70.0457 94.3921C68.9713 93.8472 67.5521 94.1019 67.0562 95.4202C66.7113 96.2197 66.4092 97.2574 66.3436 98.2527C66.2751 101.953 67.5832 105.161 70.225 107.637C72.0289 109.526 73.5963 111.458 75.4002 113.347C76.0016 113.977 76.4091 114.887 76.3435 115.882C76.4062 117.592 76.4688 119.302 76.768 120.969C76.8734 122.917 77.2581 125.061 77.3635 127.009C77.6399 129.91 77.6797 132.853 77.7195 135.797C77.805 136.273 77.654 136.792 77.7395 137.268C77.2236 137.115 76.9444 136.919 76.8589 136.443C76.0866 134.86 75.035 133.082 74.2627 131.5C73.0829 129.007 71.6666 126.556 70.444 123.825C68.8567 120.422 67.2267 116.78 65.6393 113.377C65.1891 112.229 64.7388 111.08 64.052 109.974C62.915 107.719 62.0145 105.422 60.9201 103.406C60.0196 101.109 59.9142 99.1605 61.5074 97.1535C62.4764 95.7503 63.3599 93.8707 64.3289 92.4674C65.7938 89.7459 67.3014 87.2625 67.9712 84.1918C68.2306 82.9159 68.4472 81.4018 68.2335 80.2108C67.9999 77.5482 64.8194 76.1519 62.8615 77.4867C61.7643 78.1754 60.9891 79.2979 60.1711 80.1823C58.3842 82.4699 57.6289 85.0642 57.1529 87.8542C57.0218 89.8447 56.6541 91.8776 56.5657 94.1063C55.9644 93.4766 54.5252 92.2596 52.9607 87.623C52.8753 87.1465 52.3167 86.755 52.2312 86.2786C52.2769 83.8117 51.6556 81.7104 50.7551 79.4132C49.2334 75.0148 47.9909 70.812 46.4692 66.4135C45.5259 63.8782 43.9158 61.7084 41.2511 60.4655C39.8975 59.7249 38.7575 60.1753 37.9823 61.2979C36.9706 62.4629 36.2808 64.0619 36.107 65.8142C35.9758 67.8047 36.3605 69.9485 37.1755 71.7693C38.076 74.0664 39.4069 76.0404 40.5012 78.0569C41.8748 80.2691 43.0546 82.762 45.0951 84.6087C45.0951 84.6087 45.1378 84.8469 45.4599 85.2808C44.4282 84.9742 43.4393 84.9058 42.6442 84.5567C41.6125 84.2501 40.8174 83.9011 39.7858 83.5944C38.7969 83.526 37.7652 83.2194 36.5825 83.4316C35.1632 83.6863 33.9805 83.8985 32.604 84.3914C32.1309 84.4763 31.4641 84.8418 31.0337 85.1649C30.173 85.8111 30.1075 86.8063 30.9881 87.6318C31.5894 88.2615 32.4272 88.8488 33.2223 89.1979C36.4028 90.5941 39.455 91.2758 42.8521 91.158C44.7872 91.0566 47.0015 91.151 48.9366 91.0496C49.4097 90.9647 49.9683 91.3562 50.2903 91.7902C50.9344 92.6581 51.3419 93.5685 51.9432 94.1982C54.3256 97.9505 56.7508 101.941 58.4663 106.059C59.0021 107.684 59.5378 109.309 60.3101 110.891C57.6027 109.41 55.1747 108.125 52.7466 106.839C50.8771 105.945 49.0503 105.29 47.2663 104.872C45.7188 104.412 44.1912 105.424 43.6953 106.742C43.3932 107.78 43.8862 109.167 45.2826 110.146C46.1205 110.733 46.9156 111.082 47.7107 111.431C50.6119 112.632 53.7068 113.551 56.8445 114.709C60.2188 115.825 63.2054 117.502 64.7928 120.905C65.8871 122.922 67.1752 124.658 68.2695 126.674C69.7713 129.601 71.3159 132.766 72.5812 135.735C73.7182 137.99 74.425 140.568 75.3682 143.103C75.904 144.728 76.4397 146.353 77.0182 148.216C77.0609 148.454 77.1464 148.931 76.9526 149.211C76.4368 149.058 75.9637 149.143 75.4479 148.99C72.3529 148.07 69.258 147.15 66.163 146.23C64.0997 145.617 62.0364 145.003 60.2096 144.348C59.4145 143.999 58.3828 143.692 57.5877 143.343C57.0719 143.19 56.5133 142.798 56.6216 142.041C56.388 139.379 55.4447 136.843 54.738 134.265C53.6665 131.015 52.5523 127.527 50.3409 124.728C49.1382 123.468 48.1294 121.928 46.733 120.95C44.778 119.579 43.1649 120.115 42.3242 122.232C41.7855 123.313 41.8054 124.784 41.7826 126.018C41.7369 128.485 41.9278 130.909 43.0221 132.926C44.5667 136.091 46.4561 138.456 49.7221 140.329C50.0014 140.525 50.2806 140.72 50.6027 141.154C50.3661 141.197 50.1723 141.477 49.9358 141.52C45.5498 141.569 41.785 143.72 38.0203 145.871C36.9231 146.559 36.772 147.078 37.4588 148.184C38.1029 149.052 38.7042 149.682 39.7358 149.989C41.7564 150.364 43.9708 150.458 45.9486 150.595C46.1851 150.552 46.1851 150.552 46.4217 150.51C48.8954 149.328 51.6912 148.581 53.8001 146.727C54.4243 146.124 54.9401 146.277 55.4559 146.43C57.5192 147.043 59.3888 147.937 61.4521 148.551C63.5154 149.164 65.5787 149.777 67.642 150.39C68.1578 150.544 68.6736 150.697 68.9529 150.893L68.9957 151.131C68.286 151.258 67.6192 151.624 66.8668 151.513C64.2221 151.742 61.9849 152.881 59.4684 153.824C56.7154 154.81 55.8746 156.927 55.8717 159.633C55.8061 160.628 56.1709 161.3 56.966 161.649C57.7611 161.998 58.5135 162.109 59.1804 161.743C60.0411 161.097 60.9873 160.927 61.8479 160.281C62.9879 159.831 64.1279 159.38 65.2251 158.692C67.3768 157.076 69.8933 156.133 72.1305 154.994C73.7008 154.22 75.2055 154.442 76.7103 154.664C77.2261 154.817 77.7847 155.209 78.1494 155.881C78.7935 156.749 79.4375 157.617 79.8878 158.765C82.2047 163.513 84.5643 168.499 86.6446 173.289C87.0948 174.437 87.8244 175.782 87.6078 177.296C87.1347 177.38 86.8554 177.185 86.6188 177.227C85.3079 176.725 83.9542 175.984 82.6433 175.482C79.6994 174.043 76.67 172.128 73.575 171.208C70.2008 170.093 66.7609 169.972 63.1273 170.132C60.7192 170.319 58.9978 171.611 58.8666 173.602C58.499 175.635 59.636 177.889 61.7421 178.741C62.5372 179.09 63.3323 179.439 64.3212 179.507C65.3529 179.814 66.5783 179.84 67.5672 179.908C67.8038 179.866 68.3196 180.019 68.8354 180.172C66.4899 182.068 65.8857 184.144 65.6035 186.653C65.5807 187.887 65.7944 189.078 66.9115 189.861C68.0287 190.644 69.2541 190.67 70.5879 189.939C71.6851 189.25 72.7823 188.561 73.6003 187.677C74.8058 186.231 76.0114 184.786 77.2169 183.34C78.6162 181.614 80.1438 180.602 82.3154 180.458C83.2616 180.288 84.2932 180.595 85.2822 180.663C87.7331 180.715 89.0639 182.689 89.879 184.51C91.187 187.718 92.0219 191.01 93.0934 194.26C94.4869 197.944 102.631 221.561 104.025 225.245C105.014 225.313 106.863 224.736 107.81 224.566C110.175 224.141 105.886 213.847 105.008 210.316C104.045 206.309 97.2545 183.432 96.5279 179.383C96.1859 177.477 96.0805 175.529 95.9324 173.343C95.6361 168.971 95.6191 164.794 96.269 160.252C96.4428 158.499 96.6167 156.747 96.7906 154.995C97.0301 152.247 97.2695 149.5 97.509 146.752C97.7256 145.238 98.2643 144.158 99.3187 143.231C101.234 141.658 103.106 139.847 105.301 138.469C109.174 135.562 112.446 132.024 115.159 128.095C115.934 126.972 116.236 125.935 116.259 124.701C116.239 123.23 115.595 122.362 114.176 122.616C113.187 122.548 112.004 122.76 110.907 123.449C108.046 125.192 105.506 127.368 103.568 130.175C102.212 132.139 100.812 133.866 99.413 135.592L99.1337 135.396C99.0909 135.158 99.0482 134.92 99.0054 134.682C98.9855 133.21 98.7291 131.781 98.9457 130.267C99.1225 125.809 97.2131 121.972 94.0128 119.104C92.5736 117.887 91.0689 117.665 89.4558 118.201C88.3158 118.651 87.5834 120.012 87.324 121.288C87.2128 124.75 87.8112 128.085 89.3558 131.25C90.5356 133.743 91.9092 135.955 93.2828 138.167C94.2916 139.707 94.5053 140.898 93.8156 142.497C93.6218 142.778 93.4708 143.297 93.5135 143.535C93.0574 147.797 91.8917 152.186 91.9087 156.362C91.9058 159.068 92.1394 161.73 91.9 164.478C91.6605 167.225 91.9369 170.126 91.6974 172.874C91.4609 172.916 91.4609 172.916 91.4609 172.916C90.5176 170.381 89.5744 167.845 88.6739 165.548C86.4226 159.806 85.1175 153.893 84.0489 147.938C83.4306 143.131 83.0488 138.283 82.667 133.434C82.3479 130.295 82.2653 127.113 82.2255 124.17C82.0545 123.217 82.1201 122.222 81.7553 121.55C81.0258 120.205 81.2424 118.691 81.5018 117.415C82.0633 115.102 82.6247 112.788 82.7131 110.559C82.6932 109.088 83.3174 108.484 84.4573 108.034C87.1249 106.571 89.7924 105.109 92.4599 103.647C95.1275 102.185 96.2048 100.025 96.4015 97.0389C96.4243 95.8054 96.2533 94.8526 95.6093 93.9847C95.2445 93.3126 94.6432 92.6828 93.697 92.8526C91.9985 92.9115 90.5792 93.1662 89.331 94.3737C87.8889 95.8618 86.4468 97.3499 85.1985 98.5574C85.0047 98.8381 84.5744 99.1612 83.9075 99.5267C84.2324 97.2555 84.3636 95.265 84.9678 93.1896C85.2272 91.9138 86.0024 90.7912 86.7776 89.6686C87.3162 88.5884 88.1341 87.7041 88.6728 86.6239C89.9012 83.9448 91.4088 81.4614 93.1958 79.1738C94.5951 77.4475 95.7579 75.7636 96.5987 73.6457C97.0946 72.3274 97.5477 70.7709 97.012 69.1459C96.348 66.8063 94.242 65.9549 92.3268 67.5279L91.962 66.8557Z" fill="#90A25F"/>
<path d="M115.034 56.3618C118.578 59.3023 121.377 62.8747 122.858 66.9494C123.656 68.7328 124.111 70.7052 124.852 72.7425C125.253 72.2996 125.311 72.0456 125.655 71.8566C126.286 70.3978 126.861 69.1929 127.206 67.6692C128.297 65.5134 129.674 63.4226 132.479 62.991C134.024 62.8077 134.31 62.8726 135.224 64.1481C135.395 64.7209 135.852 65.3587 135.736 65.8666C136.191 67.839 135.73 69.8706 135.327 71.6483C134.349 74.6308 132.857 77.2295 130.564 79.3796C129.36 80.7086 129.072 81.9783 129.241 83.8858C129.864 87.7657 130.202 91.5808 130.825 95.4607C131.109 96.8603 131.049 98.4489 131.275 100.102C133.169 97.0607 134.947 94.5269 136.439 91.9282C137.472 90.0264 138.962 88.7623 140.967 87.882C142.284 87.3798 144 87.7693 144.57 89.2338C144.969 90.1255 145.311 91.2712 145.366 92.3519C145.36 96.3559 143.695 99.7165 140.429 102.18C138.194 104.076 136.245 106.037 134.01 107.933C133.265 108.565 132.748 109.516 132.804 110.597C132.687 112.439 132.569 114.282 132.166 116.059C131.991 118.156 131.472 120.442 131.297 122.538C130.892 125.65 130.772 128.828 130.653 132.005C130.537 132.513 130.708 133.086 130.593 133.594C131.223 133.469 131.566 133.28 131.681 132.773C132.657 131.125 133.976 129.288 134.952 127.64C136.444 125.041 138.222 122.507 139.772 119.655C141.78 116.105 143.847 112.301 145.855 108.752C146.43 107.547 147.004 106.342 147.864 105.202C149.298 102.857 150.447 100.448 151.824 98.3569C152.972 95.9472 153.147 93.8507 151.262 91.5537C150.12 89.9593 149.093 87.8571 147.951 86.2627C146.239 83.2039 144.47 80.399 143.731 77.027C143.447 75.6274 143.221 73.9738 143.509 72.7041C143.857 69.8457 147.75 68.593 150.094 70.1931C151.409 71.0256 152.323 72.301 153.294 73.3226C155.407 75.9384 156.261 78.8025 156.772 81.8557C156.883 84.0171 157.28 86.2435 157.333 88.6589C158.078 88.0269 159.854 86.8277 161.865 81.9434C161.98 81.4355 162.668 81.0574 162.783 80.5495C162.787 77.8802 163.592 75.6595 164.74 73.2498C166.693 68.6194 168.303 64.1781 170.256 59.5478C171.462 56.8841 173.469 54.6692 176.732 53.5406C178.393 52.8494 179.766 53.4279 180.679 54.7034C181.879 56.0438 182.678 57.8272 182.846 59.7347C182.957 61.8961 182.439 64.1817 181.405 66.0835C180.257 68.4932 178.594 70.5191 177.217 72.61C175.497 74.8898 174.005 77.4886 171.484 79.3197C171.484 79.3197 171.426 79.5737 171.025 80.0167C172.284 79.7684 173.486 79.7741 174.459 79.461C175.719 79.2127 176.692 78.8996 177.952 78.6513C179.153 78.657 180.413 78.4088 181.843 78.7334C183.559 79.1229 184.99 79.4474 186.648 80.0909C187.22 80.2207 188.021 80.6694 188.535 81.0532C189.564 81.8208 189.62 82.9015 188.531 83.7226C187.786 84.3546 186.755 84.9217 185.782 85.2349C181.888 86.4875 178.167 86.9783 174.047 86.5774C171.701 86.312 169.012 86.2357 166.666 85.9703C166.094 85.8405 165.406 86.2185 165.005 86.6615C164.202 87.5475 163.686 88.4984 162.941 89.1304C159.959 92.9932 156.919 97.11 154.738 101.421C154.048 103.134 153.359 104.847 152.383 106.495C155.705 105.112 158.682 103.919 161.66 102.725C163.951 101.91 166.184 101.349 168.359 101.041C170.248 100.669 172.077 101.885 172.647 103.35C172.989 104.495 172.357 105.954 170.639 106.899C169.608 107.466 168.634 107.78 167.661 108.093C164.111 109.156 160.333 109.901 156.497 110.9C152.375 111.834 148.709 113.405 146.701 116.955C145.324 119.046 143.719 120.817 142.342 122.908C140.448 125.95 138.497 129.246 136.89 132.352C135.456 134.697 134.536 137.426 133.33 140.089C132.64 141.802 131.951 143.515 131.203 145.482C131.146 145.736 131.031 146.243 131.259 146.562C131.889 146.438 132.461 146.568 133.091 146.444C136.869 145.699 140.647 144.954 144.426 144.21C146.944 143.713 149.463 143.217 151.696 142.655C152.67 142.342 153.929 142.094 154.902 141.781C155.532 141.657 156.22 141.279 156.106 140.452C156.454 137.593 157.66 134.93 158.58 132.201C159.959 128.776 161.396 125.096 164.147 122.249C165.637 120.985 166.899 119.402 168.617 118.457C171.023 117.134 172.968 117.842 173.937 120.198C174.565 121.409 174.505 122.998 174.503 124.332C174.498 127.002 174.208 129.606 172.831 131.697C170.88 134.993 168.53 137.397 164.521 139.157C164.178 139.346 163.834 139.535 163.433 139.978C163.719 140.043 163.947 140.362 164.233 140.427C169.555 140.833 174.072 143.461 178.589 146.088C179.904 146.921 180.074 147.493 179.214 148.633C178.412 149.519 177.667 150.151 176.407 150.4C173.946 150.642 171.256 150.566 168.853 150.554C168.567 150.489 168.567 150.489 168.28 150.424C165.307 148.949 161.932 147.916 159.417 145.743C158.674 145.04 158.045 145.164 157.415 145.288C154.896 145.785 152.606 146.6 150.087 147.097C147.568 147.593 145.049 148.09 142.53 148.586C141.9 148.71 141.271 148.834 140.927 149.023L140.869 149.277C141.727 149.472 142.528 149.921 143.444 149.862C146.648 150.322 149.335 151.733 152.367 152.955C155.684 154.242 156.653 156.598 156.591 159.521C156.647 160.602 156.188 161.299 155.214 161.612C154.241 161.925 153.325 161.984 152.525 161.536C151.496 160.768 150.352 160.508 149.323 159.741C147.95 159.162 146.577 158.584 145.263 157.751C142.69 155.832 139.659 154.61 136.971 153.199C135.084 152.237 133.253 152.355 131.421 152.474C130.792 152.598 130.104 152.976 129.645 153.673C128.843 154.559 128.04 155.445 127.466 156.65C124.539 161.593 121.555 166.791 118.915 171.799C118.34 173.004 117.423 174.398 117.649 176.052C118.221 176.181 118.565 175.992 118.851 176.057C120.454 175.62 122.115 174.929 123.718 174.491C127.325 173.174 131.048 171.348 134.826 170.604C138.948 169.67 143.126 169.817 147.532 170.283C150.45 170.678 152.508 172.213 152.619 174.375C153.016 176.601 151.581 178.946 149.005 179.696C148.031 180.009 147.058 180.322 145.856 180.317C144.597 180.565 143.109 180.494 141.907 180.489C141.621 180.424 140.991 180.548 140.362 180.672C143.162 182.91 143.845 185.201 144.127 187.935C144.125 189.27 143.837 190.54 142.462 191.296C141.088 192.052 139.6 191.981 137.999 191.084C136.684 190.252 135.369 189.419 134.398 188.398C132.969 186.738 131.541 185.079 130.113 183.42C128.457 181.442 126.627 180.225 123.995 179.895C122.851 179.635 121.592 179.884 120.39 179.878C117.414 179.737 115.751 181.763 114.718 183.664C113.053 187.025 111.96 190.515 110.581 193.941C108.801 197.809 98.3457 222.674 96.5654 226.543C95.3636 226.537 93.1329 225.764 91.9887 225.504C89.1283 224.855 94.5822 214.076 95.7327 210.332C96.9985 206.079 105.793 181.906 106.773 177.589C107.234 175.557 107.409 173.461 107.641 171.11C108.107 166.409 108.228 161.897 107.549 156.937C107.381 155.029 107.212 153.122 107.043 151.214C106.819 148.226 106.595 145.238 106.371 142.249C106.145 140.596 105.517 139.385 104.26 138.299C101.973 136.445 99.7448 134.337 97.1149 132.672C92.4848 129.218 88.5996 125.132 85.4019 120.668C84.4882 119.392 84.1467 118.246 84.1488 116.912C84.2085 115.323 85.0111 114.437 86.7274 114.827C87.9292 114.832 89.3595 115.157 90.6744 115.989C94.1048 118.103 97.134 120.66 99.4181 123.848C101.017 126.081 102.674 128.059 104.33 130.037L104.674 129.848C104.731 129.594 104.789 129.34 104.847 129.086C104.906 127.497 105.252 125.974 105.026 124.32C104.919 119.489 107.329 115.497 111.282 112.655C113.058 111.456 114.89 111.338 116.835 112.046C118.207 112.625 119.063 114.154 119.347 115.554C119.398 119.304 118.592 122.859 116.641 126.155C115.148 128.753 113.428 131.033 111.707 133.313C110.446 134.896 110.158 136.166 110.956 137.949C111.185 138.268 111.355 138.841 111.298 139.095C111.748 143.737 113.057 148.573 112.935 153.085C112.873 156.008 112.525 158.867 112.75 161.855C112.974 164.843 112.568 167.956 112.792 170.944C113.078 171.009 113.078 171.009 113.078 171.009C114.284 168.345 115.491 165.682 116.639 163.272C119.51 157.248 121.237 150.964 122.678 144.615C123.544 139.471 124.125 134.262 124.705 129.053C125.169 125.687 125.346 122.256 125.465 119.078C125.696 118.062 125.64 116.982 126.099 116.285C127.017 114.891 126.791 113.237 126.507 111.838C125.881 109.293 125.256 106.747 125.202 104.332C125.262 102.743 124.519 102.041 123.147 101.462C119.945 99.6673 116.743 97.8725 113.541 96.0777C110.339 94.2829 109.083 91.8618 108.917 88.6196C108.919 87.2849 109.15 86.2691 109.952 85.3831C110.411 84.6862 111.156 84.0541 112.3 84.3138C114.36 84.5143 116.076 84.9038 117.562 86.3091C119.276 88.0332 120.991 89.7574 122.476 91.1627C122.705 91.4816 123.219 91.8654 124.02 92.3141C123.68 89.8337 123.569 87.6723 122.886 85.381C122.602 83.9814 121.688 82.7059 120.775 81.4305C120.147 80.2199 119.176 79.1984 118.548 77.9878C117.122 74.9939 115.353 72.189 113.239 69.5731C111.583 67.595 110.212 65.6818 109.243 63.3256C108.673 61.8611 108.161 60.1426 108.85 58.4298C109.713 55.9552 112.289 55.2048 114.575 57.0588L115.034 56.3618Z" fill="#90A25F"/>
</g>
<defs>
<clipPath id="clip0">
<rect width="200" height="400" fill="white"/>
</clipPath>
</defs>
</svg>
