<svg width="600" height="600" viewBox="0 0 600 600" fill="none" xmlns="http://www.w3.org/2000/svg">
<g clip-path="url(#clip0)">
<path d="M173.723 116.282C166.837 115.628 160.292 117.225 153.817 122.789C128.256 145.097 110.674 176.583 98.8898 215.582C96.7101 222.706 94.5303 229.831 92.6914 237.01C92.0102 239.099 91.6018 241.671 91.6024 243.868C91.0604 256.087 93.1769 266.97 97.2022 276.837C105.185 297.001 114.462 315.613 123.808 333.796C130.22 346.24 137.518 357.507 145.77 367.167C152.249 374.787 159.751 380.373 169.091 380.977C173.932 381.306 179.046 382.118 183.819 382.876C192.682 384.283 201.681 380.439 210.475 377.88C211.907 377.668 213.338 375.258 214.292 373.652C220.969 355.816 227.986 338.033 234.39 319.714C240.726 301.823 243.38 282.909 244.261 264.152C244.871 251.505 246.504 239.02 247.455 226.427C248.067 220.372 248.611 214.745 248.473 209.01C248.403 205.044 247.72 200.541 246.901 196.895C242.123 174.164 242.123 174.164 229.233 160.691C221.799 152.48 214.365 144.268 206.455 136.86C197.93 128.914 188.452 122.575 178.633 118.379C177.337 117.734 175.632 117.464 174.269 117.247L173.723 116.282Z" fill="#2B3545"/>
<path d="M414.739 129.243C421.884 129.974 428.228 133.007 433.7 140.208C455.23 168.998 466.78 205.817 470.91 249.361C471.692 257.321 472.474 265.282 472.897 273.229C473.17 275.572 473.066 278.368 472.622 280.684C470.708 293.677 466.355 304.714 460.264 314.287C448.063 333.899 434.857 351.608 421.669 368.851C412.626 380.648 402.919 391.02 392.564 399.503C384.427 406.201 375.66 410.543 366.024 409.254C361.028 408.602 355.656 408.404 350.642 408.219C341.33 407.875 332.941 401.966 324.501 397.455C323.086 396.936 322.115 394.101 321.467 392.211C318.268 372.03 314.71 351.836 311.886 331.203C309.044 311.035 310.16 290.547 313.049 270.591C314.98 257.132 315.837 243.633 317.411 230.161C318.01 223.651 318.592 217.607 319.89 211.589C320.761 207.422 322.366 202.816 323.936 199.141C333.392 176.162 333.392 176.162 349.239 164.616C358.468 157.492 367.696 150.368 377.249 144.188C387.535 137.57 398.468 132.841 409.315 130.443C410.765 130.029 412.556 130.096 413.988 130.149L414.739 129.243Z" fill="#2B3545"/>
<path d="M412.189 356.398C413.273 385.245 406.23 412.751 400.813 439.586C393.229 477.825 382.936 514.723 373.727 552.291C369.935 567.721 361.809 579.126 353.141 589.86C349.891 593.885 346.641 595.227 341.765 593.885C298.969 582.48 255.631 572.417 215.002 552.291C197.125 543.57 182.498 528.811 166.788 516.065C162.996 512.71 159.746 508.685 155.412 506.002C146.744 500.635 143.494 491.242 143.494 480.509C142.952 450.99 142.411 422.143 142.411 392.625C142.411 390.612 142.952 388.6 142.411 386.587C140.785 340.968 149.453 297.362 155.412 252.414C159.204 225.579 163.538 198.744 168.413 171.91C171.664 153.125 180.331 137.695 189.541 122.936C192.791 117.569 197.125 115.557 202.542 115.557C220.419 114.886 237.754 112.873 255.631 112.202C258.881 112.202 262.673 112.202 265.382 114.215C288.676 128.974 311.428 143.733 334.181 158.492C356.392 172.58 370.476 196.061 384.019 220.883C399.188 248.388 403.522 279.919 408.397 311.45C410.564 326.209 411.106 340.968 412.731 355.727L412.189 356.398Z" fill="#FBEDBA"/>
<path d="M285.945 431.747C280.621 431.747 276.296 431.082 272.303 430.417C260.657 428.088 260.324 425.094 261.323 414.448V414.115C262.654 395.152 263.652 375.856 264.317 357.226C264.65 349.574 264.983 341.922 265.315 334.271C266.314 315.973 265.315 298.008 262.986 281.374C261.323 270.395 259.992 268.732 256.997 268.732C254.668 268.732 251.008 269.73 247.348 270.395C235.037 273.722 222.725 277.714 210.747 281.374C204.092 283.37 197.437 285.366 190.783 287.362C189.119 287.695 187.788 288.027 185.792 288.027C185.126 288.027 184.128 288.027 183.462 288.36L180.801 288.693V286.031C181.133 278.712 186.124 277.049 189.119 276.051H189.452C198.436 273.056 207.752 270.062 217.401 267.401C230.045 263.741 241.691 260.747 252.672 257.753C255.666 257.088 257.995 256.755 259.659 256.755C266.314 257.088 268.643 262.078 270.307 267.734C272.968 277.049 274.299 285.366 274.632 293.35C275.298 311.315 275.298 330.944 274.965 355.23C274.632 368.537 274.299 382.177 273.634 395.485C273.301 401.14 273.301 406.796 272.968 412.452C272.636 419.105 272.636 419.105 279.29 419.438C281.952 419.771 284.947 419.771 288.607 419.771C290.936 419.771 293.598 419.771 295.927 419.771C298.589 419.771 301.251 419.771 303.913 420.103H306.242V422.432C306.242 426.757 306.242 429.086 304.578 430.417C302.915 431.747 300.918 431.747 298.256 431.747C296.593 431.747 294.929 431.747 293.265 431.747C290.603 431.747 287.942 431.747 285.28 431.747H285.945Z" fill="#2B3545"/>
<path d="M228.147 331.08C222.981 334.536 217.24 336.84 210.925 337.704C206.332 338.568 201.74 338.856 197.434 338.856C196.86 338.856 196.573 338.856 195.999 338.856C198.008 338.568 199.73 337.704 201.74 335.976C205.471 333.384 206.906 330.216 206.332 326.184C205.471 321.863 203.175 318.983 199.156 317.543C197.434 316.967 195.999 316.679 194.564 316.679C191.119 316.679 187.962 318.407 185.092 321.863C182.508 325.032 181.647 328.776 182.795 331.944C183.943 335.112 186.814 337.416 189.971 337.992C190.832 338.28 191.406 338.28 191.98 338.568C187.388 338.28 183.082 337.704 179.064 336.552C177.054 335.976 175.045 335.112 173.036 334.248L171.027 333.384C167.582 331.944 163.277 329.928 158.684 327.624C165.86 319.847 175.619 316.103 189.684 315.815H190.258C193.129 315.815 196.286 316.391 199.156 316.967C200.018 317.255 200.879 317.255 201.74 317.543C206.906 318.407 212.073 319.559 217.814 320.999C222.694 322.151 227.86 323.879 231.879 327.624C230.731 329.064 229.295 329.928 227.86 331.08H228.147ZM192.555 330.504C191.693 330.216 191.119 329.928 191.119 329.64C191.119 329.352 191.119 328.776 191.693 327.912C192.842 326.472 193.99 325.608 195.712 325.608C195.999 325.608 196.286 325.608 196.573 325.608C197.434 325.608 198.008 326.184 198.295 326.76C198.582 327.624 198.582 328.2 197.721 329.064C196.573 330.216 195.425 330.504 194.277 330.504C193.703 330.504 193.129 330.504 192.842 330.216L192.555 330.504ZM241.638 321.575C240.49 320.711 239.342 319.847 238.194 318.695C235.897 316.679 233.601 314.663 230.444 313.511C230.444 313.511 230.444 305.734 230.444 304.582C230.444 304.582 230.444 304.294 230.444 304.006C230.444 303.142 230.731 301.702 230.157 300.55C229.87 299.974 229.008 299.11 227.286 298.822C226.999 298.822 226.999 298.822 226.712 298.822C224.99 298.822 222.694 299.398 221.832 300.838C221.258 301.702 220.971 302.566 220.971 302.854C220.684 305.158 220.684 307.75 220.397 310.055C218.101 309.479 215.518 308.614 213.221 308.038C212.934 308.038 212.934 308.038 212.647 308.038C212.934 306.598 212.934 306.31 212.934 306.022L213.221 305.446C213.795 303.718 214.944 301.414 214.944 298.534C214.944 297.094 213.795 295.942 212.36 295.654L211.212 295.366C210.925 295.366 210.638 295.366 210.351 295.366C209.49 295.366 208.629 295.654 208.055 296.518L207.481 297.094C206.332 298.246 204.323 302.278 204.323 302.278L203.462 304.294C203.175 304.87 202.888 305.734 202.601 306.022C202.027 306.022 200.879 305.734 200.305 305.734L200.018 306.598L199.73 305.446C198.582 305.158 197.434 305.158 196.573 305.158C194.564 304.87 193.416 304.582 192.842 304.294C192.555 302.278 191.98 298.246 191.693 297.382C191.693 296.806 191.693 295.654 190.832 294.79C190.258 294.214 189.11 293.926 187.962 293.926C186.527 293.926 183.943 294.502 182.795 295.654C182.221 296.23 181.934 296.806 181.934 297.382C181.934 299.974 182.221 302.278 182.221 305.158C180.499 305.446 179.064 305.734 177.341 306.31C177.054 306.31 177.054 306.31 176.767 306.31C176.767 306.31 176.767 306.022 176.767 305.734C176.767 305.446 176.767 304.87 176.48 304.294C176.48 303.718 176.193 301.414 175.906 299.398C175.619 297.382 173.897 295.654 171.888 295.654C171.601 295.654 171.314 295.654 171.027 295.654L168.443 296.23C167.008 296.518 165.86 297.67 165.86 299.11L164.999 308.903L152.369 317.831C149.212 318.983 146.341 324.455 146.341 327.624C146.341 331.368 148.351 334.536 152.369 336.264C155.527 337.704 158.397 338.856 161.554 340.296C163.851 341.449 166.147 342.313 168.443 343.465C170.74 344.617 173.036 345.193 175.045 345.769C183.369 347.785 190.832 348.649 198.582 348.649C201.74 348.649 204.897 348.361 208.055 348.073C219.249 346.633 228.434 343.177 236.184 337.128C238.481 335.112 240.777 332.808 242.212 330.504C243.36 328.776 244.508 323.303 241.351 320.999L241.638 321.575Z" fill="#2B3545"/>
<path d="M388.188 331.08C383.021 334.536 377.28 336.84 370.965 337.704C366.373 338.568 361.78 338.856 357.474 338.856C356.9 338.856 356.613 338.856 356.039 338.856C358.049 338.568 359.771 337.704 361.78 335.976C365.512 333.384 366.947 330.216 366.373 326.184C365.512 321.863 363.215 318.983 359.197 317.543C357.474 316.967 356.039 316.679 354.604 316.679C351.16 316.679 348.002 318.407 345.132 321.863C342.548 325.032 341.687 328.776 342.835 331.944C343.984 335.112 346.854 337.416 350.011 337.992C350.873 338.28 351.447 338.28 352.021 338.568C347.428 338.28 343.123 337.704 339.104 336.552C337.095 335.976 335.085 335.112 333.076 334.248L331.067 333.384C327.622 331.944 323.317 329.928 318.724 327.624C325.9 319.847 335.66 316.103 349.724 315.815H350.298C353.169 315.815 356.326 316.391 359.197 316.967C360.058 317.255 360.919 317.255 361.78 317.543C366.947 318.407 372.113 319.559 377.854 320.999C382.734 322.151 387.901 323.879 391.919 327.624C390.771 329.064 389.336 329.928 387.901 331.08H388.188ZM352.595 330.504C351.734 330.216 351.16 329.928 351.16 329.64C351.16 329.352 351.16 328.776 351.734 327.912C352.882 326.472 354.03 325.608 355.752 325.608C356.039 325.608 356.326 325.608 356.613 325.608C357.474 325.608 358.049 326.184 358.336 326.76C358.623 327.624 358.623 328.2 357.761 329.064C356.613 330.216 355.465 330.504 354.317 330.504C353.743 330.504 353.169 330.504 352.882 330.216L352.595 330.504ZM401.678 321.575C400.53 320.711 399.382 319.847 398.234 318.695C395.938 316.679 393.641 314.663 390.484 313.511C390.484 313.511 390.484 305.734 390.484 304.582C390.484 304.582 390.484 304.294 390.484 304.006C390.484 303.142 390.771 301.702 390.197 300.55C389.91 299.974 389.049 299.11 387.326 298.822C387.039 298.822 387.039 298.822 386.752 298.822C385.03 298.822 382.734 299.398 381.873 300.838C381.299 301.702 381.012 302.566 381.012 302.854C380.725 305.158 380.725 307.75 380.438 310.055C378.141 309.479 375.558 308.614 373.262 308.038C372.975 308.038 372.975 308.038 372.687 308.038C372.975 306.598 372.975 306.31 372.975 306.022L373.262 305.446C373.836 303.718 374.984 301.414 374.984 298.534C374.984 297.094 373.836 295.942 372.4 295.654L371.252 295.366C370.965 295.366 370.678 295.366 370.391 295.366C369.53 295.366 368.669 295.654 368.095 296.518L367.521 297.094C366.373 298.246 364.363 302.278 364.363 302.278L363.502 304.294C363.215 304.87 362.928 305.734 362.641 306.022C362.067 306.022 360.919 305.734 360.345 305.734L360.058 306.598L359.771 305.446C358.623 305.158 357.474 305.158 356.613 305.158C354.604 304.87 353.456 304.582 352.882 304.294C352.595 302.278 352.021 298.246 351.734 297.382C351.734 296.806 351.734 295.654 350.873 294.79C350.298 294.214 349.15 293.926 348.002 293.926C346.567 293.926 343.984 294.502 342.835 295.654C342.261 296.23 341.974 296.806 341.974 297.382C341.974 299.974 342.261 302.278 342.261 305.158C340.539 305.446 339.104 305.734 337.382 306.31C337.095 306.31 337.095 306.31 336.808 306.31C336.808 306.31 336.808 306.022 336.808 305.734C336.808 305.446 336.808 304.87 336.521 304.294C336.521 303.718 336.234 301.414 335.947 299.398C335.66 297.382 333.937 295.654 331.928 295.654C331.641 295.654 331.354 295.654 331.067 295.654L328.484 296.23C327.048 296.518 325.9 297.67 325.9 299.11L325.039 308.903L312.409 317.831C309.252 318.983 306.382 324.455 306.382 327.624C306.382 331.368 308.391 334.536 312.409 336.264C315.567 337.704 318.437 338.856 321.595 340.296C323.891 341.449 326.187 342.313 328.484 343.465C330.78 344.617 333.076 345.193 335.085 345.769C343.41 347.785 350.873 348.649 358.623 348.649C361.78 348.649 364.937 348.361 368.095 348.073C379.289 346.633 388.475 343.177 396.225 337.128C398.521 335.112 400.817 332.808 402.252 330.504C403.401 328.776 404.549 323.303 401.391 320.999L401.678 321.575Z" fill="#2B3545"/>
<path d="M345.428 287.202C315.635 307.431 304.692 303.157 309.795 342.362C309.795 361.565 342.011 378.25 368.697 370.812C399.829 362.135 401.125 354.727 401.125 333.074C399.829 295.806 364.799 287.202 345.428 287.202ZM348.018 388.917C337.656 386.331 327.294 385.038 318.227 379.865C294.912 368.226 285.845 346.241 293.617 320.377C301.388 294.513 320.818 278.994 345.428 269.942C348.018 268.648 350.609 267.355 351.904 268.648C372.779 268.648 385.581 284.167 399.829 295.806C412.782 307.445 417.963 324.257 416.668 342.362C415.373 355.294 410.192 363.053 401.125 370.812C385.581 382.451 368.743 387.624 348.018 388.917Z" fill="#6F8F9A"/>
<path d="M235.937 349.064C243.644 316.705 250.458 318.679 222.545 295.121C210.576 282.024 178.212 290.717 164.652 312.416C148.833 337.732 152.566 343.591 166.061 358.359C190.171 382.97 222.729 361.133 235.937 349.064ZM167.468 287.184C176.145 282.492 184.017 276.918 193.423 274.797C216.573 268.208 236.457 277.553 247.277 300.035C258.098 322.517 258.106 328.449 246.755 348.806C241.485 358.257 232.314 374.365 223.33 376.63C215.708 380.386 207.139 382.03 190.171 382.97C174.085 383.102 160.075 374.864 149.675 361.709C142.498 352.082 141.195 343.562 142.542 332.621C145.886 314.998 154.143 300.979 167.468 287.184Z" fill="#6F8F9A"/>
<path d="M241.906 322.91C246.874 322.91 246.2 321.804 253.643 321.804C261.087 321.804 256.793 323.629 265.095 323.463C273.397 323.297 268.742 323.463 270.821 323.463C273.113 323.463 275.677 322.91 277.978 322.91C279.864 322.91 280.907 324.016 282.845 324.016C285.878 324.016 289 321.804 292.292 321.804C294.85 321.804 297.509 323.463 300.309 323.463C301.43 323.463 302.575 322.91 303.744 322.91L304.317 327.335L303.171 330.654L304.317 333.696L303.744 336.738L299.736 336.185L298.591 337.291L294.296 336.185L287.998 335.632L285.135 336.185L282.845 336.738L277.978 336.185L271.68 336.738L269.389 336.185H265.668H261.946H258.224L255.647 336.738L250.208 336.185H246.057L241.906 336.738L241.333 334.526L242.478 332.313C242.478 332.313 241.333 329.271 241.333 327.612C241.333 325.952 243.337 329.271 242.478 325.261C241.619 321.25 241.906 322.91 241.906 322.91Z" fill="#6F8F9A"/>
<path d="M223.985 109.193C226.33 103.388 230.444 98.8217 237.9 96.0123C267.626 85.0715 301.79 84.4693 339.896 91.7406C346.869 93.0474 353.842 94.3542 360.717 95.9578C362.779 96.3072 365.137 97.0827 367.004 98.0256C377.616 102.831 385.974 109.197 392.664 116.659C406.438 131.713 418.347 147.139 429.863 162.436C437.737 172.919 444.238 183.607 448.971 194.371C452.718 202.838 454.305 211.252 450.884 219.006C449.125 223.031 447.661 227.483 446.295 231.637C443.757 239.353 436.699 244.924 430.82 250.882C430.037 251.94 427.386 252.055 425.619 252.132C407.649 249.838 389.581 247.842 371.315 245.123C353.442 242.533 336.25 236.55 319.939 229.212C308.933 224.277 297.635 220.233 286.533 215.594C281.129 213.488 276.118 211.511 271.303 208.941C267.961 207.184 264.422 204.705 261.669 202.484C244.364 188.9 244.364 188.9 238.344 172.78C234.496 163.293 230.649 153.807 227.685 144.282C224.524 134.034 223.129 123.71 223.7 114.032C223.697 112.716 224.185 111.232 224.576 110.045L223.985 109.193Z" fill="#2B3545"/>
<path d="M360.278 164.895C383.273 172.017 397.932 197.286 420.627 200.626C441.354 203.814 464.517 188.397 478.448 174.64C513.578 140.171 521.028 90.1079 487.767 52.1232C459.192 20.0402 392.786 -9.03801 354.029 18.6219C315.122 45.6767 306.574 148.076 360.278 164.895Z" fill="#2B3545"/>
<path d="M459.187 163.443C455.87 164.893 452.761 166.344 449.445 168.001C453.176 170.902 457.321 172.56 461.259 175.046C459.808 177.74 458.565 180.226 457.321 182.92C453.383 182.505 449.445 182.091 445.092 181.469C447.165 185.821 449.03 189.55 450.896 193.487C448.823 195.559 446.75 197.631 444.47 199.703C441.154 197.631 437.837 195.559 434.521 193.28C434.107 194.937 433.692 196.388 433.485 197.838C432.863 200.739 432.241 203.64 431.827 206.541C431.619 207.577 431.205 208.198 430.168 208.613C424.572 211.099 424.365 210.892 420.841 205.919C420.012 204.676 419.183 203.433 417.939 201.775C416.903 203.433 416.074 204.676 415.452 205.919C414.416 207.784 413.379 209.649 412.343 211.514C411.928 212.55 411.307 212.964 410.27 213.171C408.612 213.378 407.161 213.586 405.088 213.793C404.259 209.442 403.43 205.09 402.394 200.532C398.456 202.811 394.932 205.09 391.408 207.37C389.336 206.541 387.885 204.883 386.434 203.225C386.019 202.811 386.227 201.775 386.434 201.153C387.47 198.667 388.507 196.181 389.543 193.487C389.957 192.658 390.165 191.829 390.579 190.586C388.714 191.001 387.263 191.208 385.812 191.622C383.532 192.244 381.459 192.865 379.179 193.487C377.314 193.901 376.277 193.487 375.656 192.037C374.619 189.343 373.79 186.442 372.754 183.541C372.339 182.298 373.168 181.676 373.997 181.055C376.485 179.19 378.765 177.325 381.252 175.46C381.667 175.253 381.874 174.839 382.288 174.424C378.35 172.767 374.412 173.388 370.474 174.632C369.437 171.731 369.23 169.037 369.437 166.136C369.645 164.893 370.888 164.686 371.717 164.271C374.412 163.028 376.899 161.785 380.008 160.335C377.314 157.641 373.997 156.398 371.51 153.911C372.961 149.56 374.412 145.416 375.863 141.065C379.594 140.65 382.91 142.308 386.641 142.308C385.605 140.443 384.776 138.786 383.947 137.128C382.288 134.02 381.667 134.434 384.983 131.534C387.677 129.047 390.579 127.182 394.103 125.939C395.347 125.525 396.176 125.318 397.212 126.561C398.87 128.218 400.528 129.669 402.394 131.326C402.808 131.741 403.43 132.155 404.467 132.777C404.674 129.254 404.881 126.354 405.088 123.245C406.747 122.209 408.612 122.831 410.27 122.624C413.794 122.209 416.281 123.038 417.317 126.975C417.732 128.426 418.768 129.876 419.39 131.534C423.328 130.29 426.023 127.597 429.339 125.525C430.997 126.354 432.448 127.182 434.314 128.011C433.899 130.705 433.485 133.191 433.07 135.885C433.07 136.299 432.863 136.714 432.863 137.128C432.448 139.407 433.899 140.443 435.972 139.614C438.874 138.371 441.568 136.921 444.263 135.678C446.543 134.642 447.372 134.849 448.823 136.921C450.481 139.407 451.932 142.101 453.59 144.794C451.725 147.281 449.652 149.56 447.579 152.461C449.652 153.083 451.518 153.704 453.383 154.326C458.979 156.191 457.943 154.74 459.187 160.542C459.394 161.371 459.394 161.992 459.601 163.028L459.187 163.443Z" fill="#F3F2F3"/>
<path d="M423.521 160.748C421.656 158.469 419.376 156.189 416.888 154.532C414.194 152.667 411.085 152.874 408.183 154.325C406.939 154.946 405.696 155.775 404.452 156.604C399.27 160.126 398.648 166.964 403.001 171.315C404.659 172.973 406.732 174.423 408.597 175.874C409.426 176.495 410.67 176.495 411.706 176.91C415.645 178.153 423.314 172.973 424.557 168.414C425.179 165.721 425.179 163.027 423.314 160.955L423.521 160.748Z" fill="#F1A43E"/>
<path d="M302.288 488.896C299.396 489.206 296.793 489.827 294.191 489.827C290.142 489.827 285.515 490.448 281.177 493.863C280.02 494.794 278.285 495.105 277.129 495.105C276.55 495.105 276.261 495.105 275.972 494.794C271.345 492.621 266.429 491.379 261.802 491.379C257.753 491.379 253.704 492.311 249.366 493.863C250.812 492.311 252.258 490.759 253.704 489.206C256.596 486.102 259.199 484.55 262.091 484.55C263.826 484.55 266.139 485.171 268.453 486.413C270.477 487.654 272.791 488.896 275.104 490.138C276.261 490.759 277.418 491.379 278.575 491.379C280.31 491.379 281.756 490.448 282.912 488.896C284.937 486.102 287.25 484.55 290.72 484.55C292.745 484.55 295.347 485.171 297.372 485.792L298.239 486.102C300.264 486.723 302.288 487.033 304.023 488.586C303.734 488.586 303.445 488.586 302.866 488.586L302.288 488.896ZM308.65 501.003C303.445 507.522 291.588 511.557 277.707 511.557C266.718 511.557 256.596 509.074 249.366 504.728C251.391 504.107 253.126 503.797 254.861 503.486C258.331 502.555 260.645 502.245 263.248 502.245C265.85 502.245 268.164 502.865 270.477 504.107C272.791 505.349 274.815 505.97 277.129 505.97C279.731 505.97 282.623 505.038 285.515 503.176C289.564 500.692 294.191 499.451 299.974 499.451C301.42 499.451 303.156 499.451 304.891 499.761C306.047 499.761 307.493 500.692 308.939 501.313C308.939 501.313 308.939 501.313 309.229 501.313L308.65 501.003ZM273.369 522.112C276.839 522.112 280.888 521.802 284.647 521.181C291.877 519.939 301.131 518.076 309.807 512.799L310.674 512.178C312.699 510.937 322.242 500.071 322.82 496.657C323.399 493.552 320.796 492 318.193 488.275C311.542 478.031 303.445 475.858 290.431 475.858C288.985 475.858 287.539 475.858 286.093 475.858C284.358 475.858 282.334 477.1 280.888 478.341C279.442 479.583 278.285 480.204 276.839 480.204C275.393 480.204 273.947 479.583 272.212 478.341C268.742 475.858 265.561 474.616 262.38 474.616C260.934 474.616 259.488 474.927 257.753 475.548C254.572 476.789 251.969 478.341 249.656 479.894C247.053 482.067 240.402 488.896 237.51 491.069L237.221 491.379C234.907 493.242 232.015 495.415 233.461 500.382L233.75 501.313L234.329 501.624C236.064 502.555 240.402 507.211 241.848 508.453C249.945 516.214 263.537 523.043 273.658 521.802L273.369 522.112Z" fill="#2B3545"/>
<path d="M180.265 104.478C190.197 100.467 200.895 100.145 211.11 99.1997C225.647 97.7945 240.126 97.7284 254.676 97.1102C260.653 96.8605 265.88 98.9839 270.954 101.424C272.858 102.34 273.821 103.584 274.093 105.863C276.609 125.818 279.676 145.844 278.81 165.93C278.476 174.752 275.534 182.905 273.462 191.281C272.864 193.337 271.95 195.24 271.67 197.449C271.109 201.866 268.316 204.428 264.559 205.745C254.31 209.603 244.296 213.379 233.965 217.002C233.261 217.249 232.474 217.261 231.852 217.743C216.133 224.047 199.553 225.641 182.915 228.574C172.946 230.224 162.895 231.639 152.762 232.818C145.693 233.715 138.975 231.85 132.409 229.669C130.036 228.918 128.673 227.286 127.849 224.938C124.896 217.269 121.556 210 118.603 202.331C118.109 200.922 117.532 199.278 117.825 197.856C119.448 185.945 121.154 174.268 122.86 162.592C124.414 151.232 130.49 142.243 137.119 133.325C144.439 123.372 154.816 117.623 165.11 111.639C169.946 108.888 175.03 106.841 179.948 104.325L180.265 104.478Z" fill="#2B3545"/>
</g>
<defs>
<clipPath id="clip0">
<rect width="600" height="600" fill="white"/>
</clipPath>
</defs>
</svg>
