<svg width="460" height="600" viewBox="0 0 460 600" fill="none" xmlns="http://www.w3.org/2000/svg">
<g clip-path="url(#clip0)">
<g filter="url(#filter0_d)">
<rect x="22" y="24" width="416" height="552" fill="#F4F8F7"/>
</g>
<g opacity="0.7" filter="url(#filter1_d)">
<path d="M193.026 9.52752C195.267 9.52738 197.497 9.46053 199.324 8.70447C201.714 7.72603 203.965 7.79259 206.321 7.57011C208.531 7.36986 210.772 7.36972 213.098 6.94713C214.412 6.74694 216.078 6.90247 217.161 7.14698C218.411 7.50264 219.599 7.45809 220.913 7.25791C222.675 7.05769 223.883 7.14655 225.143 7.56891C225.778 7.81344 226.694 7.94678 227.59 7.94673C229.247 8.03556 230.904 8.12438 232.027 8.63569C232.35 8.7913 233.1 8.81349 233.704 8.85792C235.799 8.88002 237.768 9.05776 239.078 9.81363C240.545 10.6139 242.67 10.8361 245.192 10.7248C245.932 10.6803 246.818 10.6135 247.538 10.4356C249.426 10.0798 251.083 10.1686 252.739 10.2574C253.198 10.3241 253.802 10.3685 254.23 10.2351C256.379 9.63466 258.64 9.76791 260.83 9.43427C263.312 9.05614 264.54 9.2784 265.297 10.3233C265.66 10.7458 266.315 11.1237 266.824 11.5239C267.51 12.1019 268.634 12.6132 268.881 13.258C269.159 14.1028 270.032 14.9254 269.298 15.9927C269.162 16.0816 269.339 16.2595 269.349 16.3262C269.582 17.8603 268.92 19.3945 269.008 20.9508C269.069 21.351 269.276 21.729 269.337 22.1292C269.418 22.6628 269.655 23.2408 269.737 23.7744C269.798 24.1746 269.869 24.6415 270.222 24.9973C271.487 26.4424 270.17 27.5986 266.656 28.0657C265.342 28.2659 264.33 28.4883 263.193 28.8664C262.629 29.0888 261.733 29.0888 260.993 29.1333C260.107 29.2001 259.054 29.1557 258.178 29.2891C255.238 29.6006 252.318 30.0455 249.535 30.4014C248.805 30.5126 248.054 30.4904 247.294 30.4015C245.627 30.246 244.096 30.0015 242.293 29.9349C241.241 29.8905 239.927 30.0907 238.925 30.3798C237.486 30.7356 236.182 31.0025 234.953 30.7803C233.724 30.558 232.556 30.736 231.273 31.1362C230.125 31.4476 228.957 31.6255 227.643 31.8257C227.206 31.8925 226.747 31.8258 226.319 31.9592C223.033 32.9377 220.137 32.5599 217.02 32.6935C216.426 32.7158 215.842 32.8048 215.258 32.8937C213.934 33.0272 212.61 33.1607 211.422 33.2052C208.889 33.2499 206.564 33.6725 204.289 34.4286C203.151 34.8066 202.14 35.029 200.805 35.0958C199.325 35.1848 197.875 35.4739 196.426 35.7631C195.122 36.03 194.497 35.8521 194.114 35.2963C192.818 33.6511 192.251 31.8947 191.967 30.0271C191.814 29.0266 191.224 28.0928 191.363 27.0478C191.547 25.3135 191.147 23.6683 192.217 21.8673C192.689 21.0446 192.421 20.2664 192.446 19.4438C192.52 18.9546 192.303 18.51 192.378 18.0208C192.623 16.6868 193.15 15.2416 193.249 13.9298C193.303 13.3072 192.92 12.7514 192.546 12.2623C191.966 11.3952 191.688 10.5504 193.318 9.48303L193.026 9.52752Z" fill="#DBEFEE"/>
</g>
<path d="M340.575 337.388C355.708 342.353 369.374 332.588 382.109 323.56C396.689 313.322 403.336 302.838 410.671 285.215C422.962 255.935 428.235 225.937 419.452 194.77C414.976 178.781 411.259 164.705 396.548 160.033C384.002 156.033 364.311 156.629 352.206 162.77C339.644 169.147 333.2 179.909 330.639 195.445C327.685 213.616 334.903 228.185 337.076 245.621C339.916 269.754 310.292 327.724 340.54 337.918L340.575 337.388Z" fill="#2B3545"/>
<path d="M325.107 123.052C315.028 115.546 303.998 111.135 290.484 111.658C236.912 114.151 189.52 135.674 146.067 172.06C138.087 178.681 130.107 185.303 122.613 192.322C120.209 194.223 117.906 196.981 116.471 199.678C107.663 214.145 103.783 229.561 103.48 245.589C102.488 278.105 104.486 309.977 106.868 341.389C108.523 362.903 112.299 383.833 118.58 403.722C123.488 419.381 131.285 433.538 145.142 443.373C152.313 448.489 159.584 454.464 166.371 460.04C178.976 470.396 195.217 474.439 210.307 479.86C212.63 480.993 216.387 479.43 218.892 478.387C240.73 462.998 263.052 448.008 284.789 431.761C306.142 415.974 322.546 395.346 336.142 373.186C345.334 358.259 355.981 344.527 365.658 329.999C370.547 323.164 375.052 316.789 378.587 309.617C381.072 304.682 382.972 298.491 384.103 293.22C391.66 260.672 391.66 260.672 380.794 231.591C374.816 214.277 368.837 196.963 361.606 180.17C353.79 162.121 343.468 145.114 331.228 130.406C329.672 128.353 327.248 126.361 325.309 124.768L325.107 123.052Z" fill="#FBEDBA"/>
<path d="M318.327 253.661C318.094 254.835 318.094 255.54 318.094 256.009C319.493 264.931 320.892 273.619 322.291 282.541C322.757 286.297 323.223 290.289 323.456 294.045C323.923 302.498 324.389 310.95 324.389 319.403C324.389 322.22 324.389 325.038 323.923 327.855C323.456 330.673 322.057 331.612 319.026 331.612C315.762 331.612 312.265 331.612 309.001 331.612C307.136 331.612 305.271 331.612 303.405 331.612C299.442 331.847 298.276 332.551 298.276 334.664C298.043 338.89 299.908 341.238 303.638 341.238C311.332 341.003 319.026 340.769 326.487 340.299C331.15 340.064 332.782 338.421 332.782 333.49C333.016 327.855 333.016 321.985 332.549 316.35C331.15 301.793 329.518 287.236 328.119 272.679C327.653 269.158 326.72 265.636 326.254 262.114C325.788 257.418 322.057 251.079 318.56 253.192L318.327 253.661Z" fill="#2B3545"/>
<path d="M269.945 384.473C272.88 384.73 275.521 385.244 278.162 385.244C282.271 385.244 286.966 385.758 291.368 388.584C292.542 389.355 294.303 389.612 295.476 389.612C296.063 389.612 296.357 389.612 296.65 389.355C301.346 387.556 306.335 386.528 311.03 386.528C315.138 386.528 319.247 387.299 323.649 388.584C322.182 387.299 320.714 386.015 319.247 384.73C316.312 382.16 313.671 380.875 310.737 380.875C308.976 380.875 306.628 381.389 304.28 382.417C302.226 383.445 299.878 384.473 297.531 385.501C296.357 386.015 295.183 386.528 294.009 386.528C292.248 386.528 290.781 385.758 289.607 384.473C287.553 382.16 285.205 380.875 281.684 380.875C279.63 380.875 276.988 381.389 274.934 381.903L274.054 382.16C272 382.674 269.945 382.931 268.185 384.216C268.478 384.216 268.771 384.216 269.358 384.216L269.945 384.473ZM263.489 394.495C268.771 399.891 280.803 403.232 294.89 403.232C306.041 403.232 316.312 401.176 323.649 397.579C321.595 397.065 319.834 396.808 318.073 396.551C314.552 395.78 312.204 395.523 309.563 395.523C306.922 395.523 304.574 396.037 302.226 397.065C299.878 398.093 297.824 398.606 295.476 398.606C292.835 398.606 289.901 397.836 286.966 396.294C282.858 394.238 278.162 393.21 272.293 393.21C270.826 393.21 269.065 393.21 267.304 393.467C266.13 393.467 264.663 394.238 263.196 394.752C263.196 394.752 263.196 394.752 262.902 394.752L263.489 394.495ZM299.291 411.969C295.77 411.969 291.661 411.712 287.846 411.198C280.51 410.171 271.119 408.629 262.315 404.26L261.435 403.746C259.381 402.718 249.696 393.724 249.109 390.897C248.523 388.327 251.164 387.042 253.805 383.959C260.555 375.478 268.771 373.68 281.977 373.68C283.445 373.68 284.912 373.68 286.379 373.68C288.14 373.68 290.194 374.707 291.661 375.735C293.129 376.763 294.303 377.277 295.77 377.277C297.237 377.277 298.705 376.763 300.465 375.735C303.987 373.68 307.215 372.652 310.443 372.652C311.91 372.652 313.378 372.909 315.138 373.423C318.367 374.45 321.008 375.735 323.355 377.02C325.997 378.819 332.746 384.473 335.681 386.271L335.974 386.528C338.322 388.07 341.257 389.869 339.789 393.981L339.496 394.752L338.909 395.009C337.148 395.78 332.746 399.634 331.279 400.662C323.062 407.087 309.269 412.74 298.998 411.712L299.291 411.969Z" fill="#2B3545"/>
<path d="M218.782 329.897C219.019 333.896 221.146 337.66 223.747 341.189C225.402 343.541 227.056 345.893 228.711 348.01C231.311 351.069 234.148 353.891 237.458 356.244C239.349 357.655 241.713 358.126 244.077 357.89C247.386 357.89 250.932 357.42 254.005 356.009C257.315 354.597 260.625 352.95 263.461 350.833C265.589 349.187 267.48 347.775 269.371 346.129C273.154 343.07 275.99 339.777 277.409 335.072C278.354 332.014 279.3 328.956 280.009 325.898C280.718 322.84 280.482 319.547 279.536 316.489C278.591 313.195 277.645 310.137 276.699 306.844C276.463 305.668 275.99 304.727 275.518 303.786C275.281 303.315 275.045 302.845 274.572 302.609C271.262 300.963 268.426 299.081 264.88 297.905C261.334 296.729 257.788 296.258 254.005 296.023C252.351 296.023 250.696 296.023 248.805 296.258C246.204 296.493 243.604 297.199 241.24 298.14C237.694 299.551 234.385 300.728 230.839 302.139C230.602 302.374 230.129 302.374 229.893 302.609C227.293 304.491 224.692 306.373 222.092 308.255C221.856 308.49 221.619 308.726 221.619 308.961C220.437 312.019 218.782 315.077 218.31 318.37C217.837 321.899 217.837 325.663 218.782 329.897Z" fill="#E86137" fill-opacity="0.3"/>
<path d="M409.068 260.489C425.124 247.457 423.583 225.647 422.229 205.376C420.787 182.234 413.584 167.587 398.817 147.157C374.357 113.099 344.235 86.204 303.073 73.8383C281.979 67.4621 263.561 61.6044 248.128 74.3819C234.947 85.2683 221.999 107.199 220.539 124.748C219.03 142.964 226.688 157.586 242.406 171.33C260.819 187.361 282.211 189.74 303.344 199.653C332.474 213.555 377.243 286.76 409.641 260.9L409.068 260.489Z" fill="#2B3545"/>
<path d="M129.632 64.0075C83.6697 99.0816 61.7978 145.668 48.0402 200.492C36.8725 227.934 36.8725 276.393 36.8725 276.393C30.2372 338.433 32.5892 397.551 50.0504 456.347C60.4712 491.733 69.8596 512.912 90.3242 534.058C108.199 552.695 142.513 564.916 148.464 563.862L148.518 564.916C173.724 558.897 152.42 409.468 152.42 381.986C155.278 347.513 99.7235 222.426 125.669 227.893C151.614 233.36 165.933 253.792 195.847 222.417C217.636 199.875 243.577 186.796 258.81 157.749C271.782 132.877 274.08 110.675 262.92 88.2094C252.161 66.5683 242.05 62.3263 219.798 54.6696C193.726 45.6654 153.167 45.9832 129.632 64.0075Z" fill="#2B3545"/>
<path d="M181.979 173.324C185.703 173.324 189.25 172.62 192.619 171.037C193.506 170.686 194.215 169.982 194.57 169.103C195.279 167.169 195.988 165.234 196.698 163.124C197.052 162.069 197.407 161.541 198.471 161.014C203.259 158.728 208.046 156.09 212.125 152.573C214.785 150.462 216.558 147.825 217.445 144.483C217.799 142.901 218.331 141.318 218.686 139.911C219.395 136.922 218.863 133.932 217.09 131.294C214.607 127.601 211.77 124.26 208.401 121.271C205.741 118.809 203.791 115.995 202.372 112.83C201.485 110.719 200.244 108.609 199.18 106.499C198.116 104.037 196.166 102.278 194.038 100.871C192.264 99.8163 190.668 98.7612 188.718 97.8819C187.831 97.3543 186.59 97.1785 185.526 96.8268C182.157 95.9475 174.354 97.0026 174 97.3543C172.936 98.4095 171.872 99.6404 170.808 100.696C169.035 102.454 166.729 102.982 164.424 103.158C161.942 103.333 159.459 103.509 157.154 104.037C154.671 104.564 152.543 105.795 150.77 107.554C149.529 108.785 149.174 110.368 148.819 112.126C148.287 115.116 148.642 118.281 148.11 121.271C147.578 123.733 146.337 126.195 145.273 128.656C144.209 131.118 142.79 133.405 141.726 135.867C140.485 138.856 140.662 141.846 140.84 145.011C141.194 149.056 143.5 151.869 145.982 154.331C148.11 156.442 150.77 158.2 153.075 160.134C154.671 161.541 156.267 162.772 157.686 164.355C160.523 167.169 163.892 169.279 167.793 170.51C172.404 171.917 177.014 172.796 181.802 172.972L181.979 173.324Z" fill="#E86137"/>
<path d="M184.181 132.788C185.245 134.546 184.359 136.305 182.408 136.657C181.167 137.008 179.571 136.129 178.684 134.722C177.797 133.315 178.152 131.909 179.393 130.502C180.457 129.271 182.94 130.15 182.763 130.15C182.585 130.326 183.649 131.909 184.181 132.788ZM175.138 145.977C177.088 146.329 179.039 146.504 180.812 146.856C183.472 147.384 186.132 147.208 188.614 146.153C191.274 144.922 193.225 143.163 193.934 139.998C194.643 137.008 195.175 134.019 194.111 130.853C193.048 127.688 191.274 125.05 188.082 123.819C186.132 123.116 184.359 121.885 182.053 122.237C180.812 122.412 179.748 122.764 178.684 122.94C178.507 122.94 178.152 123.292 177.975 123.292C175.67 122.94 173.719 124.347 171.591 124.874C169.64 125.226 168.222 126.457 166.981 128.04C166.803 128.391 166.449 128.743 166.271 129.095C164.321 131.205 163.966 133.843 164.143 136.657C164.143 137.008 164.321 137.536 164.321 137.888C163.966 142.108 168.222 145.449 171.768 145.801C172.832 145.977 173.896 145.977 175.138 146.153V145.977Z" fill="#B63E3A"/>
<path d="M245.736 246.274C247.652 245.64 250.525 246.907 251.164 248.807C251.483 249.758 251.483 251.341 251.164 252.608C250.525 254.508 249.248 255.775 247.652 256.409C247.332 256.409 247.013 256.725 246.694 256.725C244.139 257.359 243.181 256.092 242.862 255.142C242.223 253.241 242.223 251.024 243.181 249.124C243.82 247.857 244.778 246.59 245.736 246.274C245.736 246.274 245.736 246.274 246.055 246.274H245.736ZM237.115 240.573C235.518 243.423 233.922 246.59 233.602 249.758C232.964 252.925 233.602 256.409 233.922 259.576C233.922 260.209 234.241 260.842 234.241 261.793C222.427 261.793 214.444 258.309 207.42 250.074C212.528 247.224 218.276 244.69 224.023 243.107C228.174 241.84 232.325 240.89 237.115 240.256V240.573ZM285.01 246.907C281.817 251.024 277.666 253.558 271.28 255.458C268.726 256.092 266.171 256.725 263.617 257.359C262.659 257.675 262.02 257.675 261.062 257.992C263.297 251.341 262.34 245.64 257.869 240.256C268.087 240.573 277.027 241.84 285.01 247.224V246.907ZM265.852 268.127C278.624 264.326 290.119 258.309 300.975 249.441L303.21 247.857L300.975 246.274C300.017 245.324 299.059 244.69 298.421 244.057C296.824 242.473 295.228 241.206 293.631 240.256C285.329 234.872 275.75 231.388 264.894 230.121C247.971 228.221 233.283 229.171 219.872 233.289C215.083 234.555 210.293 236.456 205.823 238.673C198.798 242.156 194.647 245.007 194.009 248.807C193.37 252.608 196.883 256.409 202.63 261.159C211.89 269.077 222.107 272.878 233.602 272.878C245.417 272.878 255.953 271.294 265.852 268.444V268.127Z" fill="#2B3545"/>
</g>
<defs>
<filter id="filter0_d" x="18" y="20" width="428" height="564" filterUnits="userSpaceOnUse" color-interpolation-filters="sRGB">
<feFlood flood-opacity="0" result="BackgroundImageFix"/>
<feColorMatrix in="SourceAlpha" type="matrix" values="0 0 0 0 0 0 0 0 0 0 0 0 0 0 0 0 0 0 127 0"/>
<feOffset dx="2" dy="2"/>
<feGaussianBlur stdDeviation="3"/>
<feColorMatrix type="matrix" values="0 0 0 0 0 0 0 0 0 0 0 0 0 0 0 0 0 0 0.25 0"/>
<feBlend mode="normal" in2="BackgroundImageFix" result="effect1_dropShadow"/>
<feBlend mode="normal" in="SourceGraphic" in2="effect1_dropShadow" result="shape"/>
</filter>
<filter id="filter1_d" x="188.663" y="-1.93536" width="86.8455" height="45.5285" filterUnits="userSpaceOnUse" color-interpolation-filters="sRGB">
<feFlood flood-opacity="0" result="BackgroundImageFix"/>
<feColorMatrix in="SourceAlpha" type="matrix" values="0 0 0 0 0 0 0 0 0 0 0 0 0 0 0 0 0 0 127 0"/>
<feOffset dx="2" dy="2"/>
<feGaussianBlur stdDeviation="1"/>
<feColorMatrix type="matrix" values="0 0 0 0 0 0 0 0 0 0 0 0 0 0 0 0 0 0 0.25 0"/>
<feBlend mode="normal" in2="BackgroundImageFix" result="effect1_dropShadow"/>
<feBlend mode="normal" in="SourceGraphic" in2="effect1_dropShadow" result="shape"/>
</filter>
<clipPath id="clip0">
<rect width="460" height="600" fill="white"/>
</clipPath>
</defs>
</svg>
