<svg width="600" height="600" viewBox="0 0 600 600" fill="none" xmlns="http://www.w3.org/2000/svg">
<g clip-path="url(#clip0)">
<path d="M187.045 331.815C170.295 337.354 155.168 326.458 141.072 316.386C124.933 304.962 117.575 293.265 109.457 273.601C95.8513 240.932 90.0154 207.462 99.7375 172.686C104.692 154.847 108.806 139.141 125.089 133.928C138.976 129.465 160.772 130.131 174.17 136.982C188.074 144.097 195.208 156.105 198.042 173.439C201.312 193.715 193.322 209.969 190.917 229.425C187.774 256.351 220.564 321.031 187.083 332.406L187.045 331.815Z" fill="#2B3545"/>
<path d="M201.893 92.6663C213.05 84.2909 225.258 79.3694 240.217 79.9537C299.515 82.7352 351.972 106.75 400.07 147.348C408.902 154.735 417.735 162.123 426.031 169.955C428.692 172.076 431.241 175.154 432.828 178.163C442.578 194.305 446.872 211.505 447.209 229.389C448.306 265.669 446.095 301.23 443.459 336.279C441.626 360.282 437.447 383.636 430.494 405.827C425.062 423.299 416.432 439.095 401.094 450.068C393.156 455.777 385.107 462.443 377.595 468.665C363.643 480.22 345.666 484.73 328.964 490.779C326.393 492.044 322.234 490.299 319.461 489.136C295.289 471.965 270.581 455.24 246.521 437.112C222.886 419.497 204.728 396.481 189.679 371.756C179.504 355.101 167.72 339.78 157.009 323.57C151.597 315.944 146.61 308.83 142.697 300.828C139.946 295.322 137.844 288.415 136.592 282.533C128.227 246.217 128.227 246.217 140.255 213.769C146.872 194.451 153.489 175.133 161.493 156.396C170.145 136.257 181.57 117.282 195.119 100.872C196.84 98.5809 199.523 96.3588 201.67 94.5811L201.893 92.6663Z" fill="#FBEDBA"/>
<path d="M211.67 238.395C211.928 239.705 211.928 240.491 211.928 241.015C210.38 250.97 208.832 260.663 207.283 270.618C206.767 274.809 206.251 279.263 205.993 283.454C205.477 292.885 204.961 302.316 204.961 311.747C204.961 314.89 204.961 318.034 205.477 321.178C205.993 324.321 207.541 325.369 210.896 325.369C214.509 325.369 218.38 325.369 221.993 325.369C224.058 325.369 226.122 325.369 228.187 325.369C232.574 325.631 233.865 326.417 233.865 328.775C234.123 333.49 232.058 336.11 227.929 336.11C219.413 335.848 210.896 335.586 202.638 335.062C197.477 334.8 195.67 332.966 195.67 327.465C195.412 321.178 195.412 314.629 195.928 308.341C197.477 292.099 199.283 275.857 200.831 259.615C201.348 255.685 202.38 251.756 202.896 247.826C203.412 242.587 207.541 235.514 211.412 237.871L211.67 238.395Z" fill="#2B3545"/>
<path d="M265.223 384.35C261.975 384.636 259.052 385.21 256.128 385.21C251.58 385.21 246.383 385.783 241.511 388.937C240.212 389.797 238.263 390.084 236.963 390.084C236.314 390.084 235.989 390.084 235.664 389.797C230.467 387.79 224.945 386.643 219.747 386.643C215.2 386.643 210.652 387.504 205.78 388.937C207.404 387.504 209.028 386.07 210.652 384.636C213.9 381.769 216.824 380.335 220.072 380.335C222.021 380.335 224.62 380.909 227.218 382.056C229.492 383.203 232.091 384.35 234.689 385.496C235.989 386.07 237.288 386.643 238.587 386.643C240.536 386.643 242.16 385.783 243.46 384.35C245.734 381.769 248.332 380.335 252.23 380.335C254.504 380.335 257.427 380.909 259.701 381.482L260.676 381.769C262.949 382.342 265.223 382.629 267.172 384.063C266.847 384.063 266.523 384.063 265.873 384.063L265.223 384.35ZM272.369 395.532C266.523 401.553 253.205 405.281 237.613 405.281C225.269 405.281 213.9 402.987 205.78 398.973C208.054 398.399 210.003 398.112 211.952 397.826C215.849 396.965 218.448 396.679 221.372 396.679C224.295 396.679 226.894 397.252 229.492 398.399C232.091 399.546 234.365 400.119 236.963 400.119C239.887 400.119 243.135 399.259 246.383 397.539C250.931 395.245 256.128 394.098 262.625 394.098C264.249 394.098 266.198 394.098 268.147 394.385C269.446 394.385 271.07 395.245 272.694 395.819C272.694 395.819 272.694 395.819 273.019 395.819L272.369 395.532ZM232.74 415.029C236.638 415.029 241.186 414.743 245.409 414.169C253.529 413.022 263.924 411.302 273.669 406.427L274.643 405.854C276.917 404.707 287.636 394.672 288.286 391.518C288.936 388.65 286.012 387.217 283.089 383.776C275.618 374.314 266.523 372.307 251.905 372.307C250.281 372.307 248.657 372.307 247.033 372.307C245.084 372.307 242.81 373.454 241.186 374.601C239.562 375.748 238.263 376.321 236.638 376.321C235.014 376.321 233.39 375.748 231.441 374.601C227.543 372.307 223.97 371.16 220.397 371.16C218.773 371.16 217.149 371.447 215.2 372.02C211.627 373.167 208.703 374.601 206.105 376.034C203.181 378.042 195.71 384.35 192.462 386.357L192.137 386.643C189.538 388.364 186.29 390.371 187.914 394.958L188.239 395.819L188.889 396.105C190.838 396.965 195.71 401.266 197.334 402.413C206.429 409.581 221.696 415.889 233.065 414.743L232.74 415.029Z" fill="#2B3545"/>
<path d="M321.854 323.456C321.592 327.918 319.237 332.118 316.359 336.055C314.527 338.679 312.696 341.304 310.864 343.666C307.986 347.078 304.846 350.228 301.183 352.853C299.089 354.428 296.473 354.953 293.856 354.69C290.193 354.69 286.268 354.165 282.866 352.59C279.203 351.015 275.54 349.178 272.4 346.816C270.045 344.979 267.951 343.404 265.858 341.567C261.672 338.154 258.532 334.48 256.962 329.23C255.915 325.818 254.868 322.406 254.083 318.994C253.298 315.582 253.56 311.907 254.607 308.495C255.653 304.821 256.7 301.409 257.747 297.734C258.008 296.422 258.532 295.372 259.055 294.322C259.317 293.797 259.578 293.272 260.102 293.01C263.765 291.172 266.905 289.073 270.83 287.76C274.755 286.448 278.68 285.923 282.866 285.66C284.698 285.66 286.53 285.66 288.623 285.923C291.501 286.185 294.379 286.973 296.996 288.023C300.921 289.598 304.584 290.91 308.509 292.485C308.771 292.747 309.294 292.747 309.556 293.01C312.434 295.109 315.312 297.209 318.191 299.309C318.452 299.571 318.714 299.834 318.714 300.096C320.022 303.508 321.854 306.921 322.377 310.595C322.901 314.532 322.901 318.732 321.854 323.456Z" fill="#E86137" fill-opacity="0.3"/>
<path d="M111.23 246.013C93.4586 231.472 95.1643 207.138 96.6631 184.52C98.2589 158.699 106.232 142.356 122.577 119.562C149.652 81.5616 182.994 51.5526 228.554 37.7555C251.903 30.6412 272.289 24.1053 289.372 38.362C303.961 50.5087 318.294 74.9783 319.909 94.559C321.58 114.883 313.104 131.198 295.706 146.533C275.325 164.419 251.646 167.074 228.255 178.134C196.011 193.645 146.457 275.325 110.596 246.472L111.23 246.013Z" fill="#2B3545"/>
<path d="M420.533 26.7866C471.408 65.921 495.618 117.901 510.846 179.071C523.207 209.689 523.207 263.758 523.207 263.758C530.551 332.98 527.948 398.942 508.62 464.544C497.086 504.026 486.694 527.657 464.042 551.251C444.257 572.046 406.276 585.681 399.689 584.506L399.629 585.681C371.729 578.965 395.31 412.238 395.31 381.574C392.147 343.111 453.638 203.544 424.92 209.644C396.202 215.744 380.352 238.541 347.241 203.533C323.124 178.383 294.41 163.789 277.549 131.379C263.19 103.629 260.647 78.856 272.999 53.7902C284.908 29.6438 296.1 24.9108 320.731 16.3677C349.588 6.32118 394.483 6.67578 420.533 26.7866Z" fill="#2B3545"/>
<path d="M362.591 148.757C358.469 148.757 354.543 147.973 350.814 146.207C349.833 145.814 349.047 145.029 348.655 144.048C347.87 141.89 347.085 139.732 346.3 137.377C345.907 136.2 345.514 135.611 344.337 135.023C339.037 132.472 333.738 129.529 329.223 125.604C326.279 123.25 324.316 120.307 323.335 116.579C322.942 114.813 322.354 113.047 321.961 111.477C321.176 108.142 321.765 104.806 323.728 101.863C326.475 97.7423 329.616 94.0142 333.345 90.6786C336.289 87.9317 338.448 84.7923 340.019 81.2605C341 78.9059 342.374 76.5514 343.552 74.1968C344.729 71.4499 346.888 69.4877 349.244 67.918C351.207 66.7408 352.973 65.5635 355.132 64.5824C356.114 63.9938 357.487 63.7976 358.665 63.4052C362.394 62.4241 371.031 63.6014 371.423 63.9938C372.601 65.1711 373.779 66.5446 374.956 67.7218C376.919 69.684 379.471 70.2726 382.022 70.4688C384.77 70.665 387.518 70.8612 390.07 71.4499C392.818 72.0385 395.173 73.412 397.136 75.3741C398.51 76.7476 398.902 78.5135 399.295 80.4756C399.884 83.8112 399.491 87.343 400.08 90.6786C400.669 93.4256 402.043 96.1726 403.22 98.9195C404.398 101.667 405.968 104.217 407.146 106.964C408.52 110.3 408.324 113.635 408.127 117.167C407.735 121.68 405.183 124.82 402.435 127.567C400.08 129.921 397.136 131.883 394.584 134.041C392.818 135.611 391.051 136.985 389.481 138.751C386.34 141.89 382.611 144.245 378.293 145.618C373.19 147.188 368.087 148.169 362.787 148.365L362.591 148.757Z" fill="#E86137"/>
<path d="M360.154 103.529C358.976 105.491 359.958 107.453 362.117 107.846C363.491 108.238 365.257 107.257 366.239 105.687C367.22 104.118 366.827 102.548 365.453 100.978C364.276 99.6048 361.528 100.586 361.724 100.586C361.92 100.782 360.743 102.548 360.154 103.529ZM370.164 118.245C368.005 118.637 365.846 118.834 363.883 119.226C360.939 119.815 357.995 119.618 355.247 118.441C352.303 117.068 350.144 115.106 349.359 111.574C348.573 108.238 347.985 104.903 349.162 101.371C350.34 97.8389 352.303 94.8957 355.836 93.5223C357.995 92.7374 359.958 91.3639 362.509 91.7563C363.883 91.9526 365.061 92.345 366.239 92.5412C366.435 92.5412 366.827 92.9336 367.024 92.9336C369.575 92.5412 371.734 94.1109 374.09 94.6995C376.249 95.0919 377.819 96.4654 379.193 98.2313C379.389 98.6238 379.782 99.0162 379.978 99.4086C382.137 101.763 382.53 104.706 382.333 107.846C382.333 108.238 382.137 108.827 382.137 109.219C382.53 113.928 377.819 117.656 373.893 118.049C372.716 118.245 371.538 118.245 370.164 118.441V118.245Z" fill="#B63E3A"/>
<path d="M292.02 230.152C289.899 229.446 286.718 230.859 286.011 232.979C285.658 234.039 285.658 235.806 286.011 237.22C286.718 239.34 288.132 240.754 289.899 241.46C290.252 241.46 290.606 241.814 290.959 241.814C293.787 242.52 294.847 241.107 295.2 240.047C295.907 237.927 295.907 235.453 294.847 233.333C294.14 231.919 293.08 230.506 292.02 230.152C292.02 230.152 292.02 230.152 291.666 230.152H292.02ZM301.562 223.792C303.329 226.972 305.097 230.506 305.45 234.039C306.157 237.573 305.45 241.46 305.097 244.994C305.097 245.701 304.743 246.408 304.743 247.468C317.82 247.468 326.656 243.581 334.431 234.393C328.776 231.212 322.415 228.385 316.053 226.619C311.458 225.205 306.864 224.145 301.562 223.438V223.792ZM248.548 230.859C252.082 235.453 256.677 238.28 263.745 240.4C266.573 241.107 269.4 241.814 272.228 242.52C273.288 242.874 273.995 242.874 275.055 243.227C272.581 235.806 273.641 229.446 278.589 223.438C267.28 223.792 257.384 225.205 248.548 231.212V230.859ZM269.754 254.535C255.616 250.295 242.893 243.581 230.876 233.686L228.402 231.919L230.876 230.152C231.937 229.092 232.997 228.385 233.704 227.679C235.471 225.912 237.238 224.498 239.005 223.438C248.194 217.431 258.797 213.544 270.814 212.13C289.546 210.01 305.803 211.07 320.647 215.664C325.949 217.077 331.25 219.198 336.198 221.671C343.974 225.558 348.568 228.739 349.275 232.979C349.982 237.22 346.094 241.46 339.733 246.761C329.483 255.595 318.173 259.836 305.45 259.836C292.373 259.836 280.71 258.069 269.754 254.889V254.535Z" fill="#2B3545"/>
</g>
<defs>
<clipPath id="clip0">
<rect width="600" height="600" fill="white"/>
</clipPath>
</defs>
</svg>
