<svg width="460" height="600" viewBox="0 0 460 600" fill="none" xmlns="http://www.w3.org/2000/svg">
<g clip-path="url(#clip0)">
<g filter="url(#filter0_d)">
<rect x="22" y="24" width="416" height="552" fill="#F4F8F7"/>
</g>
<path d="M123.594 139.203C117.461 138.62 111.632 140.043 105.865 144.998C83.1008 164.866 67.4428 192.907 56.9478 227.638C55.0066 233.983 53.0653 240.328 51.4276 246.722C50.8209 248.582 50.4572 250.873 50.4578 252.83C49.975 263.712 51.8599 273.404 55.4448 282.192C62.5539 300.15 70.8163 316.725 79.1393 332.919C84.85 344.002 91.3498 354.035 98.6992 362.638C104.469 369.425 111.15 374.4 119.469 374.938C123.78 375.231 128.334 375.954 132.585 376.629C140.478 377.882 148.492 374.458 156.325 372.18C157.6 371.991 158.874 369.845 159.724 368.414C165.67 352.529 171.92 336.693 177.623 320.378C183.266 304.444 185.629 287.599 186.414 270.895C186.957 259.631 188.411 248.512 189.258 237.297C189.803 231.904 190.288 226.893 190.165 221.786C190.103 218.254 189.495 214.243 188.765 210.996C184.51 190.752 184.51 190.752 173.03 178.754C166.41 171.44 159.789 164.127 152.744 157.529C145.152 150.453 136.711 144.808 127.966 141.071C126.812 140.496 125.294 140.255 124.08 140.062L123.594 139.203Z" fill="#2B3545"/>
<path d="M338.24 150.746C344.604 151.397 350.253 154.098 355.126 160.511C374.301 186.151 384.587 218.942 388.265 257.722C388.962 264.811 389.658 271.901 390.035 278.979C390.278 281.065 390.186 283.555 389.79 285.618C388.085 297.19 384.209 307.019 378.784 315.545C367.918 333.011 356.157 348.782 344.412 364.138C336.358 374.645 327.713 383.882 318.491 391.437C311.244 397.402 303.436 401.269 294.855 400.121C290.405 399.541 285.621 399.364 281.155 399.199C272.863 398.893 265.392 393.631 257.875 389.613C256.614 389.151 255.749 386.626 255.173 384.943C252.323 366.97 249.155 348.985 246.64 330.609C244.109 312.648 245.103 294.402 247.675 276.629C249.396 264.643 250.159 252.621 251.56 240.622C252.094 234.825 252.612 229.442 253.768 224.083C254.544 220.372 255.973 216.269 257.371 212.997C265.793 192.532 265.793 192.532 279.906 182.249C288.125 175.904 296.344 169.559 304.851 164.056C314.012 158.162 323.749 153.951 333.41 151.814C334.701 151.446 336.296 151.505 337.571 151.552L338.24 150.746Z" fill="#2B3545"/>
<path d="M335.969 353.048C336.934 378.739 330.662 403.235 325.838 427.134C319.084 461.19 321.5 481.5 310.5 511.5C303.785 522.491 282 543.5 269.5 549C256 557.467 225 555.5 219.5 555.5C190 547.033 196.54 545.433 160.356 527.509C144.435 519.742 131.409 506.597 117.418 495.246C114.04 492.258 111.146 488.673 107.286 486.284C99.5667 481.504 96.672 473.139 96.672 463.58C96.1896 437.291 95.7071 411.6 95.7071 385.311C95.7071 383.519 96.1896 381.727 95.7071 379.934C94.2597 339.306 101.979 300.471 107.286 260.441C110.663 236.542 114.523 212.643 118.865 188.744C121.76 172.015 129.479 158.273 137.681 145.129C140.575 140.349 144.435 138.557 149.26 138.557C165.181 137.96 180.619 136.167 196.54 135.57C199.435 135.57 202.812 135.57 205.224 137.362C225.97 150.506 246.233 163.651 266.496 176.795C286.277 189.342 298.82 210.253 310.882 232.36C324.391 256.856 328.25 284.937 332.592 313.018C334.522 326.162 335.005 339.306 336.452 352.451L335.969 353.048Z" fill="#FBEDBA"/>
<path d="M223.538 420.153C218.796 420.153 214.944 419.561 211.388 418.968C201.017 416.894 200.72 414.228 201.609 404.747V404.45C202.795 387.562 203.684 370.377 204.276 353.785C204.573 346.971 204.869 340.156 205.165 333.342C206.054 317.046 205.165 301.046 203.091 286.232C201.609 276.455 200.424 274.973 197.757 274.973C195.683 274.973 192.423 275.862 189.163 276.455C178.199 279.417 167.235 282.973 156.567 286.232C150.64 288.01 144.714 289.787 138.787 291.565C137.305 291.861 136.12 292.158 134.342 292.158C133.749 292.158 132.86 292.158 132.268 292.454L129.897 292.75V290.38C130.193 283.862 134.638 282.38 137.305 281.491H137.602C145.603 278.825 153.9 276.158 162.493 273.788C173.754 270.529 184.126 267.862 193.905 265.196C196.572 264.603 198.646 264.307 200.128 264.307C206.054 264.603 208.129 269.047 209.61 274.084C211.981 282.38 213.166 289.787 213.462 296.898C214.055 312.898 214.055 330.379 213.759 352.008C213.462 363.859 213.166 376.007 212.573 387.858C212.277 392.895 212.277 397.932 211.981 402.969C211.684 408.895 211.684 408.895 217.611 409.191C219.982 409.487 222.649 409.487 225.908 409.487C227.983 409.487 230.353 409.487 232.428 409.487C234.798 409.487 237.169 409.487 239.54 409.783H241.614V411.857C241.614 415.709 241.614 417.783 240.132 418.968C238.651 420.153 236.873 420.153 234.502 420.153C233.02 420.153 231.539 420.153 230.057 420.153C227.686 420.153 225.316 420.153 222.945 420.153H223.538Z" fill="#2B3545"/>
<path d="M172.063 330.5C167.462 333.578 162.349 335.63 156.725 336.4C152.635 337.169 148.545 337.426 144.71 337.426C144.199 337.426 143.943 337.426 143.432 337.426C145.222 337.169 146.755 336.4 148.545 334.861C151.868 332.552 153.146 329.73 152.635 326.139C151.868 322.292 149.823 319.727 146.244 318.444C144.71 317.931 143.432 317.675 142.154 317.675C139.086 317.675 136.274 319.214 133.718 322.292C131.417 325.113 130.65 328.448 131.673 331.269C132.696 334.091 135.252 336.143 138.064 336.656C138.831 336.913 139.342 336.913 139.853 337.169C135.763 336.913 131.929 336.4 128.35 335.374C126.56 334.861 124.771 334.091 122.981 333.322L121.192 332.552C118.124 331.269 114.29 329.474 110.2 327.422C116.591 320.496 125.282 317.162 137.808 316.905H138.32C140.876 316.905 143.688 317.418 146.244 317.931C147.011 318.188 147.778 318.188 148.545 318.444C153.146 319.214 157.748 320.24 162.86 321.522C167.206 322.548 171.808 324.087 175.386 327.422C174.364 328.704 173.086 329.474 171.808 330.5H172.063ZM140.365 329.987C139.598 329.73 139.086 329.474 139.086 329.217C139.086 328.961 139.086 328.448 139.598 327.678C140.62 326.396 141.643 325.626 143.177 325.626C143.432 325.626 143.688 325.626 143.943 325.626C144.71 325.626 145.222 326.139 145.477 326.652C145.733 327.422 145.733 327.935 144.966 328.704C143.943 329.73 142.921 329.987 141.898 329.987C141.387 329.987 140.876 329.987 140.62 329.73L140.365 329.987ZM184.078 322.035C183.055 321.266 182.033 320.496 181.01 319.47C178.965 317.675 176.92 315.879 174.108 314.853C174.108 314.853 174.108 307.927 174.108 306.901C174.108 306.901 174.108 306.645 174.108 306.388C174.108 305.619 174.364 304.336 173.853 303.31C173.597 302.797 172.83 302.028 171.296 301.771C171.041 301.771 171.041 301.771 170.785 301.771C169.251 301.771 167.206 302.284 166.439 303.567C165.928 304.336 165.672 305.106 165.672 305.362C165.417 307.414 165.417 309.723 165.161 311.775C163.116 311.262 160.815 310.492 158.77 309.979C158.515 309.979 158.515 309.979 158.259 309.979C158.515 308.697 158.515 308.44 158.515 308.184L158.77 307.671C159.281 306.132 160.304 304.08 160.304 301.515C160.304 300.232 159.281 299.206 158.003 298.95L156.981 298.693C156.725 298.693 156.47 298.693 156.214 298.693C155.447 298.693 154.68 298.95 154.169 299.719L153.658 300.232C152.635 301.258 150.846 304.849 150.846 304.849L150.079 306.645C149.823 307.158 149.567 307.927 149.312 308.184C148.8 308.184 147.778 307.927 147.267 307.927L147.011 308.697L146.755 307.671C145.733 307.414 144.71 307.414 143.943 307.414C142.154 307.158 141.131 306.901 140.62 306.645C140.365 304.849 139.853 301.258 139.598 300.489C139.598 299.976 139.598 298.95 138.831 298.18C138.32 297.667 137.297 297.411 136.274 297.411C134.996 297.411 132.696 297.924 131.673 298.95C131.162 299.463 130.906 299.976 130.906 300.489C130.906 302.797 131.162 304.849 131.162 307.414C129.628 307.671 128.35 307.927 126.816 308.44C126.56 308.44 126.56 308.44 126.305 308.44C126.305 308.44 126.305 308.184 126.305 307.927C126.305 307.671 126.305 307.158 126.049 306.645C126.049 306.132 125.793 304.08 125.538 302.284C125.282 300.489 123.748 298.95 121.959 298.95C121.703 298.95 121.448 298.95 121.192 298.95L118.891 299.463C117.613 299.719 116.591 300.745 116.591 302.028L115.824 310.749L104.576 318.701C101.764 319.727 99.2075 324.6 99.2075 327.422C99.2075 330.756 100.997 333.578 104.576 335.117C107.388 336.4 109.944 337.426 112.756 338.708C114.801 339.734 116.846 340.504 118.891 341.53C120.936 342.556 122.981 343.069 124.771 343.582C132.184 345.377 138.831 346.147 145.733 346.147C148.545 346.147 151.357 345.89 154.169 345.634C164.139 344.351 172.319 341.273 179.221 335.887C181.266 334.091 183.311 332.039 184.589 329.987C185.612 328.448 186.634 323.574 183.822 321.522L184.078 322.035Z" fill="#2B3545"/>
<path d="M314.594 330.5C309.992 333.578 304.88 335.63 299.256 336.4C295.166 337.169 291.075 337.426 287.241 337.426C286.73 337.426 286.474 337.426 285.963 337.426C287.752 337.169 289.286 336.4 291.075 334.861C294.399 332.552 295.677 329.73 295.166 326.139C294.399 322.292 292.354 319.727 288.775 318.444C287.241 317.931 285.963 317.675 284.685 317.675C281.617 317.675 278.805 319.214 276.249 322.292C273.948 325.113 273.181 328.448 274.204 331.269C275.226 334.091 277.782 336.143 280.594 336.656C281.361 336.913 281.873 336.913 282.384 337.169C278.294 336.913 274.459 336.4 270.88 335.374C269.091 334.861 267.301 334.091 265.512 333.322L263.723 332.552C260.655 331.269 256.82 329.474 252.73 327.422C259.121 320.496 267.813 317.162 280.339 316.905H280.85C283.406 316.905 286.218 317.418 288.775 317.931C289.542 318.188 290.308 318.188 291.075 318.444C295.677 319.214 300.278 320.24 305.391 321.522C309.737 322.548 314.338 324.087 317.917 327.422C316.894 328.704 315.616 329.474 314.338 330.5H314.594ZM282.895 329.987C282.128 329.73 281.617 329.474 281.617 329.217C281.617 328.961 281.617 328.448 282.128 327.678C283.151 326.396 284.173 325.626 285.707 325.626C285.963 325.626 286.218 325.626 286.474 325.626C287.241 325.626 287.752 326.139 288.008 326.652C288.263 327.422 288.263 327.935 287.497 328.704C286.474 329.73 285.451 329.987 284.429 329.987C283.918 329.987 283.406 329.987 283.151 329.73L282.895 329.987ZM326.608 322.035C325.586 321.266 324.563 320.496 323.541 319.47C321.496 317.675 319.451 315.879 316.639 314.853C316.639 314.853 316.639 307.927 316.639 306.901C316.639 306.901 316.639 306.645 316.639 306.388C316.639 305.619 316.894 304.336 316.383 303.31C316.127 302.797 315.361 302.028 313.827 301.771C313.571 301.771 313.571 301.771 313.316 301.771C311.782 301.771 309.737 302.284 308.97 303.567C308.458 304.336 308.203 305.106 308.203 305.362C307.947 307.414 307.947 309.723 307.692 311.775C305.647 311.262 303.346 310.492 301.301 309.979C301.045 309.979 301.045 309.979 300.789 309.979C301.045 308.697 301.045 308.44 301.045 308.184L301.301 307.671C301.812 306.132 302.835 304.08 302.835 301.515C302.835 300.232 301.812 299.206 300.534 298.95L299.511 298.693C299.256 298.693 299 298.693 298.744 298.693C297.977 298.693 297.211 298.95 296.699 299.719L296.188 300.232C295.166 301.258 293.376 304.849 293.376 304.849L292.609 306.645C292.354 307.158 292.098 307.927 291.842 308.184C291.331 308.184 290.308 307.927 289.797 307.927L289.542 308.697L289.286 307.671C288.263 307.414 287.241 307.414 286.474 307.414C284.685 307.158 283.662 306.901 283.151 306.645C282.895 304.849 282.384 301.258 282.128 300.489C282.128 299.976 282.128 298.95 281.361 298.18C280.85 297.667 279.827 297.411 278.805 297.411C277.527 297.411 275.226 297.924 274.204 298.95C273.692 299.463 273.437 299.976 273.437 300.489C273.437 302.797 273.692 304.849 273.692 307.414C272.158 307.671 270.88 307.927 269.346 308.44C269.091 308.44 269.091 308.44 268.835 308.44C268.835 308.44 268.835 308.184 268.835 307.927C268.835 307.671 268.835 307.158 268.58 306.645C268.58 306.132 268.324 304.08 268.068 302.284C267.813 300.489 266.279 298.95 264.489 298.95C264.234 298.95 263.978 298.95 263.723 298.95L261.422 299.463C260.144 299.719 259.121 300.745 259.121 302.028L258.354 310.749L247.106 318.701C244.294 319.727 241.738 324.6 241.738 327.422C241.738 330.756 243.527 333.578 247.106 335.117C249.918 336.4 252.475 337.426 255.287 338.708C257.332 339.734 259.377 340.504 261.422 341.53C263.467 342.556 265.512 343.069 267.301 343.582C274.715 345.377 281.361 346.147 288.263 346.147C291.075 346.147 293.887 345.89 296.699 345.634C306.669 344.351 314.849 341.273 321.751 335.887C323.797 334.091 325.842 332.039 327.12 329.987C328.142 328.448 329.165 323.574 326.353 321.522L326.608 322.035Z" fill="#2B3545"/>
<path d="M276.512 291.423C249.979 309.438 240.233 305.632 244.778 340.547C244.778 357.65 273.469 372.509 297.235 365.885C324.962 358.157 326.115 351.56 326.115 332.275C324.962 299.085 293.764 291.423 276.512 291.423ZM278.819 382.009C269.591 379.706 260.362 378.554 252.287 373.947C231.523 363.582 223.448 344.002 230.37 320.968C237.291 297.933 254.594 284.113 276.512 276.051C278.819 274.899 281.126 273.747 282.28 274.899C300.871 274.899 312.272 288.72 324.962 299.085C336.497 309.451 341.111 324.423 339.958 340.547C338.804 352.064 334.19 358.975 326.115 365.885C312.272 376.251 297.276 380.857 278.819 382.009Z" fill="#6F8F9A"/>
<path d="M179.001 346.516C185.864 317.697 191.932 319.456 167.073 298.475C156.415 286.811 127.591 294.553 115.515 313.878C101.426 336.424 104.751 341.642 116.77 354.795C138.242 376.712 167.238 357.265 179.001 346.516ZM118.023 291.407C125.751 287.228 132.761 282.264 141.138 280.374C161.756 274.507 179.464 282.829 189.1 302.852C198.737 322.874 198.744 328.157 188.635 346.286C183.942 354.703 175.774 369.049 167.773 371.066C160.985 374.411 153.354 375.876 138.242 376.712C123.916 376.83 111.439 369.494 102.176 357.778C95.7849 349.204 94.6244 341.616 95.8235 331.872C98.8019 316.178 106.156 303.692 118.023 291.407Z" fill="#6F8F9A"/>
<path d="M184.316 323.224C188.741 323.224 188.141 322.238 194.77 322.238C201.399 322.238 197.574 323.864 204.968 323.716C212.362 323.569 208.217 323.716 210.068 323.716C212.109 323.716 214.392 323.224 216.442 323.224C218.121 323.224 219.05 324.209 220.776 324.209C223.477 324.209 226.258 322.238 229.19 322.238C231.468 322.238 233.836 323.716 236.329 323.716C237.328 323.716 238.348 323.224 239.389 323.224L239.899 327.165L238.879 330.12L239.899 332.83L239.389 335.539L235.819 335.046L234.799 336.032L230.975 335.046L225.366 334.554L222.816 335.046L220.776 335.539L216.442 335.046L210.833 335.539L208.793 335.046H205.478H202.164H198.849L196.554 335.539L191.71 335.046H188.013L184.316 335.539L183.806 333.569L184.826 331.598C184.826 331.598 183.806 328.889 183.806 327.411C183.806 325.933 185.591 328.889 184.826 325.317C184.061 321.746 184.316 323.224 184.316 323.224Z" fill="#6F8F9A"/>
<path d="M168.356 132.89C170.445 127.719 174.109 123.653 180.749 121.151C207.223 111.407 237.649 110.871 271.586 117.347C277.796 118.51 284.006 119.674 290.129 121.102C291.965 121.414 294.065 122.104 295.728 122.944C305.179 127.224 312.622 132.893 318.581 139.539C330.847 152.945 341.453 166.684 351.71 180.308C358.723 189.643 364.512 199.162 368.727 208.748C372.064 216.289 373.478 223.783 370.431 230.688C368.864 234.273 367.56 238.237 366.343 241.937C364.083 248.808 357.798 253.77 352.562 259.077C351.864 260.019 349.504 260.121 347.93 260.189C331.926 258.147 315.835 256.369 299.567 253.948C283.65 251.641 268.339 246.312 253.812 239.778C244.011 235.383 233.949 231.78 224.061 227.65C219.248 225.774 214.786 224.013 210.497 221.724C207.521 220.16 204.369 217.952 201.917 215.974C186.506 203.876 186.506 203.876 181.144 189.519C177.718 181.071 174.292 172.622 171.652 164.139C168.837 155.013 167.595 145.818 168.102 137.199C168.1 136.027 168.535 134.706 168.882 133.649L168.356 132.89Z" fill="#2B3545"/>
<path d="M289.738 182.498C310.217 188.84 323.272 211.344 343.484 214.319C361.944 217.158 382.572 203.428 394.979 191.176C426.265 160.479 432.901 115.893 403.278 82.0637C377.83 53.4909 318.689 27.5941 284.173 52.2278C249.522 76.3225 241.909 167.519 289.738 182.498Z" fill="#2B3545"/>
<path d="M377.825 181.204C374.871 182.496 372.102 183.787 369.149 185.264C372.472 187.847 376.164 189.323 379.671 191.538C378.379 193.937 377.271 196.151 376.164 198.55C372.656 198.181 369.149 197.812 365.272 197.258C367.118 201.133 368.78 204.455 370.441 207.961C368.595 209.806 366.749 211.652 364.719 213.497C361.765 211.652 358.812 209.806 355.858 207.777C355.489 209.253 355.12 210.544 354.935 211.836C354.381 214.42 353.828 217.003 353.458 219.587C353.274 220.509 352.905 221.063 351.982 221.432C346.997 223.646 346.813 223.462 343.675 219.033C342.936 217.926 342.198 216.819 341.09 215.342C340.167 216.819 339.429 217.926 338.875 219.033C337.952 220.694 337.029 222.355 336.106 224.015C335.737 224.938 335.183 225.307 334.26 225.492C332.784 225.676 331.491 225.861 329.646 226.045C328.907 222.17 328.169 218.295 327.246 214.235C323.738 216.265 320.6 218.295 317.462 220.325C315.616 219.587 314.324 218.11 313.032 216.634C312.663 216.265 312.847 215.342 313.032 214.789C313.955 212.574 314.878 210.36 315.801 207.961C316.17 207.223 316.355 206.485 316.724 205.378C315.062 205.747 313.77 205.931 312.478 206.3C310.448 206.854 308.602 207.407 306.571 207.961C304.91 208.33 303.987 207.961 303.433 206.669C302.51 204.27 301.772 201.687 300.849 199.103C300.479 197.996 301.218 197.443 301.956 196.889C304.171 195.228 306.202 193.568 308.417 191.907C308.786 191.722 308.971 191.353 309.34 190.984C305.833 189.508 302.325 190.061 298.818 191.169C297.895 188.585 297.711 186.186 297.895 183.603C298.08 182.496 299.187 182.311 299.926 181.942C302.325 180.835 304.541 179.728 307.309 178.436C304.91 176.037 301.956 174.93 299.741 172.715C301.033 168.84 302.325 165.15 303.618 161.274C306.94 160.905 309.894 162.382 313.217 162.382C312.294 160.721 311.555 159.245 310.817 157.768C309.34 155 308.786 155.369 311.74 152.786C314.14 150.571 316.724 148.911 319.862 147.804C320.97 147.434 321.708 147.25 322.631 148.357C324.108 149.833 325.584 151.125 327.246 152.601C327.615 152.97 328.169 153.339 329.092 153.893C329.276 150.756 329.461 148.173 329.646 145.405C331.122 144.482 332.784 145.036 334.26 144.851C337.399 144.482 339.614 145.22 340.537 148.726C340.906 150.018 341.829 151.31 342.383 152.786C345.89 151.679 348.29 149.28 351.243 147.434C352.72 148.173 354.012 148.911 355.673 149.649C355.304 152.048 354.935 154.262 354.566 156.661C354.566 157.03 354.381 157.399 354.381 157.768C354.012 159.798 355.304 160.721 357.15 159.983C359.735 158.875 362.134 157.584 364.534 156.477C366.565 155.554 367.303 155.738 368.595 157.584C370.072 159.798 371.364 162.197 372.841 164.596C371.179 166.81 369.334 168.84 367.488 171.424C369.334 171.977 370.995 172.531 372.656 173.084C377.64 174.745 376.717 173.453 377.825 178.62C378.009 179.359 378.009 179.912 378.194 180.835L377.825 181.204Z" fill="#F3F2F3"/>
<path d="M346.062 178.804C344.4 176.774 342.37 174.744 340.155 173.268C337.755 171.607 334.986 171.792 332.402 173.083C331.294 173.637 330.186 174.375 329.079 175.113C324.464 178.25 323.91 184.34 327.787 188.215C329.263 189.691 331.109 190.983 332.771 192.275C333.509 192.828 334.617 192.828 335.54 193.197C339.047 194.305 345.877 189.691 346.985 185.632C347.538 183.233 347.538 180.834 345.877 178.988L346.062 178.804Z" fill="#F1A43E"/>
<path d="M238.092 471.049C235.517 471.326 233.199 471.879 230.881 471.879C227.275 471.879 223.155 472.432 219.291 475.473C218.261 476.302 216.716 476.579 215.686 476.579C215.171 476.579 214.913 476.579 214.655 476.302C210.535 474.367 206.156 473.261 202.036 473.261C198.43 473.261 194.824 474.091 190.961 475.473C192.249 474.091 193.536 472.708 194.824 471.326C197.4 468.561 199.718 467.179 202.293 467.179C203.838 467.179 205.899 467.732 207.959 468.838C209.762 469.944 211.822 471.049 213.883 472.155C214.913 472.708 215.943 473.261 216.973 473.261C218.519 473.261 219.806 472.432 220.837 471.049C222.639 468.561 224.7 467.179 227.79 467.179C229.593 467.179 231.911 467.732 233.714 468.285L234.487 468.561C236.29 469.114 238.092 469.391 239.638 470.773C239.38 470.773 239.123 470.773 238.608 470.773L238.092 471.049ZM243.758 481.832C239.123 487.637 228.563 491.232 216.201 491.232C206.414 491.232 197.4 489.02 190.961 485.149C192.764 484.596 194.309 484.32 195.854 484.043C198.945 483.214 201.005 482.938 203.323 482.938C205.641 482.938 207.702 483.49 209.762 484.596C211.822 485.702 213.625 486.255 215.686 486.255C218.004 486.255 220.579 485.426 223.155 483.767C226.76 481.555 230.881 480.449 236.032 480.449C237.32 480.449 238.865 480.449 240.41 480.726C241.441 480.726 242.728 481.555 244.016 482.108C244.016 482.108 244.016 482.108 244.274 482.108L243.758 481.832ZM212.338 500.631C215.428 500.631 219.034 500.355 222.382 499.802C228.821 498.696 237.062 497.037 244.789 492.337L245.561 491.784C247.364 490.679 255.863 481.002 256.378 477.961C256.893 475.196 254.576 473.814 252.258 470.497C246.334 461.373 239.123 459.438 227.533 459.438C226.245 459.438 224.957 459.438 223.67 459.438C222.124 459.438 220.322 460.544 219.034 461.65C217.746 462.755 216.716 463.308 215.428 463.308C214.14 463.308 212.853 462.755 211.307 461.65C208.217 459.438 205.384 458.332 202.551 458.332C201.263 458.332 199.975 458.608 198.43 459.161C195.597 460.267 193.279 461.65 191.219 463.032C188.901 464.967 182.977 471.049 180.401 472.985L180.144 473.261C178.084 474.92 175.508 476.855 176.796 481.279L177.053 482.108L177.568 482.385C179.114 483.214 182.977 487.361 184.265 488.467C191.476 495.379 203.581 501.461 212.595 500.355L212.338 500.631Z" fill="#2B3545"/>
<path d="M129.42 128.69C138.265 125.118 147.793 124.831 156.891 123.99C169.837 122.738 182.732 122.679 195.689 122.129C201.013 121.906 205.668 123.797 210.187 125.971C211.882 126.786 212.741 127.894 212.983 129.924C215.223 147.696 217.955 165.531 217.183 183.419C216.886 191.276 214.266 198.537 212.42 205.997C211.888 207.828 211.074 209.523 210.824 211.489C210.325 215.423 207.838 217.705 204.492 218.878C195.364 222.314 186.446 225.676 177.245 228.903C176.618 229.123 175.917 229.134 175.363 229.563C161.363 235.177 146.597 236.597 131.78 239.209C122.902 240.679 113.951 241.938 104.926 242.989C98.6307 243.787 92.6474 242.127 86.7999 240.184C84.6868 239.516 83.4726 238.062 82.739 235.971C80.1091 229.141 77.1343 222.667 74.5044 215.837C74.0642 214.582 73.5507 213.118 73.8112 211.852C75.2573 201.244 76.7767 190.845 78.2961 180.446C79.6797 170.329 85.0913 162.324 90.9945 154.381C97.514 145.517 106.755 140.397 115.923 135.068C120.23 132.618 124.758 130.795 129.138 128.554L129.42 128.69Z" fill="#2B3545"/>
<g opacity="0.7" filter="url(#filter1_d)">
<path d="M234.722 14.3526C235.536 14.7844 236.477 14.8886 237.657 14.6711C238.784 14.3951 239.911 14.1191 241.116 14.5154C241.391 14.5853 241.73 14.4914 242.01 14.4502C242.687 14.2624 243.412 14.2441 244.131 14.3369C244.851 14.4297 245.697 14.1949 246.485 14.0129C246.993 13.872 247.268 13.9419 247.702 14.187C248.564 14.7883 249.542 15.2842 250.403 15.8855C251.535 16.6678 252.757 16.7308 254.042 16.6301C254.825 16.5591 255.475 16.9267 255.665 17.6047C256.092 19.1302 257.451 19.8128 258.519 20.7589C259.27 21.3544 259.957 22.1138 261.004 22.3348L261.043 22.3413C261.522 22.4199 261.901 22.4822 262.406 22.1287C262.043 26.1749 262.565 29.1134 262.144 33.2123C262.065 33.7093 261.985 34.2064 261.958 34.7618L261.958 34.7619C260.381 35.126 258.805 35.4901 257.287 35.8015C255.821 36.1714 254.494 35.9916 253.204 35.0341C252.289 34.3744 251.311 33.8784 250.084 33.9265C249.418 33.8921 248.757 33.7466 248.096 33.6012C247.821 33.5313 247.546 33.4614 247.265 33.5026C246.086 33.7202 245.012 34.0546 243.795 33.8805C243.684 33.8747 243.626 33.9274 243.568 33.9801C242.001 35.2913 239.785 35.0656 238.33 36.3826C237.198 35.6004 237.198 35.6004 236.166 36.2153C235.939 36.315 235.706 36.5257 235.484 36.5142C234.484 36.4627 233.548 36.2473 232.548 36.1957C231.66 36.1499 230.771 36.1041 229.872 36.2804C228.19 36.5277 226.508 36.775 224.82 37.1334C224.032 37.3155 223.18 37.6613 222.492 38.0713C221.688 38.5866 220.836 38.9325 219.884 39.0504C219.492 39.0859 219.037 39.2852 218.588 39.3733C217.377 37.9188 215.611 37.6049 213.961 37.1857C210.725 36.1835 207.483 35.2924 204.183 34.4539C202.919 34.1103 201.528 34.0942 200.037 33.8502L200.037 33.8501C199.926 32.6751 199.816 31.5001 199.764 30.2724C199.717 30.1029 199.891 29.9449 199.955 29.7811C201.146 28.1721 201.29 26.342 201.657 24.5233C201.805 23.7514 201.896 23.0322 201.933 22.2546C202.146 20.1496 202.19 18.0916 201.959 15.9637C201.912 15.5959 201.942 15.7135 201.983 15.9415C202.293 15.6511 201.987 15.7143 202.499 15.2516C203.393 15.1863 204.561 15.1909 205.736 15.0845C207.079 14.9311 208.418 14.8887 209.619 14.2268C210.534 13.7172 211.576 14.0494 212.639 13.9372C213.031 13.9017 213.422 13.8662 213.655 13.6555C214.57 13.1459 215.395 13.3555 216.21 13.7873C217.785 14.5925 219.695 14.2455 221.034 13.0339C221.907 12.2437 222.362 12.0444 223.271 12.8152C224.503 13.8254 225.783 13.8357 227.349 13.6938C228.634 13.5931 229.951 13.9951 231.279 14.1749C231.94 14.3204 232.542 14.5186 233.262 14.6114C233.648 14.687 234.05 14.4293 234.611 14.3468L234.722 14.3526Z" fill="#DBEFEE"/>
</g>
</g>
<defs>
<filter id="filter0_d" x="18" y="20" width="428" height="564" filterUnits="userSpaceOnUse" color-interpolation-filters="sRGB">
<feFlood flood-opacity="0" result="BackgroundImageFix"/>
<feColorMatrix in="SourceAlpha" type="matrix" values="0 0 0 0 0 0 0 0 0 0 0 0 0 0 0 0 0 0 127 0"/>
<feOffset dx="2" dy="2"/>
<feGaussianBlur stdDeviation="3"/>
<feColorMatrix type="matrix" values="0 0 0 0 0 0 0 0 0 0 0 0 0 0 0 0 0 0 0.25 0"/>
<feBlend mode="normal" in2="BackgroundImageFix" result="effect1_dropShadow"/>
<feBlend mode="normal" in="SourceGraphic" in2="effect1_dropShadow" result="shape"/>
</filter>
<filter id="filter1_d" x="191.876" y="-11.4748" width="80.6134" height="80.6327" filterUnits="userSpaceOnUse" color-interpolation-filters="sRGB">
<feFlood flood-opacity="0" result="BackgroundImageFix"/>
<feColorMatrix in="SourceAlpha" type="matrix" values="0 0 0 0 0 0 0 0 0 0 0 0 0 0 0 0 0 0 127 0"/>
<feOffset dx="2" dy="2"/>
<feGaussianBlur stdDeviation="1"/>
<feColorMatrix type="matrix" values="0 0 0 0 0 0 0 0 0 0 0 0 0 0 0 0 0 0 0.25 0"/>
<feBlend mode="normal" in2="BackgroundImageFix" result="effect1_dropShadow"/>
<feBlend mode="normal" in="SourceGraphic" in2="effect1_dropShadow" result="shape"/>
</filter>
<clipPath id="clip0">
<rect width="460" height="600" fill="white"/>
</clipPath>
</defs>
</svg>
