<svg width="215" height="126" viewBox="0 0 215 126" fill="none" xmlns="http://www.w3.org/2000/svg">
<path d="M2.88174 47.5678C3.4404 42.2449 5.71769 37.4955 11.1054 33.3517C32.6457 17.0432 60.1644 8.0767 92.6916 4.56205C98.6383 3.89953 104.585 3.237 110.521 2.84102C112.271 2.61481 114.359 2.6632 116.088 2.97007C125.788 4.26209 134.023 7.38767 141.161 11.8218C155.786 20.6981 168.987 30.3417 181.84 39.9773C190.633 46.5841 198.362 53.6998 204.678 61.3164C209.665 67.3013 212.892 73.7791 211.912 80.9597C211.416 84.6833 211.258 88.6815 211.111 92.4131C210.837 99.3433 206.408 105.644 203.024 111.968C202.634 113.026 200.515 113.778 199.102 114.278C184.025 116.864 168.937 119.715 153.522 122.026C138.455 124.344 123.156 123.723 108.258 121.777C98.2095 120.477 88.1297 119.976 78.071 118.943C73.2103 118.563 68.6976 118.192 64.206 117.288C61.0956 116.682 57.6583 115.535 54.9169 114.404C37.7727 107.604 37.7727 107.604 29.1792 95.9328C23.8755 89.1401 18.5718 82.3474 13.9746 75.3043C9.05042 67.72 5.53912 59.6349 3.76754 51.5901C3.46174 50.5159 3.51441 49.1832 3.55656 48.117L2.88174 47.5678Z" fill="#E0E0E0"/>
<path d="M111.685 38.9044C112.828 38.9044 113.743 39.2663 114.428 39.9901C115.114 40.7139 115.457 41.6472 115.457 42.7901C115.457 43.971 115.114 44.9234 114.428 45.6472C113.743 46.371 112.828 46.7329 111.685 46.7329C110.581 46.7329 109.685 46.371 109 45.6472C108.314 44.9234 107.971 43.971 107.971 42.7901C107.971 41.6472 108.314 40.7139 109 39.9901C109.685 39.2663 110.581 38.9044 111.685 38.9044ZM89.6854 38.9044C90.8283 38.9044 91.7426 39.2663 92.4283 39.9901C93.114 40.7139 93.4568 41.6472 93.4568 42.7901C93.4568 43.971 93.114 44.9234 92.4283 45.6472C91.7426 46.371 90.8283 46.7329 89.6854 46.7329C88.5807 46.7329 87.6854 46.371 86.9997 45.6472C86.314 44.9234 85.9711 43.971 85.9711 42.7901C85.9711 41.6472 86.314 40.7139 86.9997 39.9901C87.6854 39.2663 88.5807 38.9044 89.6854 38.9044Z" fill="#2B3545"/>
<path d="M113.514 54.0557C113.971 55.5414 114.752 56.7604 115.857 57.7128C116.962 58.7033 118.238 59.1033 119.685 58.9128C120.028 58.4937 120.371 57.9033 120.714 57.1414C121.057 56.3795 121.342 55.7128 121.571 55.1414C122.181 54.9509 122.771 54.9319 123.342 55.0842C123.914 55.2747 124.409 55.5414 124.828 55.8842C125.285 56.2271 125.647 56.608 125.914 57.0271C126.219 57.4842 126.371 57.9223 126.371 58.3414C126.257 59.5985 125.762 60.7414 124.885 61.7699C124.047 62.7985 122.79 63.3128 121.114 63.3128C120.2 63.3128 119.247 63.1223 118.257 62.7414C117.266 62.3604 116.333 61.808 115.457 61.0842C114.581 60.3604 113.8 59.4842 113.114 58.4557C112.428 57.4271 111.914 56.2842 111.571 55.0271L113.514 54.0557Z" fill="#2B3545"/>
<path d="M74.4283 84.6266C75.8378 82.6837 77.3807 80.8742 79.0569 79.198C80.7331 77.5218 82.6188 76.0552 84.714 74.798C86.8092 73.579 89.133 72.6076 91.6854 71.8837C94.2378 71.198 97.114 70.8552 100.314 70.8552C103.438 70.8552 106.257 71.2171 108.771 71.9409C111.285 72.6647 113.59 73.6552 115.685 74.9123C117.781 76.1695 119.704 77.6361 121.457 79.3123C123.247 81.0266 124.942 82.8551 126.542 84.798L125.514 85.998C123.876 84.4742 122.2 83.0837 120.485 81.8266C118.771 80.5694 116.904 79.4837 114.885 78.5694C112.866 77.6933 110.657 77.0075 108.257 76.5123C105.895 76.0171 103.247 75.7694 100.314 75.7694C97.4568 75.7694 94.8092 76.0361 92.3711 76.5694C89.9711 77.1028 87.7616 77.8266 85.7426 78.7409C83.6854 79.6933 81.8188 80.779 80.1426 81.998C78.4664 83.2551 76.9426 84.5885 75.5712 85.998L74.4283 84.6266Z" fill="#2B3545"/>
</svg>
