<svg width="200" height="400" viewBox="0 0 200 400" fill="none" xmlns="http://www.w3.org/2000/svg">
<g clip-path="url(#clip0)">
<path d="M110.528 378.077C122.308 377.854 141.701 378.968 150.582 380.272C161.87 381.955 164.325 385.652 158.004 388.894C153.733 391.083 137.681 393.495 128.041 394.869C120.362 395.94 107.792 395.646 99.6125 395.609C79.6159 395.493 40.7486 395.552 50.2519 388.656C59.4347 382.107 85.9239 378.899 110.341 378.039L110.528 378.077Z" fill="#E0E0E0"/>
<path d="M48.8234 291.988C47.006 288.614 54.0158 305.484 54.7947 310.155C56.3524 320.017 58.9486 329.361 61.5449 338.704C64.92 350.902 68.5547 363.1 72.1894 375.298C73.4875 379.191 75.0452 383.084 76.8626 386.718C77.6415 388.534 79.4588 389.832 81.5358 390.092C83.6128 390.351 85.9494 390.87 88.286 390.87C97.892 390.87 107.238 391.389 116.844 390.351C123.595 389.573 130.085 388.794 136.576 387.237C138.393 386.718 139.432 385.939 139.691 384.122C139.951 383.344 139.951 382.306 140.21 381.527C140.73 377.374 141.249 372.962 142.028 368.81C144.105 358.688 146.441 348.566 148.778 338.444C149.038 336.887 149.557 335.33 149.816 333.773C150.855 328.323 152.153 322.872 153.192 317.422C153.711 314.567 154.49 311.453 155.009 308.598C155.788 302.629 156.567 296.4 157.346 290.431C157.605 288.873 157.346 286.538 158.384 285.759C158.384 285.759 118.143 289.133 110.094 289.912C91.1418 291.728 49.083 291.728 49.083 291.728L48.8234 291.988Z" fill="#C2D6D5"/>
<path d="M168.792 253.603C168.533 252.046 168.533 250.488 168.273 248.153C165.677 246.336 165.677 246.336 162.302 245.557C157.369 244.26 152.696 244 147.763 244C138.416 244.26 129.07 244.519 119.724 244.779C110.377 245.038 101.29 245.298 91.944 245.557C80.0014 246.076 67.7991 246.855 55.8565 247.633C51.7025 247.893 47.289 247.893 43.135 248.412C39.2407 248.931 35.0867 249.71 31.1924 250.229C29.6346 250.488 29.1154 251.267 29.1154 253.084C29.1154 256.198 28.8558 259.572 29.1154 262.686C29.1154 270.472 29.6346 278.258 33.2693 285.525C34.0482 287.083 34.5675 288.64 35.0867 290.197C35.6059 291.754 36.3848 292.792 38.2022 292.792C41.3176 293.052 44.4331 293.052 47.5486 293.311C50.1448 293.311 126.214 291.235 126.214 291.235L158.407 286.044C159.446 285.006 161.523 285.266 163.081 285.006C168.273 284.228 169.831 282.93 170.869 277.739C171.129 276.961 171.129 275.923 171.129 275.144C171.129 267.877 170.35 260.61 169.052 253.603H168.792Z" fill="#6F8F9A"/>
<path d="M150.944 130.866C152.925 130.206 154.576 129.876 156.227 129.216C162.829 127.235 166.461 122.285 165.47 115.685C164.81 112.385 165.8 110.074 168.111 107.764C170.092 106.114 171.743 104.134 173.394 101.824C176.035 98.1936 175.374 96.2135 171.743 93.9034C170.422 93.2433 169.432 92.2533 167.781 91.5932C169.102 88.9531 170.092 86.9729 171.413 84.9928C174.384 79.3825 175.374 73.1121 173.394 66.8417C171.743 61.8914 169.762 59.9112 164.48 59.5812C163.159 59.5812 162.169 59.2512 160.518 59.2512C160.848 52.9808 163.159 47.0404 158.538 41.7601C156.557 42.4201 154.906 42.7501 153.916 43.0802C151.605 38.1299 149.954 33.1795 147.643 28.5592C145.662 24.269 143.682 23.939 139.72 26.5791C137.739 27.8992 135.758 29.5493 133.778 30.8694C132.127 31.8595 130.806 32.8495 129.156 33.8396C128.165 32.8495 127.505 31.8595 126.845 31.1994C123.213 27.5692 119.912 23.939 115.95 20.6387C112.979 18.3286 111.659 18.6586 109.348 21.9588C108.027 23.939 106.707 25.9191 105.056 28.5592C102.745 27.5692 100.104 26.5791 97.793 25.5891C93.8313 23.6089 89.8697 20.9688 85.9081 18.6586C81.6164 16.0185 79.6356 16.3485 77.3247 20.9688C76.0041 23.6089 75.3439 26.5791 74.3535 29.5493C73.3631 29.5493 72.7028 29.5493 71.7124 29.2193C67.7508 28.5592 63.7892 27.8992 59.8276 27.5692C54.8756 27.2392 53.555 28.5592 54.8756 33.5096C55.5358 36.1497 56.8564 38.7899 57.8468 41.1C52.2345 42.4201 46.9524 43.7402 41.3401 45.3903C36.058 46.7104 34.7374 49.3506 37.7086 53.9709C39.0292 56.281 41.3401 58.2611 43.3209 60.2412C43.9812 61.2313 44.9716 61.8914 45.962 62.8814C29.7854 67.5017 29.1251 81.0326 39.0292 86.6429C36.7182 89.6131 34.4073 92.2533 32.4265 95.2235C30.1155 98.5237 29.4553 102.484 30.4457 106.444C31.4361 109.744 33.4169 112.055 37.3785 112.055C39.3593 112.055 41.3401 112.385 43.9812 112.385C43.3209 114.365 42.6606 116.015 42.3305 117.335C41.6702 119.315 40.6798 121.295 40.3497 123.275C39.6894 127.896 41.3401 130.206 45.6318 130.866C47.9428 131.196 50.2537 131.526 52.5646 131.526C54.5454 137.136 57.1865 142.086 63.459 143.737C63.1289 145.057 63.1289 145.717 62.7988 146.707C62.1385 150.337 60.818 154.297 64.4494 156.607C68.4111 159.248 72.0425 156.277 75.3439 154.297C76.0041 153.637 76.6644 152.977 77.6548 152.647C78.9753 151.987 79.9657 150.997 81.6164 150.007C82.6068 153.307 83.2671 156.277 84.2575 159.248C85.2479 161.888 86.2383 164.858 89.5396 165.188C92.5108 165.518 93.1711 162.548 94.4916 160.568C95.8122 158.587 96.4724 156.607 97.793 154.627C98.4532 153.307 99.4436 152.317 100.434 150.997C102.085 151.987 103.735 152.317 104.726 153.307C109.017 156.607 113.97 157.597 118.922 157.927C124.204 158.257 128.826 157.927 130.146 151.327C136.749 152.647 143.351 154.627 148.303 148.687C152.595 143.407 151.935 136.806 149.954 130.206L150.944 130.866Z" fill="#E9C330"/>
<path d="M119.914 83.9954C119.914 83.3354 119.583 82.6753 119.253 82.3453C117.273 79.0451 114.962 75.7449 112.981 72.1147C111.99 72.1147 111.66 72.4447 111 72.4447C106.708 73.7648 103.407 76.0749 99.7755 78.385C99.4454 78.7151 99.1153 79.0451 98.7852 79.7051C97.7948 82.0153 96.8044 84.6554 95.814 86.6356C96.4742 88.2857 96.8044 89.6058 97.1345 90.5958C98.1249 93.896 99.1153 97.5263 100.106 100.826C100.766 102.477 101.756 103.467 103.407 103.137C105.718 103.137 108.029 102.807 110.34 102.477C111.66 102.477 112.981 102.147 113.641 101.156C117.273 98.1863 119.914 94.8861 119.914 89.9358C119.914 87.6256 119.914 85.6455 119.583 83.3354L119.914 83.9954Z" fill="#333333"/>
<path d="M113.959 101.784C112.969 102.444 111.649 102.774 110.658 103.104C108.347 103.434 106.036 103.434 103.725 103.764C102.075 103.764 101.084 103.104 100.424 101.454C99.4336 98.1534 98.4432 94.5232 97.4528 91.223C97.1226 89.9029 96.4624 88.9128 96.1322 87.2627C97.1226 85.2826 98.113 82.9724 99.1034 80.3323C99.4336 80.0022 99.7637 79.3422 100.094 79.0122C103.725 76.702 107.357 74.3919 111.318 73.0718C111.979 72.7418 112.639 72.7418 113.299 72.7418C115.61 76.042 117.591 79.3422 119.572 82.9724C119.902 83.6325 119.902 83.9625 120.232 84.6225C120.232 86.9327 120.562 88.9128 120.562 91.223C120.562 96.1733 117.921 99.4735 114.29 102.444L113.959 101.784ZM130.466 78.3521C129.146 75.0519 127.825 71.7517 126.835 68.4515C125.514 64.1612 123.533 60.201 120.562 56.5708C119.902 55.5807 118.911 54.9207 117.921 54.5906C114.29 53.6006 110.658 53.2706 107.357 54.2606C101.745 55.5807 96.7925 58.2209 92.1706 61.8511C91.1802 62.5111 90.1898 63.8312 89.5296 64.8213C82.9269 75.0519 76.3242 85.6126 69.7215 95.8433C69.0613 96.8333 69.0613 97.8234 69.3914 99.1435C71.0421 102.774 73.353 106.074 75.3338 109.374C76.9845 112.014 79.2954 114.324 81.2762 115.314C85.8981 117.955 89.5296 119.935 93.161 121.915C96.1322 123.565 99.4336 124.885 103.065 125.545C104.055 125.875 105.046 125.875 106.036 125.215C109.338 123.235 112.639 121.585 115.94 119.605C119.902 116.965 122.873 113.664 125.184 109.704C127.825 105.414 129.476 100.464 131.126 95.8433C133.437 89.9029 132.447 84.2925 130.466 78.3521Z" fill="#7A6927"/>
<path d="M96.2191 154C96.8765 154.219 97.3148 154.329 97.6435 154.548C102.026 157.286 106.518 160.134 110.901 162.872C111.558 163.31 111.558 163.857 111.558 164.515C111.558 167.472 111.449 170.429 111.339 173.386C111.229 178.096 111.12 182.806 110.901 187.515C110.682 192.773 110.353 197.92 110.024 203.178C109.696 208.764 109.367 214.459 109.038 220.045C108.709 226.616 108.381 233.188 108.162 239.76C108.162 240.417 108.052 240.855 107.395 241.074C104.656 242.388 101.916 243.593 98.9582 245.017C98.8487 244.469 98.7391 244.031 98.7391 243.593C98.52 240.198 98.6295 236.802 99.0678 233.298C99.8348 227.164 100.383 221.031 100.93 214.788C101.259 211.83 101.369 208.764 101.588 205.806C101.916 201.425 101.697 197.154 101.369 192.882C100.93 187.844 100.602 182.806 99.8348 177.767C98.9582 171.086 97.753 164.405 96.6574 157.833C96.4383 156.738 96.3287 155.533 96 154H96.2191Z" fill="#90A25F"/>
<path d="M97.5733 188.927C98.0933 191.028 98.6133 192.953 98.96 195.053C99.48 197.854 100 200.829 100 203.63C100 206.78 99.48 209.931 99.3067 212.906C99.1333 213.781 98.44 214.131 97.7467 213.956C96.0133 213.606 94.28 213.431 92.5467 213.081C90.4667 212.556 88.2133 212.031 86.1333 211.506C81.4533 210.456 77.2933 208.355 73.1333 205.905C71.92 205.205 70.7067 204.155 70.1867 202.93C67.5867 197.679 64.8133 192.428 63.2533 186.827C62.7333 185.077 62.04 183.327 61.6933 181.576C61.3467 179.476 61 177.376 61 175.1C61 173.7 61.8667 173 63.6 173C66.0267 173.175 68.4533 173.35 70.88 173.875C75.7333 175.1 80.5867 176.501 85.44 178.076C87.3467 178.601 89.2533 179.476 90.9867 180.351C94.4533 182.276 96.5333 185.252 98.0933 188.927H97.5733Z" fill="#90A25F"/>
<path d="M128.502 196.606C130.589 196.4 132.51 196.169 134.573 196.13C137.332 196.023 140.259 195.941 142.944 196.338C145.964 196.784 148.91 197.734 151.738 198.323C152.552 198.615 152.788 199.336 152.521 199.982C151.938 201.611 151.522 203.265 150.939 204.894C150.138 206.834 149.312 208.942 148.511 210.882C146.835 215.265 144.226 218.996 141.282 222.678C140.437 223.753 139.257 224.78 138.008 225.11C132.602 226.884 127.171 228.826 121.578 229.544C119.826 229.799 118.049 230.223 116.321 230.311C114.258 230.349 112.195 230.387 110.014 230.065C108.671 229.867 108.124 228.928 108.372 227.25C108.887 224.924 109.402 222.599 110.252 220.324C112.121 215.797 114.158 211.296 116.362 206.819C117.138 205.047 118.25 203.324 119.337 201.77C121.679 198.685 124.829 197.092 128.576 196.102L128.502 196.606Z" fill="#90A25F"/>
</g>
<defs>
<clipPath id="clip0">
<rect width="200" height="400" fill="white"/>
</clipPath>
</defs>
</svg>
